<svg xmlns="http://www.w3.org/2000/svg" version="1.1" xmlns:xlink="http://www.w3.org/1999/xlink" width="512" height="512" x="0" y="0" viewBox="0 0 424.869 300.205" style="enable-background:new 0 0 512 512" xml:space="preserve"><g><path d="M365.135 82.631a7.999 7.999 0 0 0-5.19 10.054c2.27 7.08 3.084 12.276 3.073 15.633 0 2.074-.296 3.42-.582 4.191-.484 1.146-.644 1.151-1.104 1.466-.465.269-1.57.584-3.183.576-2.465.024-5.812-.741-8.35-1.599a43.235 43.235 0 0 1-3.105-1.159c-.369-.154-.651-.28-.827-.361-.089-.039-.149-.069-.183-.085l-.011-.004a7.883 7.883 0 0 0-.876-.356l-6.814-3.428a24.251 24.251 0 0 1-8.085 1.394c-1.606 0-3.226-.164-4.817-.48-7.788-1.552-13.976-6.664-17.219-13.304-.149.021-.299.042-.448.065a8.05 8.05 0 0 0-1.516-.147c-1.784.017-3.232.207-5.034.357-1.755.157-3.679.295-5.539.295-3.252.049-6.2-.569-7.252-1.265-.559-.343-.714-.528-.921-.873-.189-.351-.489-1.052-.497-2.692-.026-2.528.913-7.185 3.931-13.888 2.993-6.709 7.97-15.451 15.514-26.436a7.998 7.998 0 1 0-13.188-9.054c-7.92 11.542-13.368 20.994-16.934 28.962-3.543 7.974-5.295 14.479-5.323 20.416-.009 3.783.8 7.399 2.516 10.47 2.575 4.679 6.929 7.436 10.866 8.733 3.317 1.115 6.535 1.486 9.502 1.589-7.826 22.211-8.807 46.111-9.092 70.053-.013 1.017.11 1.994.345 2.911a12.462 12.462 0 0 0 4.745 8.523l.008.008c.035.025.13.102.27.225.279.237.754.655 1.377 1.252l.07.066c1.32 1.268 3.297 3.326 5.594 6.223 4.597 5.801 10.473 14.934 15.033 27.977 3.45 9.89 6.163 22.038 6.927 36.801.258 4.979.295 10.253.063 15.84a12.47 12.47 0 0 0 .685 4.643c1.641 4.695 6.012 8.148 11.281 8.369 6.9.289 12.726-5.068 13.014-11.965.691-16.403-.677-30.839-3.27-43.383-1.391-6.724-3.126-12.913-5.099-18.551-2.736-7.824-5.895-14.587-9.122-20.362a118.995 118.995 0 0 0-2.777-4.717l11.754 6.939-3.785 3.87c1.377 2.882 3.263 7.19 5.835 13.661 1.837 4.621 2.826 8.913 3.175 12.883l23.8-24.331a12.506 12.506 0 0 0 3.455-10.38 12.506 12.506 0 0 0-6.038-9.124l-30.835-18.203c-.308-20.586 6.839-30.23 18.363-41.495 2.643.629 5.626 1.104 8.836 1.118h.015c4.438 0 9.821-.984 14.278-4.971 2.189-1.965 3.931-4.593 5.006-7.533 1.086-2.951 1.567-6.191 1.57-9.729-.014-5.75-1.245-12.367-3.831-20.5a8.001 8.001 0 0 0-10.054-5.188z" fill="#000" opacity="1" data-original="#000000"></path><path d="m309.693 228.773-.397.405c-4.827 4.934-4.741 12.851.195 17.679a12.425 12.425 0 0 0 6.106 3.274c-1.535-6.84-3.435-14.329-5.599-20.533-.096-.278-.205-.549-.305-.825z" fill="#000" opacity="1" data-original="#000000"></path><ellipse cx="329.873" cy="84.452" rx="22.495" ry="22.496" transform="rotate(-78.7 329.848 84.372)" fill="#000" opacity="1" data-original="#000000"></ellipse><ellipse cx="202.108" cy="74.599" rx="22.495" ry="22.496" transform="rotate(-61.18 202.034 74.645)" fill="#000" opacity="1" data-original="#000000"></ellipse><path d="M137.763 241.768a12.49 12.49 0 0 0 10.564-5.802l26.668-41.999a12.493 12.493 0 0 0 1.018-11.428l-15.961-39.078c6.298-22.893 21.298-28.996 37.646-36.536l23.337 16.721a7.954 7.954 0 0 0 5.97 1.388 7.96 7.96 0 0 0 5.202-3.244l22.745-31.876a7.998 7.998 0 0 0-1.865-11.157 7.996 7.996 0 0 0-11.157 1.865l-18.092 25.351-12.281-8.799c-5.206 2.181-11.146 2.588-16.82.79a24.592 24.592 0 0 1-4.447-1.91c-10.08-5.549-14.705-17.211-11.818-27.861l-1.692-1.649a7.973 7.973 0 0 0-.632-1.303h-.002L159.705 38.2l27.979-24.142c3.342-2.887 3.716-7.939.829-11.283a8.002 8.002 0 0 0-11.283-.831L144.122 30.51a7.996 7.996 0 0 0-1.608 10.215l14.539 23.912c-17.422 18.651-26.918 33.886-35.133 57.008l-32.552 4.576a12.527 12.527 0 0 0-8.136 4.715l-32.335 41.667c-4.232 5.455-3.241 13.308 2.213 17.541a12.443 12.443 0 0 0 7.654 2.624 12.48 12.48 0 0 0 9.885-4.837l29.222-37.66 35.896-5.046 16.661 40.793-23.206 36.546c-3.701 5.828-1.977 13.553 3.852 17.254a12.436 12.436 0 0 0 6.689 1.95z" fill="#000" opacity="1" data-original="#000000"></path><path d="M107.81 185.363c7.409-5.08 12.615-10.386 11.298-12.764-1.346-2.441-9.132-.091-16.432 5.881-22.311 18.234-41.118 40.806-53.152 66.609-3.744 8.46-3.139 8.672 1.257.65 14.032-24.45 34.221-44.744 57.029-60.376z" fill="#000" opacity="1" data-original="#000000"></path><path d="M73.469 272.724c2.105-11.066-8.326-18.137-17.77-20.12-2.344-.493 1.619 2.404 2.637 2.617 7.956 1.672 12.27 8.828 10.367 16.654-1.521 6.253-7.731 9.925-13.466 6.189-1.039-.677-4.7-1.487-2.387.448 5.907 4.94 4.223 12.411-1.542 16.578-2.413 1.743-5.518 2.694-8.485 2.384-4.861-.51-6.59-7.55-7.357-11.42-.186-.931-4.239-3.07-4.479-2.027-1.124 4.912-3.407 9.612-8.565 11.135-5.011 1.479-9.872-1.785-13.114-5.263-3.284-3.522-5.312-8.475-4.659-13.306.847-6.275 6.646-10.125 11.976-12.444.837-.364-.895-1.53-1.108-1.677-7.5-5.16-7.992-13.56-1.819-19.912 2.699-2.778 6.544-4.559 10.344-5.122 5.669-.839 9.132 2.602 11.294 7.489.583 1.316 4.755 2.381 4.496 1.795-4.619-10.438-16.289-15.163-26.521-9.531-4.335 2.386-8.296 7.006-8.563 12.121-.285 5.457 3.008 9.475 7.039 12.607C5.593 264.771.208 269.302.006 276.61c-.162 5.859 3.841 11.495 8.126 15.11 4.333 3.655 9.858 6.444 15.631 6.41 4.748-.027 7.924-2.959 9.863-6.745 3.739 6.529 10.554 10.787 18.697 7.898 4.115-1.461 7.59-5.076 8.656-9.311.82-3.263-.38-6.187-2.324-8.622 6.601 1.984 13.198-.14 14.814-8.626z" fill="#000" opacity="1" data-original="#000000"></path><path d="M43.884 271.139c-1.846 1.344-4.195.064-5.712-1.243-1.984-1.711-3.055-4.105-3.031-6.703.025-2.795-4.83-1.657-4.854.92-.07 7.832 9.26 15.259 16.366 10.089 2.64-1.921-.386-4.797-2.769-3.063zM368.727 36.136a1.504 1.504 0 0 0-1.718-.387l-13.717 5.906-.688-13.353a1.498 1.498 0 0 0-2.695-.825l-8.605 11.418-6.089-11.197a1.498 1.498 0 0 0-1.571-.762 1.493 1.493 0 0 0-1.227 1.24l-2.612 16.117-8.878-3.819a1.503 1.503 0 0 0-1.647.309 1.503 1.503 0 0 0-.334 1.641l4.357 10.579a1.5 1.5 0 0 0 2.775-1.142h-.003l-2.955-7.176 7.266 3.127c.423.18.911.158 1.314-.063.406-.222.685-.621.76-1.077l2.215-13.683 5.106 9.389c.243.449.697.742 1.207.779.511.039.999-.185 1.308-.593l7.522-9.985.589 11.386c.023.491.289.936.706 1.196a1.51 1.51 0 0 0 1.385.105l11.482-4.944-6.566 11.149a1.517 1.517 0 0 0-.051 1.433c.229.452.671.762 1.178.818l9.679 1.088-6.737 4.685c-.432.3-.673.799-.641 1.324.033.526.332.99.799 1.236l9.595 5.039-9.173 1.274a1.499 1.499 0 1 0 .414 2.97l13.796-1.915a1.5 1.5 0 0 0 .492-2.814l-11.54-6.062 7.983-5.552a1.5 1.5 0 0 0-.688-2.724l-11.347-1.274 7.721-13.11a1.499 1.499 0 0 0-.167-1.751zM387.683 69.228c-.637-.351-1.436-.306-2.396.131-.954.438-1.588.938-1.897 1.505-.819 1.504-.55 2.621.805 3.361.454.246 1.149.341 2.075.279.929-.063 1.669-.467 2.226-1.221l.806-1.045c.154-.281.027-.799-.379-1.547-.407-.748-.819-1.235-1.24-1.463zM404.295 50.719c-.252-.605-.623-1.045-1.114-1.316-.457-.245-1.14-.313-2.047-.201-.905.111-1.667.58-2.284 1.403-.612.821-.96 1.301-1.034 1.438-.746 1.364-2.167 3.257-4.264 5.673-1.923 2.24-3.445 4.618-4.556 7.125.402.873 1.22 1.644 2.45 2.317.758-.45 1.385-1.108 1.887-1.966.655-1.144 1.769-2.543 3.34-4.194a196.262 196.262 0 0 0 4.811-5.294c1.704-1.938 2.649-3.08 2.836-3.424.236-.43.228-.953-.025-1.561zM400.25 78.037c-.565-.308-1.079-.421-1.537-.336-.169.04-.375.069-.629.092-1.352.139-2.184.493-2.494 1.059-.375.688-.422 1.411-.141 2.151.281.744.809 1.331 1.584 1.752.739.402 1.686.563 2.841.477 1.153-.078 1.941-.502 2.354-1.264.532-.974.255-1.803-.823-2.486-.373-.745-.762-1.231-1.155-1.445zM420.788 58.233c-.727-.363-1.452-.734-2.172-1.113-1.036-.531-2.167-.764-3.402-.701l.018.008c-1.418-.002-2.716.219-3.895.669-1.18.454-1.946 1.005-2.303 1.657-.591 1.082-.318 1.934.813 2.551 1.74.949 2.982.915 3.739-.094.238-.287.682-.467 1.338-.541.655-.077 1.647.251 2.979.977a4.89 4.89 0 0 1 1.246.965c.374.395.596.727.655.99.063.268-.002.81-.202 1.629-.199.819-.412 1.436-.641 1.853-.321.591-.794 1.11-1.415 1.553-.627.442-1.206.639-1.736.586l-3.028-.378c-1.911-.243-3.226-.371-3.952-.381-.718-.011-1.572.086-2.559.283-1.581 1.116-2.599 1.877-3.049 2.277-.448.4-.834.893-1.148 1.471a4.772 4.772 0 0 0-.554 1.723c-.073.605.061 1.004.406 1.189 1.057.576 1.892.83 2.505.767.608-.066 1.15-.387 1.622-.96.902-1.07 1.761-1.947 2.558-2.628 3.674.612 6.131.956 7.37 1.031 1.232.072 2.539-.267 3.912-1.03 1.373-.761 2.56-2.059 3.556-3.893l.012-.018c.883-1.676 1.35-3.004 1.404-3.979.052-.979-.349-2.283-1.199-3.911-.507-1.011-1.465-1.863-2.878-2.552z" fill="#000" opacity="1" data-original="#000000"></path></g></svg>