<svg xmlns="http://www.w3.org/2000/svg" version="1.1" xmlns:xlink="http://www.w3.org/1999/xlink" width="512" height="512" x="0" y="0" viewBox="0 0 432 432" style="enable-background:new 0 0 512 512" xml:space="preserve" class=""><g><path d="M176 88H80c-17.676 0-32 14.326-32 32v44.168C18.762 187.625 0 223.598 0 264c0 70.691 57.309 128 128 128 21.031 0 40.824-5.168 58.328-14.156-9.172-13.16-16.114-27.935-20.473-43.805C154.531 340.188 141.762 344 128 344c-44.114 0-80-35.886-80-80 0-42.92 34.05-77.782 76.519-79.649l.282-.351h60.461l.133-.141C197.984 183.124 208 172.777 208 160v-40c0-17.673-14.328-32-32-32zm-48 272a8 8 0 1 1 0 16 8 8 0 0 1 0-16zm0-208c-8.84 0-16-7.164-16-16s7.16-16 16-16c8.836 0 16 7.164 16 16s-7.164 16-16 16z" fill="#000" opacity="1" data-original="#000000"></path><path d="M304 43.666h-32c-.129 0-.25.037-.379.037.149-1.231.379-2.435.379-3.703 0-17.602-14.402-32-32-32h-32c-9.606 0-18.16 4.379-24.035 11.137C178.086 12.379 169.535 8 159.926 8h-32c-17.598 0-32 14.398-32 32 0 17.601 14.402 32.001 32 32.001h32c9.61 0 18.16-4.379 24.039-11.138C189.84 67.622 198.394 72 208 72h32c.129 0 .246-.035.375-.039-.145 1.23-.375 2.438-.375 3.705 0 17.6 14.398 32 32 32h32c17.598 0 32-14.4 32-32s-14.402-32-32-32zM159.926 56h-32c-8.82 0-16-7.178-16-16s7.18-16 16-16h32c8.824 0 16 7.178 16 16 0 8.823-7.176 16-16 16zM240 56h-32c-8.824 0-16-7.178-16-16s7.176-16 16-16h32c8.82 0 16 7.178 16 16 0 8.823-7.18 16-16 16zm64 35.667h-32c-8.824 0-16-7.178-16-16s7.176-16 16-16h32c8.82 0 16 7.178 16 16s-7.18 16-16 16zM396.676 207.876C390.516 222.048 376.41 232 360 232h-8.496C371.11 246.594 384 269.739 384 296c0 44.114-35.886 80-80 80s-80-35.886-80-80c0-42.92 34.05-77.782 76.519-79.649l.282-.351h60.461l.133-.141C373.984 215.124 384 204.777 384 192v-40c0-17.674-14.328-32-32-32h-96c-17.676 0-32 14.326-32 32v44.168c-29.238 23.457-48 59.43-48 99.832 0 70.691 57.309 128 128 128s128-57.309 128-128c0-34.187-13.484-65.166-35.324-88.124zM304 152c8.836 0 16 7.164 16 16s-7.164 16-16 16c-8.84 0-16-7.164-16-16s7.16-16 16-16zm0 256a8 8 0 1 1 0-16 8 8 0 0 1 0 16z" fill="#000" opacity="1" data-original="#000000"></path></g></svg>