<svg xmlns="http://www.w3.org/2000/svg" version="1.1" xmlns:xlink="http://www.w3.org/1999/xlink" width="512" height="512" x="0" y="0" viewBox="0 0 512 512" style="enable-background:new 0 0 512 512" xml:space="preserve"><g><path d="M501.965 161.846a14.995 14.995 0 0 0-16.678 4.784C462.729 194.828 429.081 211 392.969 211h-31.122c-6.869-16.152-17.355-30.454-30.847-42.04V155C331 69.532 261.467 0 176 0a14.998 14.998 0 0 0-9.37 26.713C194.828 49.271 211 82.92 211 119.031v31.123c-16.153 6.868-30.454 17.354-42.04 30.846h-13.961C69.532 181 0 250.532 0 336a15 15 0 0 0 26.713 9.37C49.271 317.172 82.919 301 119.031 301h31.122c6.869 16.152 17.355 30.454 30.847 42.04V357c0 85.468 69.533 155 155 155a14.998 14.998 0 0 0 9.37-26.713C317.172 462.729 301 429.08 301 392.969v-31.122c16.152-6.869 30.454-17.355 42.04-30.847H357c85.468 0 155-69.532 155-155a15 15 0 0 0-10.035-14.154zM256 296c-22.056 0-40-17.944-40-40s17.944-40 40-40 40 17.944 40 40-17.944 40-40 40z" fill="#000" opacity="1" data-original="#000000"></path></g></svg>