<svg xmlns="http://www.w3.org/2000/svg" version="1.1" xmlns:xlink="http://www.w3.org/1999/xlink" width="512" height="512" x="0" y="0" viewBox="0 0 508.455 508.455" style="enable-background:new 0 0 512 512" xml:space="preserve" class=""><g><path d="m378.063 118.297 97.084-97.084L453.934 0 432.72 21.213 411.507 0l-21.213 21.212 21.213 21.213-176.672 176.673 127.279 127.279 21.213-21.213-63.64-63.64 79.588-79.588zM213.622 240.311l-31.821 31.821-21.213-21.213 42.427-42.427-21.213-21.213-84.854 84.853 21.213 21.213 21.214-21.214 21.213 21.214-27.262 27.262 67.615 67.615 48.755-14.28 27.564-27.564 21.216 21.216-23.943 23.938.002 35.445 10.986-4.01 55.385-55.372-127.284-127.284zM33.309 420.624l87.831 87.831 59.103-98.506-68.129-68.13z" fill="#000" opacity="1" data-original="#000000" class=""></path><path d="m211.336 416.437-26.805 44.675v20.629h60.008l-.005-75.028z" fill="#000" opacity="1" data-original="#000000" class=""></path></g></svg>