<svg xmlns="http://www.w3.org/2000/svg" version="1.1" xmlns:xlink="http://www.w3.org/1999/xlink" width="512" height="512" x="0" y="0" viewBox="0 0 43.349 43.349" style="enable-background:new 0 0 512 512" xml:space="preserve" fill-rule="evenodd" class=""><g><path d="M0 4.065h4.4L.638 13.262H0V4.065zm5.233 0h6.664l-3.765 9.197H1.47zm7.496 0h6.663l-3.764 9.197H8.965zm7.496 0h6.663l-3.764 9.197h-6.663zm7.496 0h6.663l-3.764 9.197h-6.663zm7.496 0h6.663l-3.764 9.197h-6.663zm7.496 0h.636v9.197h-4.4zM0 17.116h4.4L.638 26.313H0v-9.197zm5.233 0h6.664l-3.765 9.197H1.47zm7.496 0h6.663l-3.764 9.197H8.965zm7.496 0h6.663l-3.764 9.197h-6.663zm7.496 0h6.663l-3.764 9.197h-6.663zm7.496 0h6.663l-3.764 9.197h-6.663zm7.496 0h.636v9.197h-4.4zM5.965 36.284h2.99c1.649 0 2.999 1.35 2.999 3H2.965c0-1.65 1.35-3 3-3zM6.122 13.262h2.675v3.854H6.122z" fill="#000" opacity="1" data-original="#000000"></path><path d="M6.122 26.313h2.675v9.974H6.122zM34.395 36.284h2.99c1.65 0 2.999 1.35 2.999 3h-8.989c0-1.65 1.35-3 3-3zM34.552 13.262h2.675v3.854h-2.675z" fill="#000" opacity="1" data-original="#000000"></path><path d="M34.552 26.313h2.675v9.974h-2.675z" fill="#000" opacity="1" data-original="#000000"></path></g></svg>