<svg xmlns="http://www.w3.org/2000/svg" version="1.1" xmlns:xlink="http://www.w3.org/1999/xlink" width="512" height="512" x="0" y="0" viewBox="0 0 32 32" style="enable-background:new 0 0 512 512" xml:space="preserve" class=""><g><circle cx="6" cy="22" r="4" fill="#000" opacity="1" data-original="#000000" class=""></circle><path d="M8 31a2.772 2.772 0 0 0 .18 1H1a1.003 1.003 0 0 1-1-1v-1a5.93 5.93 0 0 1 1.54-4A5.947 5.947 0 0 0 6 28a5.881 5.881 0 0 0 2.41-.51A7.86 7.86 0 0 0 8 30zM30 0h-5a2.002 2.002 0 0 0-2 2v3.764l-.894 1.789a1 1 0 0 0 1.449 1.279L26.303 7H30a2.002 2.002 0 0 0 2-2V2a2.002 2.002 0 0 0-2-2z" fill="#000" opacity="1" data-original="#000000" class=""></path><circle cx="16" cy="5" r="4" fill="#000" opacity="1" data-original="#000000" class=""></circle><path d="M22 13v1a3.009 3.009 0 0 1-3 3h-6a3.009 3.009 0 0 1-3-3v-1a5.93 5.93 0 0 1 1.54-4 5.973 5.973 0 0 0 8.92 0A5.93 5.93 0 0 1 22 13z" fill="#000" opacity="1" data-original="#000000" class=""></path><circle cx="16" cy="22" r="4" fill="#000" opacity="1" data-original="#000000" class=""></circle><path d="M22 30v1a1.003 1.003 0 0 1-1 1H11a1.003 1.003 0 0 1-1-1v-1a5.93 5.93 0 0 1 1.54-4 5.973 5.973 0 0 0 8.92 0A5.925 5.925 0 0 1 22 30z" fill="#000" opacity="1" data-original="#000000" class=""></path><circle cx="26" cy="22" r="4" fill="#000" opacity="1" data-original="#000000" class=""></circle><path d="M32 30v1a1.003 1.003 0 0 1-1 1h-7.18a2.772 2.772 0 0 0 .18-1v-1a7.86 7.86 0 0 0-.41-2.51A5.881 5.881 0 0 0 26 28a5.947 5.947 0 0 0 4.46-2A5.925 5.925 0 0 1 32 30z" fill="#000" opacity="1" data-original="#000000" class=""></path></g></svg>