<svg xmlns="http://www.w3.org/2000/svg" version="1.1" xmlns:xlink="http://www.w3.org/1999/xlink" width="512" height="512" x="0" y="0" viewBox="0 0 512 512" style="enable-background:new 0 0 512 512" xml:space="preserve"><g><path fill-rule="evenodd" d="m468.37 66.7-76.33 9.18c-2.12.26-4 1.33-5.35 3.03s-1.92 3.8-1.67 5.92l4.49 37.43c.29 2.12 1.35 4.02 3.02 5.35 1.72 1.34 3.84 1.93 5.92 1.67l76.33-9.18c4.41-.53 7.6-4.55 7.07-8.95l-4.53-37.43c-.54-4.4-4.54-7.55-8.95-7.02zm-96.18 299.8v70.22c0 7.47 6.04 13.55 13.52 13.55h.65c7.84 0 14.21-6.37 14.21-14.2V366.5zm-39.12 31.98v38.24c0 7.47 6.08 13.55 13.56 13.55 7.47 0 13.56-6.08 13.56-13.55V366.5h-26.42zm-69.02 5.96v75.66c0 6.3 5.1 11.42 11.39 11.42 6.33 0 11.43-5.12 11.43-11.42v-75.66zm-34.87 0v75.66c0 6.3 5.15 11.42 11.43 11.42 6.29 0 11.43-5.12 11.43-11.42v-75.66zm-76.49-37.94v70.94c0 7.57 6.17 13.73 13.72 13.73 7.47 0 13.64-6.2 13.76-13.82l.53-38.86-.69-31.99zm-12.01 70.94V366.5h-27.44v70.94c0 7.57 6.17 13.73 13.72 13.73 7.59 0 13.72-6.16 13.72-13.73zm54.89-136.07c6.94-7.07 15.93-10.66 26.75-10.66h17.36c-6.7-1.98-12.9-5.09-18.42-9.11-9.96 4.51-18.54.14-26.18-3.78-5.8-2.97-11.8-6.04-19.07-6.04h-58.89c-7.23 0-13.4 5.38-19.4 10.59-7.72 6.73-18.3 15.96-30.75 6.94-1.76-1.28-4.49-3.06-7.19-4.77-2.65-1.71-5.39-3.47-7.51-4.96-2.45-1.74-5.55-2.03-8.25-.76-2 .92-3.35 2.49-3.47 4.09-.2 2.23 1.8 4.99 5.47 7.56 1.88 1.29 3.84 2.75 5.92 4.29 9.96 7.36 24.99 18.48 32.63 13.4 4.41-2.92 14.7-9.76 25.81-2.87a5.945 5.945 0 0 1 2.86 5.1v44.11h66.61c.12-24.72 5.43-42.58 15.72-53.13zm96.91 1.36h.04c7.51 0 13.35 2.22 17.85 6.8 8.21 8.4 12.09 24.88 11.56 49l-.86 39.78c-.16 7.69-9.72 7.84-10.78 7.85-3.84-.02-11.11-1.67-11.19-7.79l-.61-52.42a5.99 5.99 0 0 0-6-5.93h-.04c-3.35.04-6 2.75-5.96 6.06l.53 46.36h-58.36l-.37-46.47c0-3.3-2.7-5.95-5.96-5.95h-.08a5.958 5.958 0 0 0-5.92 6.04l.37 52.42c.04 5.51-7.07 7.6-11.88 7.67-4.41.07-11.97-1.52-12.09-7.85l-.86-39.02c-.49-23.67 3.76-40.79 12.29-49.53 4.66-4.75 10.58-7.05 18.17-7.05zm104.22-30.94h-58.89c-7.31 0-13.27 3.07-19.07 6.04-7.64 3.92-16.21 8.29-26.18 3.78a60.646 60.646 0 0 1-18.46 9.12H292.52c10.74 0 19.64 3.5 26.38 10.41 10.17 10.37 15.11 27.86 15.07 53.37h66.61V310.4c0-2.08 1.06-4.01 2.86-5.1 11.11-6.89 21.4-.05 25.81 2.87 7.64 5.09 22.67-6.04 32.63-13.4 2.08-1.54 4.04-3 5.92-4.29 3.68-2.57 5.68-5.33 5.47-7.56-.16-1.61-1.47-3.17-3.47-4.09-2.74-1.26-5.8-.98-8.29.76-2.08 1.49-4.82 3.25-7.47 4.96-2.7 1.72-5.47 3.5-7.23 4.77-12.41 9.02-22.99-.21-30.75-6.94-5.97-5.21-12.13-10.59-19.36-10.59zm-29.45-110.43c-25.52 0-46.31 20.77-46.31 46.31s20.79 46.31 46.31 46.31c25.56 0 46.31-20.77 46.31-46.31s-20.74-46.31-46.31-46.31zm-110.34 22.42c26.87 0 48.72 21.86 48.72 48.72 0 26.87-21.85 48.72-48.72 48.72s-48.72-21.85-48.72-48.72 21.85-48.72 48.72-48.72zm-110.35-22.42c-25.57 0-46.31 20.77-46.31 46.31s20.75 46.31 46.31 46.31c25.52 0 46.31-20.77 46.31-46.31s-20.78-46.31-46.31-46.31zM61.45 271.31l16.46-129.38-5.72-.65-16.13 126.68c1.1.51 2.16 1.11 3.14 1.82.66.47 1.44.99 2.25 1.53zm53.22-137.28c4.41.5 8.41-2.68 8.9-7.09l4.25-37.46c.53-4.41-2.65-8.4-7.07-8.9L44.34 71.9c-.29-.03-.61-.05-.9-.05-1.8 0-3.55.61-5.02 1.76a8.024 8.024 0 0 0-2.98 5.37l-4.25 37.46c-.25 2.12.37 4.22 1.72 5.91s3.27 2.75 5.35 2.99zm119.86 42.04v-30.66h-5.76v33.3c1.88-.98 3.8-1.86 5.76-2.64zm43.61-50.7v-37.7c0-4.44-3.63-8.05-8.05-8.05h-76.9c-4.41 0-8.04 3.61-8.04 8.05v37.7c0 4.43 3.63 8.05 8.04 8.05h76.9c4.42-.01 8.05-3.62 8.05-8.05zm12.01-17.12V87.66c0-11.05-8.98-20.05-20.05-20.05h-15.19V46.04c0-6.9 5.59-12.51 12.5-12.51h142.93c6.9 0 12.54 5.61 12.54 12.51v14.05l-32.26 3.88c-5.31.64-10.05 3.31-13.35 7.53a20.048 20.048 0 0 0-4.17 14.76l2.65 21.99zm46.39 49.87c-2 1.24-3.88 2.61-5.72 4.07v-41.95h5.72zm104.34-21.84 14.58 132.93c-.29.19-.57.37-.86.58-1.27.89-2.86 1.93-4.53 3.01l-14.91-135.84z" clip-rule="evenodd" fill="#000" opacity="1" data-original="#000000"></path></g></svg>