<svg xmlns="http://www.w3.org/2000/svg" version="1.1" xmlns:xlink="http://www.w3.org/1999/xlink" width="512" height="512" x="0" y="0" viewBox="0 0 260.518 217.631" style="enable-background:new 0 0 512 512" xml:space="preserve" class=""><g><path d="M29.412 162.167 2.547 197.526c-4.176 5.497-3.106 13.339 2.391 17.515a12.441 12.441 0 0 0 7.553 2.547c3.773 0 7.503-1.702 9.962-4.938l29.6-38.959a12.5 12.5 0 0 0 2.535-8.117l-.587-13.218-26.266-27.941z" fill="#000" opacity="1" data-original="#000000"></path><path d="M56.882 110.432c-.969-7.229-.664-14.966.211-22.549a10.357 10.357 0 0 1-.716-.938l-18.25-27.25c-3.159-4.72-1.892-11.131 2.826-14.291a10.264 10.264 0 0 1 5.725-1.742c1.012 0 1.997.164 2.94.444l.05-1.297 11.308-.373c-1.755-3.608-4.541-6.341-8.217-7.258-2.203-.549-4.662-.643-7.184-.236a7.987 7.987 0 0 0-3.292.816c-6.207 2.09-12.298 7.34-15.472 16.57-6.805 20.173-8.268 33.306-5.682 55.521.95 4.887 2.631 8.436 4.764 11.015.356.518.742 1.022 1.186 1.494l35.474 37.735 9.963 49.503c1.194 5.937 6.41 10.037 12.24 10.036.817 0 1.647-.08 2.479-.248 6.769-1.361 11.15-7.952 9.788-14.72l-10.666-53a12.507 12.507 0 0 0-3.146-6.096l-26.277-27.952c.079-1.493.065-3.204-.052-5.184zM128.45 57.618a7.978 7.978 0 0 0-1.799-2.211c.188 2.428.808 5.992 1.739 9.991a7.987 7.987 0 0 0 .06-7.78zM107.507 61.948a25.7 25.7 0 0 1-1.835-.055c.123 1.184.05 2.391-.249 3.581a10.214 10.214 0 0 1-4.36 6.101l-.271.733-.691 1.897-2.472-.553-19.922 11.921 1.614 1.59a7.993 7.993 0 0 0 5.616 2.3 7.983 7.983 0 0 0 3.842-.984l26.924-14.753c-1.154-3.565-2.486-8.746-3.28-11.948-1.393.081-3.297.17-4.916.17zM100.018 22.5c0-12.427-10.072-22.5-22.5-22.5-12.426 0-22.5 10.073-22.5 22.5 0 8.515 4.731 15.924 11.707 19.745l22.852-.754c6.274-3.992 10.441-11.003 10.441-18.991z" fill="#000" opacity="1" data-original="#000000"></path><path d="m179.354 41.776-.013-1.438-49.135-1.639.017 1.83-3.857.034c-.24-2.82-.631-5.089-.631-5.089l-25.879-1.331-4.094 9.445-43.88 1.448-.002.049a10.286 10.286 0 0 1 3.363 3.144l12.229 18.262c3.76-1.613 7.912-3.777 11.887-5.914l10.788-6.455a10.289 10.289 0 0 1 5.28-1.462c3.607 0 6.997 1.921 8.847 5.013.355.593.646 1.212.873 1.849 2.142.357 9.051-.167 9.051-.167s3.53 14.6 4.856 16.678c1.325 2.078 9.122-2.437 9.122-2.437s-5.932-20.062-3.083-22.702c.505-.467.848-1.255 1.077-2.23l4.129-.039.017 1.83 49.096-2.542-.013-1.437 25.561-.236-.043-4.701zm-77.351-1.026.064-1.999 19.143.616-.064 1.999zM239.659 38.796l11.956-11.5-18.073 4.75 3.142-8.5-16.166 9.166 1-7-12.167 14.334-.05 1.341 7.883-5.425-.833 5.417 12.667-7.833-1.834 4.666 9.5-2.666-4.166 5 10 1-8.334 3.166 5.834 6-9-2.166 4.666 10-15.333-8.167.333 5.667-11.593-9.083-.115 3.083 13.5 15.375 1.125-9.5 19.394 10.875-6.673-12.5 16.362 1.916-12.191-9.666 20.025-5.5z" fill="#000" opacity="1" data-original="#000000"></path><path d="M99.542 69.827a8 8 0 0 0-8.215-13.731L67.35 70.444 53.332 49.51a8.002 8.002 0 0 0-13.295 8.905l18.25 27.25a7.996 7.996 0 0 0 10.755 2.413z" fill="#000" opacity="1" data-original="#000000"></path></g></svg>