<svg xmlns="http://www.w3.org/2000/svg" version="1.1" xmlns:xlink="http://www.w3.org/1999/xlink" width="512" height="512" x="0" y="0" viewBox="0 0 136.09 249.414" style="enable-background:new 0 0 512 512" xml:space="preserve" class=""><g><path d="m122.278 87.897-.925 4.491-5.534 1.633c3.182 10.716 5.333 28.243 3.708 56.033a8 8 0 0 0 7.994 8.467 8 8 0 0 0 7.979-7.533c1.534-26.216.078-46.772-4.326-61.497l-5.144 1.518zM98.287 94.731l-1.715 4.968-10.488 3.094-17.105-5.047-2.331-8.253-5.41 5.97-2.2-.649v40.166h6.859v2.75h1.917v-2.75h10.833v2.75h1.917v-2.75h13v2.75h1.916v-2.75h10.834v2.75h1.916v-2.75h4.9V94.814l-11.099 3.275zM66.524 23.48h2.206v2.417h2V23.48h4.151l1.425 2.209 1.681-1.084-.726-1.125h7.677l.575 2.173 1.934-.512-.44-1.661h2.578l.061 2.855 2-.043-.06-2.812h5.974l.348 2.159 1.975-.318-.297-1.841h6.057a22.59 22.59 0 0 0-4.505-5.604c.153-.814.284-1.722.355-2.69.258-3.499-.266-7.735-3.365-10.766 0 0-.339 3.829-2.927 7.12a11.827 11.827 0 0 1-1.736 1.801c-.164-.057-.327-.114-.493-.167a16.963 16.963 0 0 1-.256-2.47C92.55 4.696 95.503 0 95.503 0c-6.519.82-10.89 5.73-13.553 10.146a34.82 34.82 0 0 0-1.44 2.646c-.124.032-.245.068-.368.102a12.781 12.781 0 0 1-.715-2.184c-.753-3.231-.162-5.966-.162-5.966-3.681 1.886-5.448 5.514-6.289 8.812a23.816 23.816 0 0 0-.577 3.184 22.597 22.597 0 0 0-5.875 6.74z" fill="#000" opacity="1" data-original="#000000" class=""></path><path d="M75.48 61.98h-7.804c-1.954.537-20.826 6.181-26.354 24.479l18.958 5.594 7.783-8.587 3.353 11.872 14.668 4.328 8.156-2.406 2.684-7.781 5.863 5.259 15.99-4.717 1.571-7.624 6.365 5.281 4.133-1.219c-5.536-18.341-24.398-23.945-26.353-24.479h-6.924a55.765 55.765 0 0 0 2.646-2.963c2.663-3.201 5.112-6.919 6.706-11.004 1.203-3.082 1.924-6.369 1.874-9.8a1.148 1.148 0 0 0-.39-.836c.113-.912.177-1.84.177-2.783a22.6 22.6 0 0 0-.533-4.865h-.948l.345-1.332-1.936-.502-.476 1.834h-2.093l.363-3.049-1.986-.236-.391 3.285h-4.89l.42-2.049-1.959-.402-.503 2.451H81.65l.848-2.228-1.869-.711-1.119 2.94h-6.177l.689-2.296-1.916-.574-.861 2.87h-3.577l-.729-2.452-1.917.57.559 1.882h-1.464a22.538 22.538 0 0 0-.533 4.865c0 .93.063 1.844.173 2.744-.3.244-.46.621-.42 1.007.04.399.605 5.515 3.071 11.32 1.324 3.117 3.199 6.428 5.836 9.32a25.368 25.368 0 0 0 3.236 2.994zm10.583-19.225c9.371 0 17.178-1.985 20.397-2.941-.187 3.104-1.057 6.086-2.334 8.883-2.893 1.314-11.939 4.947-23.147 4.741 0 0 9.857 4.481 18.959 2.205-5.322 7.1-12.231 12.043-14.062 13.06l-.014-.044c-.453-1.452-1.295-4.156-5.929-6.528a20.435 20.435 0 0 1-1.767-1.053c5.056.78 10.13-1.518 10.13-1.518-6.754.124-13.321-2.446-15.314-3.302-1.648-2.055-2.942-4.284-3.948-6.465 8.919 1.92 18.32-2.355 18.32-2.355-11.569.212-18.787-3.299-20.737-4.385a43.012 43.012 0 0 1-.718-3.171c3.353.981 11.014 2.873 20.164 2.873zM119.377 202.677l-2.131-22.664c-1.518.325-3.44.729-5.601 1.162-.497.099-1.463.293-4.729-3.531-.687 3.086-1.638 4.754-2.837 4.967a220.377 220.377 0 0 1-8.557 1.367l1.952 20.767c3.664-2.2 9.395-3.207 14.177-3.207 3.113-.002 5.709.396 7.726 1.139z" fill="#000" opacity="1" data-original="#000000" class=""></path><path d="M111.485 249.414c.407 0 .818-.019 1.232-.058 7.148-.672 12.398-7.012 11.726-14.16l-.331-3.516-6.109 1.151-.451-2.395 6.331-1.193-.377-4.011-5.503 1.037-.451-2.395 5.725-1.079-.452-4.809-4.821.909-.451-2.395 5.044-.95-.697-7.415c-.672-7.149-26.558-4.714-25.886 2.434l2.544 27.063c.632 6.733 6.296 11.782 12.927 11.782zM65.855 178.378c-2.165 3.42-3.075 3.241-3.611 3.137-2.86-.56-5.412-1.093-7.321-1.502l-2.131 22.664c2.016-.743 4.612-1.141 7.726-1.141 4.782 0 10.512 1.006 14.177 3.207l1.952-20.767a222.267 222.267 0 0 1-8.697-1.392c-.575-.101-1.323-.234-2.095-4.206z" fill="#000" opacity="1" data-original="#000000" class=""></path><path d="m50.27 208.134-.697 7.415 5.044.95-.451 2.395-4.821-.909-.452 4.809 5.725 1.079-.451 2.395-5.503-1.037-.377 4.011 6.331 1.193-.451 2.395-6.109-1.151-.331 3.516c-.672 7.148 4.578 13.488 11.726 14.16.414.039.825.058 1.232.058 6.631 0 12.294-5.049 12.928-11.784l2.544-27.063c.671-7.147-25.215-9.581-25.887-2.432zM57.438 139.417l.659.616 1.229-1.315-2.992-2.798-2.986-2.792-1.229 1.315.659.616-.665.665c-.267-19.683 1.641-32.962 4.236-41.704l-15.354-4.53c-4.404 14.724-5.859 35.281-4.326 61.497.003.057.014.112.018.169l-2.089 2.089-4.714-4.408-1.23 1.315 15.338 14.344 1.229-1.315-4.714-4.409.849-.97a7.936 7.936 0 0 0 3.766.705 8 8 0 0 0 7.519-8.453 356.23 356.23 0 0 1-.25-4.867l4.336-4.957zM31.634 155.751l-10.246 10.956S11.519 177.748 0 196.166c17.605-12.725 27.96-23.309 27.961-23.311l10.246-10.956zM60.897 140.23h-1.269l-6.603 37.017c1.677.371 5.168 1.128 9.343 1.948.609-.558 1.979-2.65 3.097-4.755l1.685-3.17.471 3.56c.283 2.139.78 4.703 1.136 5.563 3.887.688 7.314 1.214 10.199 1.565.544-.306 1.901-1.833 3.003-3.392l1.154-1.633.831 1.819c.77 1.686 1.81 3.374 2.297 3.744 3.644-.021 9.457-.734 17.284-2.124.484-.559 1.201-3.083 1.568-5.561l.393-2.651 1.651 2.111c1.515 1.938 3.525 4.16 4.284 4.601a420.886 420.886 0 0 0 7.723-1.626l-6.604-37.017h-.393v-2.5h-1.917v2.5h-8.167v-3.333h-1.917v3.333H87.98v-3.333h-1.917v3.333H74.73v-3.333h-1.917v3.333h-10v-3.333h-1.917v3.334z" fill="#000" opacity="1" data-original="#000000" class=""></path></g></svg>