<svg xmlns="http://www.w3.org/2000/svg" version="1.1" xmlns:xlink="http://www.w3.org/1999/xlink" width="512" height="512" x="0" y="0" viewBox="0 0 265.231 252.433" style="enable-background:new 0 0 512 512" xml:space="preserve" class=""><g><path d="M150.588 241.316c.689 6.795 6.756 11.742 13.549 11.053 6.791-.689 11.742-6.752 11.053-13.548l-1.565-15.433-25.239-3.78zM100.931 204.788l2.66-26.202 24.604 2.498-2.66 26.201zM97.449 238.821c-.689 6.795 4.261 12.859 11.053 13.548 6.793.689 12.86-4.257 13.549-11.053L125 212.249l-24.602-2.495zM99.274 185.307l1.867-18.406a2.007 2.007 0 0 0-1.788-2.192l-1.99-.202a2.007 2.007 0 0 0-2.192 1.788l-1.867 18.406a2.007 2.007 0 0 0 1.788 2.192l1.99.202a2.005 2.005 0 0 0 2.192-1.788zM147.036 65.835h-21.451l10.555 14.812zM150.938 136.596h-43.122l-3.753 37.01 24.602 2.495 2.679-26.416h9.952l3.101 30.584zM155.995 35.838c-.848 6.566-9.33 15.5-19.675 15.5s-18.827-8.934-19.675-15.5a76.85 76.85 0 0 0-2.82 1.597c-.001.067-.005.134-.005.201 0 12.428 10.074 22.5 22.5 22.5s22.5-10.072 22.5-22.5c0-.068-.005-.134-.005-.201a79.232 79.232 0 0 0-2.82-1.597zM107.221 70.117c5.038 7.682 7.801 13.061 6.993 25.281-.091 1.375-1.674 2.115-3.678 3.05-.757.354-1.994.931-2.34 1.271-1.311 13.972.031 30.36.422 34.578h22.799V87.069l3.29-4.472-11.254-15.792c-1.955-.104-9.24-.213-16.232 3.312zm8.224 60.08h-3v-8h3zm7 0h-3v-8h3z" fill="#000" opacity="1" data-original="#000000"></path><path d="M133.716 87.824v46.473h17.567l9.871-65.91c-5.496-1.757-10.436-1.669-11.976-1.581zM109.509 65.667l7.934-2.258a3.248 3.248 0 0 0 2.236-4.015 3.249 3.249 0 0 0-4.015-2.237l-7.934 2.258a3.25 3.25 0 0 0 1.779 6.252zM156.975 57.157a3.249 3.249 0 0 0-4.015 2.237 3.25 3.25 0 0 0 2.236 4.015l6.429 1.829.971-6.482zM143.022 209.704c-.489 3.264 1.781 6.334 5.045 6.823l86.7 12.985c3.264.489 6.334-1.782 6.823-5.045l23.575-157.411c.489-3.264-1.781-6.334-5.045-6.823l-86.7-12.985c-3.264-.489-6.334 1.782-6.823 5.045zm43.08-131.233 52.745 7.9c3.264.489 5.534 3.559 5.045 6.823l-1.827 12.197c-.489 3.264-3.559 5.534-6.823 5.045l-52.745-7.9c-3.264-.489-5.534-3.559-5.045-6.823l1.827-12.197c.489-3.264 3.559-5.534 6.823-5.045zM62.544 138.284a7.999 7.999 0 0 0 6.294 12.93c1.4 0 2.788-.376 4.018-1.089l3.344 3.839a2.758 2.758 0 0 0 3.88.268l1.301-1.133a2.758 2.758 0 0 0 .268-3.88l-3.861-4.434 22.008-27.955a8.01 8.01 0 0 0 1.602-3.612c1.651-9.742 4.856-16.779 7.876-21.571V96.5l.289-.136c.766-.357 2.015-.941 2.367-1.288.721-11.297-1.714-16.179-6.496-23.489-4.061 3.532-15.171 14.926-19.438 36.906l-18.902 24.011L6.122 62.496a2.758 2.758 0 0 0-3.88-.268L.941 63.361a2.758 2.758 0 0 0-.268 3.88zM129.228 33.666l.837-.836 8.856 8.856-.837.836zM142.662 37.953l-5.66-5.66h-1.673l6.497 6.497zM145.559 44.573l-12.28-12.28h-1.673l13.116 13.116z" fill="#000" opacity="1" data-original="#000000"></path><path d="M111.375 35.871c3.342-1.994 10.162-5.764 13.941-5.764h22.008c3.781 0 10.599 3.77 13.941 5.764 1.2.716 1.956 1.205 1.956 1.205s2.568-4.646-2.934-21.519C154.786-1.32 136.32.025 136.32.025s-18.466-1.346-23.968 15.531c-5.502 16.873-2.934 21.519-2.934 21.519s.757-.488 1.957-1.204z" fill="#000" opacity="1" data-original="#000000"></path></g></svg>