<svg xmlns="http://www.w3.org/2000/svg" version="1.1" xmlns:xlink="http://www.w3.org/1999/xlink" width="512" height="512" x="0" y="0" viewBox="0 0 609.814 609.814" style="enable-background:new 0 0 512 512" xml:space="preserve"><g><path d="m294.73 215.398-83.223-46.928-35.431-19.975-16.466-9.283-7.103 12.597-12.727 22.574v.005c0 .005-.005.005-.005.005l-.985 1.75c-2.959 5.254-1.095 11.937 4.159 14.901l66.233 37.345 40.419-22.789a5.007 5.007 0 0 1 6.813 1.899l12.622 22.389zM395.629 142.832l3.469 13.716 24.033-13.551-9.942-10.067zM196.625 132.93l-9.942 10.067 24.034 13.551 3.464-13.716z" fill="#000" opacity="1" data-original="#000000"></path><path d="m200.807 244.552 49.294-27.788 10.166 18.034-49.294 27.788zM119.361 109.596l-7.993-4.504-18.565 7.313 18.945 10.682zM120.46 127.996l25.793 14.541 7.103-12.597a4.99 4.99 0 0 1 3.014-2.359 4.97 4.97 0 0 1 3.799.46l17.49 9.862 14.536-14.721a5.013 5.013 0 0 1 6.013-.84l24.214 13.651a5.006 5.006 0 0 1 2.394 5.579l-5.074 20.06 85.168 48.022 85.168-48.022-5.074-20.06a5 5 0 0 1 2.394-5.579l24.214-13.651a5.008 5.008 0 0 1 6.013.84l14.536 14.721 17.49-9.862a4.965 4.965 0 0 1 3.799-.46 4.99 4.99 0 0 1 3.014 2.359l7.103 12.597 25.793-14.541-10.062-17.845a5.01 5.01 0 0 1-.46-3.799c.295-1.06.985-1.92 1.85-2.579-49.044-43.275-111.727-67.093-177.36-67.093-64.983 0-127.182 23.399-176.019 65.923l1.315.74a5.007 5.007 0 0 1 1.899 6.813zM379.558 251.754l19.235 10.842 10.167-18.041-8.323-4.693zM557.361 391.047c9.383-27.668 14.196-56.6 14.196-86.143 0-55.8-16.941-109.082-48.947-154.42l-41.669 23.494c3.694 9.538.005 20.605-9.158 25.773l-60.964 34.376 7.408 4.179a5 5 0 0 1 1.9 6.808l-12.622 22.389 98.054 55.291c6.333 3.569 10.152 10.567 9.732 17.825l-.285 4.854c6.353 1.085 12.002.555 20.595-3.379a5.01 5.01 0 0 1 5.054.525 5.002 5.002 0 0 1 1.979 4.674c-1.34 10.127-5.099 18.24-11.127 24.279z" fill="#000" opacity="1" data-original="#000000"></path><path d="m514.423 355.512-.18 3.064 9.173 6.908c3.224-2.879 5.654-6.473 7.273-10.902-5.454 1.499-10.528 1.769-16.266.93zM141.34 151.25l-30.137-16.996h-.01l-.005-.01-36.811-20.754-7.828 13.871 66.973 37.76zM517.012 112.405l-18.565-7.313-7.993 4.504 7.608 13.491zM498.622 134.254c-.005 0-.005 0-.01.005l-30.137 16.991 7.823 13.871 44.783-25.248c.015-.015.025-.035.04-.045.065-.05.145-.055.215-.1l21.929-12.362-7.823-13.871-36.81 20.755c-.01-.001-.01-.001-.01.004zM403.472 338.391c-2.739 4.989-5.719 9.882-9.148 14.556 7.643-1.035 14.551-3.689 20.865-7.948zM136.161 372.272l.535-.105a5.03 5.03 0 0 1 3.764.77c2.244 1.52 2.244 1.52 20.025 94.63.7 3.659 2.829 6.758 5.998 8.708 3.179 1.959 6.908 2.484 10.527 1.45l35.221-10.017c3.614-1.03 6.523-3.449 8.193-6.813s1.835-7.148.465-10.647l-17.35-44.343a5.002 5.002 0 0 1 2.199-6.173l54.401-30.672a4.987 4.987 0 0 1 4.059-.38 5.017 5.017 0 0 1 2.994 2.764c7.528 17.54 18.32 33.506 31.212 46.173 5.838 5.739 15.051 6.848 22.379 2.719l45.073-25.413c2.789-1.57 4.544-4.309 4.824-7.503.275-3.109-.94-6.018-3.329-7.978-11.657-9.573-50.517-44.618-61.099-93.781a5.003 5.003 0 0 1 2.429-5.409L466.87 191.04c5.254-2.964 7.118-9.647 4.159-14.901l-.98-1.74c-.005-.005-.01-.01-.01-.015s0-.01-.005-.01l-12.727-22.564v-.01l-7.103-12.592-16.466 9.283-35.431 19.975-128.727 72.586-58.005 32.706-102.408 57.745c-3.034 1.71-4.869 5.064-4.669 8.543l1.2 20.62a4.992 4.992 0 0 1-1.979 4.284L3.191 440.669c-3.174 2.389-4.119 6.808-2.204 10.287l31.932 58.03a7.964 7.964 0 0 0 6.773 4.154c2.644.07 5.489-1.29 7.028-3.704l30.447-47.673s0-.005.005-.005l55.735-87.272a5.006 5.006 0 0 1 3.254-2.214zm42.574-29.792 51.966-29.302a4.99 4.99 0 0 1 4.149-.345 5.03 5.03 0 0 1 2.979 2.914l11.612 30.402a5 5 0 0 1-2.214 6.138l-54.421 30.682a5.03 5.03 0 0 1-2.454.645c-.64 0-1.285-.125-1.895-.375a4.998 4.998 0 0 1-2.909-3.239l-9.163-31.777a5.002 5.002 0 0 1 2.35-5.743z" fill="#000" opacity="1" data-original="#000000"></path><path d="M459.147 469.437a23.184 23.184 0 0 1-10.572 15.346 23.236 23.236 0 0 1-18.51 2.554l-35.221-10.017a23.22 23.22 0 0 1-14.416-11.987 23.22 23.22 0 0 1-.82-18.735l15.766-40.304-17.395-9.807c-1.72 2.924-4.174 5.409-7.218 7.128l-45.073 25.413c-11.202 6.313-25.303 4.544-34.296-4.294-12.552-12.332-23.229-27.558-31.112-44.288l-45.848 25.853 15.766 40.304a23.22 23.22 0 0 1-.82 18.735 23.207 23.207 0 0 1-14.416 11.987l-35.221 10.017a23.255 23.255 0 0 1-18.51-2.554 23.16 23.16 0 0 1-10.572-15.346c-7.193-37.68-12.597-65.573-15.471-79.964l-47.663 74.631c50.487 68.302 130.861 109.027 215.799 109.027 86.063 0 167.066-41.589 217.478-111.331l-46.188-72.326c-2.87 14.385-8.269 42.278-15.467 79.958zM78.301 371.577c-6.028-6.033-9.792-14.146-11.127-24.279-.24-1.8.52-3.589 1.979-4.674a5 5 0 0 1 5.054-.525c8.593 3.929 14.241 4.459 20.595 3.374l-.28-4.849c-.42-7.263 3.404-14.261 9.732-17.83l98.054-55.291-12.622-22.389a4.993 4.993 0 0 1 1.9-6.808l7.408-4.179-60.964-34.376c-9.168-5.169-12.857-16.236-9.158-25.773L84.95 149.215c-32.592 45.618-49.842 99.334-49.842 155.694 0 30.222 5.039 59.789 14.851 88.027zM416.413 371.152l5.364-18.595a58.66 58.66 0 0 1-21.624 9.428z" fill="#000" opacity="1" data-original="#000000"></path><path d="m606.624 440.669-100.529-75.72a4.977 4.977 0 0 1-1.979-4.284l1.2-20.62a9.25 9.25 0 0 0-4.669-8.538l-102.408-57.75-28.858-16.271-52.526 29.617c10.967 44.138 46.103 75.775 56.84 84.588 4.454 3.659 6.978 9.108 6.993 14.836l23.389 13.187a4.999 4.999 0 0 1 2.199 6.173l-17.35 44.343c-1.37 3.499-1.205 7.283.465 10.647s4.579 5.788 8.193 6.813l35.221 10.017c3.619 1.035 7.353.51 10.527-1.45 3.169-1.954 5.304-5.049 5.998-8.708 17.78-93.111 17.78-93.111 20.025-94.63a5.052 5.052 0 0 1 3.764-.77l.535.105a4.991 4.991 0 0 1 3.254 2.214l54.206 84.878c.005.01.015.02.02.03l31.962 50.047c1.545 2.404 4.239 3.749 7.028 3.704a7.967 7.967 0 0 0 6.773-4.159l31.932-58.025c1.913-3.46.969-7.884-2.205-10.274zm-173.195-92.451-9.163 31.777a4.987 4.987 0 0 1-2.909 3.239 4.97 4.97 0 0 1-4.349-.27l-54.421-30.682a4.994 4.994 0 0 1-2.214-6.138l11.612-30.402a4.977 4.977 0 0 1 2.979-2.914 5.007 5.007 0 0 1 4.149.345l51.966 29.302a5.01 5.01 0 0 1 2.35 5.743z" fill="#000" opacity="1" data-original="#000000"></path><path d="m379.253 324.735-8.008 20.955 11.122 6.273c4.799-5.888 8.918-11.987 12.452-18.45zM206.343 338.391l-11.717 6.608c6.313 4.259 13.222 6.913 20.865 7.948-3.43-4.679-6.409-9.572-9.148-14.556zM238.565 345.689l-8.008-20.955-15.566 8.778c3.529 6.463 7.653 12.562 12.452 18.45zM79.121 354.582c1.62 4.429 4.049 8.023 7.273 10.902l9.173-6.908-.18-3.064c-5.734.839-10.812.569-16.266-.93zM209.662 361.985c-7.813-1.665-15.036-4.809-21.624-9.428l5.364 18.595z" fill="#000" opacity="1" data-original="#000000"></path></g></svg>