<svg xmlns="http://www.w3.org/2000/svg" version="1.1" xmlns:xlink="http://www.w3.org/1999/xlink" width="512" height="512" x="0" y="0" viewBox="0 0 328.157 328.157" style="enable-background:new 0 0 512 512" xml:space="preserve"><g><path d="M267.169 219.647c19.417-19.417 19.417-51.01 0-70.427l-32.103-32.103 32.103-32.103c19.417-19.417 19.416-51.011 0-70.428C257.763 5.18 245.257 0 231.956 0c-13.302 0-25.808 5.18-35.214 14.586l-32.103 32.103-32.103-32.103C123.129 5.18 110.624 0 97.322 0S71.514 5.18 62.108 14.586c-19.417 19.417-19.417 51.011 0 70.428l32.103 32.103-32.103 32.103c-19.417 19.417-19.417 51.01 0 70.428 9.406 9.406 21.912 14.586 35.214 14.586s25.808-5.18 35.214-14.586l32.103-32.103 32.103 32.103c9.406 9.406 21.912 14.586 35.214 14.586 13.301-.001 25.807-5.181 35.213-14.587zM67.681 299.317c-1.52-1.306-3.374-2.4-5.56-3.28-2.188-.88-4.64-1.692-7.36-2.44a364.766 364.766 0 0 1-5.2-1.44c-1.494-.426-2.734-.893-3.72-1.4-.987-.506-1.733-1.08-2.24-1.72-.508-.64-.76-1.44-.76-2.4 0-3.146 2.346-4.72 7.04-4.72 1.707 0 3.413.24 5.12.72 1.706.48 3.28 1.04 4.72 1.68 1.44.64 2.64 1.254 3.6 1.84.96.587 1.52.987 1.68 1.2l5.76-10.88a67.344 67.344 0 0 0-4.2-2.24 39.43 39.43 0 0 0-4.92-2 44.222 44.222 0 0 0-5.52-1.44 30.643 30.643 0 0 0-5.84-.56c-2.827 0-5.507.4-8.04 1.2-2.534.8-4.76 1.988-6.68 3.56-1.92 1.574-3.44 3.507-4.56 5.8-1.12 2.294-1.68 4.934-1.68 7.92 0 2.134.307 4 .92 5.6a11.753 11.753 0 0 0 2.8 4.24c1.252 1.228 2.84 2.308 4.76 3.24 1.92.934 4.187 1.8 6.8 2.6 1.972.587 3.8 1.12 5.48 1.6 1.68.48 3.132 1 4.36 1.56 1.226.56 2.187 1.188 2.88 1.88.693.694 1.04 1.574 1.04 2.64 0 2.828-2.32 4.24-6.96 4.24-2.188 0-4.348-.292-6.48-.88-2.134-.586-4.067-1.252-5.8-2-1.734-.746-3.188-1.492-4.36-2.24-1.173-.747-1.867-1.252-2.08-1.52l-5.76 11.44a33.687 33.687 0 0 0 5.4 2.96 50.632 50.632 0 0 0 6.04 2.2c2.08.614 4.212 1.08 6.4 1.4 2.187.32 4.32.48 6.4.48 2.72 0 5.36-.308 7.92-.92 2.56-.613 4.826-1.6 6.8-2.96 1.973-1.36 3.56-3.146 4.76-5.36 1.2-2.212 1.8-4.92 1.8-8.12 0-2.612-.414-4.852-1.24-6.72a13.32 13.32 0 0 0-3.52-4.76zM75.24 282.237H92.6v45.28h13.12v-45.28H123v-11.52H75.24zM168.159 303.477a17.427 17.427 0 0 0 2.92-3.88 19.756 19.756 0 0 0 2.48-9.68c0-2.346-.468-4.666-1.4-6.96a20.65 20.65 0 0 0-3.88-6.16 19.68 19.68 0 0 0-5.88-4.4c-2.268-1.12-4.734-1.68-7.4-1.68h-25.6v56.8h13.12v-18.32h8.56l10.88 18.32h14.8l-12.48-21.12a17.39 17.39 0 0 0 3.88-2.92zm-9.64-7.92c-1.12 1.467-2.454 2.2-4 2.2h-12v-15.52h11.6c1.492 0 2.88.693 4.16 2.08 1.28 1.388 1.92 3.254 1.92 5.6 0 2.294-.56 4.174-1.68 5.64zM182.999 270.717h13.12v56.8h-13.12zM255.638 270.717h-14.721l-20.799 24.48v-24.48h-13.12v56.8h13.12v-16.72l5.92-6.16 16.08 22.88h14.96l-22.721-31.44zM274.437 315.997v-12.08h22.4v-10.64h-22.4v-11.04h26.08v-11.52h-39.2v56.8h39.92v-11.52z" fill="#000" opacity="1" data-original="#000000"></path></g></svg>