<svg xmlns="http://www.w3.org/2000/svg" version="1.1" xmlns:xlink="http://www.w3.org/1999/xlink" width="512" height="512" x="0" y="0" viewBox="0 0 512 512" style="enable-background:new 0 0 512 512" xml:space="preserve" class=""><g><path d="M167.332 332.478c0-19.967 13.314-36.883 31.531-42.335-3.457-6.378-5.292-13.554-5.292-21.012 0-7.635 1.935-14.969 5.553-21.459a74.21 74.21 0 0 1-22.295 3.411c-41.009 0-74.254-33.245-74.254-74.254s33.245-74.254 74.254-74.254 74.254 33.245 74.254 74.254a74.205 74.205 0 0 1-3.411 22.295c6.49-3.618 13.824-5.553 21.459-5.553 7.458 0 14.634 1.835 21.012 5.293 5.452-18.218 22.368-31.532 42.335-31.532h21.18v-16.378c0-8.284-6.716-15-15-15h-26.732a140.137 140.137 0 0 0-10.631-25.785l18.868-18.868c5.858-5.858 5.858-15.355 0-21.213l-36.592-36.592c-5.858-5.858-15.355-5.858-21.213 0L243.58 52.272a140.12 140.12 0 0 0-25.877-10.748V15c0-8.284-6.716-15-15-15h-51.749c-8.284 0-15 6.716-15 15v26.523a140.217 140.217 0 0 0-25.877 10.748L91.301 33.496c-5.858-5.858-15.355-5.858-21.213 0L33.496 70.088c-5.858 5.858-5.858 15.355 0 21.213l18.868 18.868a140.067 140.067 0 0 0-10.631 25.785H15c-8.284 0-15 6.716-15 15v51.749c0 8.284 6.716 15 15 15h26.909a140.138 140.138 0 0 0 10.66 25.58l-19.073 19.073c-5.858 5.858-5.858 15.355 0 21.213l36.592 36.592c5.858 5.858 15.355 5.858 21.213 0l19.165-19.165a140.139 140.139 0 0 0 25.488 10.543v27.117c0 8.284 6.716 15 15 15h16.378z" fill="#ffffff" opacity="1" data-original="#000000" class=""></path><path d="M512 376.854v-44.376c0-7.832-6.349-14.18-14.18-14.18h-22.951a124.752 124.752 0 0 0-9.459-22.942l16.198-16.198c5.538-5.538 5.538-14.516 0-20.054l-31.379-31.379c-5.538-5.538-14.516-5.538-20.054 0l-16.116 16.116a124.597 124.597 0 0 0-23.024-9.563v-22.765c0-7.831-6.349-14.18-14.18-14.18h-44.376c-7.832 0-14.18 6.349-14.18 14.18v22.765a124.763 124.763 0 0 0-23.024 9.563l-16.116-16.116c-5.538-5.538-14.516-5.538-20.054 0l-31.379 31.379c-5.538 5.538-5.538 14.516 0 20.054l16.198 16.198a124.613 124.613 0 0 0-9.459 22.942h-22.951c-7.831 0-14.18 6.349-14.18 14.18v44.376c0 7.832 6.349 14.18 14.18 14.18h23.108a124.693 124.693 0 0 0 9.485 22.76l-16.381 16.381c-5.538 5.538-5.538 14.516 0 20.054l31.379 31.379c5.538 5.538 14.516 5.538 20.054 0l16.462-16.462a124.664 124.664 0 0 0 22.678 9.381v23.294c0 7.832 6.349 14.18 14.18 14.18h44.376c7.832 0 14.18-6.349 14.18-14.18v-23.294a124.664 124.664 0 0 0 22.678-9.381l16.462 16.462c5.538 5.538 14.516 5.538 20.054 0l31.379-31.379c5.538-5.538 5.538-14.516 0-20.054l-16.381-16.381a124.664 124.664 0 0 0 9.485-22.76h23.108c7.831 0 14.18-6.348 14.18-14.18zm-153.189 41.107c-38.234 2.444-69.885-29.207-67.441-67.441 2.02-31.603 27.547-57.13 59.15-59.15 38.234-2.444 69.885 29.206 67.441 67.441-2.02 31.603-27.547 57.13-59.15 59.15z" fill="#ffffff" opacity="1" data-original="#000000" class=""></path></g></svg>