<svg xmlns="http://www.w3.org/2000/svg" version="1.1" xmlns:xlink="http://www.w3.org/1999/xlink" width="512" height="512" x="0" y="0" viewBox="0 0 512 512" style="enable-background:new 0 0 512 512" xml:space="preserve"><g><path fill-rule="evenodd" d="M408.245 112.826H103.754c-15.292 0-27.73 12.451-27.73 27.771 0 15.258 12.438 27.709 27.73 27.709h304.491c15.292 0 27.73-12.451 27.73-27.709.001-15.32-12.438-27.771-27.73-27.771zM196.698 79.197h118.603c8.333 0 13.346-9.177 8.841-16.188-31.786-49.473-104.499-49.473-136.285 0-4.504 7.011.508 16.188 8.841 16.188zm178.243 122.738H137.056c-5.788 0-10.507 4.72-10.507 10.508V356.65c0 71.385 58.073 129.446 129.451 129.446s129.449-58.062 129.449-129.446V212.443c0-5.788-4.72-10.508-10.508-10.508zm-88.217 59.856c0-9.289 7.527-16.815 16.811-16.815 9.286 0 16.813 7.525 16.813 16.815V400.74c0 9.283-7.526 16.815-16.813 16.815-9.284 0-16.811-7.532-16.811-16.815zm-78.262-16.815c9.287 0 16.813 7.525 16.813 16.815V400.74c0 9.283-7.527 16.815-16.813 16.815-9.284 0-16.813-7.532-16.813-16.815V261.791c.001-9.289 7.53-16.815 16.813-16.815z" clip-rule="evenodd" fill="#ffffff" opacity="1" data-original="#000000"></path></g></svg>