<svg xmlns="http://www.w3.org/2000/svg" version="1.1" xmlns:xlink="http://www.w3.org/1999/xlink" width="512" height="512" x="0" y="0" viewBox="0 0 512 512" style="enable-background:new 0 0 512 512" xml:space="preserve"><g><path d="M60 31h60v60H60zM392 31h60v60h-60zM452 271h-60v60H120v-60H60v180H30v30h120v-30h-30v-60h272v60h-30v30h120v-30h-30zM113.789 241l121-120h-78.578l-120 120zM234.789 241l121-120h-78.578l-121 120zM0 121v113.789L113.789 121zM277.211 241h78.578l120-120h-77.578zM398.211 241H512V127.211z" fill="#ffffff" opacity="1" data-original="#000000"></path></g></svg>