<svg xmlns="http://www.w3.org/2000/svg" version="1.1" xmlns:xlink="http://www.w3.org/1999/xlink" xmlns:svgjs="http://svgjs.com/svgjs" width="512" height="512" x="0" y="0" viewBox="0 0 512 512" style="enable-background:new 0 0 512 512" xml:space="preserve" class=""><g><path d="m63.46 84.629-52.37 23.5A18.816 18.816 0 0 0 0 125.269c0 7.38 4.352 14.11 11.09 17.141l38.93 17.469.32.152 89.41-40.14zM175.84 136.57l-88.88 39.89 46.81 21.02 86.93-40.18zM256.457 173.828l-86.406 39.934 78.258 35.129a18.81 18.81 0 0 0 7.699 1.648c2.62 0 5.238-.55 7.68-1.648l78.718-35.34zM219.797 83.95l-43.77 19.652L99.738 68.34l42.692-19.16zM300.738 120.309l-44.27 20.46-44.35-20.488 44.28-19.89h.008zM336.996 136.61 292.22 157.3l86.469 39.962 46.68-20.953zM333.406 32.941l-76.988 34.57-77.367-34.773 69.27-31.09c4.89-2.199 10.488-2.199 15.378 0zM412.738 68.55l-75.922 35.09-43.796-19.68 77.02-34.581zM511.996 125.27c0 7.378-4.348 14.109-11.078 17.128l-38.941 17.48h-.008l-88.89-39.948 75.929-35.09 51.898 23.289a18.81 18.81 0 0 1 11.09 17.14zm0 0" fill="#ffffff" data-original="#000000" opacity="1" class=""></path><path d="m500.906 177.36-5.414-2.43-231.379 103.86a18.71 18.71 0 0 1-7.683 1.647c-2.621 0-5.246-.55-7.692-1.648l-231.8-104.055-5.848 2.625C4.36 180.391 0 187.11 0 194.5c0 7.379 4.352 14.11 11.09 17.129L248.316 318.12a18.733 18.733 0 0 0 15.372 0L500.914 211.63c6.73-3.02 11.082-9.75 11.082-17.129a18.81 18.81 0 0 0-11.09-17.14zm0 0" fill="#ffffff" data-original="#000000" opacity="1" class=""></path><path d="m500.91 247.594-6.027-2.707-230.77 103.59a18.71 18.71 0 0 1-7.683 1.648c-2.621 0-5.246-.55-7.692-1.648L17.547 244.695l-6.457 2.903A18.807 18.807 0 0 0 .004 264.73a18.81 18.81 0 0 0 11.09 17.137l237.215 106.485a18.728 18.728 0 0 0 7.695 1.648c2.621 0 5.242-.55 7.683-1.645l237.227-106.492A18.807 18.807 0 0 0 512 264.73c0-7.382-4.352-14.109-11.09-17.136zm0 0" fill="#ffffff" data-original="#000000" opacity="1" class=""></path></g></svg>