<svg xmlns="http://www.w3.org/2000/svg" version="1.1" xmlns:xlink="http://www.w3.org/1999/xlink" width="512" height="512" x="0" y="0" viewBox="0 0 173.397 173.397" style="enable-background:new 0 0 512 512" xml:space="preserve" fill-rule="evenodd"><g><path d="M86.699 10.499c42.084 0 76.2 34.116 76.2 76.2s-34.116 76.2-76.2 76.2-76.2-34.116-76.2-76.2 34.115-76.2 76.2-76.2zm.586 109.403a8.385 8.385 0 1 1 0 16.77 8.385 8.385 0 0 1 0-16.77zm-6.65-6.172a137.553 137.553 0 0 1-.068-3.595c0-7.935 1.661-13.87 6.735-20 4.759-5.711 13.258-11.086 16.723-17.133 1.251-2.161 1.865-4.55 1.865-7.121 0-4.665-1.82-8.76-5.46-12.31-3.64-3.526-8.123-5.3-13.402-5.3-5.119 0-9.374 1.614-12.787 4.8-3.435 3.208-5.665 8.214-6.734 15.017l-12.332-1.48c1.114-9.1 4.414-16.085 9.897-20.932 5.483-4.846 12.742-7.258 21.752-7.258 9.556 0 17.178 2.594 22.866 7.804 5.688 5.188 8.533 11.468 8.533 18.862 0 4.255-1.002 8.191-3.004 11.786-4.897 8.793-13.972 13.443-19.385 20.796-3.433 4.728-3.557 10.436-3.663 16.064z" fill="#ffffff" opacity="1" data-original="#000000"></path></g></svg>