<svg xmlns="http://www.w3.org/2000/svg" version="1.1" xmlns:xlink="http://www.w3.org/1999/xlink" width="512" height="512" x="0" y="0" viewBox="0 0 512 512" style="enable-background:new 0 0 512 512" xml:space="preserve" class=""><g><path d="M451 31v30h-15v180h60V61h-15V31zM436 360.531c0 39.565 10.371 93.618 29.971 127.969l.029.029v-.029c19.629-34.351 30-88.403 30-127.969V271h-60zM406 0H16v512h390zM256 61h30v30h-30zm-60 0h30v30h-30zm-60 0h30v30h-30zm135 390c-20.391 0-32.314-19.79-42.861-37.266-4.57-7.588-13.066-21.709-17.285-22.749-3.926 1.04-12.422 15.161-16.992 22.749C183.314 431.21 171.391 451 151 451c-25.137 0-39.229-28.74-62.578-76.348l-10.84-21.943 26.836-13.418 10.928 22.163c12.598 25.664 28.271 57.627 35.83 59.561 3.896-1.04 12.393-15.161 16.963-22.749C178.686 380.79 190.609 361 211 361s32.314 19.79 42.861 37.266c4.57 7.588 13.066 21.709 17.285 22.749 2.93-1.099 11.484-11.895 16.436-21.738l26.836 13.433C309.936 421.688 293.529 451 271 451zm75-180H76v-30h270zm0-60H76v-30h270zm0-60H76v-30h270z" fill="#ffffff" opacity="1" data-original="#000000" class=""></path></g></svg>