<svg xmlns="http://www.w3.org/2000/svg" version="1.1" xmlns:xlink="http://www.w3.org/1999/xlink" width="512" height="512" x="0" y="0" viewBox="0 0 1707 1707" style="enable-background:new 0 0 512 512" xml:space="preserve" fill-rule="evenodd"><g><path d="M1334 1707H373c-6 0-11-3-15-7s-5-10-5-16L538 18c1-10 10-18 20-18h590c11 0 19 8 20 18l185 1663c1 2 1 4 1 6 0 11-9 20-20 20zM894 430h-81c-11 0-20-9-20-20V227c0-11 9-20 20-20h81c11 0 20 9 20 20v183c0 11-9 20-20 20zm0 357h-81c-11 0-20-9-20-20V584c0-11 9-20 20-20h81c11 0 20 9 20 20v183c0 11-9 20-20 20zm0 356h-81c-11 0-20-9-20-20V940c0-11 9-20 20-20h81c11 0 20 9 20 20v183c0 11-9 20-20 20zm0 357h-81c-11 0-20-9-20-20v-183c0-11 9-20 20-20h81c11 0 20 9 20 20v183c0 11-9 20-20 20zM142 1707h-3c-11-2-19-12-17-23L307 18c1-11 11-19 22-18s19 11 18 22L161 1689c-1 10-9 18-19 18zM1565 1707c-10 0-19-8-20-18L1360 22c-1-11 7-21 18-22 10-1 21 7 22 18l185 1666c1 11-7 21-18 23h-2z" fill="#ffffff" opacity="1" data-original="#000000"></path></g></svg>