<svg xmlns="http://www.w3.org/2000/svg" version="1.1" xmlns:xlink="http://www.w3.org/1999/xlink" width="512" height="512" x="0" y="0" viewBox="0 0 300 300" style="enable-background:new 0 0 512 512" xml:space="preserve"><g><path d="M149.997 0C67.158 0 .003 67.161.003 149.997S67.158 300 149.997 300s150-67.163 150-150.003S232.837 0 149.997 0zm72.981 99.461-32.435 30.711 20.562 82.844-12.27 12.27-39.262-64.028-.905-.905-40.385 38.24c-.228.231-.485.405-.718.622l-1.297 29.481-44.965-44.962 29.471-1.294c.218-.239.394-.493.625-.724l38.24-40.387-.325-.329-64.601-39.832 12.27-12.27 82.471 20.946 31.079-32.827c6.201-6.201 16.251-6.199 22.447 0 6.197 6.198 6.197 16.246-.002 22.444z" fill="#ffffff" opacity="1" data-original="#000000"></path></g></svg>