<svg xmlns="http://www.w3.org/2000/svg" version="1.1" xmlns:xlink="http://www.w3.org/1999/xlink" width="512" height="512" x="0" y="0" viewBox="0 0 450 450" style="enable-background:new 0 0 512 512" xml:space="preserve"><g><path d="M14.3 397.2h150.5V440H14.3zM285.1 397.2h150.6V440H285.1zM384.1 291.1v48.2c0 3.3-2.7 6-6 6h-48.2c-3.3 0-6-2.7-6-6v-48.2c0-3.3 2.7-6 6-6h48.2c3.3 0 6 2.7 6 6zM276.6 440H173.3v-95.6c0-16 13.1-29.1 29.1-29.1h45c16 0 29.1 13.1 29.1 29.1zM126.1 291.1v48.2c0 3.3-2.7 6-6 6H71.9c-3.3 0-6-2.7-6-6v-48.2c0-3.3 2.7-6 6-6h48.2c3.3 0 6 2.7 6 6zM263.4 221.6l-17.6 17.2c-.9.9-1.5 2.4-1.2 3.8l4.2 24.2-21.8-11.5c-1.3-.7-2.7-.7-4 0l-21.8 11.5 4.2-24.2c.3-1.4-.2-2.8-1.2-3.8l-17.6-17.2 24.3-3.6c1.5-.2 2.7-1 3.3-2.3l10.9-22.1 10.8 22.2c.7 1.2 1.9 2.1 3.3 2.3z" fill="#ffffff" opacity="1" data-original="#000000"></path><path d="M312.8 164.8H137.2c-67.8 0-122.9 55.2-122.9 122.9v100.9h150.5v-44.2c0-20.8 16.9-37.7 37.7-37.7h45c20.8 0 37.7 16.9 37.7 37.7v44.2h150.6V287.7c-.1-67.7-55.3-122.9-123-122.9zM134.6 339.4c.1 8-6.5 14.6-14.5 14.6H71.8c-8.1 0-14.6-6.5-14.6-14.6v-48.2c0-8.1 6.5-14.6 14.6-14.6H120c8 0 14.6 6.5 14.6 14.6zm140.9-117.7-22.3 21.7 5.2 30.6c.3 1.6-.3 3.3-1.7 4.2-.4.5-1.4.9-2.2.9-.7 0-1.4-.2-2-.5L225 264l-27.5 14.5c-1.5.8-3.2.6-4.5-.3s-2-2.6-1.7-4.2l5.2-30.6-22.3-21.7c-1.2-1.1-1.6-2.8-1.1-4.4.5-1.5 1.9-2.6 3.4-2.9l30.8-4.5 13.7-27.8c.7-1.5 2.2-2.4 3.9-2.4s3.1.9 3.8 2.4l13.7 27.8 30.8 4.5c1.6.3 2.9 1.4 3.4 2.9s.1 3.2-1.1 4.4zm117.2 117.7c0 8-6.6 14.6-14.6 14.6h-48.2c-8 0-14.6-6.5-14.6-14.6v-48.2c0-8.1 6.5-14.6 14.6-14.6h48.2c8.1 0 14.6 6.5 14.6 14.6zM328.1 29.8v70.5c0 2.4-1.9 4.3-4.3 4.3h-38.2c-7 0-13.6-2.8-18.6-7.7-3.3-3.3-7.8-5.2-12.5-5.2h-25.3v64.6h-8.6v-142c0-2.4 1.9-4.3 4.3-4.3h39.8c7 0 14 2.9 18.8 8l2.1 2.1c3.3 3.4 8 5.4 12.7 5.4h25.5c2.5 0 4.3 1.9 4.3 4.3z" fill="#ffffff" opacity="1" data-original="#000000"></path></g></svg>