<svg xmlns="http://www.w3.org/2000/svg" version="1.1" xmlns:xlink="http://www.w3.org/1999/xlink" width="512" height="512" x="0" y="0" viewBox="0 0 24 24" style="enable-background:new 0 0 512 512" xml:space="preserve" class=""><g><path d="m19.8 17-3.7-6.8a2.438 2.438 0 0 0-4.2 0L8.2 17c-.4.8-.4 1.6 0 2.4.4.7 1.2 1.2 2.1 1.2h7.4c.8 0 1.6-.4 2.1-1.2.4-.8.4-1.6 0-2.4zM14 19c-.5 0-1-.5-1-1s.5-1 1-1 1 .5 1 1-.5 1-1 1zm1-4c0 .5-.5 1-1 1s-1-.5-1-1v-3c0-.5.5-1 1-1s1 .5 1 1z" fill="#ffffff" opacity="1" data-original="#000000" class=""></path><path d="M22 11.7c0 1.1-.5 2.2-1.3 3-.2.2-.5.4-.7.6l-3.4-6.2c-.5-1-1.5-1.6-2.6-1.6s-2.1.6-2.6 1.6L7.6 16H6.4c-1.2 0-2.3-.5-3.1-1.4-.8-.8-1.2-1.8-1.3-2.9 0-1.2.4-2.4 1.2-3.3C4.1 7.5 5.4 7 6.7 7h.4c.5-2.3 2.5-4 4.9-4s4.4 1.7 4.9 4h.4c1.3 0 2.5.5 3.4 1.5.9.9 1.3 2 1.3 3.2z" fill="#ffffff" opacity="1" data-original="#000000" class=""></path></g></svg>