<svg xmlns="http://www.w3.org/2000/svg" version="1.1" xmlns:xlink="http://www.w3.org/1999/xlink" width="512" height="512" x="0" y="0" viewBox="0 0 427.008 427.008" style="enable-background:new 0 0 512 512" xml:space="preserve" class=""><g><path d="M212.992 179.392a46.98 46.98 0 0 0-47.104 47.104c0 26.112 20.992 47.104 47.104 47.104s47.104-20.992 47.104-47.104-20.992-47.104-47.104-47.104zM318.976 42.176c-66.048-37.376-146.944-37.376-212.48 0-3.584 2.048-6.144 6.144-6.144 10.752 0 2.048.512 4.096 1.536 5.632l59.392 102.4c2.048 3.584 6.144 5.632 10.24 5.632 2.048 0 4.096-.512 5.632-1.536 22.016-12.288 49.152-12.288 70.656 0 1.536 1.024 3.584 1.536 5.632 1.536 4.096 0 8.192-2.048 10.24-5.632l59.392-102.4c3.072-5.632 1.536-12.8-4.096-16.384zM414.208 214.72H295.936c-6.656 0-11.776 5.12-11.776 11.776 0 25.088-13.824 48.64-35.328 61.44-5.632 3.072-7.68 10.752-4.096 16.384l59.392 102.4c3.584 5.632 10.752 7.68 16.384 4.096 65.536-37.888 106.496-108.544 106.496-184.32-1.024-6.656-6.144-11.776-12.8-11.776zM177.664 287.936c-22.016-12.8-35.84-36.352-35.84-61.44 0-6.656-5.12-11.776-11.776-11.776H11.776C5.12 214.72 0 219.84 0 226.496c0 75.776 40.448 145.92 105.984 184.32 2.048 1.024 4.096 2.048 6.144 2.048 4.096 0 8.192-2.048 10.24-5.632l59.392-102.4c3.584-6.144 1.536-13.312-4.096-16.896z" fill="#ffffff" opacity="1" data-original="#000000" class=""></path></g></svg>