<svg xmlns="http://www.w3.org/2000/svg" version="1.1" xmlns:xlink="http://www.w3.org/1999/xlink" width="512" height="512" x="0" y="0" viewBox="0 0 195 195" style="enable-background:new 0 0 512 512" xml:space="preserve" class=""><g><path d="M169.2 23.2c.3-.2.5-.5.8-.8.4-.5 1-.8 1.6-.8 1.1 0 1.9.9 1.9 1.9v.1c0 .6-.3 1.2-.8 1.5-.3.2-.5.4-.6.7-8.1 17-19.1 31.9-32 45.4l-16-16c13.2-13.5 28.5-23.6 45.1-32zM71.1 162.2c-3.6 2.7-6.9 5.8-10.3 8.7l-1.8 1.4-1.4 1.1s0-.4.1-1.1c.1-5.6-1.3-29.8-34.8-34.8-.4 0-.8-.1-1.3-.2l1.3-1.3 2-2 .2-.2c3-3.4 5.9-6.8 8.8-10.3 2.2-2.6 4.9-3.4 8.2-2.7 3.6.7 7.3 1.4 10.9 2.4 2 .5 3.2.1 4.6-1.3 21.2-21.3 42.7-42.4 63.8-63.8l16 15.9c-1.3 1.4-2.7 2.7-4.1 4-20.3 19.6-39.9 39.9-59.9 59.8-1.3 1.3-1.8 2.4-1.3 4.3 1 3.4 1.6 6.9 2.3 10.3.8 4 0 7.2-3.3 9.8z" fill="#ffffff" opacity="1" data-original="#000000"></path></g></svg>