<svg xmlns="http://www.w3.org/2000/svg" version="1.1" xmlns:xlink="http://www.w3.org/1999/xlink" width="512" height="512" x="0" y="0" viewBox="0 0 512 512" style="enable-background:new 0 0 512 512" xml:space="preserve"><g><path d="M15 337.4c-8.284 0-15 6.715-15 15V497c0 8.283 6.716 15 15 15h51.4V337.4H15zM497 337.4h-51.4V512H497c8.284 0 15-6.717 15-15V352.4c0-8.285-6.716-15-15-15zM438.94 178.078 271 101.74V46.066h49.266c8.284 0 15-6.716 15-15V15c0-8.284-6.716-15-15-15H256c-8.284 0-15 6.716-15 15v86.74L73.061 178.078c-7.542 3.428-10.877 12.32-7.448 19.862 3.428 7.542 12.322 10.875 19.862 7.448l10.926-4.967V497c0 8.283 6.716 15 15 15h81.4V400.6c0-8.283 6.716-15 15-15h96.398c8.284 0 15 6.717 15 15V512h81.4c8.284 0 15-6.717 15-15V200.422l10.926 4.967a14.95 14.95 0 0 0 6.198 1.349c5.701 0 11.151-3.269 13.664-8.797 3.429-7.543.094-16.435-7.447-19.863zM256 320.342c-34.849 0-63.199-28.352-63.199-63.199 0-34.849 28.351-63.199 63.199-63.199s63.199 28.35 63.199 63.199c0 34.847-28.35 63.199-63.199 63.199z" fill="#ffffff" opacity="1" data-original="#000000"></path></g></svg>