<svg xmlns="http://www.w3.org/2000/svg" version="1.1" xmlns:xlink="http://www.w3.org/1999/xlink" width="512" height="512" x="0" y="0" viewBox="0 0 512 512" style="enable-background:new 0 0 512 512" xml:space="preserve"><g><path fill-rule="evenodd" d="m342.827 323.992-8.452 19.213a416.738 416.738 0 0 1 51.975 26.776l10.657-18.06a423.258 423.258 0 0 0-54.18-27.929zm-179.812 0a430.584 430.584 0 0 0-54.023 27.928l10.5 18.061a420.132 420.132 0 0 1 51.976-26.564zm4.83-17.903 2.783 1.206 69.404 30.03 3.623 1.525v120.067H83.53v-84a43.833 43.833 0 0 1 16.8-33.599 270.647 270.647 0 0 1 67.515-35.229zm167.685-.106a215.313 215.313 0 0 1 67.2 35.332 43.848 43.848 0 0 1 16.8 33.602v84H259.405V338.85l3.622-1.524 69.51-30.03 2.993-1.313zm-26.67-27.928 19.425 19.581-68.88 29.767v-31.448l49.455-17.9zm-114.66 0 49.455 17.9v31.5l-60.586-26.196-8.294-3.623zm10.395-97.388h93.818a34.596 34.596 0 0 1 24.884 10.5 36.792 36.792 0 0 0 11.918 8.244 84 84 0 0 1-167.685 0 36.764 36.764 0 0 0 12.18-8.244 34.499 34.499 0 0 1 24.885-10.5zm45.57-140.438h2.73c57.75 0 99.75 45.938 99.75 80.063v12.653c2.625 23.468 4.567 29.032 15.277 48.036a24.989 24.989 0 0 1-33.233-.683 50.294 50.294 0 0 0-36.277-15.381h-93.765a50.294 50.294 0 0 0-36.277 15.435 24.993 24.993 0 0 1-33.232.684s13.807-16.12 15.277-48.091v-12.653c0-34.125 42-80.063 99.75-80.063z" fill="#000" opacity="1" data-original="#000000"></path></g></svg>