<svg xmlns="http://www.w3.org/2000/svg" version="1.1" xmlns:xlink="http://www.w3.org/1999/xlink" width="512" height="512" x="0" y="0" viewBox="0 0 28.649 28.648" style="enable-background:new 0 0 512 512" xml:space="preserve"><g><path d="M9.401 20.105a4.342 4.342 0 0 0 .866-1.742 7.65 7.65 0 0 1-1.024-2.916 6.02 6.02 0 0 1-.074-.822c0-.197.011-.392.029-.584l-1.416-2.453 4.133-2.386-2.991-5.181L0 9.173l2.992 5.182 4.132-2.387 1.629 2.822a3.062 3.062 0 0 0-1.521-.407 3.146 3.146 0 0 0-3.145 3.145c0 1.23.709 2.596 1.739 3.289-2.463.625-4.288 2.764-4.288 4.348 0 .716 1.665 1.156 3.721 1.326-.002-.037-.015-.069-.015-.106.001-2.257 1.725-4.686 4.157-6.28zm-6.132-6.789-2.23-3.865 7.606-4.392 2.232 3.865-7.608 4.392zM19.606 10.792a5.893 5.893 0 0 1 1.084 1.902V7.563h6.275V.102H13.331v7.461h6.275v3.229zM24.362 20.816c1.031-.693 1.74-2.059 1.74-3.289a3.144 3.144 0 0 0-3.145-3.145c-.744 0-1.422.271-1.961.706-.086 1.125-.473 2.269-1.076 3.274.148.627.453 1.239.867 1.742 2.434 1.592 4.156 4.022 4.156 6.278 0 .038-.014.069-.016.106 2.057-.17 3.721-.61 3.721-1.326.003-1.582-1.823-3.721-4.286-4.346z" fill="#000" opacity="1" data-original="#000000"></path><path d="M17.258 19.691c1.586-1.066 2.678-3.17 2.678-5.065a4.84 4.84 0 0 0-9.681 0c0 1.895 1.093 3.999 2.679 5.065-3.792.961-6.602 4.254-6.602 6.692 0 2.884 17.527 2.884 17.527 0-.001-2.438-2.81-5.731-6.601-6.692z" fill="#000" opacity="1" data-original="#000000"></path></g></svg>