<svg xmlns="http://www.w3.org/2000/svg" version="1.1" xmlns:xlink="http://www.w3.org/1999/xlink" width="512" height="512" x="0" y="0" viewBox="0 0 682.667 682.667" style="enable-background:new 0 0 512 512" xml:space="preserve" class=""><g><defs><clipPath id="b" clipPathUnits="userSpaceOnUse"><path d="M0 512h512V0H0Z" fill="#000" opacity="1" data-original="#000000"></path></clipPath></defs><mask id="a"><rect width="100%" height="100%" fill="#000" opacity="1" data-original="#ffffff"></rect><path d="M0 0c-42.679 0-77.276 34.598-77.276 77.277S-42.679 154.554 0 154.554c42.679 0 77.277-34.598 77.277-77.277S42.679 0 0 0m61.024 198.985-13.299 51.176h-96.18l-13.3-51.176c-44.348-22.444-74.752-68.439-74.752-121.541 0-75.188 60.953-136.141 136.142-136.141 75.188 0 136.141 60.953 136.141 136.141 0 53.102-30.404 99.097-74.752 121.541" style="fill-opacity:1;fill-rule:nonzero;stroke:none" transform="matrix(1.33333 0 0 -1.33333 202.01 562.975)" fill="#000" data-original="#ffffff"></path><path d="M165.602 288.568h-28.92v28.92h28.92z" style="fill-opacity:1;fill-rule:nonzero;stroke:none" transform="matrix(1.33333 0 0 -1.33333 0 682.667)" fill="#000" data-original="#000000" opacity="1"></path><path d="m0 0-54.731-86.162" style="stroke-width:30;stroke-linecap:butt;stroke-linejoin:miter;stroke-miterlimit:10;stroke-dasharray:none;stroke-opacity:1" transform="matrix(1.33333 0 0 -1.33333 153.333 518.11)" fill="none" stroke="#ffffff" stroke-width="30" stroke-linecap="butt" stroke-linejoin="miter" stroke-miterlimit="10" stroke-dasharray="none" stroke-opacity="" data-original="#000000" opacity="1"></path><path d="M0 0c-47.382 0-85.792 38.41-85.792 85.792 0 47.38 38.41 85.791 85.792 85.791 47.381 0 85.791-38.411 85.791-85.791C85.791 38.41 47.381 0 0 0m67.748 220.909-14.766 56.815H-53.794l-14.767-56.815c-49.232-24.917-82.987-75.98-82.987-134.931 0-83.474 67.669-151.142 151.142-151.142S150.735 2.504 150.735 85.978c0 58.951-33.755 110.014-82.987 134.931" style="fill-opacity:1;fill-rule:nonzero;stroke:none" transform="matrix(1.33333 0 0 -1.33333 481.686 513.357)" fill="#000" data-original="#ffffff"></path><path d="M0 0h-153.177l-5.836-22.454-11.541-44.41a181.712 181.712 0 0 1-59.554-58.705c-18.071-28.79-27.622-62.048-27.622-96.178 0-24.44 4.793-48.166 14.247-70.517 9.125-21.574 22.182-40.943 38.808-57.569 16.626-16.626 35.994-29.683 57.569-38.808 22.351-9.454 46.077-14.247 70.517-14.247 24.441 0 48.166 4.793 70.518 14.247 21.574 9.125 40.942 22.182 57.569 38.808 16.625 16.626 29.683 35.995 38.808 57.569 9.454 22.351 14.247 46.077 14.247 70.517 0 34.13-9.552 67.388-27.622 96.178a181.722 181.722 0 0 1-59.554 58.705L5.835-22.454zm-23.2-30 14.765-56.815c49.234-24.917 82.988-75.98 82.988-134.932 0-83.473-67.668-151.141-151.142-151.141-83.473 0-151.141 67.668-151.141 151.141 0 58.952 33.754 110.015 82.988 134.932L-129.977-30H-23.2" style="fill-opacity:1;fill-rule:nonzero;stroke:none" transform="matrix(1.33333 0 0 -1.33333 583.263 103.059)" fill="#000" data-original="#000000" opacity="1"></path><path d="M375.318 336.33h-28.92v28.92h28.92z" style="fill-opacity:1;fill-rule:nonzero;stroke:none" transform="matrix(1.33333 0 0 -1.33333 0 682.667)" fill="#000" data-original="#000000" opacity="1"></path><path d="m0 0-54.732-86.162" style="stroke-width:30;stroke-linecap:butt;stroke-linejoin:miter;stroke-miterlimit:10;stroke-dasharray:none;stroke-opacity:1" transform="matrix(1.33333 0 0 -1.33333 428.227 460.669)" fill="none" stroke="#ffffff" stroke-width="30" stroke-linecap="butt" stroke-linejoin="miter" stroke-miterlimit="10" stroke-dasharray="none" stroke-opacity="" data-original="#000000" opacity="1"></path><path d="M0 0c0-39.153-31.739-70.894-70.894-70.894-39.153 0-70.892 31.741-70.892 70.894 0 39.153 31.739 70.893 70.892 70.893C-31.739 70.893 0 39.153 0 0Z" style="stroke-width:30;stroke-linecap:butt;stroke-linejoin:miter;stroke-miterlimit:10;stroke-dasharray:none;stroke-opacity:1" transform="matrix(1.33333 0 0 -1.33333 575.844 398.969)" fill="none" stroke="#ffffff" stroke-width="30" stroke-linecap="butt" stroke-linejoin="miter" stroke-miterlimit="10" stroke-dasharray="none" stroke-opacity="" data-original="#000000" opacity="1"></path></mask><g mask="url(#a)"><g clip-path="url(#b)" transform="matrix(1.33333 0 0 -1.33333 0 682.667)"><path d="m0 0-13.3 51.176h-96.179L-122.779 0c-44.348-22.444-74.752-68.439-74.752-121.541 0-75.188 60.953-136.141 136.141-136.141 75.189 0 136.142 60.953 136.142 136.141C74.752-68.439 44.347-22.444 0 0Z" style="stroke-width:30;stroke-linecap:butt;stroke-linejoin:miter;stroke-miterlimit:10;stroke-dasharray:none;stroke-opacity:1" transform="translate(212.531 288.753)" fill="none" stroke="#ffffff" stroke-width="30" stroke-linecap="butt" stroke-linejoin="miter" stroke-miterlimit="10" stroke-dasharray="none" stroke-opacity="" data-original="#000000" opacity="1"></path><path d="M0 0c-42.679 0-77.276 34.598-77.276 77.277S-42.679 154.554 0 154.554c42.679 0 77.277-34.598 77.277-77.277S42.679 0 0 0m61.024 198.985-13.299 51.176h-96.18l-13.3-51.176c-44.348-22.444-74.752-68.439-74.752-121.541 0-75.188 60.953-136.141 136.142-136.141 75.188 0 136.141 60.953 136.141 136.141 0 53.102-30.404 99.097-74.752 121.541" style="fill-opacity:1;fill-rule:nonzero;stroke:none" transform="translate(151.507 89.769)" fill="#000" data-original="#000000" opacity="1"></path><path d="M165.602 288.568h-28.92v28.92h28.92z" style="fill-opacity:1;fill-rule:nonzero;stroke:none" fill="#000" data-original="#ffffff"></path><path d="m0 0-54.731-86.162" style="stroke-width:30;stroke-linecap:butt;stroke-linejoin:miter;stroke-miterlimit:10;stroke-dasharray:none;stroke-opacity:1" transform="translate(115 123.418)" fill="none" stroke="#ffffff" stroke-width="30" stroke-linecap="butt" stroke-linejoin="miter" stroke-miterlimit="10" stroke-dasharray="none" stroke-opacity="" data-original="#ffffff"></path><path d="m0 0-14.766 56.815h-106.776L-136.308 0c-49.233-24.917-82.988-75.98-82.988-134.932 0-83.473 67.669-151.141 151.142-151.141S82.987-218.405 82.987-134.932C82.987-75.98 49.232-24.917 0 0Z" style="stroke-width:30;stroke-linecap:butt;stroke-linejoin:miter;stroke-miterlimit:10;stroke-dasharray:none;stroke-opacity:1" transform="translate(429.013 347.891)" fill="none" stroke="#ffffff" stroke-width="30" stroke-linecap="butt" stroke-linejoin="miter" stroke-miterlimit="10" stroke-dasharray="none" stroke-opacity="" data-original="#000000" opacity="1"></path><path d="M0 0c-47.382 0-85.792 38.41-85.792 85.792 0 47.38 38.41 85.791 85.792 85.791 47.381 0 85.791-38.411 85.791-85.791C85.791 38.41 47.381 0 0 0m67.748 220.909-14.766 56.815H-53.794l-14.767-56.815c-49.232-24.917-82.987-75.98-82.987-134.931 0-83.474 67.669-151.142 151.142-151.142S150.735 2.504 150.735 85.978c0 58.951-33.755 110.014-82.987 134.931" style="fill-opacity:1;fill-rule:nonzero;stroke:none" transform="translate(361.265 126.982)" fill="#000" data-original="#000000" opacity="1"></path><path d="M0 0h-153.177l-5.836-22.454-11.541-44.41a181.712 181.712 0 0 1-59.554-58.705c-18.071-28.79-27.622-62.048-27.622-96.178 0-24.44 4.793-48.166 14.247-70.517 9.125-21.574 22.182-40.943 38.808-57.569 16.626-16.626 35.994-29.683 57.569-38.808 22.351-9.454 46.077-14.247 70.517-14.247 24.441 0 48.166 4.793 70.518 14.247 21.574 9.125 40.942 22.182 57.569 38.808 16.625 16.626 29.683 35.995 38.808 57.569 9.454 22.351 14.247 46.077 14.247 70.517 0 34.13-9.552 67.388-27.622 96.178a181.722 181.722 0 0 1-59.554 58.705L5.835-22.454zm-23.2-30 14.765-56.815c49.234-24.917 82.988-75.98 82.988-134.932 0-83.473-67.668-151.141-151.142-151.141-83.473 0-151.141 67.668-151.141 151.141 0 58.952 33.754 110.015 82.988 134.932L-129.977-30H-23.2" style="fill-opacity:1;fill-rule:nonzero;stroke:none" transform="translate(437.447 434.706)" fill="#000" data-original="#ffffff"></path><path d="M375.318 336.33h-28.92v28.92h28.92z" style="fill-opacity:1;fill-rule:nonzero;stroke:none" fill="#000" data-original="#ffffff"></path><path d="m0 0-54.732-86.162" style="stroke-width:30;stroke-linecap:butt;stroke-linejoin:miter;stroke-miterlimit:10;stroke-dasharray:none;stroke-opacity:1" transform="translate(321.17 166.499)" fill="none" stroke="#ffffff" stroke-width="30" stroke-linecap="butt" stroke-linejoin="miter" stroke-miterlimit="10" stroke-dasharray="none" stroke-opacity="" data-original="#ffffff"></path><path d="M0 0v44.985c0 53.027 42.986 96.014 96.014 96.014h19.642c53.027 0 96.014-42.987 96.014-96.014" style="stroke-width:30;stroke-linecap:butt;stroke-linejoin:miter;stroke-miterlimit:10;stroke-dasharray:none;stroke-opacity:1" transform="translate(151.142 339.93)" fill="none" stroke="#ffffff" stroke-width="30" stroke-linecap="butt" stroke-linejoin="miter" stroke-miterlimit="10" stroke-dasharray="none" stroke-opacity="" data-original="#000000" opacity="1"></path><path d="M0 0c0-39.153-31.739-70.894-70.894-70.894-39.153 0-70.892 31.741-70.892 70.894 0 39.153 31.739 70.893 70.892 70.893C-31.739 70.893 0 39.153 0 0Z" style="stroke-width:30;stroke-linecap:butt;stroke-linejoin:miter;stroke-miterlimit:10;stroke-dasharray:none;stroke-opacity:1" transform="translate(431.883 212.773)" fill="none" stroke="#ffffff" stroke-width="30" stroke-linecap="butt" stroke-linejoin="miter" stroke-miterlimit="10" stroke-dasharray="none" stroke-opacity="" data-original="#ffffff"></path></g></g></g></svg>