<svg xmlns="http://www.w3.org/2000/svg" version="1.1" xmlns:xlink="http://www.w3.org/1999/xlink" width="512" height="512" x="0" y="0" viewBox="0 0 64 64" style="enable-background:new 0 0 512 512" xml:space="preserve"><g><path d="M16.9 18.1h4c.2 0 .3.2.2.3-.6 1-2.6 3.5-4.4 0 0-.1.1-.3.2-.3zM25 18.1h4c.2 0 .3.2.2.3-.6 1-2.6 3.5-4.4 0 0-.1.1-.3.2-.3zM60.8 16.6c1.1-1 .8-2.8-.5-3.5L56 10.8c-1-.5-2.2-.2-2.8.7l-6.8 9.7-.9-.6c-.2-.1-.4-.1-.5.1l-2.4 3.8-.6-.4c-.3-.2-.7-.1-.9.3l-4.8 8.3 3.3 1c2.3.7 4.2 2.3 5.3 4.4l1.3-2.3c2.2.4 4.3 1.5 5.8 3.1.3.3.9.3 1.1-.1l1.2-2c.2-.3.1-.6-.1-.8-.9-.9-1.9-1.6-3-2.2-1-.5-2.1-.9-3.2-1.2l.8-1.4 6.2-.8c.4 0 .6-.4.6-.7l-.2-2.8c0-.4-.4-.7-.8-.6l-3.4.4.6-1.2zm-5.1-2.8c.9 0 1.6.7 1.6 1.6s-.7 1.6-1.6 1.6-1.6-.7-1.6-1.6.7-1.6 1.6-1.6z" fill="#000" opacity="1" data-original="#000000"></path><path d="M23 5.6c-7.2 0-13 5.8-13 13s5.8 15.1 13 15.1 13-7.9 13-15.1-5.8-13-13-13zm9.3 13.7c-2.5 2-5.7 3.2-9.2 3.2s-6.7-1.2-9.2-3.2c-1.3-1-.6-3.1 1.1-3.1h16.4c1.4.1 2.1 2.1.9 3.1zM38.7 36l-6.9-2.1c-2.5 2-5.5 3.2-8.8 3.2s-6.3-1.2-8.8-3.2l-2.8.8V39H6.9v-2.9c-2.6 1-4.4 3.6-4.4 6.4v13.6c0 1.2 1 2.2 2.2 2.2h36.8c1.2 0 2.2-1 2.2-2.2V42.6c-.1-3-2.1-5.7-5-6.6zM11.4 47.8H6.9v-2.7h4.5zm0 1.7v2.7H6.9v-2.7zm0-8.8v2.7H6.9v-2.7zm-4.5 16v-2.8h4.5v2.8z" fill="#000" opacity="1" data-original="#000000"></path></g></svg>