<svg xmlns="http://www.w3.org/2000/svg" version="1.1" xmlns:xlink="http://www.w3.org/1999/xlink" width="512" height="512" x="0" y="0" viewBox="0 0 48 48" style="enable-background:new 0 0 512 512" xml:space="preserve" class=""><g><g fill="#010101"><path d="M45.91 17.48a20.11 20.11 0 0 0-4.92-2.14c-1.6-.44-3.22-.68-4.84-.72L27.27 3.88a.992.992 0 0 0-.77-.36h-4c-.31 0-.6.14-.79.39s-.25.57-.17.87l2.66 9.84H13.98l-3.7-4.63a.99.99 0 0 0-.78-.37h-3c-.33 0-.64.17-.83.44s-.22.62-.1.93l1.45 3.63H2.79c-.23 0-.44.08-.62.22-1.68 1.33-1.58 3.31-.42 4.3l1.8 1.82c2.66 2.69 6.44 4.31 8.92 4.5l2.26.16h20.95c3.58 0 7.02-1.91 10.24-3.86.75-.46 1.2-1.25 1.2-2.14s-.46-1.69-1.21-2.14zm-1.04 2.56c-3.1 1.88-6.14 3.57-9.2 3.57H14.8l-2.15-.16c-2.9-.44-5.62-1.83-7.68-3.92l-1.85-1.88c-.28-.24-.34-.61.06-1.05H8.5c.33 0 .64-.17.83-.44s.22-.62.1-.93L7.98 11.6h1.04l3.7 4.63a1 1 0 0 0 .78.38h12c.66 0 1.14-.63.97-1.26l-2.66-9.84h2.22l8.87 10.74c.19.23.47.36.77.36 1.59 0 3.2.22 4.78.65 1.55.44 3.04 1.08 4.42 1.92.21.13.24.32.24.42s-.03.32-.24.44zM23.18 30.49c-1.05-.54-2.1-.82-3.02-.86.03-.39-.17-.78-.54-.97l-1.78-.92c-.49-.25-1.09-.06-1.35.43-.25.49-.06 1.09.43 1.35l.89.46-.92 1.78-.89-.46c-.49-.25-1.09-.06-1.35.43-.25.49-.06 1.09.43 1.35 1.66.82 1.82 1.03 2.23 1.03.23 0 .45-.09.63-.24.59.74 1.45 1.44 2.46 1.96 1.94 1 4.87 1.47 5.82-.38.43-.83.26-1.84-.47-2.84-.56-.81-1.49-1.56-2.57-2.12zm1.29 4.04c-.11.22-1.4.4-3.12-.49-.94-.49-2.44-1.81-2.21-2.26.21-.41 1.93-.13 3.12.49.94.48 2.45 1.81 2.21 2.26zM9.72 36.46c.05-.12.08-.25.08-.38 0-.27-.11-.52-.29-.71L8.1 33.96a.996.996 0 1 0-1.41 1.41l.71.71-.71.71-.71.71-.71-.71a.996.996 0 1 0-1.41 1.41l1.41 1.41a.982.982 0 0 0 1.09.21c.32.87.9 1.77 1.74 2.61 1.55 1.55 4.21 2.86 5.66 1.41 1.21-1.21.6-3.64-1.42-5.66-.85-.82-1.76-1.4-2.62-1.72zm2.61 5.98c-.18.18-1.46-.05-2.83-1.41-1.37-1.37-1.59-2.65-1.41-2.83.42-.41 2.15.74 2.83 1.41 1.36 1.37 1.58 2.66 1.41 2.83z" fill="#000" opacity="1" data-original="#010101"></path><circle cx="11.5" cy="19.61" r="1" fill="#000" opacity="1" data-original="#010101"></circle><circle cx="15.5" cy="19.61" r="1" fill="#000" opacity="1" data-original="#010101"></circle><circle cx="19.5" cy="19.61" r="1" fill="#000" opacity="1" data-original="#010101"></circle><circle cx="23.5" cy="19.61" r="1" fill="#000" opacity="1" data-original="#010101"></circle><circle cx="27.5" cy="19.61" r="1" fill="#000" opacity="1" data-original="#010101"></circle><circle cx="31.5" cy="19.61" r="1" fill="#000" opacity="1" data-original="#010101"></circle></g></g></svg>