<svg xmlns="http://www.w3.org/2000/svg" version="1.1" xmlns:xlink="http://www.w3.org/1999/xlink" xmlns:svgjs="http://svgjs.com/svgjs" width="512" height="512" x="0" y="0" viewBox="0 0 56 55" style="enable-background:new 0 0 512 512" xml:space="preserve" class=""><g><g fill="#000" fill-rule="nonzero"><path d="M53.275 10.664c-5.368-.719-16.143-2.936-23.246-9.529a2.982 2.982 0 0 0-4.073.011 34.906 34.906 0 0 1-13.551 7.4 58.12 58.12 0 0 1-9.683 2.117A2.986 2.986 0 0 0 .13 13.834C1.211 28.753 8.7 47.207 26.883 54.57a2.955 2.955 0 0 0 2.207 0c18.209-7.362 25.7-25.814 26.779-40.739a2.987 2.987 0 0 0-2.594-3.167zM6.186 27.945a1 1 0 0 1-1.271-.62 53.877 53.877 0 0 1-2.71-12.647 2 2 0 0 1 1.7-2.157 59.231 59.231 0 0 0 9.1-2.063 45.127 45.127 0 0 0 7.527-3.094 1 1 0 1 1 .934 1.77 47.383 47.383 0 0 1-7.862 3.232A61.121 61.121 0 0 1 4.2 14.5a51.912 51.912 0 0 0 2.61 12.176 1 1 0 0 1-.624 1.269zM46 30.007V35a1 1 0 1 1-2 .006H34v1.517l4.249 3.4c.475.378.751.953.751 1.56V43a2 2 0 0 1-2 2h-5.279l-.317.948A3 3 0 0 1 28.559 48h-1.118a3 3 0 0 1-2.841-2.051L24.279 45H19a2 2 0 0 1-2-2v-1.517a1.994 1.994 0 0 1 .749-1.561L22 36.523v-1.517H12A1 1 0 0 1 10 35v-8a1 1 0 0 1 2 0v1.266l10-5.829v-1.808a1.986 1.986 0 0 1 1.106-1.788l.894-.447v-4.38A15.711 15.711 0 0 1 25.938 6.2a2.377 2.377 0 0 1 4.124 0A15.718 15.718 0 0 1 32 14.014V18.4l.9.446a1.987 1.987 0 0 1 1.1 1.783v1.808l10 5.829V27a1 1 0 0 1 2 0zm5.085-2.682a1 1 0 0 1-1.891-.65A51.852 51.852 0 0 0 51.8 14.5a60.706 60.706 0 0 1-9.4-2.135 47.232 47.232 0 0 1-7.862-3.231 1 1 0 1 1 .934-1.77 45.146 45.146 0 0 0 7.527 3.093 59.191 59.191 0 0 0 9.1 2.064 2 2 0 0 1 1.7 2.157 53.877 53.877 0 0 1-2.714 12.647z" fill="#000" data-original="#000000" opacity="1" class=""></path><path d="M34 27a1 1 0 0 1-2 0v-6.371l-.9-.446A1.988 1.988 0 0 1 30 18.4v-4.386a13.706 13.706 0 0 0-1.677-6.83.375.375 0 0 0-.646 0A13.7 13.7 0 0 0 26 14.014V18.4a1.988 1.988 0 0 1-1.106 1.788L24 20.63V27a1 1 0 0 1-2 0v-2.248l-10 5.829v2.425h10V31a1 1 0 0 1 2 0v6a1 1 0 0 1-.376.781L19 41.483V43h6a1 1 0 0 1 .948.684l.544 1.631a1 1 0 0 0 .949.684h1.118a1 1 0 0 0 .949-.684l.544-1.631A1 1 0 0 1 31 43h6v-1.517l-4.624-3.7A1 1 0 0 1 32 37v-6a1 1 0 0 1 2 0v2.006h10v-2.425l-10-5.829z" fill="#000" data-original="#000000" opacity="1" class=""></path></g></g></svg>