<svg xmlns="http://www.w3.org/2000/svg" version="1.1" xmlns:xlink="http://www.w3.org/1999/xlink" width="512" height="512" x="0" y="0" viewBox="0 0 60 60" style="enable-background:new 0 0 512 512" xml:space="preserve"><g><path d="M23 9h-4v4h-2V9h-4v4h-2V9H7c-.55 0-1 .45-1 1v4c0 .01.01.03.01.04 0 .1.02.21.06.31.01.02.01.04.02.06.01.01.01.02.02.04L8 18.24V50c0 .55.45 1 1 1h12c.55 0 1-.45 1-1V18.24l1.89-3.79c.01-.02.01-.03.02-.04.01-.02.01-.04.02-.06.04-.1.06-.21.06-.31 0-.01.01-.03.01-.04v-4c0-.55-.45-1-1-1zm-5 30c0 .55-.45 1-1 1h-4c-.55 0-1-.45-1-1v-4c0-.55.45-1 1-1h4c.55 0 1 .45 1 1zm0-9c0 .55-.45 1-1 1h-4c-.55 0-1-.45-1-1v-4c0-.55.45-1 1-1h4c.55 0 1 .45 1 1zM53 26H24v25h29c.55 0 1-.45 1-1V27c0-.55-.45-1-1-1zM36 45c0 .55-.45 1-1 1h-6c-.55 0-1-.45-1-1v-4c0-.55.45-1 1-1h6c.55 0 1 .45 1 1zm0-9c0 .55-.45 1-1 1h-6c-.55 0-1-.45-1-1v-4c0-.55.45-1 1-1h6c.55 0 1 .45 1 1zm14 9c0 .55-.45 1-1 1h-6c-.55 0-1-.45-1-1v-4c0-.55.45-1 1-1h6c.55 0 1 .45 1 1zm0-9c0 .55-.45 1-1 1h-6c-.55 0-1-.45-1-1v-4c0-.55.45-1 1-1h6c.55 0 1 .45 1 1z" fill="#000" opacity="1" data-original="#000000"></path></g></svg>