<svg xmlns="http://www.w3.org/2000/svg" version="1.1" xmlns:xlink="http://www.w3.org/1999/xlink" xmlns:svgjs="http://svgjs.com/svgjs" width="512" height="512" x="0" y="0" viewBox="0 0 48 48" style="enable-background:new 0 0 512 512" xml:space="preserve" class=""><g><path d="M29 35H19V20h10zM10.8 5.4c-.377-.504-1.223-.504-1.6 0C6.437 9.084 5.176 12.91 5.029 18h9.941c-.146-5.09-1.407-8.916-4.17-12.6zM43 20H33v15h10zM38.8 5.4c-.377-.504-1.223-.504-1.6 0-2.763 3.684-4.024 7.51-4.171 12.6h9.941c-.146-5.09-1.407-8.916-4.17-12.6zm-14 0c-.377-.504-1.223-.504-1.6 0-2.763 3.684-4.024 7.51-4.171 12.6h9.941c-.146-5.09-1.407-8.916-4.17-12.6zM29 37H19a1 1 0 0 0-1 1v4a1 1 0 0 0 1 1h10a1 1 0 0 0 1-1v-4a1 1 0 0 0-1-1zm14 0H33a1 1 0 0 0-1 1v4a1 1 0 0 0 1 1h10a1 1 0 0 0 1-1v-4a1 1 0 0 0-1-1zM15 20H5v15h10zm0 17H5a1 1 0 0 0-1 1v4a1 1 0 0 0 1 1h10a1 1 0 0 0 1-1v-4a1 1 0 0 0-1-1z" fill="#000" data-original="#000000" opacity="1" class=""></path></g></svg>