<svg xmlns="http://www.w3.org/2000/svg" version="1.1" xmlns:xlink="http://www.w3.org/1999/xlink" xmlns:svgjs="http://svgjs.com/svgjs" width="512" height="512" x="0" y="0" viewBox="0 0 97.473 97.473" style="enable-background:new 0 0 512 512" xml:space="preserve" class=""><g><path d="m4.486 53.472 2.024-.396 1.528-1.611-1.26-1.069zM23.52 39.795l.632-.123.369-2.833-3.67.058.757.509.346 1.774zM30.842 42.669l-.278-1.434-1.596.1-.886 1.27zM3.831 49.69l-.897-.172.629 1.504.706-.494zM4.227 46.825l-1.68-1.6-.58.608.263 1.406.842.802zM.023 48.845 0 49.557l.984.03.01-.354-.482-.372zM34.564 39.06l.395 2.026 2.047.389.192-2.929-1.417-.249zM3.031 21.211l-1.058 1.747 1.171 1.507-.471.021a7.643 7.643 0 0 0 7.761 1.786 7.657 7.657 0 0 0 4.844-9.682 7.656 7.656 0 0 0-12.36-3.292l1.311-.198-2.461 2.71-.48-.436a7.63 7.63 0 0 0-.754 5.257l.654.748 1.843-.168z" fill="#000" data-original="#000000" opacity="1" class=""></path><path d="m50.846 51.646-1.14-.823-.067 1.588-2.011-3.065c-8.791-6.188-10.708-6.573-11.383-6.706-.994-.199-2.825-.11-5.458.254l-1.756 1.933-1.547-1.404a167.8 167.8 0 0 0-5.388 1.055l-.282-.85-1.02 2.062-1.773-.245-3.521.817 1.369-3.093 3.602-1.163-7.132-1.935 6.02-2.883-.304-1.831c1.52.261 3.129.447 4.507.421l-.041-1.574 1.516.896 1.7-.739-.215.939c3.388-.951 7.58-3.079 8.528-3.573.321-.167.6-.384.832-.638a2.97 2.97 0 0 0 .693-1.363l-1.052-1.443.504-1.005a2.97 2.97 0 0 0-3.718-.826c-2.457 1.277-6.707 3.164-8.465 3.363-1.05.119-3.005-.153-4.926-.538 3.407-1.954 7.25-4.65 10.453-8.176.338-.372.668-.753.988-1.142a2.972 2.972 0 0 0-.399-4.185c-.048-.039-.102-.063-.151-.1l-.326.959-1.109-1.522a2.983 2.983 0 0 0-2.597 1.063 27.172 27.172 0 0 1-1.854 2.021l-.166.596 1.155 1.449-2.04.075-2.161 3.866.451-3.557c-1.599 1.26-5.687 6.046-10.582 6.096 0 0-.84.025-1.647.314a11.08 11.08 0 0 0-1.579.747l-.021.012c-2.242 1.412-4.183 4.271-3.188 7.257l1.471 4.407.146.074 1.641-.863.353 2.015 2.909 2.878-3.996-.944 2.82 8.462c.712 2.142 2.567 3.342 4.633 3.703l2.412 4.097.841-2.115 1.095 3.494-.949.296 2.751 4.673.104.051 1.639-.862-.306 2.019 1.658.944-1.43.676 5.123 8.7a4.055 4.055 0 0 0 6.494.668 4.054 4.054 0 0 0 .488-4.781l-3.252-5.523-1.95.611.934-2.341-7.462-12.668a180.275 180.275 0 0 1 8.076-1.562l-1.096-1.624 3.441 1.267c.814-.109 1.475-.177 1.892-.187 1.69.786 7.132 4.446 11.455 7.588a4.055 4.055 0 0 0 5.66-.896 4.053 4.053 0 0 0-.894-5.661z" fill="#000" data-original="#000000" opacity="1" class=""></path><path d="M96.695 33.077c-1.653-2.125-4.826-2.001-10.595-1.777-1.172.046-2.362.092-3.524.114a7.998 7.998 0 0 0 3.795-6.006 8.01 8.01 0 0 0-7.145-8.796 8.016 8.016 0 0 0-8.799 7.146c-.355 3.465 1.555 6.635 4.529 8.054a8.311 8.311 0 0 0-1.069.484l-25.914.044v-.411h-3.534v.417l-1.427.002.004 2.829 13.198-.022c.888.561 2.12 1.088 3.76 1.37.041.112.089.223.142.333.25.484 2.471 4.797 4.492 7.037 1.504 1.667 3.455 2.42 4.941 2.763l-.811 8.388c-.064.624-.027.664.096 1.217-3.866 3.143-7.958 7.354-7.914 11.08.039 3.314 2.27 13.806 2.715 15.876a3.677 3.677 0 0 0 7.187-1.551c-1.006-4.674-2.42-11.977-2.543-14.189.5-1.179 3.306-4.055 6.086-6.22.345.081.695.146 1.047.183.27.027.543.038.816.038.693 4.541 1.818 9.022 3.646 10.928 2.098 2.188 10.027 10.896 10.109 10.984a3.673 3.673 0 0 0 2.721 1.201c.884 0 1.77-.316 2.475-.958a3.68 3.68 0 0 0 .243-5.195c-.326-.357-7.899-8.672-10.165-11.042-.689-1.104-1.744-5.237-2.275-9.797.379-.237.489-.909.534-1.341l1.273-13.993c-2.722.196-6.248.219-9.521-.473a3.69 3.69 0 0 1-2.838-4.36 3.675 3.675 0 0 1 1.577-2.309l.552-.297a3.642 3.642 0 0 1 2.229-.231c5.121 1.083 12.236-.069 14.207-.809.142-.13.523 1.011.523 1.011-1.919.775-9.537 2.052-14.966.904a2.554 2.554 0 0 0-3.019 1.965c-.283 1.353.584 2.726 1.966 3.017 3.231.684 6.737.642 9.405.438l.002-.022a47.784 47.784 0 0 0 3.678-.455c7.859-1.288 8.4-3.118 8.723-4.211.355-1.183.131-2.407-.612-3.358zM70.203 40.36c-.369-.148-.723-.354-.975-.635-.576-.635-1.253-1.651-1.873-2.672 1.493.087 2.59.149 3.172.182l-.324 3.125zM41.774 34.018l-.07.003-.232.661-.247-.714-.652.851.663-1.459-.873.407.265-.473-1.363.345 1.085-.555-.611-.423.903.36-.042-.305.371.114.444-1.087.317.494.105-3.011-.984 3.211-.988-2.635.369 2.697-3.119-1.239 2.585 1.781-3.223 1.647 3.48-.88-.39.699.99-.462-1.504 3.309 2.059-2.69.813 2.34z" fill="#000" data-original="#000000" opacity="1" class=""></path></g></svg>