<svg xmlns="http://www.w3.org/2000/svg" version="1.1" xmlns:xlink="http://www.w3.org/1999/xlink" xmlns:svgjs="http://svgjs.com/svgjs" width="512" height="512" x="0" y="0" viewBox="0 0 68 68" style="enable-background:new 0 0 512 512" xml:space="preserve"><g><path fill="#000" fill-rule="nonzero" d="M24 52.828 15.172 44H2C.218 44-.674 41.846.586 40.586l9.657-9.657A10 10 0 0 1 17.313 28h9.859L46.915 8.257a18 18 0 0 1 7.036-4.349L65.368.103c1.563-.522 3.05.966 2.53 2.53l-3.806 11.416a18 18 0 0 1-4.349 7.036L40 40.828v9.858a10 10 0 0 1-2.929 7.071l-9.657 9.657C26.154 68.674 24 67.782 24 66zm22-38L18.828 42 26 49.172 53.172 22zM48.828 12 56 19.172l.915-.915a14 14 0 0 0 3.382-5.473l2.54-7.622-7.621 2.541a14 14 0 0 0-5.473 3.382zM23.172 32h-5.858a6 6 0 0 0-4.243 1.757L6.828 40h8.344zm11.07 22.929A6 6 0 0 0 36 50.686v-5.858l-8 8v8.344zM10.415 25.414a2 2 0 0 1-2.828 0l-7-7a2 2 0 0 1 0-2.828l8.49-8.49a18 18 0 0 1 6.576-4.189L23.317.12c1.596-.58 3.143.967 2.563 2.563l-2.787 7.665a18 18 0 0 1-4.189 6.576zm5.662-11.318a14 14 0 0 0 3.257-5.115l1.323-3.637-3.637 1.323a14 14 0 0 0-5.115 3.257L4.828 17 9 21.172zm36.338 53.318a2 2 0 0 1-2.828 0l-7-7a2 2 0 0 1 0-2.828l8.49-8.49a18 18 0 0 1 6.576-4.189l7.665-2.787c1.596-.58 3.143.967 2.563 2.563l-2.787 7.665a18 18 0 0 1-4.189 6.576zm5.662-11.318a14 14 0 0 0 3.257-5.115l1.323-3.637-3.637 1.323a14 14 0 0 0-5.115 3.257L46.828 59 51 63.172z" data-original="#000000" opacity="1"></path></g></svg>