<svg xmlns="http://www.w3.org/2000/svg" version="1.1" xmlns:xlink="http://www.w3.org/1999/xlink" xmlns:svgjs="http://svgjs.com/svgjs" width="512" height="512" x="0" y="0" viewBox="0 0 96 96" style="enable-background:new 0 0 512 512" xml:space="preserve"><g><path d="M31.461 68.305a7.096 7.096 0 0 0 6.941 5.711c.455 0 .918-.044 1.379-.135a7.038 7.038 0 0 0 4.511-3.006 7.039 7.039 0 0 0 1.063-5.317c-.742-3.75-4.413-6.34-8.32-5.571-3.831.758-6.331 4.49-5.574 8.318zm6.364-4.319a3.008 3.008 0 0 1 3.531 2.364 2.984 2.984 0 0 1-.452 2.255 2.988 2.988 0 0 1-1.914 1.276 3.016 3.016 0 0 1-3.53-2.367 3.008 3.008 0 0 1 2.365-3.528z" fill="#000" data-original="#000000" opacity="1"></path><path d="M25.711 82.026c2.088.695 4.342 1.047 6.699 1.047 1.667 0 3.407-.177 5.17-.525L49.445 80.2l5.096-11.26a2.477 2.477 0 0 0-.503-2.751l-3.635-3.653 1.977-4.775a2.474 2.474 0 0 0-.476-2.635l-5.147-5.496-15.095 2.984c-4.502.892-8.035 2.486-10.756 4.833-.173.139-1.355 1.003-1.807 1.467L9.102 69.221a4.01 4.01 0 0 0-1.023 3.543 3.971 3.971 0 0 0 2.303 2.836s15.174 6.38 15.329 6.426zm6.742-25.411 12.875-2.546 2.891 3.087-1.992 4.809a2.45 2.45 0 0 0 .529 2.685l3.609 3.627-3.77 8.332-9.806 1.937c-3.11.616-6.003.563-8.685-.113L24.44 59.898c2.094-1.532 4.705-2.63 8.013-3.283zm-11.569 6.314 2.781 14.064-11.617-4.955zM64.669 42.504l-4.776 6.157 4.212 7.574-2.642 3.541a2.466 2.466 0 0 0-.145 2.733l2.204 3.72-4.507 5.65a3.779 3.779 0 0 0-.782 2.969c.156.945.392 2.021.705 2.488l3.626 5.413a2.907 2.907 0 0 0 2.26 1.285s14.294.76 14.346.76a2.89 2.89 0 0 0 2.524-1.471c.547-.963.504-2.134-.035-2.928l-3.182-5.591 4.893 1.265a2.907 2.907 0 0 0 3.631-2.659l.995-18.691c.046-.876-.3-1.718-.949-2.307s-1.521-.852-2.386-.723l-5.825.876c.13-.183 4.505-5.612 4.505-5.612.753-.884.916-2.211.414-3.38-.454-1.053-1.39-1.742-2.445-1.797l-13.65-.723c-1.116.002-2.317.585-2.991 1.451zm2.729 25.403a2.48 2.48 0 0 0 .197-2.801l-2.223-3.752 2.612-3.501a2.462 2.462 0 0 0 .192-2.679l-.945-1.707 7.416.396-1.027 19.259-9.959-.529zm-1.772 12.086-2.232-3.333 11.811.629 1.889 3.316zm17.38-8.226-5.16-1.335.731-13.702 5.274-.793zm-3.928-26.024s-3.183 3.941-3.297 4.097l-11.011-.816 3.014-3.883zM33.94 19.032c-1.957 2.315-2.864 5.213-2.556 8.161.595 5.703 4.418 8.842 8.208 10.09-.223.78-.375 1.612-.329 2.347a7.884 7.884 0 0 0 2.675 5.458 7.877 7.877 0 0 0 5.751 1.971 2.04 2.04 0 0 0 1.907-2.162c-.072-1.125-1.037-1.953-2.164-1.907-1.019.082-2.022-.275-2.798-.959a3.844 3.844 0 0 1-1.303-2.655c-.023-.368.263-1.433.786-2.588 0 0 .434-.751.414-1.027-.038-.531-.624-1.545-1.066-1.841-.212-.143-1.014-.139-1.014-.139-1.064-.149-6.405-1.18-7.013-7.009-.192-1.835.381-3.649 1.614-5.106a7.617 7.617 0 0 1 5.321-2.669 2.04 2.04 0 0 0 1.907-2.162c-.071-1.123-1.033-1.947-2.162-1.907a11.713 11.713 0 0 0-8.178 4.104zM55.656 43.338a7.875 7.875 0 0 0 5.751-1.971 7.884 7.884 0 0 0 2.675-5.458c.046-.734-.107-1.571-.33-2.353 3.796-1.254 7.616-4.393 8.21-10.084.308-2.948-.6-5.848-2.558-8.161a11.713 11.713 0 0 0-8.178-4.104c-1.121-.042-2.09.782-2.162 1.907a2.04 2.04 0 0 0 1.907 2.162 7.623 7.623 0 0 1 5.321 2.669c1.233 1.457 1.807 3.27 1.615 5.106-.608 5.816-5.953 6.859-7.028 7.011 0 0-.866.036-1.089.201-.426.316-.964 1.353-.978 1.883-.007.255.419.93.419.93.52 1.147.805 2.211.782 2.58a3.838 3.838 0 0 1-1.303 2.655 3.796 3.796 0 0 1-2.798.959c-1.125-.042-2.092.782-2.164 1.907a2.042 2.042 0 0 0 1.908 2.161zM23.171 33.624v12.23a2.038 2.038 0 0 0 4.076 0v-12.23a2.037 2.037 0 1 0-4.076 0zM78.205 35.663v-4.077a2.037 2.037 0 1 0-4.076 0v4.077a2.038 2.038 0 0 0 4.076 0z" fill="#000" data-original="#000000" opacity="1"></path></g></svg>