<svg xmlns="http://www.w3.org/2000/svg" version="1.1" xmlns:xlink="http://www.w3.org/1999/xlink" width="512" height="512" x="0" y="0" viewBox="0 0 682.667 682.667" style="enable-background:new 0 0 512 512" xml:space="preserve" class=""><g><defs><clipPath id="b" clipPathUnits="userSpaceOnUse"><path d="M0 512h512V0H0Z" fill="#000" opacity="1" data-original="#000000"></path></clipPath></defs><mask id="a"><rect width="100%" height="100%" fill="#000" opacity="1" data-original="#ffffff"></rect><path d="M0 0c22.655 5.607 46.17 8.512 70.201 8.512 81.23.001 156.652-32.924 212.373-92.708l13.636-14.631 29.261 27.272-13.636 14.63C248.464 11.068 162.65 48.513 70.201 48.512c-35.461 0-69.937-5.53-102.553-16.159Z" style="fill-opacity:1;fill-rule:nonzero;stroke:none" transform="matrix(1.33333 0 0 -1.33333 247.728 135.349)" fill="#000" data-original="#ffffff"></path><path d="M0 0c-36.546-17.631-69.957-42.18-98.73-73.051l-13.636-14.631 29.261-27.272 13.636 14.631c28.655 30.745 62.53 54.364 99.716 70.077z" style="fill-opacity:1;fill-rule:nonzero;stroke:none" transform="matrix(1.33333 0 0 -1.33333 150.8 113.846)" fill="#000" data-original="#ffffff"></path><path d="m0 0 28.362 28.206-14.103 14.182C-32.676 89.581-93.47 115.571-156.923 115.57c-2.207 0-4.41-.039-6.61-.101l43.509-43.508c39.151-7.695 75.848-27.541 105.92-57.78z" style="fill-opacity:1;fill-rule:nonzero;stroke:none" transform="matrix(1.33333 0 0 -1.33333 550.559 374.094)" fill="#000" data-original="#ffffff"></path><path d="M0 0c-42.512-10.639-82.076-33.246-114.864-66.222l-14.101-14.182 28.365-28.203 14.101 14.182c33.851 34.046 76.108 54.92 120.823 60.102z" style="fill-opacity:1;fill-rule:nonzero;stroke:none" transform="matrix(1.33333 0 0 -1.33333 266.237 229.284)" fill="#000" data-original="#ffffff"></path><path d="M0 0c-21.777 13.94-47.179 22.049-70.943 22.049H-72.362c-33.019 0-69.201-15.653-94.427-40.85l-14.149-14.135 28.268-28.299 14.15 14.133c17.728 17.709 43.695 29.151 66.16 29.151H-70.945c22.461 0 48.429-11.443 66.156-29.15l14.15-14.134 25.923 25.952z" style="fill-opacity:1;fill-rule:nonzero;stroke:none" transform="matrix(1.33333 0 0 -1.33333 435.686 398.732)" fill="#000" data-original="#ffffff"></path><path d="M0 0c-17.673 0-32-14.327-32-32 0-17.673 14.327-32 32-32 17.673 0 32 14.327 32 32C32-14.327 17.673 0 0 0" style="fill-opacity:1;fill-rule:nonzero;stroke:none" transform="matrix(1.33333 0 0 -1.33333 340 526.667)" fill="#000" data-original="#ffffff"></path></mask><g mask="url(#a)"><g clip-path="url(#b)" transform="matrix(1.33333 0 0 -1.33333 0 682.667)"><path d="M0 0c22.655 5.607 46.17 8.512 70.201 8.512 81.23.001 156.652-32.924 212.373-92.708l13.636-14.631 29.261 27.272-13.636 14.63C248.464 11.068 162.65 48.513 70.201 48.512c-35.461 0-69.937-5.53-102.553-16.159Z" style="fill-opacity:1;fill-rule:nonzero;stroke:none" transform="translate(185.796 410.488)" fill="#000" data-original="#000000" opacity="1"></path><path d="M0 0c-36.546-17.631-69.957-42.18-98.73-73.051l-13.636-14.631 29.261-27.272 13.636 14.631c28.655 30.745 62.53 54.364 99.716 70.077z" style="fill-opacity:1;fill-rule:nonzero;stroke:none" transform="translate(113.1 426.615)" fill="#000" data-original="#000000" opacity="1"></path><path d="m0 0 28.362 28.206-14.103 14.182C-32.676 89.581-93.47 115.571-156.923 115.57c-2.207 0-4.41-.039-6.61-.101l43.509-43.508c39.151-7.695 75.848-27.541 105.92-57.78z" style="fill-opacity:1;fill-rule:nonzero;stroke:none" transform="translate(412.919 231.43)" fill="#000" data-original="#000000" opacity="1"></path><path d="M0 0c-42.512-10.639-82.076-33.246-114.864-66.222l-14.101-14.182 28.365-28.203 14.101 14.182c33.851 34.046 76.108 54.92 120.823 60.102z" style="fill-opacity:1;fill-rule:nonzero;stroke:none" transform="translate(199.678 340.037)" fill="#000" data-original="#000000" opacity="1"></path><path d="M0 0c-21.777 13.94-47.179 22.049-70.943 22.049H-72.362c-33.019 0-69.201-15.653-94.427-40.85l-14.149-14.135 28.268-28.299 14.15 14.133c17.728 17.709 43.695 29.151 66.16 29.151H-70.945c22.461 0 48.429-11.443 66.156-29.15l14.15-14.134 25.923 25.952z" style="fill-opacity:1;fill-rule:nonzero;stroke:none" transform="translate(326.764 212.951)" fill="#000" data-original="#000000" opacity="1"></path><path d="M0 0c-17.673 0-32-14.327-32-32 0-17.673 14.327-32 32-32 17.673 0 32 14.327 32 32C32-14.327 17.673 0 0 0" style="fill-opacity:1;fill-rule:nonzero;stroke:none" transform="translate(255 117)" fill="#000" data-original="#000000" opacity="1"></path><path d="m0 0 483-483" style="stroke-width:40;stroke-linecap:butt;stroke-linejoin:miter;stroke-miterlimit:10;stroke-dasharray:none;stroke-opacity:1" transform="translate(14.5 497.5)" fill="#000" stroke="#ffffff" stroke-width="40" stroke-linecap="butt" stroke-linejoin="miter" stroke-miterlimit="10" stroke-dasharray="none" stroke-opacity="" data-original="#000000" opacity="1"></path></g></g></g></svg>