<svg xmlns="http://www.w3.org/2000/svg" version="1.1" xmlns:xlink="http://www.w3.org/1999/xlink" xmlns:svgjs="http://svgjs.com/svgjs" width="512" height="512" x="0" y="0" viewBox="0 0 60 60" style="enable-background:new 0 0 512 512" xml:space="preserve" class=""><g><path d="m47.004 30.751-8.983 2.675-6.988-8.1L46.521 15.17a.813.813 0 0 0 .381-.62.828.828 0 0 0-.246-.687 4.996 4.996 0 0 0-4.975-1.266l-17.22 5.12-1.937-2.241a.839.839 0 0 0-.857-.263.865.865 0 0 0-.62.662l-1.002 5.247-3.116.943a.858.858 0 0 0-.585.637c-.06.306.042.62.28.823l1.086.943-5.12 17.22a4.999 4.999 0 0 0 1.265 4.976.835.835 0 0 0 .689.246.815.815 0 0 0 .619-.382l10.155-15.496 8.1 6.996-2.673 8.984a3.155 3.155 0 0 0 .79 3.116.855.855 0 0 0 .601.246h.085a.87.87 0 0 0 .629-.382l5.214-7.956 1.375 1.189c1.053.925 2.658.865 3.66-.128a2.687 2.687 0 0 0 .128-3.65l-1.19-1.385 7.949-5.205a.843.843 0 0 0 .38-.628.838.838 0 0 0-.245-.688 3.155 3.155 0 0 0-3.117-.79zM18.695 12.623a.844.844 0 0 0-.407-.696c-2.25-1.35-6.284-3.354-7.999-1.64-2.36 2.37 2.259 9.29 3.66 10.844.153.178.382.28.62.289h.008a.855.855 0 0 0 .62-.272l2.64-2.794a.857.857 0 0 0 .077-1.07l-1.69-2.411 2.123-1.528a.824.824 0 0 0 .348-.722z" fill="#000" data-original="#000000" opacity="1"></path></g></svg>