<svg xmlns="http://www.w3.org/2000/svg" version="1.1" xmlns:xlink="http://www.w3.org/1999/xlink" width="512" height="512" x="0" y="0" viewBox="0 0 96 96" style="enable-background:new 0 0 512 512" xml:space="preserve"><g><path d="M32.721 66.175a7.476 7.476 0 0 0 7.314 6.017 7.43 7.43 0 0 0 1.453-.143 7.418 7.418 0 0 0 4.753-3.167 7.412 7.412 0 0 0 1.12-5.602c-.782-3.954-4.65-6.684-8.767-5.871-4.037.8-6.671 4.733-5.873 8.766zm6.705-4.551a3.17 3.17 0 0 1 3.721 2.492 3.14 3.14 0 0 1-.476 2.376 3.144 3.144 0 0 1-2.017 1.344 3.184 3.184 0 0 1-3.72-2.494 3.17 3.17 0 0 1 2.492-3.718z" fill="#000" opacity="1" data-original="#000000"></path><path d="M26.662 80.632c2.214.736 4.572 1.105 7.055 1.105 1.759 0 3.579-.187 5.452-.556l17.99-5.941c.069.152.124.308.219.45l3.821 5.705a3.084 3.084 0 0 0 2.381 1.353s15.061.801 15.116.801c1.101 0 2.11-.583 2.659-1.55.577-1.015.531-2.248-.037-3.085l-3.353-5.891 5.155 1.333a3.06 3.06 0 0 0 3.826-2.801l1.049-19.695c.048-.923-.316-1.81-1-2.431s-1.6-.896-2.514-.761l-6.138.923c.137-.193 4.746-5.913 4.746-5.913.794-.931.965-2.33.436-3.561-.478-1.11-1.465-1.835-2.577-1.894l-14.206-.757c-1.197-.027-2.581.564-3.328 1.523l-3.826 4.931-5.692 2.508 7.523 5.015-5.012 5.011-1.417 5.669-2.286-2.095 2.842-6.856-9.658-6.512-12.959 2.982c-4.743.94-8.466 2.62-11.333 5.092-.182.147-1.427 1.057-1.904 1.546L9.161 67.14a4.226 4.226 0 0 0-1.078 3.733 4.187 4.187 0 0 0 2.427 2.989l13.869 6.085c.622.268 2.119.637 2.283.685zm37.762-2.141-2.352-3.512 12.445.663 1.99 3.493zm18.314-8.669-5.436-1.406.769-14.438 5.557-.836zM66.699 41.766l11.901.636s-3.354 4.152-3.474 4.317l-11.783-.627zm-21.663 9.499 5.2 3.505-2.649 6.395 9.823 9 2.879-11.513 7.875-7.876 5.765.181-1.08 20.293-15.425-.618-19.217 6.36c-3.248.629-6.252.558-9.022-.142l-3.861-19.532c3.496-2.954 19.712-6.053 19.712-6.053zm-23.46 9.246 2.93 14.82-12.24-5.221zM49.758 12.45a2.148 2.148 0 0 0-2.148 2.148v19.33a2.148 2.148 0 0 0 4.296 0v-19.33a2.147 2.147 0 0 0-2.148-2.148zM58.349 23.189a2.148 2.148 0 0 0-2.148 2.148v8.591a2.148 2.148 0 0 0 4.296 0v-8.591a2.147 2.147 0 0 0-2.148-2.148zM41.167 23.189a2.148 2.148 0 0 0-2.148 2.148v8.591a2.148 2.148 0 0 0 4.296 0v-8.591a2.147 2.147 0 0 0-2.148-2.148z" fill="#000" opacity="1" data-original="#000000"></path></g></svg>