<svg xmlns="http://www.w3.org/2000/svg" version="1.1" xmlns:xlink="http://www.w3.org/1999/xlink" xmlns:svgjs="http://svgjs.com/svgjs" width="512" height="512" x="0" y="0" viewBox="0 0 512 512" style="enable-background:new 0 0 512 512" xml:space="preserve"><g><path d="M497 122H391v75h121v-60c0-8.28-6.72-15-15-15zm-241 0c-8.28 0-15 6.72-15 15v60h120v-75zM0 332v75h121v-75zm391 0v75h121v-75zM271 437v75h226c8.28 0 15-6.72 15-15v-60zM0 497c0 8.28 6.72 15 15 15h226v-75H0zm151-165v75h210v-75zm-.77-199.74A14.991 14.991 0 0 0 136 122H15c-8.28 0-15 6.72-15 15v60h171.81zM231 227l-65.58 49.19L181.81 227H0v75h512v-75zM196 62c-8.284 0-15-6.716-15-15V15c0-8.284 6.716-15 15-15s15 6.716 15 15v32c0 8.284-6.716 15-15 15zM125.394 87.606l-30-30c-5.858-5.858-5.858-15.355 0-21.213 5.857-5.858 15.355-5.858 21.213 0l30 30c5.858 5.858 5.858 15.355 0 21.213-5.857 5.858-15.356 5.859-21.213 0zM245.394 87.606c-5.858-5.858-5.858-15.355 0-21.213l30-30c5.857-5.858 15.355-5.858 21.213 0s5.858 15.355 0 21.213l-30 30c-5.857 5.858-15.356 5.859-21.213 0z" fill="#000" data-original="#000000" opacity="1"></path></g></svg>