<svg xmlns="http://www.w3.org/2000/svg" version="1.1" xmlns:xlink="http://www.w3.org/1999/xlink" xmlns:svgjs="http://svgjs.com/svgjs" width="512" height="512" x="0" y="0" viewBox="0 0 68 49" style="enable-background:new 0 0 512 512" xml:space="preserve"><g><path fill="#000" fill-rule="nonzero" d="M59.586 1.586a2 2 0 0 1 2.828 0l2 2a2 2 0 0 1 .574 1.635l-.894 8.044 3.32 3.32a2 2 0 0 1 0 2.83L52.828 35H66a2 2 0 0 1 0 4H2a2 2 0 0 1 0-4h4.172l8-8-4.586-4.586a2 2 0 0 1 2.828-2.828L17 24.172 22.172 19l-4.586-4.586a2 2 0 0 1 2.828-2.828L25 16.172 30.172 11l-4.586-4.586a2 2 0 0 1 2.828-2.828L33 8.172 40.586.586a2 2 0 0 1 2.828 0l5.758 5.757L20.515 35h5.657zM53 23a2 2 0 1 0 0-4 2 2 0 0 0 0 4zm-8 8a2 2 0 1 0 0-4 2 2 0 0 0 0 4zM24 49a2 2 0 0 1 0-4h20a2 2 0 0 1 0 4z" data-original="#000000" opacity="1"></path></g></svg>