<svg xmlns="http://www.w3.org/2000/svg" version="1.1" xmlns:xlink="http://www.w3.org/1999/xlink" xmlns:svgjs="http://svgjs.com/svgjs" width="512" height="512" x="0" y="0" viewBox="0 0 64 64" style="enable-background:new 0 0 512 512" xml:space="preserve" class=""><g><path d="M57.554 34.757 64 19l-10.462 9.15a34.454 34.454 0 0 1-.189 2.24 68.008 68.008 0 0 1-1.113 6.716 22.66 22.66 0 0 1 2.833-1.55 10.634 10.634 0 0 1 2.485-.799zM39.75 29.527c.909-1.307 1.93-2.684 2.984-3.929a25.767 25.767 0 0 1 2.156-2.272L46.5 4l-8.216 14.945c.261 1.083.47 2.172.639 3.189.415 2.506.67 5.119.827 7.393zM21.267 25.6c1.053 1.245 2.074 2.621 2.983 3.928.157-2.274.412-4.888.827-7.394.169-1.017.378-2.105.639-3.188L17.5 4l1.61 19.326a25.347 25.347 0 0 1 2.157 2.274zM8.923 35.554a22.586 22.586 0 0 1 2.841 1.554 67.993 67.993 0 0 1-1.112-6.708 34.71 34.71 0 0 1-.19-2.249L0 19l6.446 15.757a10.536 10.536 0 0 1 2.477.797zM13.105 18.448a.954.954 0 0 0 1.342.448 1.026 1.026 0 0 0 .448-1.342l-3-6a1 1 0 0 0-1.79.894zM54.781 21.626l4-5a1 1 0 1 0-1.562-1.25l-4 5a1 1 0 0 0 1.562 1.25zM35.858 10.991a.934.934 0 0 0 1.132-.848l1-7a1 1 0 0 0-1.98-.284l-1 7a1 1 0 0 0 .848 1.132z" fill="#000" data-original="#000000" opacity="1"></path><path d="M60 37c-.98-.66-2.51-.34-4.11.38A33.675 33.675 0 0 0 49 42a86.674 86.674 0 0 0 2.36-11.82c.4-3.63.25-6.78-1.36-7.18-1.55-.39-3.69 1.47-5.74 3.89A71.629 71.629 0 0 0 38 36a96.767 96.767 0 0 0-1.05-13.54C36.12 17.471 34.64 13 32 13s-4.12 4.47-4.95 9.46A96.767 96.767 0 0 0 26 36a71.629 71.629 0 0 0-6.26-9.11C17.69 24.47 15.55 22.61 14 23c-1.61.4-1.76 3.55-1.36 7.18A86.674 86.674 0 0 0 15 42a33.675 33.675 0 0 0-6.89-4.62C6.51 36.66 4.98 36.34 4 37c-3 2 2 13 9 21l-7 5h52l-7-5c7-8 12-19 9-21zm-40 7a1 1 0 1 1 1-1 1 1 0 0 1-1 1zm5.5 9a2.5 2.5 0 1 1 2.5-2.5 2.5 2.5 0 0 1-2.5 2.5zm3-9a1.5 1.5 0 1 1 1.5-1.5 1.5 1.5 0 0 1-1.5 1.5zM31 59.5a1 1 0 1 1 1-1 1 1 0 0 1-1 1zM32 36a1 1 0 1 1 1-1 1 1 0 0 1-1 1zm5.5 20a1.5 1.5 0 1 1 1.5-1.5 1.5 1.5 0 0 1-1.5 1.5zm0-7.5A2.5 2.5 0 1 1 40 46a2.5 2.5 0 0 1-2.5 2.5zM46 46a1 1 0 1 1 1-1 1 1 0 0 1-1 1z" fill="#000" data-original="#000000" opacity="1"></path></g></svg>