<svg xmlns="http://www.w3.org/2000/svg" version="1.1" xmlns:xlink="http://www.w3.org/1999/xlink" xmlns:svgjs="http://svgjs.com/svgjs" width="512" height="512" x="0" y="0" viewBox="0 0 60 60" style="enable-background:new 0 0 512 512" xml:space="preserve" class=""><g><path d="M46 17h12.001v2H46z" fill="#000" data-original="#000000" opacity="1"></path><circle cx="8" cy="48" r="4" fill="#000" data-original="#000000" opacity="1"></circle><circle cx="22" cy="48" r="4" fill="#000" data-original="#000000" opacity="1"></circle><circle cx="50" cy="48" r="4" fill="#000" data-original="#000000" opacity="1"></circle><circle cx="36" cy="48" r="4" fill="#000" data-original="#000000" opacity="1"></circle><path d="M45 31h7.925l-1.167-2H45zM40 12H26a2 2 0 0 0-2 2v4a1 1 0 0 0 1 1h19v-3a4 4 0 0 0-4-4zM57 37H3a1 1 0 0 0-1 1v6.17a1 1 0 0 0 .3.713l.373.373A5.992 5.992 0 0 1 13.91 47h2.18a5.993 5.993 0 0 1 11.82 0h2.18a5.993 5.993 0 0 1 11.82 0h2.18a5.992 5.992 0 0 1 10.527-2.826l3.183-4.243a.975.975 0 0 0 .2-.6V38a1 1 0 0 0-1-1z" fill="#000" data-original="#000000" opacity="1"></path><path d="M54.092 33H45a2 2 0 0 1-2-2v-2a2 2 0 0 1 2-2h5.592L50 25.992A2.005 2.005 0 0 0 48.277 25H6.669a1 1 0 0 0-.983.821L4.177 35h51.081zM28 21h12v2H28zM17.409 21.757a1 1 0 0 0-.971-.757h-4.876a1 1 0 0 0-.971.758L10.28 23h7.44zM31 8h6v2h-6z" fill="#000" data-original="#000000" opacity="1"></path></g></svg>