<svg xmlns="http://www.w3.org/2000/svg" version="1.1" xmlns:xlink="http://www.w3.org/1999/xlink" xmlns:svgjs="http://svgjs.com/svgjs" width="512" height="512" x="0" y="0" viewBox="0 0 609.649 609.649" style="enable-background:new 0 0 512 512" xml:space="preserve" class=""><g><path d="M0 142.254c0 16.835 13.647 30.482 30.482 30.482h28.572c19.031 37.423 57.469 60.984 99.452 60.964h90.989a40.509 40.509 0 0 0 35.003 20.321h81.285c11.223 0 20.321-9.098 20.321-20.321h163.282c23.9.258 45.683-13.663 55.487-35.461 10.265-23.83 3.605-51.574-16.359-68.147l-29.374-24.487a60.963 60.963 0 0 0-39.037-14.154H144.058a10.162 10.162 0 0 1-8.891-5.233L93.021 10.247A20.565 20.565 0 0 0 75.291.005H40.246A20.32 20.32 0 0 0 20.504 25.03l20.687 86.741H30.482C13.647 111.772 0 125.419 0 142.254zm20.321 0c0-5.612 4.549-10.161 10.161-10.161h60.964c5.612 0 10.161 4.549 10.161 10.161s-4.549 10.161-10.161 10.161H30.482c-5.612 0-10.161-4.549-10.161-10.161zm345.462 30.482H223.534c-5.612 0-10.161-4.549-10.161-10.161s4.549-10.161 10.161-10.161h182.892c5.612 0 10.161 4.549 10.161 10.161s-4.549 10.161-10.161 10.161zM284.498 233.7c-11.223 0-20.321-9.098-20.321-20.321s9.098-20.321 20.321-20.321h81.285V233.7zm261.637-112.499 13.067 10.892h-51.169c-5.612 0-10.161-4.549-10.161-10.161v-10.161h22.221a40.649 40.649 0 0 1 26.042 9.43zM40.246 20.326h35.105l42.055 75.809a30.48 30.48 0 0 0 26.651 15.637H477.55v10.161c0 16.835 13.647 30.482 30.482 30.482h73.665a38.268 38.268 0 0 1 4.461 37.93 39.627 39.627 0 0 1-36.761 23.034H386.105v-20.321h20.321c16.835 0 30.482-13.647 30.482-30.482s-13.647-30.482-30.482-30.482H223.534c-16.835 0-30.482 13.647-30.482 30.482s13.647 30.482 30.482 30.482h25.971a40.227 40.227 0 0 0-5.649 20.321h-85.349a91.161 91.161 0 0 1-75.829-40.643h8.769c16.835 0 30.482-13.647 30.482-30.482s-13.647-30.482-30.482-30.482H62.082zM203.213 548.68h10.161a30.258 30.258 0 0 0 23.217-10.974 40.37 40.37 0 0 0 27.586 10.974h40.643c22.446 0 40.643-18.196 40.643-40.643s-18.196-40.643-40.643-40.643h-40.643a40.364 40.364 0 0 0-27.586 10.974 30.261 30.261 0 0 0-23.217-10.974h-10.161c-11.223 0-20.321 9.098-20.321 20.321v40.643c0 11.224 9.098 20.322 20.321 20.322zm60.964-60.964h40.643c11.223 0 20.321 9.098 20.321 20.321s-9.098 20.321-20.321 20.321h-40.643c-11.223 0-20.321-9.098-20.321-20.321s9.098-20.321 20.321-20.321zm-60.964 0h10.161c5.612 0 10.161 4.549 10.161 10.161v20.321c0 5.612-4.549 10.161-10.161 10.161h-10.161zM20.321 609.644h10.161a30.258 30.258 0 0 0 23.217-10.974 40.37 40.37 0 0 0 27.586 10.974h40.643c22.446 0 40.643-18.196 40.643-40.643 0-22.446-18.196-40.643-40.643-40.643H81.285a40.364 40.364 0 0 0-27.586 10.974 30.261 30.261 0 0 0-23.217-10.974H20.321C9.098 528.359 0 537.457 0 548.68v40.643c0 11.223 9.098 20.321 20.321 20.321zm60.964-60.964h40.643c11.223 0 20.321 9.098 20.321 20.321s-9.098 20.321-20.321 20.321H81.285c-11.223 0-20.321-9.098-20.321-20.321s9.098-20.321 20.321-20.321zm-60.964 0h10.161c5.612 0 10.161 4.549 10.161 10.161v20.321c0 5.612-4.549 10.161-10.161 10.161H20.321zM386.105 487.716h10.161a30.258 30.258 0 0 0 23.217-10.974 40.37 40.37 0 0 0 27.586 10.974h40.643c22.446 0 40.643-18.196 40.643-40.643s-18.196-40.643-40.643-40.643h-40.643a40.366 40.366 0 0 0-27.586 10.974 30.261 30.261 0 0 0-23.217-10.974h-10.161c-11.223 0-20.321 9.098-20.321 20.321v40.643c-.001 11.224 9.098 20.322 20.321 20.322zm60.964-60.964h40.643c11.223 0 20.321 9.098 20.321 20.321s-9.098 20.321-20.321 20.321h-40.643c-11.223 0-20.321-9.098-20.321-20.321s9.097-20.321 20.321-20.321zm-60.964 0h10.161c5.612 0 10.161 4.549 10.161 10.161v20.321c0 5.612-4.549 10.161-10.161 10.161h-10.161zM375.944 355.628c0-22.446-18.196-40.643-40.643-40.643h-40.643a40.364 40.364 0 0 0-27.586 10.974 30.261 30.261 0 0 0-23.217-10.974h-10.161c-11.223 0-20.321 9.098-20.321 20.321v40.643c0 11.223 9.098 20.321 20.321 20.321h10.161a30.258 30.258 0 0 0 23.217-10.974 40.37 40.37 0 0 0 27.586 10.974h40.643c22.447 0 40.643-18.196 40.643-40.642zm-121.928 10.16c0 5.612-4.549 10.161-10.161 10.161h-10.161v-40.643h10.161c5.612 0 10.161 4.549 10.161 10.161zm81.285 10.161h-40.643c-11.223 0-20.321-9.098-20.321-20.321s9.098-20.321 20.321-20.321h40.643c11.223 0 20.321 9.098 20.321 20.321.001 11.223-9.097 20.321-20.321 20.321zM152.41 375.949h-40.643a40.364 40.364 0 0 0-27.586 10.974 30.261 30.261 0 0 0-23.217-10.974H50.803c-11.223 0-20.321 9.098-20.321 20.321v40.643c0 11.223 9.098 20.321 20.321 20.321h10.161a30.258 30.258 0 0 0 23.217-10.974 40.37 40.37 0 0 0 27.586 10.974h40.643c22.446 0 40.643-18.196 40.643-40.643-.001-22.446-18.197-40.642-40.643-40.642zm-81.285 50.803c0 5.612-4.549 10.161-10.161 10.161H50.803V396.27h10.161c5.612 0 10.161 4.549 10.161 10.161zm81.285 10.161h-40.643c-11.223 0-20.321-9.098-20.321-20.321s9.098-20.321 20.321-20.321h40.643c11.223 0 20.321 9.098 20.321 20.321s-9.098 20.321-20.321 20.321zM558.836 294.664c0-22.446-18.196-40.643-40.643-40.643H477.55a40.37 40.37 0 0 0-27.586 10.973 30.257 30.257 0 0 0-23.217-10.973h-10.161c-11.223 0-20.321 9.098-20.321 20.321v40.643c0 11.223 9.098 20.321 20.321 20.321h10.161a30.258 30.258 0 0 0 23.217-10.974 40.37 40.37 0 0 0 27.586 10.974h40.643a40.644 40.644 0 0 0 40.643-40.642zm-121.928 10.161c0 5.612-4.549 10.161-10.161 10.161h-10.161v-40.643h10.161c5.612 0 10.161 4.549 10.161 10.161zm81.285 10.16H477.55c-11.223 0-20.321-9.098-20.321-20.321s9.098-20.321 20.321-20.321h40.643c11.223 0 20.321 9.098 20.321 20.321s-9.098 20.321-20.321 20.321z" fill="#000" data-original="#000000" opacity="1" class=""></path></g></svg>