<svg xmlns="http://www.w3.org/2000/svg" version="1.1" xmlns:xlink="http://www.w3.org/1999/xlink" xmlns:svgjs="http://svgjs.com/svgjs" width="512" height="512" x="0" y="0" viewBox="0 0 512 512" style="enable-background:new 0 0 512 512" xml:space="preserve" class=""><g><path d="M497 301a15 15 0 0 0 15-15v-80a15 15 0 0 0-15-15H374.54l-6.47-35.9A100 100 0 0 0 429 108.24a15 15 0 0 0-5.49-20.49L275 2a15 15 0 0 0-20.49 5.5 101 101 0 0 0 7.77 112.35L249.46 191H151v-83.1a55 55 0 1 0-30 0V191H15a15 15 0 0 0-15 15v80a15 15 0 0 0 15 15h16v181H15a15 15 0 0 0 0 30h482a15 15 0 0 0 0-30h-16V301ZM111 55a25 25 0 1 1 25 25 25 25 0 0 1-25-25Zm163.36-18.71 119.78 69.15a70.77 70.77 0 0 1-119.78-69.15Zm14.16 107.1c1 .59 1.9 1.16 2.86 1.72a100.19 100.19 0 0 0 46.84 13.48l5.84 32.41h-64.12ZM30 221h452v50H30Zm351 261h-70v-95a5 5 0 0 1 5-5h60a5 5 0 0 1 5 5Zm70 0h-40v-95a35 35 0 0 0-35-35h-60a35 35 0 0 0-35 35v95H61V301h390Z" fill="#000" data-original="#000000" opacity="1" class=""></path><path d="M106 361h100a15 15 0 0 0 0-30H106a15 15 0 0 0 0 30ZM206 391H106a15 15 0 0 0 0 30h100a15 15 0 0 0 0-30Z" fill="#000" data-original="#000000" opacity="1" class=""></path></g></svg>