<svg xmlns="http://www.w3.org/2000/svg" version="1.1" xmlns:xlink="http://www.w3.org/1999/xlink" width="512" height="512" x="0" y="0" viewBox="0 0 512 512" style="enable-background:new 0 0 512 512" xml:space="preserve" class=""><g><path d="M438 0H74C55.252 0 40 15.252 40 34v444c0 18.748 15.252 34 34 34h274c68.374 0 124-55.626 124-124V34c0-18.748-15.252-34-34-34zM200 400h-8v8c0 13.255-10.745 24-24 24s-24-10.745-24-24v-8h-8c-13.255 0-24-10.745-24-24s10.745-24 24-24h8v-8c0-13.255 10.745-24 24-24s24 10.745 24 24v8h8c13.255 0 24 10.745 24 24s-10.745 24-24 24zm104.02 24c-13.254 0-24.005-10.745-24.005-24s10.74-24 23.995-24h.01c13.255 0 24 10.745 24 24s-10.746 24-24 24zm56-48c-13.254 0-24.005-10.745-24.005-24s10.74-24 23.995-24h.01c13.255 0 24 10.745 24 24s-10.746 24-24 24zM400 262c0 18.748-15.252 34-34 34H146c-18.748 0-34-15.252-34-34V106c0-18.748 15.252-34 34-34h220c18.748 0 34 15.252 34 34z" fill="#000" opacity="1" data-original="#000000" class=""></path></g></svg>