<?xml version="1.0" encoding="UTF-8"?>
<svg class="" enable-background="new 0 0 512 512" version="1.1" viewBox="0 0 512 512" xml:space="preserve" xmlns="http://www.w3.org/2000/svg"><path class="" d="m88.752 288.07c-11.414-11.385-29.889-11.385-41.303 0-11.404 11.375-11.404 29.849 0 41.224l103.33 103.06c11.414 11.385 29.889 11.385 41.303 0 11.404-11.375 11.404-29.849 0-41.224zm107.18 63.865 238.79-209.18a17.98 17.98 0 0 0 6.165-12.118l7.494-90.187c0.383-4.609-3.465-8.459-8.075-8.078l-90.48 7.48a17.984 17.984 0 0 0-12.096 6.131l-209.67 238.25zm-187.38 77.975c-11.408 11.378-11.408 29.826 0 41.204 5.699 5.689 13.176 8.533 20.653 8.533s14.954-2.844 20.663-8.533l48.315-48.163-41.316-41.214zm62.548-299.27a17.957 17.957 0 0 0 6.166 12.12l77.766 67.17 80.783-93.045-61.563-70.898a17.954 17.954 0 0 0-12.089-6.136l-90.485-7.477c-4.602-0.376-8.452 3.474-8.076 8.076zm312.83 153.59-30.05-31.37-74.576 64.427 36.755 34.652zm80.615 3.838c-11.414-11.385-29.889-11.385-41.303 0l-103.33 103.06c-11.404 11.375-11.404 29.849 0 41.224 11.414 11.385 29.889 11.385 41.302 0l103.33-103.06c11.404-11.375 11.404-29.849 0-41.224zm38.894 141.84-48.315-48.173-41.316 41.214 48.315 48.163c5.699 5.689 13.176 8.533 20.653 8.533s14.954-2.844 20.663-8.533c11.408-11.378 11.408-29.826 0-41.204z" fill="#000" data-original="#000000"/></svg>
