<svg xmlns="http://www.w3.org/2000/svg" version="1.1" xmlns:xlink="http://www.w3.org/1999/xlink" xmlns:svgjs="http://svgjs.com/svgjs" width="512" height="512" x="0" y="0" viewBox="0 0 64 64" style="enable-background:new 0 0 512 512" xml:space="preserve" class=""><g><path d="m55.72 40.69-2.8-1.46c.03-.16.05-.33.08-.49h-8.29a14.018 14.018 0 0 1-.65 1.99c-4.808 11.666-21.924 10.214-24.76-1.991H11c.03.16.05.33.08.49l-2.8 1.46a.998.998 0 0 0-.46 1.27l2.69 6.49a1.009 1.009 0 0 0 1.23.57l3-.95a20.791 20.791 0 0 0 4.94 4.92L18.72 56a1.009 1.009 0 0 0 .57 1.23l6.49 2.69a.996.996 0 0 0 1.28-.46l1.45-2.8a20.966 20.966 0 0 0 6.98 0l1.45 2.8a1.004 1.004 0 0 0 1.28.46l6.49-2.69a1.009 1.009 0 0 0 .57-1.23l-.96-3a20.978 20.978 0 0 0 4.93-4.93l3.01.95a1.009 1.009 0 0 0 1.23-.57l2.69-6.49a.998.998 0 0 0-.46-1.27zM10.82 36.73c.212.022 42.142.016 42.36 0a3.632 3.632 0 0 0-.1-7.26H10.92a3.63 3.63 0 0 0-.1 7.26zM26.54 27.47c3.237-.003 7.693.001 10.93 0h15.61a5.226 5.226 0 0 1 .97.09A22.104 22.104 0 0 0 40.07 8.18l-.13 1.55-1.35 14.745a1 1 0 0 1-1.989-.182L37.95 9.55l.14-1.58A3.655 3.655 0 0 0 34.47 4h-4.94a3.659 3.659 0 0 0-3.62 3.97c.005.188 1.425 15.589 1.489 16.324a1 1 0 0 1-1.99.182c-.052-.539-1.498-16.388-1.49-16.286A21.895 21.895 0 0 0 9.96 27.55a6.218 6.218 0 0 1 .96-.08z" fill="#000" data-original="#000000" opacity="1" class=""></path></g></svg>