<svg xmlns="http://www.w3.org/2000/svg" version="1.1" xmlns:xlink="http://www.w3.org/1999/xlink" xmlns:svgjs="http://svgjs.com/svgjs" width="512" height="512" x="0" y="0" viewBox="0 0 66 66" style="enable-background:new 0 0 512 512" xml:space="preserve"><g><path d="M36.93 17.6c-.65-1.25-1.5-2.41-2.55-3.46-2.7-2.7-6.3-4.19-10.13-4.19-3.82 0-7.42 1.48-10.13 4.18-5.57 5.58-5.57 14.66 0 20.24 2.7 2.7 6.3 4.19 10.13 4.19.91 0 1.8-.09 2.68-.25.22-.04.43-.1.65-.15 1.75-.41 3.39-1.14 4.86-2.17.68-.48 1.33-1.01 1.93-1.61C38.9 29.85 39.75 23 36.93 17.6zM24.41 34.87c-.71 0-1.28-.57-1.28-1.28s.57-1.28 1.28-1.28 1.28.57 1.28 1.28-.57 1.28-1.28 1.28zm1.13-8.44v3.08c0 .71-.57 1.28-1.28 1.28s-1.28-.57-1.28-1.28v-4.22c0-.71.57-1.28 1.28-1.28 1.81 0 3.28-1.47 3.28-3.28s-1.47-3.28-3.28-3.28-3.28 1.47-3.28 3.28c0 .71-.57 1.28-1.28 1.28s-1.28-.57-1.28-1.28c0-3.22 2.62-5.84 5.84-5.84s5.85 2.62 5.85 5.84a5.874 5.874 0 0 1-4.57 5.7z" fill="#000" data-original="#000000" opacity="1"></path><path d="M40.86 36.66c6.13-8.18 5.29-19.81-1.95-27.06-4.04-4.04-9.35-6.06-14.66-6.06S13.64 5.56 9.6 9.6c-8.08 8.08-8.08 21.23 0 29.32 7.24 7.24 18.88 8.08 27.06 1.95a20.582 20.582 0 0 0 4.2-4.21zm-4.68-.46a17.029 17.029 0 0 1-3.98 2.96 16.745 16.745 0 0 1-6.27 1.89c-.55.05-1.11.08-1.68.08-4.51 0-8.75-1.76-11.94-4.94-6.57-6.58-6.57-17.29 0-23.87 3.2-3.18 7.44-4.93 11.94-4.93 4.51 0 8.75 1.76 11.94 4.94 6.58 6.57 6.57 17.28-.01 23.87zM41.99 39.36c-.02.03-.05.05-.07.08-.39.45-.78.88-1.2 1.3s-.85.81-1.3 1.2c-.02.02-.05.04-.07.06l2.93 2.93 2.64-2.64zM62.19 55.45 49.44 42.69c-.18-.18-.41-.27-.64-.27s-.47.09-.64.27l-5.46 5.46c-.35.35-.35.93 0 1.29L55.44 62.2c.34.34.94.34 1.28 0l5.47-5.47c.36-.35.36-.93 0-1.28z" fill="#000" data-original="#000000" opacity="1"></path></g></svg>