<svg xmlns="http://www.w3.org/2000/svg" version="1.1" xmlns:xlink="http://www.w3.org/1999/xlink" width="512" height="512" x="0" y="0" viewBox="0 0 30 30" style="enable-background:new 0 0 512 512" xml:space="preserve"><g><path d="M23.74 3.75H6.25C4.45 3.75 3 5.2 3 7v15.99c0 1.8 1.45 3.26 3.25 3.26h17.49c1.8 0 3.26-1.46 3.26-3.26V7c0-1.8-1.46-3.25-3.26-3.25zM15 23.9c-.56 0-1-.44-1-.99s.44-1.01 1-1.01 1 .46 1 1.01-.44.99-1 .99zm9-5.92c0 .87-.71 1.58-1.58 1.58H7.58c-.87 0-1.58-.71-1.58-1.58V8.33c0-.87.71-1.58 1.58-1.58h14.84c.87 0 1.58.71 1.58 1.58z" fill="#000" opacity="1" data-original="#000000"></path><path d="M10.682 8.868a1 1 0 1 0-1.405 1.423l1.965 1.94-1.967 1.95a1 1 0 0 0 1.409 1.42l2.684-2.66a1.002 1.002 0 0 0-.002-1.423zM18.174 15.228h-2.88a1 1 0 1 0 0 2h2.88a1 1 0 1 0 0-2z" fill="#000" opacity="1" data-original="#000000"></path></g></svg>