<svg xmlns="http://www.w3.org/2000/svg" version="1.1" xmlns:xlink="http://www.w3.org/1999/xlink" xmlns:svgjs="http://svgjs.com/svgjs" width="512" height="512" x="0" y="0" viewBox="0 0 512 512" style="enable-background:new 0 0 512 512" xml:space="preserve" class=""><g><path d="M188.317 475.969v-92.473a67.68 67.68 0 0 0-17.375-45.277l-49.469-54.966c-5.34-5.933-14.225-7.05-20.866-2.622h0c-7.556 5.038-9.443 15.33-4.164 22.72l32.652 45.712M129.095 475.969v-52.805c0-9.63-3.285-18.971-9.313-26.48l-57.324-71.412a118.455 118.455 0 0 1-19.65-35.658L8.469 189.673c-3.377-9.829 2.386-20.443 12.469-22.963h0c8.636-2.159 17.534 2.42 20.797 10.701l32.364 82.133M323.683 475.969v-92.473a67.68 67.68 0 0 1 17.375-45.277l49.469-54.966c5.34-5.933 14.225-7.05 20.866-2.622h0c7.556 5.038 9.443 15.33 4.164 22.72l-32.652 45.712M382.905 475.969v-52.805c0-9.63 3.285-18.971 9.313-26.48l57.324-71.412a118.455 118.455 0 0 0 19.65-35.658l34.338-99.941c3.377-9.829-2.385-20.443-12.469-22.963h0c-8.636-2.159-17.534 2.42-20.797 10.701L437.9 259.544M222.159 188.317v118.445c0 9.345 7.576 16.921 16.921 16.921h0c9.345 0 16.921-7.576 16.921-16.921V196.778" style="stroke-width:15;stroke-linecap:round;stroke-linejoin:round;stroke-miterlimit:10;" fill="#000" stroke="#ffffff" stroke-width="15" stroke-linecap="round" stroke-linejoin="round" stroke-miterlimit="10" data-original="#000000" opacity="1"></path><path d="M256 196.778v109.985c0 9.345 7.576 16.921 16.921 16.921h0c9.345 0 16.921-7.576 16.921-16.921V188.317" style="stroke-width:15;stroke-linecap:round;stroke-linejoin:round;stroke-miterlimit:10;" fill="#000" stroke="#ffffff" stroke-width="15" stroke-linecap="round" stroke-linejoin="round" stroke-miterlimit="10" data-original="#000000" opacity="1"></path><path d="M289.841 146.015v50.762c0 9.345 7.576 16.921 16.921 16.921h0c9.345 0 16.921-7.576 16.921-16.921v-59.223c0-18.69-15.151-33.841-33.841-33.841h-67.683c-18.69 0-33.841 15.151-33.841 33.841v59.223c0 9.345 7.576 16.921 16.921 16.921h0c9.345 0 16.921-7.576 16.921-16.921v-50.762" style="stroke-width:15;stroke-linecap:round;stroke-linejoin:round;stroke-miterlimit:10;" fill="#000" stroke="#ffffff" stroke-width="15" stroke-linecap="round" stroke-linejoin="round" stroke-miterlimit="10" data-original="#000000" opacity="1"></path><circle cx="256" cy="57.182" r="21.151" style="stroke-width:15;stroke-linecap:round;stroke-linejoin:round;stroke-miterlimit:10;" fill="#000" stroke="#ffffff" stroke-width="15" stroke-linecap="round" stroke-linejoin="round" stroke-miterlimit="10" data-original="#000000" opacity="1"></circle><path d="M154.476 268.272v-54.574M120.634 205.238v42.302M188.317 306.762V247.54M162.936 112.174h-42.302c-18.69 0-33.841 15.151-33.841 33.841v67.683c0 9.345 7.576 16.921 16.921 16.921h0c9.345 0 16.921-7.576 16.921-16.921v-59.223" style="stroke-width:15;stroke-linecap:round;stroke-linejoin:round;stroke-miterlimit:10;" fill="#000" stroke="#ffffff" stroke-width="15" stroke-linecap="round" stroke-linejoin="round" stroke-miterlimit="10" data-original="#000000" opacity="1"></path><circle cx="154.476" cy="65.642" r="21.151" style="stroke-width:15;stroke-linecap:round;stroke-linejoin:round;stroke-miterlimit:10;" fill="#000" stroke="#ffffff" stroke-width="15" stroke-linecap="round" stroke-linejoin="round" stroke-miterlimit="10" data-original="#000000" opacity="1"></circle><path d="M357.524 268.272v-54.574M391.366 205.238v42.302M323.683 306.762V247.54M349.064 112.174h42.302c18.69 0 33.841 15.151 33.841 33.841v67.683c0 9.345-7.576 16.921-16.921 16.921h0c-9.345 0-16.921-7.576-16.921-16.921v-59.223" style="stroke-width:15;stroke-linecap:round;stroke-linejoin:round;stroke-miterlimit:10;" fill="#000" stroke="#ffffff" stroke-width="15" stroke-linecap="round" stroke-linejoin="round" stroke-miterlimit="10" data-original="#000000" opacity="1"></path><circle cx="357.524" cy="65.642" r="21.151" style="stroke-width:15;stroke-linecap:round;stroke-linejoin:round;stroke-miterlimit:10;" fill="#000" stroke="#ffffff" stroke-width="15" stroke-linecap="round" stroke-linejoin="round" stroke-miterlimit="10" data-original="#000000" opacity="1"></circle></g></svg>