<svg xmlns="http://www.w3.org/2000/svg" version="1.1" xmlns:xlink="http://www.w3.org/1999/xlink" xmlns:svgjs="http://svgjs.com/svgjs" width="512" height="512" x="0" y="0" viewBox="0 0 682.667 682.667" style="enable-background:new 0 0 512 512" xml:space="preserve" class=""><g><path d="M621.25 565H485.297a56.204 56.204 0 0 0-34.047-34.047V468.75h37.5c10.504 0 18.75-8.25 18.75-18.75V262.5c0-10.504-8.246-18.75-18.75-18.75h-112.5c-10.504 0-18.75 8.246-18.75 18.75v150h-75v-150c0-10.504-8.246-18.75-18.75-18.75h-112.5c-10.504 0-18.75 8.246-18.75 18.75V450c0 10.5 8.246 18.75 18.75 18.75h37.5v62.203A56.204 56.204 0 0 0 154.703 565H18.75C8.39 565 0 573.39 0 583.75s8.39 18.75 18.75 18.75h135.953c7.766 21.777 28.383 37.5 52.797 37.5s45.031-15.723 52.797-37.5h119.406c7.766 21.777 28.383 37.5 52.797 37.5s45.031-15.723 52.797-37.5H621.25c10.36 0 18.75-8.39 18.75-18.75S631.61 565 621.25 565zM432.5 300c10.504 0 18.75 8.246 18.75 18.75 0 10.5-8.246 18.75-18.75 18.75s-18.75-8.25-18.75-18.75c0-10.504 8.246-18.75 18.75-18.75zm0 75c10.504 0 18.75 8.246 18.75 18.75 0 10.5-8.246 18.75-18.75 18.75s-18.75-8.25-18.75-18.75c0-10.504 8.246-18.75 18.75-18.75zm-225-75c10.504 0 18.75 8.246 18.75 18.75 0 10.5-8.246 18.75-18.75 18.75s-18.75-8.25-18.75-18.75c0-10.504 8.246-18.75 18.75-18.75zm0 75c10.504 0 18.75 8.246 18.75 18.75 0 10.5-8.246 18.75-18.75 18.75s-18.75-8.25-18.75-18.75c0-10.504 8.246-18.75 18.75-18.75zm56.25 93.75c10.504 0 18.75-8.25 18.75-18.75h75c0 10.5 8.246 18.75 18.75 18.75h37.5v62.203A56.204 56.204 0 0 0 379.703 565H260.297a56.204 56.204 0 0 0-34.047-34.047V468.75zm0 0" fill="#000" data-original="#000000" opacity="1" class=""></path><path d="M95 439.125V262.5c0-31.129 25.121-56.25 56.25-56.25h112.5c31.129 0 56.25 25.121 56.25 56.25 0-31.129 25.121-56.25 56.25-56.25h112.5c31.129 0 56.25 25.121 56.25 56.25v176.625c55.5-22.5 95-77.25 95-139.125 0-68.629-49.254-128.25-114.879-145.125C518.75 109.875 479.375 75 432.5 75h-10.504C390.875 28.5 338.375 0 282.5 0c-87.75 0-160.504 67.5-168 155.25C48.875 171.75 0 231.371 0 300c0 61.875 39.5 116.625 95 139.125zm0 0" fill="#000" data-original="#000000" opacity="1" class=""></path></g></svg>