<svg xmlns="http://www.w3.org/2000/svg" version="1.1" xmlns:xlink="http://www.w3.org/1999/xlink" width="512" height="512" x="0" y="0" viewBox="0 0 32 32" style="enable-background:new 0 0 512 512" xml:space="preserve" class=""><g><path d="M26 13h-6a4.79 4.79 0 0 1-5-5V2a3.05 3.05 0 0 1 .18-1H8a3 3 0 0 0-3 3v24a3 3 0 0 0 3 3h16a3 3 0 0 0 3-3V12.82a3.05 3.05 0 0 1-1 .18zM12.23 26c-2 0-4.23-1.62-4.23-3.8v-.4a3.75 3.75 0 0 1 3.68-3.8h3.06a3.94 3.94 0 0 1 3.88 4 1 1 0 0 1-2 0 1.94 1.94 0 0 0-1.88-2h-3.06A1.74 1.74 0 0 0 10 21.8v.4c0 .93 1.26 1.8 2.23 1.8a1 1 0 1 1 0 2zM24 22.2a3.75 3.75 0 0 1-3.68 3.8h-3.06a3.94 3.94 0 0 1-3.88-4 1 1 0 0 1 2 0 1.94 1.94 0 0 0 1.88 2h3.06A1.74 1.74 0 0 0 22 22.2v-.4c0-.93-1.26-1.8-2.23-1.8a1 1 0 1 1 0-2c2 0 4.23 1.62 4.23 3.8z" fill="#000" opacity="1" data-original="#000000" class=""></path><path d="m26.71 9.29-8-8a1 1 0 0 0-1.09-.21A1 1 0 0 0 17 2v6a2.78 2.78 0 0 0 3 3h6a1 1 0 0 0 .92-.62 1 1 0 0 0-.21-1.09z" fill="#000" opacity="1" data-original="#000000" class=""></path></g></svg>