<svg xmlns="http://www.w3.org/2000/svg" version="1.1" xmlns:xlink="http://www.w3.org/1999/xlink" xmlns:svgjs="http://svgjs.com/svgjs" width="512" height="512" x="0" y="0" viewBox="0 0 48 48" style="enable-background:new 0 0 512 512" xml:space="preserve" class=""><g><path d="M48 15v6a1 1 0 0 1-1 1h-1.506a15.781 15.781 0 0 1-1.714 4.123l1.069 1.069a.999.999 0 0 1 0 1.414l-4.243 4.243a.999.999 0 0 1-1.414 0l-1.069-1.069c-.04.023-.083.04-.123.063V27c0-1.654-1.346-3-3-3h-.028a18.063 18.063 0 0 0-.73-1.757l.022-.022c.041-.041.07-.089.108-.132A5.94 5.94 0 0 0 36 18c0-3.309-2.691-6-6-6a5.944 5.944 0 0 0-4.092 1.629c-.042.038-.09.067-.13.107l-.021.021A17.825 17.825 0 0 0 24 13.026V13c0-1.654-1.346-3-3-3h-4.843c.023-.04.04-.083.063-.123l-1.069-1.069a.999.999 0 0 1 0-1.414l4.243-4.243a.999.999 0 0 1 1.414 0l1.069 1.068A15.795 15.795 0 0 1 26 2.505V1a1 1 0 0 1 1-1h6a1 1 0 0 1 1 1v1.505c1.446.373 2.828.947 4.123 1.715l1.069-1.069a.999.999 0 0 1 1.414 0l4.243 4.243a.999.999 0 0 1 0 1.414L43.78 9.877A15.801 15.801 0 0 1 45.494 14H47a1 1 0 0 1 1 1zM19 34a1 1 0 1 1-2 0v-2h-2v1c0 1.654 1.346 3 3 3s3-1.346 3-3v-1h-2zm9-4c0 5.514-4.486 10-10 10S8 35.514 8 30s4.486-10 10-10 10 4.486 10 10zm-6-4a1 1 0 1 0 2 0 1 1 0 0 0-2 0zm-10 0a1 1 0 1 0 2 0 1 1 0 0 0-2 0zm13 4H11a1 1 0 1 0 0 2h2v1c0 2.757 2.243 5 5 5s5-2.243 5-5v-1h2a1 1 0 1 0 0-2zm11-3v6a1 1 0 0 1-1 1h-1.506a15.781 15.781 0 0 1-1.714 4.123l1.069 1.069a.999.999 0 0 1 0 1.414l-4.243 4.243a.999.999 0 0 1-1.414 0l-1.069-1.069A15.804 15.804 0 0 1 22 45.495V47a1 1 0 0 1-1 1h-6a1 1 0 0 1-1-1v-1.505a15.795 15.795 0 0 1-4.123-1.714L8.808 44.85a.999.999 0 0 1-1.414 0l-4.243-4.243a.999.999 0 0 1 0-1.414l1.068-1.069A15.816 15.816 0 0 1 2.505 34H1a1 1 0 0 1-1-1v-6a1 1 0 0 1 1-1h1.505a15.795 15.795 0 0 1 1.714-4.123l-1.068-1.069a.999.999 0 0 1 0-1.414l4.243-4.243a.999.999 0 0 1 1.414 0l1.069 1.068A15.795 15.795 0 0 1 14 14.505V13a1 1 0 0 1 1-1h6a1 1 0 0 1 1 1v1.505c1.446.373 2.828.947 4.123 1.715l1.069-1.069a.999.999 0 0 1 1.414 0l4.243 4.243a.999.999 0 0 1 0 1.414l-1.069 1.069A15.801 15.801 0 0 1 33.494 26H35a1 1 0 0 1 1 1zm-6 3c0-6.617-5.383-12-12-12S6 23.383 6 30s5.383 12 12 12 12-5.383 12-12z" fill="#000" data-original="#000000" opacity="1" class=""></path></g></svg>