<svg xmlns="http://www.w3.org/2000/svg" version="1.1" xmlns:xlink="http://www.w3.org/1999/xlink" xmlns:svgjs="http://svgjs.com/svgjs" width="512" height="512" x="0" y="0" viewBox="0 0 432.947 310.332" style="enable-background:new 0 0 512 512" xml:space="preserve" class=""><g><path d="m274.592 42.856.878 2.122c5.534.019 11.086-1.97 15.446-6.051 9.073-8.492 9.544-22.73 1.051-31.803-8.491-9.071-22.73-9.543-31.802-1.05-3.632 3.399-5.86 7.723-6.712 12.265l18.587 19.858a10.726 10.726 0 0 1 2.552 4.659z" fill="#000" data-original="#000000" opacity="1" class=""></path><path d="m172.922 84.025 17.85-3.967.737 5.584 5.506 41.688-28.037 55.14c-3.004 5.907-.65 13.131 5.257 16.135a11.94 11.94 0 0 0 5.43 1.307 12 12 0 0 0 10.705-6.565l29.725-58.459a11.996 11.996 0 0 0 1.2-7.01l-3.777-28.6a7.71 7.71 0 0 0 2.039-1.37l41.267-38.627 12.19 29.466a7.992 7.992 0 0 0 10.451 4.334l.017-.008c.226-.094.444-.2.658-.312.024-.013.049-.022.072-.035.19-.103.371-.216.551-.333.045-.03.094-.055.138-.085.089-.06.17-.129.256-.192a7.948 7.948 0 0 0 1.779-1.816c.042-.06.09-.117.13-.178.061-.092.113-.188.17-.282.078-.13.16-.256.231-.39.014-.025.025-.053.038-.079a7.95 7.95 0 0 0 .838-2.706c.006-.049.017-.097.022-.147.008-.078.008-.16.014-.239a7.94 7.94 0 0 0 .029-.565c0-.044-.005-.09-.006-.134a7.932 7.932 0 0 0-.034-.674v-.022l-2.753-27.248a7.999 7.999 0 0 0-7.885-7.194l6.713 16.225-2.88.887-9.832-23.763a7.677 7.677 0 0 0-1.881-3.544L243.448 12.04c-2.666-2.848-6.973-3.22-10.075-1.04l-10.059 5.19-16.043 8.277a8 8 0 0 0-3.707 10.209 7.99 7.99 0 0 0 1.693 2.524l-9.527 8.918-11.562 10.822-41.04 9.12-41.624-38.453c-4.868-4.497-12.46-4.198-16.957.672-4.497 4.868-4.196 12.46.671 16.957l32.339 29.875c1.402-.022 2.786-.035 4.14-.035 19.86 0 34.397 2.53 51.225 8.948zM415.053 137.58c4.314.898 15.691-6.394 17.75-12.25.855-2.433-2.222-11.618-6.11-21.522-5.843 5.121-17.551 15.35-25.48 22.06 5.87 5.832 11.76 11.275 13.84 11.712zM414.157 74.53s-3.523-8.813-7.296-17.046c-12.517-1.901-25.445.87-31.81 2.61l38.101 50.224c4.857-4.221 9.316-8.124 11.969-10.451-5.157-12.73-10.964-25.337-10.964-25.337zm-7.58 11.827a4.376 4.376 0 1 1 0-8.753 4.376 4.376 0 0 1 0 8.753z" fill="#000" data-original="#000000" opacity="1" class=""></path><path d="M355.522 114.77c-25.306-11.078-44.721-26.775-61.37-40.247-1.408-1.14-2.791-2.258-4.155-3.357l1.355 13.416c.499 4.942-2.372 9.457-6.74 11.267l.002.004c-.148.061-.3.106-.45.16-.173.064-.344.133-.522.187-.242.075-.487.132-.733.19-.102.023-.202.055-.305.076-.72.147-1.453.224-2.194.224-.322 0-.642-.018-.96-.045-.111-.01-.22-.025-.332-.038a11.061 11.061 0 0 1-.99-.159c-.16-.033-.317-.072-.474-.113-.148-.038-.296-.073-.44-.117-.128-.038-.251-.084-.376-.127-.318-.108-.63-.23-.933-.366-.089-.04-.178-.076-.266-.118a10.9 10.9 0 0 1-.512-.267 10.498 10.498 0 0 1-.759-.453c-.071-.047-.14-.096-.21-.144a10.946 10.946 0 0 1-2.16-1.961l-.111-.133a10.846 10.846 0 0 1-.41-.537l-.1-.142a10.96 10.96 0 0 1-.385-.59l-.026-.047a10.938 10.938 0 0 1-.796-1.613l-1.082-2.615c-3.19.41-8.1 1.077-14.098 1.804-1.437 15.316-7.888 60.196-34.135 59.792a78.29 78.29 0 0 1-3.235-.12l-19.52 38.391c29.838 7.119 74.001 17.414 98.73 16.306l.228 4.142 3.887 70.8c.002.03.008.058.01.087.018.289.046.576.089.86.007.046.017.092.024.137.041.25.091.496.151.74.03.124.066.244.1.365a9.926 9.926 0 0 0 .284.856c.054.139.112.275.172.412.056.128.11.257.172.382.073.15.154.294.234.44.069.124.135.25.21.37.12.2.247.397.383.588l.054.077.02.028 16 22.556a10 10 0 0 0 8.156 4.214h11.01a9.99 9.99 0 0 0 2.85-.418c4.133-1.228 7.15-5.05 7.15-9.582 0-5.522-4.478-10-10-10h-5.843l-11.234-15.836.181-84.218 1.707-1.138c1.116-2.246 18.42-46.008 19.828-50.042.696-1.993 5.482-11.42 10.65-20.495 1.219.534 2.45 1.058 3.696 1.57a163.871 163.871 0 0 0 36.291 10.26l.639-3.95a159.65 159.65 0 0 1-34.899-9.811 167.8 167.8 0 0 1-3.708-1.56l.2-.341z" fill="#000" data-original="#000000" opacity="1" class=""></path><path d="M289.12 62.486c4.127.637 7.094 1.864 9.215 3.26l.045.028-.113.02c-2.244.377-4.45.918-6.587 1.594a1804.65 1804.65 0 0 1 4.988 4.026c16.532 13.377 35.83 28.984 60.941 39.892 3.817-6.201 7.273-10.998 8.81-11.11 4.161-.3 17.76 8.41 20.718 11.26 1.3 1.254 6.006 6.264 11.243 11.57 3.437-2.907 7.621-6.507 11.745-10.08l-60.874-80.24c-9.351-4.784-20.17-5.63-24.709-3.626 5.69 2.796 8.985 5.71 10.865 8.328-16.732-4.028-36 3.764-40.78 10.222 9.307-.567 15.096 1.108 18.691 3.285-9.109-.632-18.309 1.597-25.035 4.718.144.552.258 1.117.317 1.702zM372.446 56.662c5.608-1.667 18.812-4.921 32.39-3.475-2.368-4.867-4.604-8.84-5.89-9.568-2.216-1.25-4.924-2.738-7.174-4.049a75.95 75.95 0 0 0 .878-4.127c1.41-7.674 1.465-14.592.673-18.833-.247-1.327-1.857-.888-2.269.605-1.401 5.093-3.192 9.166-5.013 12.385a44.2 44.2 0 0 1-.985 1.659c.101-.816.186-1.617.257-2.402.438-4.892.298-9.14-.252-12.089-.248-1.327-1.858-.888-2.27.605a59.262 59.262 0 0 1-2.274 6.707 51.274 51.274 0 0 1-1.761 3.86c-3.573-3.505-7.127-6.688-8.674-6.895 2.23 5.003 2.483 10.455 1.489 13.817-1.06-1.898-2.222-3.544-3.466-4.96-5.804-6.61-13.332-8.287-19.948-7.865 4.936 5.175 6.763 8.904 6.817 11.594zM126.254 166.436l40.195 12.18 18.927-37.222c-20.93-7.914-38.356-21.12-37.793-33.91.777-17.663 18.032-18.154 12.555-23.541-21.115-6.074-39.597-5.432-71.297-3.557-12.347.724-22.933 7.555-27.88 11.032-4.947 3.477-30.625 31.299-36.632 40.306-6.01 9.007-12.681 21.39-13.51 28.821-.832 7.432-1.422 65.528-9.53 79.037-8.105 13.513 24.545 1.126 27.25-16.888 2.702-18.015.294-56.745 6.597-71.156 4.938-11.281 8.238-26.953 15.48-35.83-.417 2.108-4.312 25.95-2.266 37.93 1.443 8.45 7.686 22.277 11.247 29.704l1.237 9.884 3.512 28.06c.067.538.176 1.061.323 1.565L46.683 239.02a10 10 0 0 0-3.187 9.027l8.68 53.876a10 10 0 0 0 9.872 8.41h10.11c5.523 0 10-4.478 10-10s-4.477-10-10-10h-1.592l-6.458-40.085 23.9-21.485a9.995 9.995 0 0 0 1.864-2.249l30.19-49.761 5.849-9.64c.133-.218.229-.45.344-.677z" fill="#000" data-original="#000000" opacity="1" class=""></path></g></svg>