<svg xmlns="http://www.w3.org/2000/svg" version="1.1" xmlns:xlink="http://www.w3.org/1999/xlink" xmlns:svgjs="http://svgjs.com/svgjs" width="512" height="512" x="0" y="0" viewBox="0 0 512 512" style="enable-background:new 0 0 512 512" xml:space="preserve" class=""><g><path d="M284.785 397.358C318.267 370.99 299.634 317 257 317c-24.813 0-45 20.187-45 45 0 14.332 6.743 27.111 17.215 35.358C201.58 408.424 182 435.46 182 467v30c0 8.284 6.716 15 15 15h120c8.284 0 15-6.716 15-15v-30c0-31.54-19.58-58.576-47.215-69.642zM464.785 397.358C498.267 370.99 479.634 317 437 317c-24.813 0-45 20.187-45 45 0 14.332 6.743 27.111 17.215 35.358C381.58 408.424 362 435.46 362 467v30c0 8.284 6.716 15 15 15h120c8.284 0 15-6.716 15-15v-30c0-31.54-19.58-58.576-47.215-69.642zM332 151h30v30h-30zM272 151h30v30h-30zM298.728 91l-7.588 30h111.664l-7.475-30zM422 181v-29.997L392 151v30z" fill="#000" data-original="#000000" opacity="1" class=""></path><circle cx="75" cy="76" r="45" fill="#000" data-original="#000000" opacity="1" class=""></circle><path d="M497 0H197c-8.284 0-15 6.716-15 15v76h1c30.965 0 56.524 23.58 59.671 53.726 1.998-9.342 8.352-17.086 16.832-20.989l13.005-51.416A15 15 0 0 1 287.05 61h120a15 15 0 0 1 14.555 11.374l12.786 51.316C444.766 128.416 452 138.876 452 151v45c0 8.284-6.716 15-15 15v15c0 8.284-6.716 15-15 15s-15-6.716-15-15v-15H287v15c0 8.284-6.716 15-15 15s-15-6.716-15-15v-15c-8.284 0-15-6.716-15-15v-34.158C236.88 189.766 212.381 211 183 211h-1v60c0 8.284 6.716 15 15 15h300c8.284 0 15-6.716 15-15V15c0-8.284-6.716-15-15-15z" fill="#000" data-original="#000000" opacity="1" class=""></path><path d="M214 151c0-16.569-13.431-30-30-30H60c-33.137 0-60 26.863-60 60v115h120V181h64c16.569 0 30-13.431 30-30zM0 497c0 8.284 6.716 15 15 15h30V326H0zM75 512h30c8.284 0 15-6.716 15-15V326H75z" fill="#000" data-original="#000000" opacity="1" class=""></path></g></svg>