<svg xmlns="http://www.w3.org/2000/svg" version="1.1" xmlns:xlink="http://www.w3.org/1999/xlink" width="512" height="512" x="0" y="0" viewBox="0 0 46 68" style="enable-background:new 0 0 512 512" xml:space="preserve"><g><path d="M8 47V31H1a1 1 0 0 1-1-1v-2a1 1 0 0 1 1-1h7V11H1a1 1 0 0 1-1-1V8a1 1 0 0 1 1-1h7V2a2 2 0 0 1 2-2h26a2 2 0 0 1 2 2v5h7a1 1 0 0 1 1 1v2a1 1 0 0 1-1 1h-7v16h7a1 1 0 0 1 1 1v2a1 1 0 0 1-1 1h-7v16h7a1 1 0 0 1 1 1v2a1 1 0 0 1-1 1h-7v15a2 2 0 0 1-2 2H10a2 2 0 0 1-2-2V51H1a1 1 0 0 1-1-1v-2a1 1 0 0 1 1-1zm15-4a8 8 0 1 0 0-16 8 8 0 0 0 0 16zm0-20a8 8 0 1 0 0-16 8 8 0 0 0 0 16zm0 40a8 8 0 1 0 0-16 8 8 0 0 0 0 16zm0-24a4 4 0 1 1 0-8 4 4 0 0 1 0 8zm0-20a4 4 0 1 1 0-8 4 4 0 0 1 0 8zm0 40a4 4 0 1 1 0-8 4 4 0 0 1 0 8z" fill="#000" opacity="1" data-original="#000000"></path></g></svg>