<svg xmlns="http://www.w3.org/2000/svg" version="1.1" xmlns:xlink="http://www.w3.org/1999/xlink" width="512" height="512" x="0" y="0" viewBox="0 0 32 32" style="enable-background:new 0 0 512 512" xml:space="preserve"><g><path d="M16 20.482c5.92-.182 5.92-8.774 0-8.956-5.92.182-5.92 8.774 0 8.956z" fill="#000" opacity="1" data-original="#000000"></path><path d="M10.262 8.754a1.068 1.068 0 0 0-1.511 0c-3.983 3.819-3.983 10.681 0 14.5.208.208.482.313.755.313.914.03 1.438-1.19.756-1.825-3.153-3.025-3.153-8.452 0-11.476a1.068 1.068 0 0 0 0-1.512zM21.738 23.253a1.068 1.068 0 0 0 1.511 0c1.94-1.937 3.007-4.511 3.007-7.25s-1.067-5.311-3.007-7.249a1.068 1.068 0 1 0-1.51 1.512c3.152 3.025 3.152 8.451 0 11.476a1.068 1.068 0 0 0 0 1.511z" fill="#000" opacity="1" data-original="#000000"></path><path d="M26.579 27.651c.273 0 .547-.104.755-.312 6.221-5.958 6.221-16.712 0-22.67a1.071 1.071 0 0 0-1.512 0 1.07 1.07 0 0 0 .001 1.513c5.392 5.161 5.391 14.483 0 19.644-.68.633-.16 1.86.756 1.825zM5.421 27.652c.915.029 1.438-1.188.756-1.826-5.392-5.161-5.391-14.483 0-19.644.983-.985-.516-2.5-1.512-1.514-6.22 5.96-6.22 16.713 0 22.671.21.208.483.313.756.313z" fill="#000" opacity="1" data-original="#000000"></path></g></svg>