<?xml version="1.0" encoding="UTF-8"?>
<svg enable-background="new 0 0 512 512" version="1.1" viewBox="0 0 512 512" xml:space="preserve" xmlns="http://www.w3.org/2000/svg"><g fill="#000"><path d="m234 43.594c4.64-6.96 2.691-16.37-4.332-20.914l-31.33-20.272c-6.888-4.457-16.079-2.553-20.63 4.273l-38.794 58.19 60.675 30.337zm53.307 95.473 28.402-42.603c4.64-6.96 2.691-16.37-4.332-20.914l-31.33-20.272c-6.888-4.457-16.079-2.553-20.63 4.273l-32.785 49.178zm6.809 75.482 27.471 12.209a15.001 15.001 0 0 0 18.573-5.387l50.807-76.211c4.64-6.96 2.691-16.37-4.332-20.914l-24.879-16.099c-6.888-4.457-16.079-2.553-20.63 4.273l-53.4 80.1c-5.156 7.737-2.106 18.253 6.39 22.029zm167.78-41.606-24.879-16.098c-6.888-4.457-16.079-2.553-20.63 4.273l-45.557 68.336c-5.157 7.736-2.107 18.252 6.389 22.028l27.471 12.209a15 15 0 0 0 18.573-5.387l42.965-64.448c4.64-6.958 2.691-16.368-4.332-20.913z" data-original="#000000"/><path d="m410.77 294.99h-3e-3a44.694 44.694 0 0 1-18.269-3.881l-140.18-62.299h-9.479l63.013 126.02c3.812 7.625 0.521 16.943-7.364 20.433-7.386 3.269-16.046-0.171-19.658-7.395l-69.532-139.06h-64.172c-8.077 0-15.027-6.207-15.407-14.275-0.406-8.614 6.458-15.725 14.983-15.725h94.744c5.015 0 9.699-2.507 12.481-6.68l9.177-13.766c5.005-7.507 2.297-17.702-5.773-21.737l-121.35-60.675a15 15 0 0 0-19.189 5.096l-69.021 103.53a15 15 0 0 0 0.427 17.249l110.56 149.25a14.998 14.998 0 0 1 2.499 12.566l-27.43 109.72c-2.367 9.467 4.794 18.638 14.552 18.638h226.86c8.284 0 15-6.716 15-15v-80.061a15 15 0 0 1 6.659-12.467s3.763-2.517 9.33-6.229c24.678-16.451 39.411-43.979 39.411-73.638v-43.904a44.883 44.883 0 0 1-32.869 14.286z" data-original="#000000"/></g></svg>
