<svg xmlns="http://www.w3.org/2000/svg" version="1.1" xmlns:xlink="http://www.w3.org/1999/xlink" xmlns:svgjs="http://svgjs.com/svgjs" width="512" height="512" x="0" y="0" viewBox="0 0 96.857 96.857" style="enable-background:new 0 0 512 512" xml:space="preserve" class=""><g><path d="m73.171 70.223-7.635-28.776a1.5 1.5 0 0 0-1.412-1.115v-.014c-1.452-13.909-5.062-23.186-10.728-27.57-3.456-2.674-6.65-2.739-7.719-2.662L32.925.31a1.499 1.499 0 0 0-2.101.275L30.505 1a1.5 1.5 0 0 0 .276 2.105l6.16 4.723c-.919.793-1.426 1.884-1.426 3.072h-5.234a1.5 1.5 0 0 0-1.5 1.5v.523a1.5 1.5 0 0 0 1.5 1.5h4.631v6.811c-6.745 2.328-11.276 8.678-11.276 15.801v58.322a1.5 1.5 0 0 0 1.5 1.5h30.456a1.5 1.5 0 0 0 1.5-1.5V37.035c0-7.123-4.532-13.473-11.277-15.801v-6.811l1.203-.783h.001c.985.135 2.52.571 4.225 1.89 4.887 3.785 8.047 12.284 9.393 25.263l.001.008a1.5 1.5 0 0 0-1.11 1.45l.024 29.81a1.498 1.498 0 0 0 1.703 1.485l10.671-1.453a1.5 1.5 0 0 0 1.046-.654c.234-.358.31-.8.199-1.216zm-34.89 3.688a4.301 4.301 0 0 1-.754 1.432 3.896 3.896 0 0 1-1.564 1.172.608.608 0 0 1-.825-.663 7.4 7.4 0 0 0 .082-.615 4.93 4.93 0 0 0-.001-.853 3.244 3.244 0 0 0-.181-.807 3.877 3.877 0 0 0-.343-.686 8.784 8.784 0 0 0-.477-.7 21.426 21.426 0 0 0-.633-.788l-.009-.011c-.021-.021-.042-.047-.067-.077l-.103-.12-.054-.061.001-.001-.209-.246a6.605 6.605 0 0 1-.537-.748 5.837 5.837 0 0 1-.742-1.81 4.847 4.847 0 0 1-.035-1.914 4.099 4.099 0 0 1 .616-1.521 3.77 3.77 0 0 1 1.531-1.337.607.607 0 0 1 .864.59 7.045 7.045 0 0 0-.02.669c.009.313.04.598.093.845.058.275.146.527.267.755.13.253.278.458.405.628a9.64 9.64 0 0 0 .543.642c.025.031.056.062.086.094l.053.054c.008.009.014.017.021.023.037.046.081.09.125.135l.038.038c.028.028.055.058.091.099l.14.151c.06.062.18.202.279.324.396.484.727 1.01.979 1.562.276.604.454 1.249.515 1.867.063.636 0 1.303-.175 1.878zm7.627-15.682c.128.133.377.421.622.722a15.75 15.75 0 0 1 2.145 3.42c.605 1.321.996 2.736 1.127 4.093a10.562 10.562 0 0 1-.385 4.11 9.425 9.425 0 0 1-1.65 3.138 8.582 8.582 0 0 1-2.074 1.86 8.122 8.122 0 0 1-1.852.888 6.42 6.42 0 0 1-.828.219.6.6 0 0 1-.55-.172.607.607 0 0 1-.156-.556c.054-.234.111-.508.171-.803.079-.432.181-1.021.235-1.668a10.34 10.34 0 0 0-.001-1.875 7.076 7.076 0 0 0-.396-1.759 8.741 8.741 0 0 0-.753-1.509 18.678 18.678 0 0 0-1.045-1.532 41.782 41.782 0 0 0-1.384-1.726l-.009-.01a5.984 5.984 0 0 1-.164-.188 14.696 14.696 0 0 0-.218-.253l-.127-.146c-.003-.004-.321-.376-.437-.52a14.102 14.102 0 0 1-1.188-1.652c-.773-1.25-1.334-2.617-1.623-3.954-.305-1.382-.333-2.87-.078-4.19a8.981 8.981 0 0 1 1.349-3.337 8.485 8.485 0 0 1 1.923-2.056 8.02 8.02 0 0 1 1.799-1.038c.293-.121.589-.221.877-.296a.607.607 0 0 1 .754.657c-.031.255-.063.544-.091.87a16.02 16.02 0 0 0-.058 1.688c.019.688.088 1.312.205 1.854a6.26 6.26 0 0 0 .582 1.65c.227.438.499.857.884 1.364.329.431.709.882 1.16 1.378l.025.029c.064.083 1.209 1.3 1.209 1.3z" fill="#000" data-original="#000000" opacity="1" class=""></path></g></svg>