<svg xmlns="http://www.w3.org/2000/svg" version="1.1" xmlns:xlink="http://www.w3.org/1999/xlink" width="512" height="512" x="0" y="0" viewBox="0 0 45 45" style="enable-background:new 0 0 512 512" xml:space="preserve"><g><g fill="#3c3c3c"><path d="M22.066 6.884V4.933L5.149 1.493v10.782l16.917-3.439z" fill="#000" opacity="1" data-original="#3c3c3c"></path><path d="M35.463 8.038c-2.49-1.965-5.41-2.198-7.231-2.101V4.375a2.324 2.324 0 1 0-4.647 0v6.687a6.32 6.32 0 0 0-5.112 6.202v23.269c0 1.643 1.214 2.975 2.712 2.975h9.449c1.497 0 2.711-1.332 2.711-2.975V17.264a6.32 6.32 0 0 0-5.112-6.202V7.43c1.566-.091 4.161.079 6.31 1.775 2.536 2.002 3.822 5.6 3.822 10.693a.743.743 0 0 0 1.487 0c-.001-5.572-1.478-9.562-4.389-11.86zm-6.497 16.787s-.051 1.991.817 3.268c.868 1.276 2.553 4.187-2.451 6.229 0 0 1.276-.919.511-2.451s-.664-2.145-.612-2.451c0 0-.971.971-.563 2.043 0 0-1.685-1.43-1.021-3.421 0 0-1.123.766-.919 1.838s.152 1.787-.307 2.195c0 0-.103-1.48-.612-1.838 0 0 0 1.123-.256 1.685-.255.562-.255 1.634.562 2.4 0 0-3.217-.46-3.063-3.115.153-2.655 1.736-4.952.817-6.995 0 0 1.531.307 2.246 2.604 0 0 1.979-2.885.396-5.183 0 0 2.443.949 2.826 3.37.203 1.293.047 2.63.557 3.345 0 0-.358-2.451 1.072-3.523z" fill="#000" opacity="1" data-original="#3c3c3c"></path></g></g></svg>