<svg xmlns="http://www.w3.org/2000/svg" version="1.1" xmlns:xlink="http://www.w3.org/1999/xlink" xmlns:svgjs="http://svgjs.com/svgjs" width="512" height="512" x="0" y="0" viewBox="0 0 64 64" style="enable-background:new 0 0 512 512" xml:space="preserve" class=""><g><g fill="#000"><path d="M14 12a2 2 0 1 0 0 4h36a2 2 0 1 0 0-4zM33.414 18.086a2 2 0 0 0-2.828 0l-3.857 3.857a2 2 0 0 0 2.828 2.828l.443-.443v15.344l-.443-.443a2 2 0 0 0-2.828 2.828l3.857 3.857a2 2 0 0 0 2.828 0l3.857-3.857a2 2 0 0 0-2.828-2.828l-.443.443V24.328l.443.443a2 2 0 0 0 2.828-2.828zM14 48a2 2 0 1 0 0 4h36a2 2 0 1 0 0-4z" fill="#000" data-original="#000000" opacity="1" class=""></path><path fill-rule="evenodd" d="M20 2C10.059 2 2 10.059 2 20v24c0 9.941 8.059 18 18 18h24c9.941 0 18-8.059 18-18V20c0-9.941-8.059-18-18-18zM6 20c0-7.732 6.268-14 14-14h24c7.732 0 14 6.268 14 14v24c0 7.732-6.268 14-14 14H20c-7.732 0-14-6.268-14-14z" clip-rule="evenodd" fill="#000" data-original="#000000" opacity="1" class=""></path></g></g></svg>