<svg xmlns="http://www.w3.org/2000/svg" version="1.1" xmlns:xlink="http://www.w3.org/1999/xlink" xmlns:svgjs="http://svgjs.com/svgjs" width="512" height="512" x="0" y="0" viewBox="0 0 66 66" style="enable-background:new 0 0 512 512" xml:space="preserve" class=""><g><path d="m43.5 37.4.1-.8-3.9-1.1-.2 1.2c-.2 1.1.5 2.1 1.6 2.3 1.3.2 2.3-.6 2.4-1.6zM23.8 31.1l-.6.3-1.1-.4-.1.4-.2-.1v.2l1.9 2.1 1.3-1.2-1.1.1.3-1-.2-.1v-.3zM25.3 65c1.7.1 3.1-1.1 3.2-2.8l1.1-15.8h1.6l1.1 15.8c.1 1.6 1.4 2.8 3 2.8 1.7 0 3.1-1.5 3-3.2l-1.1-15.4c.3 0 .6-.3.6-.6l.8-10.6-3.9-1.1c-.1.1-.2.1-.3.2-.2 1.4-.9 1.8-.5 5.7l.1 1.1h-4.8c-.8-1.4-.6-2.4-.3-5-.4-.1-.7-.3-1-.5-.1.3-.5.7-1 .7l-.4.4v.1c0 .1 2.1 2.4-.1 4.4-1.1 1-2.7 1-3.7.2l.4 4.6c0 .3.3.6.6.6L22.6 62c-.2 1.5 1 2.9 2.7 3z" fill="#000" data-original="#000000" opacity="1"></path><path d="m26.5 28.5-.2.6s-.4-.1-.4 0l-.5-.1v.1l-3.2-.9-.6 1.6 1.4.4.6-.3 1.3.4v.2l.4.1-.2.7s.8-.1 1 .9l-.1.6-1.7 1.6 1.4 1.5.7-.8s.5.2.5-.1l-.1-.3s.1-.4.5-.6c0 0 .6.1 1 .5 0 0 .5.7 1 .5l.7-.2s-.7 4.5-.3 5.2h3.2s-.3-3.4.3-5l.4-1.5s.7 0 .7-.6L45 36l.3-.4 7.1 2s.5-.2.2-.8l-7.1-2c0-.1.1-1.2.1-1zm3.5 6-.6.2c-.3.2-.7 0-.7 0-.1-.2-1-.7-1-.7 0-1 .8-.9.8-.9-.6.9 0 1.2 0 1.2-.2-.6.4-1.1.4-1.1l.9.2c.6.3.2 1.1.2 1.1zM13.7 31.8l.2-.2s.1.5.5.4c0 0 .5-.2.4-.4 0 0-.2-.5-.4-.5 0 0 .4-.5.9-.8l1.3-3.7-2-.5s0-.1-.2-.2l-.4-.2s-.1 0-.2.3c0 0-.8 4.8-.5 5.6z" fill="#000" data-original="#000000" opacity="1"></path><path d="M16.1 31c-.1.2-.1.5-.1.7 0 .4.2.9.5 1.2.1.1 6.8 7.6 6.4 7.1.7.8 2 .9 2.8.2 1.8-1.6-.4-3.3-.4-3.5L23.6 35l-.7-.7-1-1.1-1.7-1.9c.7-2.2 2.4-7.4 2.4-7.3.4.7.5 1.6.2 2.4l-.3 1c.1 0 3.2.8 3 .7l.2-.8 13.1 3.6.5-6 1.7 3.3-.5 3.1 3.9 1.1.7-4.1c.1-.4 0-.9-.2-1.3l-4.5-8.7c-1.1-2.1-12.3-8-19.7-.6-.6.6-.5.9-1.9 5l-1.1 3.2-.3.9-1.3 4z" fill="#000" data-original="#000000" opacity="1"></path><circle cx="30.3" cy="6.7" r="5.7" fill="#000" data-original="#000000" opacity="1"></circle></g></svg>