<svg xmlns="http://www.w3.org/2000/svg" version="1.1" xmlns:xlink="http://www.w3.org/1999/xlink" xmlns:svgjs="http://svgjs.com/svgjs" width="512" height="512" x="0" y="0" viewBox="0 0 32 32" style="enable-background:new 0 0 512 512" xml:space="preserve"><g><path d="M20 6a.995.995 0 0 1-.734-.322c-2.028-2.195-4.504-2.195-6.532 0a1 1 0 1 1-1.468-1.356C12.668 2.802 14.305 2 16 2s3.332.803 4.734 2.322A1 1 0 0 1 20 6z" fill="#000" data-original="#000000" opacity="1"></path><path d="M18 8a.995.995 0 0 1-.734-.322C16.979 7.368 16.528 7 16 7s-.98.369-1.266.678a1 1 0 0 1-1.468-1.356c1.595-1.73 3.873-1.73 5.468 0A1 1 0 0 1 18 8z" fill="#000" data-original="#000000" opacity="1"></path><circle cx="16" cy="9" r="1" fill="#000" data-original="#000000" opacity="1"></circle><path d="M5 14v10h15V14zm11 9H9v-1a2 2 0 0 1 2-2h1.5a2.5 2.5 0 1 1 0-5 2.5 2.5 0 0 1 0 5H14a2 2 0 0 1 2 2z" fill="#000" data-original="#000000" opacity="1"></path><path d="M28 11H4a2 2 0 0 0-2 2v15a2 2 0 0 0 2 2h24a2 2 0 0 0 2-2V13a2 2 0 0 0-2-2zm-4 2a1.001 1.001 0 0 1 0 2 1.001 1.001 0 0 1 0-2zm0 3a1.001 1.001 0 0 1 0 2 1.001 1.001 0 0 1 0-2zm0 3a1.001 1.001 0 0 1 0 2 1.001 1.001 0 0 1 0-2zM8.5 28h-2a.5.5 0 1 1 0-1h2a.5.5 0 1 1 0 1zm5 0h-2a.5.5 0 1 1 0-1h2a.5.5 0 1 1 0 1zm5 0h-2a.5.5 0 1 1 0-1h2a.5.5 0 1 1 0 1zm1.5-3H5a1 1 0 0 1-1-1V14a1 1 0 0 1 1-1h15a1 1 0 0 1 1 1v10a1 1 0 0 1-1 1zm5.5 3a2.503 2.503 0 0 1-2.5-2.5c0-1.379 1.121-2.5 2.5-2.5s2.5 1.121 2.5 2.5-1.121 2.5-2.5 2.5zm1.5-7a1.001 1.001 0 0 1 0-2 1.001 1.001 0 0 1 0 2zm0-3a1.001 1.001 0 0 1 0-2 1.001 1.001 0 0 1 0 2zm0-3a1.001 1.001 0 0 1 0-2 1.001 1.001 0 0 1 0 2z" fill="#000" data-original="#000000" opacity="1"></path><circle cx="25.5" cy="25.5" r="1.5" fill="#000" data-original="#000000" opacity="1"></circle></g></svg>