<svg xmlns="http://www.w3.org/2000/svg" version="1.1" xmlns:xlink="http://www.w3.org/1999/xlink" width="512" height="512" x="0" y="0" viewBox="0 0 32 32" style="enable-background:new 0 0 512 512" xml:space="preserve"><g><path d="M29.919 22.607v-.001L27.088 16H28a1 1 0 0 0 0-2h-4.999A1 1 0 0 0 24 13V6a1 1 0 0 0-.606-.919l-7-3a.996.996 0 0 0-.788 0l-7 3a1 1 0 0 0 0 1.838l7 3a.995.995 0 0 0 .788 0L22 7.517V13a1 1 0 0 0 .999 1H17v-.382l3.447-1.723A1 1 0 0 0 21 11V9.033l-4.212 1.805a1.983 1.983 0 0 1-1.577 0L11 9.033V11a1 1 0 0 0 .553.895L15 13.618V14H4a1 1 0 0 0 0 2h.912l-2.83 6.606v.001A.995.995 0 0 0 2 23c0 2.206 1.794 4 4 4s4-1.794 4-4c0-.14-.03-.272-.081-.393v-.001L7.088 16H15v9h-3a1 1 0 0 0-1 1v2H9a1 1 0 0 0 0 2h14a1 1 0 0 0 0-2h-2v-2a1 1 0 0 0-1-1h-3v-9h7.912l-2.83 6.606v.001A.995.995 0 0 0 22 23c0 2.206 1.794 4 4 4s4-1.794 4-4c0-.14-.03-.272-.081-.393zM4.516 22 6 18.539 7.484 22zm20 0L26 18.539 27.484 22z" fill="#000" opacity="1" data-original="#000000"></path></g></svg>