<svg xmlns="http://www.w3.org/2000/svg" version="1.1" xmlns:xlink="http://www.w3.org/1999/xlink" xmlns:svgjs="http://svgjs.com/svgjs" width="512" height="512" x="0" y="0" viewBox="0 0 128 128" style="enable-background:new 0 0 512 512" xml:space="preserve" class=""><g><path d="M81 63.47a12.68 12.68 0 1 0-15.23 0 21.28 21.28 0 0 0-5.82 3.36 15.4 15.4 0 0 0-2.68-1.58 9.46 9.46 0 1 0-12.92 0 15.48 15.48 0 0 0-9 14 2 2 0 0 0 4 0 11.46 11.46 0 0 1 17.72-9.61 21.18 21.18 0 0 0-5 13.63 2 2 0 0 0 4 0 17.28 17.28 0 1 1 34.57 0 2 2 0 0 0 4 0A21.3 21.3 0 0 0 81 63.47zm-35.65-5.1a5.46 5.46 0 1 1 5.46 5.46 5.46 5.46 0 0 1-5.46-5.46zm19.36-5A8.68 8.68 0 1 1 73.38 62a8.69 8.69 0 0 1-8.67-8.64z" fill="#000" data-original="#000000" opacity="1"></path><path d="M126 62h-10.05A52.05 52.05 0 0 0 66 12.05V2a2 2 0 0 0-4 0v10.05A52.05 52.05 0 0 0 12.05 62H2a2 2 0 0 0 0 4h10.05A52.05 52.05 0 0 0 62 115.95V126a2 2 0 0 0 4 0v-10.05A52.05 52.05 0 0 0 115.95 66H126a2 2 0 0 0 0-4zm-60 49.95V102a2 2 0 0 0-4 0v9.95A48.05 48.05 0 0 1 16.05 66H26a2 2 0 0 0 0-4h-9.95A48.05 48.05 0 0 1 62 16.05V25a2 2 0 0 0 4 0v-8.95A48.05 48.05 0 0 1 111.95 62H102a2 2 0 0 0 0 4h9.95A48.05 48.05 0 0 1 66 111.95z" fill="#000" data-original="#000000" opacity="1"></path></g></svg>