<svg xmlns="http://www.w3.org/2000/svg" version="1.1" xmlns:xlink="http://www.w3.org/1999/xlink" xmlns:svgjs="http://svgjs.com/svgjs" width="512" height="512" x="0" y="0" viewBox="0 0 512 512" style="enable-background:new 0 0 512 512" xml:space="preserve" class=""><g><path fill-rule="evenodd" d="m63.438 382.096 51.176 90.425c2.474 4.372.922 9.974-3.45 12.449l-17.407 9.852c-4.372 2.474-9.974.922-12.449-3.45l-51.176-90.426c-2.475-4.372-.922-9.974 3.451-12.449l17.407-9.852c4.371-2.474 9.973-.921 12.448 3.451zm108.257 26.107c-10.559-2.822-6.27-18.879 4.291-16.057 13.292 3.561 26.489 7.852 39.955 10.654 14.141 1.715 15.283-13.946 4.94-17.72-18.795-3.467-36.901-10.013-51.151-15.164-19.784-7.154-24.525-8.937-44.074 2.382l-37.289 21.59 27.961 49.406c3.18-1.836 5.758-3.868 9.689-2.817l81.665 21.882c9.56 2.563 18.478 1.432 26.932-3.771 37.542-23.077 75.064-46.189 112.589-69.295 4.363-2.686 4.726-10.543 2.152-14.691-6.31-10.165-25.974-.108-32.911 3.933-17.154 9.991-60.913 39.133-78.202 42.038-18.826 3.159-47.19-7.185-66.547-12.37zm160.433-200.819a7.993 7.993 0 0 1-8.562-13.5l41.564-26.356a7.993 7.993 0 0 1 8.562 13.5zm-68.961-42.051a8 8 0 0 1-16 0v-49.216a8 8 0 0 1 16 0zm-76.316 28.156a7.981 7.981 0 0 1-8.313 13.625l-41.979-25.69a7.98 7.98 0 1 1 8.313-13.625zm261.499-97.3 34.291 59.393c1.151 1.993-.279 4.468-2.58 4.468h-68.582c-2.3 0-3.73-2.476-2.58-4.469l34.291-59.394c1.144-1.98 4.016-1.979 5.16.002zM39.601 110.502h64.423a2.984 2.984 0 0 1 2.979 2.979v63.881a2.984 2.984 0 0 1-2.979 2.979H39.601a2.984 2.984 0 0 1-2.979-2.979v-63.881a2.984 2.984 0 0 1 2.979-2.979zM255.167 16c21.008 0 38.038 17.03 38.038 38.038s-17.03 38.038-38.038 38.038-38.038-17.03-38.038-38.038c0-21.007 17.03-38.038 38.038-38.038zm0 177.372c-42.561 0-77.063 34.502-77.063 77.063s34.502 77.063 77.063 77.063c42.56 0 77.063-34.503 77.063-77.063s-34.502-77.063-77.063-77.063zm.001 24.107c12.622 0 22.855 10.233 22.855 22.855s-10.233 22.855-22.855 22.855c-12.623 0-22.855-10.233-22.855-22.855-.001-12.622 10.232-22.855 22.855-22.855zm-38.985 95.98c-1.593 0-2.964-.67-3.944-1.927s-1.294-2.75-.904-4.295c4.943-19.605 22.692-34.118 43.832-34.118s38.889 14.512 43.832 34.118c.389 1.545.075 3.038-.904 4.295s-2.35 1.927-3.944 1.927zM51.702 395.651a6.215 6.215 0 1 0 1.798 12.3 6.215 6.215 0 0 0-1.798-12.3z" clip-rule="evenodd" fill="#000" data-original="#000000" opacity="1"></path></g></svg>