<svg xmlns="http://www.w3.org/2000/svg" version="1.1" xmlns:xlink="http://www.w3.org/1999/xlink" xmlns:svgjs="http://svgjs.com/svgjs" width="512" height="512" x="0" y="0" viewBox="0 0 512.001 512.001" style="enable-background:new 0 0 512 512" xml:space="preserve" class=""><g><path d="M511.964 350.767c-.462-10.89-5.138-20.947-13.165-28.32a361.905 361.905 0 0 0-12.327-10.812v-78.701a15 15 0 0 0-4.865-11.058c-18.242-16.72-38.781-30.858-61.368-42.285v-18.067c0-8.284-6.716-15-15-15s-15 6.716-15 15v4.956a311.128 311.128 0 0 0-11.923-4.208c-18.225-5.987-37.558-10.503-57.856-13.532v-15.042c0-8.284-6.716-15-15-15s-15 6.716-15 15v11.711a458.773 458.773 0 0 0-34.321-1.273c-12.076 0-23.897.466-35.459 1.364v-11.802c0-8.284-6.716-15-15-15s-15 6.716-15 15v15.218c-19.897 3.028-38.867 7.479-56.763 13.355a311.902 311.902 0 0 0-13.016 4.612v-5.359c0-8.284-6.716-15-15-15s-15 6.716-15 15v18.618c-22.167 11.334-42.328 25.29-60.243 41.745a15.003 15.003 0 0 0-4.853 11.056l.047 78.414a362.243 362.243 0 0 0-12.651 11.089C5.175 329.819.5 339.877.038 350.767c-.462 10.89 3.344 21.308 10.716 29.333 15.219 16.571 41.083 17.67 57.656 2.449a280.29 280.29 0 0 1 21.774-18.034c48.179-35.989 105.517-55.012 165.816-55.012s117.637 19.022 165.816 55.012a280.068 280.068 0 0 1 21.775 18.034 40.695 40.695 0 0 0 27.597 10.754 40.915 40.915 0 0 0 30.058-13.202c7.374-8.027 11.18-18.445 10.718-29.334zM90.902 268.059a358.081 358.081 0 0 0-35.062 20.795l-.03-49.214c10.88-9.46 22.585-17.903 35.092-25.327v53.746zm99.779-34.201a357.504 357.504 0 0 0-69.779 20.368v-55.095c21.367-9.129 44.646-15.776 69.779-19.906v54.633zm99.78-4.313a361.665 361.665 0 0 0-34.46-1.652c-11.855 0-23.638.596-35.32 1.742v-54.068a432.213 432.213 0 0 1 35.459-1.432c11.758 0 23.192.459 34.321 1.345v54.065zm99.779 24.335a357.513 357.513 0 0 0-69.779-20.173v-54.65c25.111 4.049 48.391 10.602 69.779 19.629v55.194zm66.233 35.182a358.047 358.047 0 0 0-36.233-21.447v-53.928c12.927 7.579 25.016 16.23 36.233 25.965v49.41z" fill="#000" data-original="#000000" opacity="1" class=""></path></g></svg>