<svg xmlns="http://www.w3.org/2000/svg" version="1.1" xmlns:xlink="http://www.w3.org/1999/xlink" width="512" height="512" x="0" y="0" viewBox="0 0 64 64" style="enable-background:new 0 0 512 512" xml:space="preserve" class=""><g><g fill="#293a4c"><path d="M29 47.5H15.03a1.5 1.5 0 0 1-1.416-1.004l-7-20a1.5 1.5 0 0 1 .882-1.898l21-8c.344-.13.723-.13 1.068 0l21 8a1.5 1.5 0 0 1 .882 1.898l-3.15 9a1.5 1.5 0 0 1-2.832-.991l2.668-7.623-19.102-7.277-19.102 7.277L16.094 44.5H29a1.5 1.5 0 1 1 0 3z" fill="#000" opacity="1" data-original="#293a4c" class=""></path><path d="M23.02 42.6a8.858 8.858 0 0 1-6.01-2.329 8.841 8.841 0 0 1-5.994 2.326h-.007c-2.906 0-5.613-1.398-7.24-3.741a1.5 1.5 0 0 1 2.463-1.712c1.083 1.56 2.824 2.454 4.776 2.454h.006c1.949-.002 3.685-.896 4.762-2.452a1.5 1.5 0 0 1 2.465-.001c1.069 1.537 2.855 2.455 4.779 2.455s3.71-.918 4.777-2.455a1.5 1.5 0 0 1 2.465.001c1.075 1.55 2.805 2.445 4.745 2.454a1.5 1.5 0 0 1-.007 3h-.007a8.85 8.85 0 0 1-5.964-2.329 8.856 8.856 0 0 1-6.009 2.33zM29.032 33.5a1.5 1.5 0 0 1-1.5-1.5V18a1.5 1.5 0 1 1 3 0v14a1.5 1.5 0 0 1-1.5 1.5z" fill="#000" opacity="1" data-original="#293a4c" class=""></path><path d="M42.032 24.45a1.5 1.5 0 0 1-1.5-1.5V13.5h-23v9.45a1.5 1.5 0 1 1-3 0V12a1.5 1.5 0 0 1 1.5-1.5h26a1.5 1.5 0 0 1 1.5 1.5v10.95a1.5 1.5 0 0 1-1.5 1.5z" fill="#000" opacity="1" data-original="#293a4c" class=""></path><path d="M35.032 13.5a1.5 1.5 0 0 1-1.5-1.5V6.5h-9V12a1.5 1.5 0 1 1-3 0V5a1.5 1.5 0 0 1 1.5-1.5h12a1.5 1.5 0 0 1 1.5 1.5v7a1.5 1.5 0 0 1-1.5 1.5zM20.032 18.5h-4a1.5 1.5 0 1 1 0-3h4a1.5 1.5 0 1 1 0 3zM42.032 18.5h-4a1.5 1.5 0 1 1 0-3h4a1.5 1.5 0 1 1 0 3zM29.117 60.5c-3.797 0-7.395-1.473-10.133-4.148a1.5 1.5 0 0 1 2.097-2.145c2.173 2.123 5.027 3.293 8.036 3.293a1.5 1.5 0 1 1 0 3zM29.117 54.556a8.657 8.657 0 0 1-6.086-2.484 1.5 1.5 0 0 1 2.097-2.144 5.674 5.674 0 0 0 3.99 1.628 1.5 1.5 0 1 1 0 3zM59 33.5H35a1.5 1.5 0 0 0-1.5 1.5v24a1.5 1.5 0 0 0 1.5 1.5h24a1.5 1.5 0 0 0 1.5-1.5V35a1.5 1.5 0 0 0-1.5-1.5zm-17 22h-2a1.5 1.5 0 1 1 0-3h2a1.5 1.5 0 1 1 0 3zm0-4.667h-2a1.5 1.5 0 1 1 0-3h2a1.5 1.5 0 1 1 0 3zm0-4.666h-2a1.5 1.5 0 1 1 0-3h2a1.5 1.5 0 1 1 0 3zm0-4.667h-2a1.5 1.5 0 1 1 0-3h2a1.5 1.5 0 1 1 0 3zm13.094 11.326-3 3.2-.017.014a1.51 1.51 0 0 1-.15.13c-.025.021-.049.045-.076.064a1.5 1.5 0 0 1-.199.111c-.02.01-.04.024-.06.033a1.487 1.487 0 0 1-.274.087c-.004 0-.008.003-.012.004a1.505 1.505 0 0 1-.612 0l-.012-.004a1.489 1.489 0 0 1-.274-.087l-.06-.033a1.5 1.5 0 0 1-.2-.111c-.026-.019-.05-.043-.076-.064a1.512 1.512 0 0 1-.15-.13l-.016-.014-3-3.2a1.5 1.5 0 1 1 2.188-2.052l.406.433V39a1.5 1.5 0 1 1 3 0v12.207l.406-.433a1.499 1.499 0 1 1 2.188 2.052z" fill="#000" opacity="1" data-original="#293a4c" class=""></path></g></g></svg>