<svg xmlns="http://www.w3.org/2000/svg" version="1.1" xmlns:xlink="http://www.w3.org/1999/xlink" xmlns:svgjs="http://svgjs.com/svgjs" width="512" height="512" x="0" y="0" viewBox="0 0 118.575 234.841" style="enable-background:new 0 0 512 512" xml:space="preserve" class=""><g><path d="m37.485 163.342-1.375-2.08.804 18.115-26.864 35.358c-4.177 5.497-3.105 13.339 2.391 17.516a12.442 12.442 0 0 0 7.553 2.548c3.773 0 7.504-1.702 9.963-4.938l29.6-38.959a12.496 12.496 0 0 0 2.534-8.117l-.587-13.218-12.813-13.63zM6.661 127.684a7.981 7.981 0 0 0 6.225-1.56l-3.301-4.994 7.232-4.78a98.91 98.91 0 0 1 1.956-7.626l-.44-.666-2.498-5.64-7.502-11.35c-3.501 7.587-6.39 16.626-8.219 27.39a8 8 0 0 0 6.547 9.226zM22.809 97.967c2.065-4.487 4.364-8.328 6.762-11.594a95.57 95.57 0 0 0-2.07 16.872l2.779 4.206 2.329-1.54 16.563 25.059 15.121-4.171c-.58-4.832-.617-9.873-.304-14.937a10.227 10.227 0 0 1-.534-.899l-17.333-33a10.238 10.238 0 0 1-.717-7.851 10.233 10.233 0 0 1 5.046-6.058 10.316 10.316 0 0 1 4.781-1.183c3.844 0 7.341 2.112 9.126 5.512l5.012 9.542c.103-.518.21-1.044.308-1.547 2.869-9.95-.885-21.862-9.42-23.991-2.209-.55-4.676-.644-7.206-.232a8.01 8.01 0 0 0-1.224.124c-1.263.238-23.593 4.795-39.097 30.482l9.985 15.107z" fill="#000" data-original="#000000" opacity="1"></path><path d="m52.651 136.234 7.858 11.889-9.873 6.526 19.415 20.653 9.964 49.504c1.194 5.936 6.41 10.036 12.24 10.035.817 0 1.648-.08 2.48-.248 6.768-1.361 11.149-7.952 9.787-14.721l-10.667-53a12.508 12.508 0 0 0-3.146-6.095L64.55 132.951zM97.1 14.208 103.548 0l-51.75 6.667v7.541zM51.798 16.792v8.422a22.64 22.64 0 0 0-.353 3.95c0 12.427 10.074 22.5 22.5 22.5 12.428 0 22.5-10.073 22.5-22.5a22.62 22.62 0 0 0-.324-3.788h7.426l-6.551-8.583H51.798zM62.322 69.452a8 8 0 1 0-14.164 7.441l17.333 33a8.004 8.004 0 0 0 5.046 4.017l38 10a8.002 8.002 0 0 0 4.072-15.474l-34.592-9.103z" fill="#000" data-original="#000000" opacity="1"></path><path d="m17.86 101.31 2.497 5.64 4.515 6.832-12.102 7.999 25.364 38.375 19.188-12.682-25.364-38.375-2.329 1.539-4.515-6.831-4.21-4.508L5.477 75.956l-3.045 2.012zm12.772 16.057a2.005 2.005 0 0 1 2.771.566l3.492 5.284a2.006 2.006 0 0 1-.566 2.771l-9.316 6.157a2.005 2.005 0 0 1-2.771-.566l-3.492-5.284a2.006 2.006 0 0 1 .566-2.771z" fill="#000" data-original="#000000" opacity="1"></path></g></svg>