<svg xmlns="http://www.w3.org/2000/svg" version="1.1" xmlns:xlink="http://www.w3.org/1999/xlink" xmlns:svgjs="http://svgjs.com/svgjs" width="512" height="512" x="0" y="0" viewBox="0 0 512 512" style="enable-background:new 0 0 512 512" xml:space="preserve" class=""><g><path d="M497 240.999c-8.284 0-15 6.716-15 15C482 380.616 380.617 482 256.002 482 131.387 481.999 30.003 380.615 30 256c.003-124.617 101.385-226 225.998-226 55.34-.001 107.635 19.767 148.848 55.939l-47.092 47.093C329.191 109.314 293.591 96.4 256.002 96.4c-88.004 0-159.6 71.596-159.6 159.6s71.596 159.6 159.6 159.6c88.003 0 159.599-71.596 159.599-159.6 0-8.284-6.716-15-15-15s-15 6.716-15 15c0 71.462-58.138 129.6-129.599 129.6s-129.6-58.138-129.6-129.6c0-71.461 58.139-129.6 129.6-129.6 29.564 0 57.615 9.841 80.424 27.961l-47.608 47.609c-9.79-5.971-21.054-9.168-32.815-9.168h-.006c-34.847 0-63.196 28.35-63.196 63.198s28.352 63.199 63.2 63.199 63.2-28.351 63.2-63.198c0-11.761-3.198-23.026-9.17-32.817L437.018 96.193a14.946 14.946 0 0 0 4.393-10.608c0-3.84-1.464-7.679-4.393-10.608C388.665 26.626 324.378-.001 255.998 0 187.619 0 123.334 26.629 74.982 74.98 26.631 123.332.002 187.62 0 256c.002 68.379 26.631 132.666 74.982 181.018 48.352 48.352 112.639 74.981 181.02 74.982 68.379 0 132.666-26.629 181.017-74.981C485.371 388.666 512 324.378 512 255.999c0-8.285-6.716-15-15-15z" fill="#000" data-original="#000000" opacity="1"></path></g></svg>