<svg xmlns="http://www.w3.org/2000/svg" version="1.1" xmlns:xlink="http://www.w3.org/1999/xlink" xmlns:svgjs="http://svgjs.com/svgjs" width="512" height="512" x="0" y="0" viewBox="0 0 512.001 512.001" style="enable-background:new 0 0 512 512" xml:space="preserve"><g><path d="M361.001 97.001H151c-24.813 0-45 20.187-45 45v151c0 4.066 1.651 7.958 4.575 10.785L136 328.364v138.637c0 24.813 20.187 45 45 45h150c24.813 0 45-20.187 45-45V328.364l25.425-24.578A14.998 14.998 0 0 0 406 293.001v-151c0-24.813-20.186-45-44.999-45zm-144.003 60.001H295c8.284 0 15 6.716 15 15s-6.716 15-15 15h-78.002c-8.284 0-15-6.716-15-15s6.716-15 15-15zM226 452h-15c-8.284 0-15-6.716-15-15s6.716-15 15-15h15c8.284 0 15 6.716 15 15s-6.715 15-15 15zm-24.002-159.999c0-8.284 6.716-15 15-15H295c8.284 0 15 6.716 15 15s-6.716 15-15 15h-78.002c-8.284 0-15-6.715-15-15zM301 452h-15c-8.284 0-15-6.716-15-15s6.716-15 15-15h15c8.284 0 15 6.716 15 15s-6.715 15-15 15zm29.998-204.999H181c-8.284 0-15-6.716-15-15s6.716-15 15-15h149.998c8.284 0 15 6.716 15 15s-6.716 15-15 15zM172 67.001V15c0-8.284-6.716-15-15-15s-15 6.716-15 15v52.56a75.311 75.311 0 0 1 9-.559z" fill="#000" data-original="#000000" opacity="1"></path></g></svg>