<svg xmlns="http://www.w3.org/2000/svg" version="1.1" xmlns:xlink="http://www.w3.org/1999/xlink" xmlns:svgjs="http://svgjs.com/svgjs" width="512" height="512" x="0" y="0" viewBox="0 0 512 512" style="enable-background:new 0 0 512 512" xml:space="preserve" class=""><g><path fill-rule="evenodd" d="m486.691 421.47-65.2 65.2-65.72-65.721 65.2-65.2 65.719 65.721zM55.069 321.253A188.236 188.236 0 1 0-.066 188.148a187.009 187.009 0 0 0 55.135 133.1zm262.694 20.314 20.7 20.7 23.828-23.829-20.7-20.7q-5.424 6.4-11.414 12.41t-12.414 11.414zm10.612 50.292a4.033 4.033 0 0 0 1.175 2.871l17.316 17.315 65.2-65.2-17.315-17.315a4.089 4.089 0 0 0-5.743 0l-59.46 59.459a4.024 4.024 0 0 0-1.175 2.871zm170.211 106.7a46.162 46.162 0 0 0 0-65.2l-2.99-2.99-65.2 65.2 2.989 2.99a46.26 46.26 0 0 0 65.2 0zM188.171 50.41a99.3 99.3 0 0 1 57.216 180.461 9.931 9.931 0 0 0-4.42 8.529v38.214a19.334 19.334 0 0 1-14.061 18.572 40.112 40.112 0 0 1-77.471 0 19.337 19.337 0 0 1-14.061-18.572V239.4a9.929 9.929 0 0 0-4.42-8.529A99.3 99.3 0 0 1 188.171 50.41zm-40.2 201.88h80.41v5.969h-80.41zm40.2-87.59a15.382 15.382 0 1 1 15.381-15.38 15.4 15.4 0 0 1-15.381 15.38zm0 148.588a27.725 27.725 0 0 1-25.151-16.355h50.3a27.725 27.725 0 0 1-25.15 16.355zm33.48-28.947h-66.96a6.731 6.731 0 0 1-6.725-6.727v-6.762h80.41v6.762a6.732 6.732 0 0 1-6.725 6.727zm16.472-63.756a22.476 22.476 0 0 0-9.747 18.815v.3h-33.91v-63.13a27.975 27.975 0 1 0-12.591 0v63.13h-33.909v-.3a22.476 22.476 0 0 0-9.747-18.815 86.7 86.7 0 1 1 99.9 0z" fill="#000" data-original="#000000" opacity="1" class=""></path></g></svg>