<svg xmlns="http://www.w3.org/2000/svg" version="1.1" xmlns:xlink="http://www.w3.org/1999/xlink" width="512" height="512" x="0" y="0" viewBox="0 0 32 32" style="enable-background:new 0 0 512 512" xml:space="preserve" class=""><g><path d="M30 7V3c0-.55-.45-1-1-1h-4c-.33 0-.65.17-.83.45l-1.91 2.86a3.78 3.78 0 0 0-.67-.05c-1.4.04-2.68.63-3.6 1.66l-3.17 3.49L13.41 9l1.3-1.29c.39-.39.39-1.03 0-1.42l-4-4C10.52 2.11 10.27 2 10 2H4c-.55 0-1 .45-1 1v3c0 .3.13.58.36.77l6 5c.19.15.41.23.64.23.26 0 .51-.1.71-.29l1.29-1.3 1.47 1.48-2.19 2.41c-2.97-.77-6.27 0-8.6 2.33-1.85 1.85.37 6.01 3.52 9.17 1.59 1.59 3.33 2.86 4.9 3.57 1.02.46 1.83.63 2.47.63.88 0 1.44-.32 1.8-.68a8.887 8.887 0 0 0 2.33-8.61l2.41-2.18L21.59 20l-1.3 1.29c-.36.37-.39.95-.06 1.35l5 6c.19.23.47.36.77.36h3c.55 0 1-.45 1-1v-6c0-.27-.11-.52-.29-.71l-4-4c-.39-.39-1.03-.39-1.42 0L23 18.59l-1.41-1.41 3.49-3.16a5.008 5.008 0 0 0 1.66-3.61c.01-.22-.03-.45-.05-.67l2.86-1.91c.28-.18.45-.5.45-.83zM13.96 27.91c-.1.1-.69.25-2.03-.36-1.36-.62-2.89-1.74-4.31-3.17-1.43-1.42-2.55-2.95-3.17-4.31-.61-1.34-.46-1.93-.36-2.03.04-.04.17-.09.4-.09.32 0 .85.1 1.63.45 1.13.52 2.37 1.39 3.58 2.49l-1.41 1.4c-.39.39-.39 1.03 0 1.42.2.19.45.29.71.29s.51-.1.71-.29l1.41-1.42c2.62 2.88 3.21 5.24 2.84 5.62zM19 14c-.55 0-1-.45-1-1s.45-1 1-1 1 .45 1 1-.45 1-1 1zm2-2c-.55 0-1-.45-1-1s.45-1 1-1 1 .45 1 1-.45 1-1 1zm7-5.54-1.95 1.31c-.22-.37-.47-.73-.78-1.04s-.67-.56-1.04-.78L25.54 4H28z" fill="#000" opacity="1" data-original="#000000" class=""></path></g></svg>