<svg xmlns="http://www.w3.org/2000/svg" version="1.1" xmlns:xlink="http://www.w3.org/1999/xlink" xmlns:svgjs="http://svgjs.com/svgjs" width="512" height="512" x="0" y="0" viewBox="0 0 512 512" style="enable-background:new 0 0 512 512" xml:space="preserve" class=""><g><path fill-rule="evenodd" d="m458.294 483.614 33.401-34.422c5.866-6.045 5.718-15.788-.326-21.655l-92.512-89.771c-6.044-5.867-15.791-5.719-21.656.325l-2.07 2.133-52.541-51.555c19.116-27.323 30.334-60.577 30.334-96.453 0-93.039-75.423-168.462-168.462-168.462C91.423 23.755 16 99.178 16 192.217c0 62.566 34.109 117.164 84.745 146.218a93.659 93.659 0 0 1 17.433-24.375C73.634 289.776 45.78 243.209 45.78 192.217c0-76.59 62.092-138.682 138.682-138.682s138.682 62.092 138.682 138.682c0 50.992-27.853 97.558-72.396 121.843a93.636 93.636 0 0 1 17.433 24.375 168.85 168.85 0 0 0 25.847-18.259l51.508 50.548-1.736 1.789c-5.865 6.044-5.719 15.791.326 21.656l92.512 89.769c6.045 5.866 15.79 5.722 21.656-.324zM184.463 302.446c42.734 0 77.377 34.643 77.377 77.376s-34.643 77.376-77.377 77.376-77.376-34.643-77.376-77.376 34.642-77.376 77.376-77.376zM174.3 386.647l37.624-37.999c4.454-4.498 11.719-4.511 16.204-.05 4.484 4.459 4.498 11.704.05 16.194-15.257 15.398-30.411 30.898-45.738 46.226-4.481 4.481-11.749 4.481-16.23 0l-25.43-25.429c-4.481-4.481-4.481-11.749 0-16.23s11.75-4.481 16.231 0zm10.163-284.109c25.482 0 46.14 20.658 46.14 46.14 0 25.483-20.658 46.141-46.14 46.141-25.483 0-46.141-20.658-46.141-46.141.001-25.482 20.659-46.14 46.141-46.14zM95.316 276.5c-20.787-21.979-33.536-51.641-33.536-84.283 0-67.757 54.925-122.682 122.682-122.682s122.682 54.926 122.682 122.682c0 32.641-12.748 62.303-33.535 84.282-9.147-41.839-46.33-71.679-89.146-71.679-42.816-.001-80 29.84-89.147 71.68z" clip-rule="evenodd" fill="#000" data-original="#000000" opacity="1"></path></g></svg>