<svg xmlns="http://www.w3.org/2000/svg" version="1.1" xmlns:xlink="http://www.w3.org/1999/xlink" xmlns:svgjs="http://svgjs.com/svgjs" width="512" height="512" x="0" y="0" viewBox="0 0 32 32" style="enable-background:new 0 0 512 512" xml:space="preserve" class=""><g><g data-name="Layer 2"><path d="M16 30a14 14 0 0 1-12.87-8.49A13.75 13.75 0 0 1 2 16a14 14 0 0 1 8.49-12.87 14.22 14.22 0 0 1 11.38.15 14 14 0 0 1 7 7.21A13.79 13.79 0 0 1 30 16a14 14 0 0 1-8.49 12.87A13.75 13.75 0 0 1 16 30zm0-27A13 13 0 0 0 3 16a12.75 12.75 0 0 0 1 5.12A13 13 0 0 0 29 16a12.75 12.75 0 0 0-1-5.12 13 13 0 0 0-6.5-6.69A13.22 13.22 0 0 0 16 3zm0 21a7.75 7.75 0 0 1-3.36-.75 7.85 7.85 0 0 1-4-4.1A8.1 8.1 0 0 1 8 16a7.75 7.75 0 0 1 .75-3.36 7.85 7.85 0 0 1 4.1-4 8 8 0 0 1 6.51.11 7.89 7.89 0 0 1 4 4.1A8.1 8.1 0 0 1 24 16a7.81 7.81 0 0 1-.74 3.35 7.9 7.9 0 0 1-4 4h-.14A8.06 8.06 0 0 1 16 24zm0-15a7 7 0 0 0-2.75.55A7 7 0 0 0 9 16a7.09 7.09 0 0 0 .56 2.76 6.93 6.93 0 0 0 3.5 3.59 7.06 7.06 0 0 0 5.61.13l.08-.08h.1a6.9 6.9 0 0 0 3.5-3.46A6.82 6.82 0 0 0 23 16a7.09 7.09 0 0 0-.56-2.76 6.89 6.89 0 0 0-3.5-3.59A7 7 0 0 0 16 9z" fill="#000" data-original="#000000" class="" opacity="1"></path><path d="M10.68 3.59h-.06a.5.5 0 0 0-.17.6l2.15 5.15c.15-.08.29-.17.44-.24a7.53 7.53 0 0 1 6.1.1c.16.07.29.17.44.24l2.32-5a.49.49 0 0 0-.17-.62h-.05a13.59 13.59 0 0 0-11-.23zM21.58 27.75l-2.18-5.09c-.15.08-.29.17-.44.24a7.45 7.45 0 0 1-2.95.6 7.21 7.21 0 0 1-3.14-.7c-.16-.07-.29-.17-.44-.24l-2.32 5a.44.44 0 0 0 0 .15v.34l.33.17A13.52 13.52 0 0 0 16 29.5a13.36 13.36 0 0 0 5.32-1.09l.1-.05.06-.07a.49.49 0 0 0 .1-.54zM29.5 16a13.36 13.36 0 0 0-1.09-5.32l-.16-.33h-.5l-5.09 2.25c.08.15.17.29.24.44a7.53 7.53 0 0 1 .6 3 7.21 7.21 0 0 1-.7 3.14c-.07.16-.17.29-.24.44l5 2.32a.41.41 0 0 0 .21.05.45.45 0 0 0 .2 0l.16-.07a1.51 1.51 0 0 0 .09-.18A13.52 13.52 0 0 0 29.5 16zM9.1 19a7.53 7.53 0 0 1-.6-3 7.21 7.21 0 0 1 .7-3.14c.07-.16.17-.29.24-.44L4 9.9c-.08.15-.16.29-.23.44A13.52 13.52 0 0 0 2.5 16a13.36 13.36 0 0 0 1.09 5.32c.05.12.12.24.18.36l.48-.1 5.09-2.18c-.08-.15-.17-.29-.24-.4z" fill="#000" data-original="#000000" class="" opacity="1"></path></g></g></svg>