<svg xmlns="http://www.w3.org/2000/svg" version="1.1" xmlns:xlink="http://www.w3.org/1999/xlink" width="512" height="512" x="0" y="0" viewBox="0 0 340 340" style="enable-background:new 0 0 512 512" xml:space="preserve"><g><path d="M237.754 90.966a3.257 3.257 0 0 0 4.046.414c32.362-20.83 77.618-66.178 79.529-68.1a3.26 3.26 0 0 0-4.623-4.6c-.4.4-34.413 34.489-64.133 57.094a434.11 434.11 0 0 1 43.256-52.515 3.26 3.26 0 1 0-4.66-4.559c-31.716 32.418-53.691 67.872-53.909 68.226a3.259 3.259 0 0 0 .494 4.04z" fill="#000" opacity="1" data-original="#000000"></path><path d="M317.666 53.806c-65.559 29.88-141.4 107.531-152.413 119.017a163.159 163.159 0 0 0-16.032-3.4 61.557 61.557 0 0 0 10.376-27.6l13.349-.082a521.65 521.65 0 0 1-12.4 13.239 3.26 3.26 0 0 0 4.675 4.544C218.642 104.54 270.722 23.552 271.242 22.74a3.26 3.26 0 1 0-5.49-3.516c-.457.713-40.968 63.7-86.957 115.956l-20.5.126-6.473-9.807a80.021 80.021 0 0 0 20.681-15.975c2.419 1.5 4.9 3.109 7.39 4.8a3.259 3.259 0 1 0 3.651-5.4 231.99 231.99 0 0 0-10.037-6.423 3.264 3.264 0 0 0-4.275.817c-.149.194-14.934 19.131-44.076 24.957l-15.446-10.528a3.26 3.26 0 1 0-3.671 5.389l15.45 10.523c5.251 29.251-6.957 49.944-7.08 50.148a3.259 3.259 0 0 0 .8 4.283c22.443 17.2 49.459 30.191 49.729 30.32.065.031.13.06.2.086a56.5 56.5 0 0 0 21.092 3.888c20.957 0 39.884-9.981 45.8-13.434l23.534 16.029C241.959 232.5 198.813 253.3 161.1 238.3c-2.172-1.049-40.4-19.644-73.208-44.312 4.569-8.78 17.869-38.824 10.819-79.787 40.7-8.44 63.786-31.819 70.282-39.287 9.229 5.672 18.983 12.325 29.035 19.807a3.26 3.26 0 0 0 3.893-5.23c-11.1-8.259-21.85-15.533-31.962-21.62a3.264 3.264 0 0 0-4.276.82c-.236.309-24.14 31.05-71.35 39.724-.084.015-.162.048-.244.07s-.158.029-.236.056L76.4 114.6a3.266 3.266 0 0 0-2.1 3.826c.085.361 8.139 36.605-15.8 83.824a3.262 3.262 0 0 0 1.037 4.145c.224.156 13.057 9.127 29.559 20-9.084 12.249-28.4 37.721-46.476 57.761a107.63 107.63 0 0 1-2.534-15.86 3.259 3.259 0 0 0-6.21-1.211c-.4.857-9.849 21.345-16.081 51.269a3.262 3.262 0 0 0 .764 2.84 3.724 3.724 0 0 0 2.74 1.07c1.907 0 46.833-4.678 76.936-23.058a3.26 3.26 0 0 0-1.521-6.038L64.271 291.4c7.152-8.754 23.04-27.531 39.5-42.526a3.26 3.26 0 0 0-4.391-4.819C76.827 264.6 55.4 292.034 55.181 292.309a3.26 3.26 0 0 0 2.4 5.258l27.116 1.476c-22.24 10.386-49.097 14.784-59.557 16.189a274.368 274.368 0 0 1 10.143-34.26 190.391 190.391 0 0 0 2.435 10.739 3.261 3.261 0 0 0 5.537 1.395c19.547-20.959 41.557-49.987 51.3-63.133 11.118 7.245 23.368 14.974 34.333 21.317a104.026 104.026 0 0 0 51.96 13.99 99.618 99.618 0 0 0 27.588-3.868c20.234-5.84 38.91-17.24 55.508-33.882a4.168 4.168 0 0 0 .928-1.716s12.128-63.848-21.643-101.89a3.259 3.259 0 1 0-4.875 4.328c26.338 29.668 22.869 76.165 20.883 91.339l-23.537-16.03c1.285-8.357 4.557-38.788-11.48-60.759a3.26 3.26 0 1 0-5.266 3.844c14.755 20.214 11.251 49.721 10.216 56.413a101.889 101.889 0 0 1-12.284 6.021l-9.516-7.647a3.245 3.245 0 0 0-1.324-.639l-12.446-2.811 1.974-29.9a3.255 3.255 0 0 0-.267-1.524l-4.422-10.084c29.155-28.037 82.157-75.162 129.489-96.736a3.259 3.259 0 0 0-2.7-5.932zM81.19 119.84l11.2-3.887c6.811 40.952-8.027 70.886-10.99 76.334l-13.537 5.491C85.361 159.1 82.657 129.081 81.19 119.84zm125.436 135.307a96.273 96.273 0 0 1-74.475-9.5c-23.174-13.406-52.184-33.086-63.761-41.047l14.789-6c34.3 25.961 74.794 45.432 75.2 45.628.065.031.13.06.2.087a85.813 85.813 0 0 0 32.037 5.9c17.692 0 34.458-4.68 47.441-9.753a113.875 113.875 0 0 1-31.431 14.685zm-20.742-93.831 3.128 7.132-1.861 28.176-2.86-.571-3.27-16.191a3.261 3.261 0 0 0-1.911-2.35 89.456 89.456 0 0 0-6.832-2.579 771.846 771.846 0 0 1 13.606-13.617zm17.993 45.671 5.887 4.731c-12.068 3.955-27.716 6.473-42.107.765-1.7-.819-25.505-12.44-46.273-27.9 3.289-6.643 10.833-25.291 6.839-50.282a89.432 89.432 0 0 0 17.723-5.876l7.3 11.064a55.294 55.294 0 0 1-11.68 29.327l-3.814.5a3.26 3.26 0 0 0 .423 6.491 3.321 3.321 0 0 0 .432-.028l4.7-.622c2.618.323 18.568 2.447 31.66 7.694l3.356 16.615a3.258 3.258 0 0 0 2.557 2.551l8.611 1.72z" fill="#000" opacity="1" data-original="#000000"></path><path d="M242.488 23.72a39.31 39.31 0 0 0-14.907 3.054 16.294 16.294 0 0 0-9.39 10.024c-4.83 14.539-6.09 30.814-6.141 31.5a3.26 3.26 0 0 0 5.556 2.548C231.5 56.956 244.8 29.556 245.359 28.4a3.259 3.259 0 0 0-2.871-4.675zm-22.622 34.49a125.632 125.632 0 0 1 4.512-19.355 9.787 9.787 0 0 1 5.631-6.031 38.888 38.888 0 0 1 6.825-2.06c-3.447 6.549-9.868 18.073-16.968 27.446zM311.622 80.937a3.26 3.26 0 0 0-4.4-3.349c-28.75 10.832-55.542 35.323-56.669 36.361a3.26 3.26 0 0 0 2.207 5.658h.179c1.208-.066 29.737-1.714 43.016-10.7 13.806-9.35 15.598-27.214 15.667-27.97zM292.305 103.5c-7.187 4.865-20.276 7.357-29.459 8.565 8.979-7.248 24.568-18.763 41.106-26.089-1.491 5.224-4.752 12.856-11.647 17.524zM105.115 64.048a6.217 6.217 0 0 0 2.6-.581 3.26 3.26 0 0 0 1.3-2.322l2.11-23.477a3.259 3.259 0 0 0-3.03-3.545L88.306 32.8a3.269 3.269 0 0 0-3.224 2l-6.067 14.508a3.262 3.262 0 0 0 .866 3.716c8.726 7.599 24.563 10.887 25.234 11.024zM90.2 39.464l14.131.942-1.472 16.376c-4.315-1.177-11.657-3.559-16.87-7.248zM50.239 144.671l-25.852-1.077h-.137a3.261 3.261 0 0 0-3.191 2.6c-1.675 8.1-.106 20.1-.039 20.612a3.256 3.256 0 0 0 3.923 2.754l19.257-4.18a3.259 3.259 0 0 0 2.035-1.4c3.606-5.5 6.81-14.587 6.944-14.971a3.259 3.259 0 0 0-2.94-4.335zM41.467 159.3l-14.345 3.113a70.7 70.7 0 0 1-.085-12.182l18.4.765a68.041 68.041 0 0 1-3.97 8.304zM117.648 281.86a21.824 21.824 0 0 0 4.7-.469 3.257 3.257 0 0 0 2.481-3.593l-2.11-16.169a3.26 3.26 0 0 0-4.322-2.65c-9.618 3.41-15.619 12.311-15.87 12.689a3.26 3.26 0 0 0 .278 3.97 19.414 19.414 0 0 0 14.843 6.222zm-.82-14.95 1.1 8.44a14 14 0 0 1-8.26-2.271 30.452 30.452 0 0 1 7.16-6.169zM222.9 282.969l13.981 3.429a3.259 3.259 0 0 0 3.75-1.829l5.8-12.907a3.26 3.26 0 0 0-2.431-4.551 159.457 159.457 0 0 0-16.772-1.908 3.228 3.228 0 0 0-3.246 2.314l-3.429 11.342a3.261 3.261 0 0 0 2.344 4.11zm6.582-11.107c3.191.239 6.64.674 9.245 1.041l-2.927 6.517-8.007-1.964zM304.715 154.17a3.257 3.257 0 0 0-3.76-.4c-.484.272-11.885 6.753-16.237 14.053a3.262 3.262 0 0 0-.033 3.281l6.332 11.124a3.26 3.26 0 0 0 2.832 1.647c.066 0 .133 0 .2-.006l22.159-1.357a3.259 3.259 0 0 0 2.83-4.458c-.282-.705-6.967-17.378-14.323-23.884zm-9.037 23.068-4.314-7.579c2.716-3.443 7.5-6.9 10.671-8.922 3.447 4 6.928 10.727 9.141 15.553z" fill="#000" opacity="1" data-original="#000000"></path></g></svg>