<svg xmlns="http://www.w3.org/2000/svg" version="1.1" xmlns:xlink="http://www.w3.org/1999/xlink" width="512" height="512" x="0" y="0" viewBox="0 0 507.575 507.575" style="enable-background:new 0 0 512 512" xml:space="preserve" class=""><g><circle cx="253.787" cy="228.168" r="15" fill="#000" opacity="1" data-original="#000000"></circle><path d="M253.787 153.168c-41.355 0-75 33.645-75 75s33.645 75 75 75 75-33.645 75-75-33.645-75-75-75zm0 120c-24.813 0-45-20.187-45-45s20.187-45 45-45 45 20.187 45 45-20.187 45-45 45z" fill="#000" opacity="1" data-original="#000000"></path><path d="M253.787 55.575c-95.168 0-172.593 77.425-172.593 172.593 0 46.743 19.063 91.541 52.531 123.976v155.431h213.859v-62.671h58.56l9.063-89.046h60.725l-49.574-130.502c-1.51-93.875-78.344-169.781-172.571-169.781zm0 277.593c-57.897 0-105-47.103-105-105s47.103-105 105-105 105 47.103 105 105-47.103 105-105 105z" fill="#000" opacity="1" data-original="#000000"></path><path d="M214.24 29.43 208.418 0C156.344 10.3 108.883 38.586 74.78 79.647c-34.555 41.605-53.585 94.351-53.585 148.521h30c0-47.184 16.572-93.123 46.664-129.353 29.713-35.776 71.045-60.418 116.381-69.385zM409.717 98.815c30.091 36.23 46.664 82.169 46.664 129.353h30c0-54.17-19.03-106.916-53.585-148.521C398.692 38.586 351.231 10.3 299.156 0l-5.821 29.43c45.336 8.967 86.668 33.609 116.382 69.385z" fill="#000" opacity="1" data-original="#000000"></path></g></svg>