<svg xmlns="http://www.w3.org/2000/svg" version="1.1" xmlns:xlink="http://www.w3.org/1999/xlink" width="512" height="512" x="0" y="0" viewBox="0 0 64 64" style="enable-background:new 0 0 512 512" xml:space="preserve" class=""><g><path d="M62 29.6h-4.91l-4.19-8.06a1.972 1.972 0 0 0-1.77-1.08h-7.69v-7.98c0-1.11-.89-2-2-2H2a2 2 0 0 0-2 2v29.78c0 1.1.9 2 2 2h6.77c-.35.8-.54 1.7-.54 2.63 0 3.66 2.97 6.63 6.63 6.63 3.65 0 6.63-2.97 6.63-6.63 0-.93-.2-1.83-.55-2.63h21.8c-.35.8-.54 1.7-.54 2.63 0 3.66 2.97 6.63 6.63 6.63 3.65 0 6.63-2.97 6.63-6.63 0-.93-.19-1.83-.54-2.63H62c1.1 0 2-.9 2-2V31.6a2 2 0 0 0-2-2zm-48.88-9.45a1.997 1.997 0 0 1 2.9-1.07c2.22 1.29 3.72-.26 4.13-.77.38-.47.96-.75 1.57-.75h.02c.61 0 1.19.28 1.57.77.39.49 1.89 2.05 4.12.75a1.96 1.96 0 0 1 1.7-.15c.57.21 1 .66 1.2 1.22.08.24 2 5.97-.53 10.99-1.44 2.84-3.95 4.84-7.47 5.96a2.095 2.095 0 0 1-1.21 0c-3.52-1.12-6.04-3.12-7.47-5.96-2.53-5.02-.62-10.74-.53-10.99zm36.79 4.31 2.67 5.14h-9.14v-5.14zM17.49 46.89c0 1.45-1.18 2.63-2.63 2.63s-2.63-1.18-2.63-2.63 1.18-2.63 2.63-2.63 2.63 1.18 2.63 2.63zm33.97 0c0 1.45-1.18 2.63-2.63 2.63s-2.63-1.18-2.63-2.63 1.18-2.63 2.63-2.63 2.63 1.18 2.63 2.63z" fill="#000" opacity="1" data-original="#000000"></path><path d="M21.72 33.08c2.13-.8 3.64-2.05 4.49-3.72 1.02-2 .99-4.28.77-5.88-2.11.4-3.95-.3-5.26-1.22-1.31.92-3.14 1.62-5.26 1.22-.21 1.6-.25 3.88.77 5.88.85 1.67 2.36 2.92 4.49 3.72z" fill="#000" opacity="1" data-original="#000000"></path></g></svg>