<svg xmlns="http://www.w3.org/2000/svg" version="1.1" xmlns:xlink="http://www.w3.org/1999/xlink" xmlns:svgjs="http://svgjs.com/svgjs" width="512" height="512" x="0" y="0" viewBox="0 0 32 32" style="enable-background:new 0 0 512 512" xml:space="preserve" class=""><g><path d="M11.496 15.993a.508.508 0 0 0 .582-.493V15a.5.5 0 0 0-.2-.4l-1.8-1.35v-2.14l4 .8v.59a.5.5 0 1 0 1 0v-2a.542.542 0 0 0-.243-.429l-2.257-1.354V7.5c0-.644-1-.646-1 0v.617l-1.5-.9V4c0-.373-.134-.826-.368-1.227C9.386 2.26 9.005 2 8.578 2c-.93 0-1.5 1.295-1.5 2v3.217l-1.5.9V7.5c0-.644-1-.646-1 0v1.217L2.321 10.07a.528.528 0 0 0-.243.429v2c0 .644 1 .646 1 0v-.59l4-.8v2.14l-1.8 1.35a.5.5 0 0 0-.2.4v.5a.499.499 0 0 0 .582.493l2.918-.486 2.918.486zm-4.834-1.18 1.216-.913a.5.5 0 0 0 .2-.4v-3a.5.5 0 0 0-.598-.49l-4.402.88v-.107L7.835 7.93a.5.5 0 0 0 .243-.429V4c0-.406.34-.975.5-1 0 0 .11.027.278.291.153.265.222.547.222.709v3.5a.5.5 0 0 0 .243.429l4.757 2.854v.107l-4.402-.88a.501.501 0 0 0-.598.49v3a.5.5 0 0 0 .2.4l1.217.913-1.835-.306a.51.51 0 0 0-.164 0zM29.943 10.275a.513.513 0 0 0-.186-.204L27.5 8.717V7.5c0-.644-1-.646-1 0v.617l-1.5-.9V4c0-.372-.134-.825-.368-1.228C24.307 2.26 23.926 2 23.5 2 22.57 2 22 3.295 22 4v3.217l-1.5.9V7.5c0-.644-1-.646-1 0v1.217l-2.257 1.354A.534.534 0 0 0 17 10.5v2c0 .646 1 .646 1 0v-.59l4-.8v2.14l-1.8 1.35a.5.5 0 0 0-.2.4v.5a.499.499 0 0 0 .582.493l2.918-.486 2.918.486A.499.499 0 0 0 27 15.5V15a.5.5 0 0 0-.2-.4L25 13.25v-2.14l4 .8v.59c0 .645 1 .645 1 0v-2a.496.496 0 0 0-.057-.225zm-5.345-.265a.502.502 0 0 0-.598.49v3a.5.5 0 0 0 .2.4l1.217.912-1.835-.305a.515.515 0 0 0-.164 0l-1.835.305L22.8 13.9a.5.5 0 0 0 .2-.4v-3a.502.502 0 0 0-.598-.49L18 10.89v-.107l4.757-2.854A.498.498 0 0 0 23 7.5V4c0-.406.34-.975.499-1 .001 0 .11.027.278.29.155.266.223.548.223.71v3.5c0 .176.092.338.243.429L29 10.783v.107zM22.41 21.22a.496.496 0 0 0-.153-.149L20 19.717V18.5c0-.643-1-.647-1 0v.617l-1.5-.9V15c0-.373-.134-.826-.367-1.227C16.808 13.26 16.427 13 16 13c-.93 0-1.5 1.295-1.5 2v3.217l-1.5.9V18.5c0-.636-1-.647-1 0v1.217L9.743 21.07a.537.537 0 0 0-.243.429v2c0 .644 1 .646 1 0v-.59l4-.8v2.14l-1.8 1.35a.5.5 0 0 0-.2.4v.5a.499.499 0 0 0 .582.493L16 26.507l2.918.486c.3.05.582-.19.582-.493V26a.5.5 0 0 0-.2-.4l-1.8-1.35v-2.14l4 .8v.59c0 .644 1 .647 1 0v-2a.509.509 0 0 0-.09-.28zm-5.312-.21a.5.5 0 0 0-.598.49v3a.5.5 0 0 0 .2.4l1.217.913-1.835-.306a.51.51 0 0 0-.164 0l-1.835.305L15.3 24.9a.5.5 0 0 0 .2-.4v-3a.5.5 0 0 0-.598-.49l-4.402.88v-.107l4.757-2.854a.5.5 0 0 0 .243-.429V15c0-.406.34-.975.499-1 .001 0 .11.027.279.291.153.265.222.547.222.709v3.5a.5.5 0 0 0 .243.429l4.757 2.854v.107z" fill="#000" data-original="#000000" opacity="1" class=""></path><path d="M8.5 16a.5.5 0 0 0-.5.5v10a.5.5 0 1 0 1 0v-10a.5.5 0 0 0-.5-.5zM6.5 17a.5.5 0 0 0-.5.5v9a.5.5 0 1 0 1 0v-9a.5.5 0 0 0-.5-.5zM10.5 24.6c-.25-.001-.5.16-.5.483V26.5c0 .645 1 .645 1 0v-1.417c0-.322-.25-.483-.5-.484zM10 17.5v1.583a.5.5 0 1 0 1 0V17.5a.5.5 0 1 0-1 0zM23.5 16a.5.5 0 0 0-.5.5v10a.5.5 0 1 0 1 0v-10a.5.5 0 0 0-.5-.5zM25.5 17a.5.5 0 0 0-.5.5v9a.5.5 0 1 0 1 0v-9a.5.5 0 0 0-.5-.5zM21.5 24.583a.5.5 0 0 0-.5.5V26.5a.5.5 0 1 0 1 0v-1.417a.5.5 0 0 0-.5-.5zM22 19.083V17.5a.5.5 0 1 0-1 0v1.583a.5.5 0 1 0 1 0zM16 27a.5.5 0 0 0-.5.5v2a.5.5 0 1 0 1 0v-2a.5.5 0 0 0-.5-.5zM14 28a.5.5 0 0 0-.5.5v1a.5.5 0 1 0 1 0v-1a.5.5 0 0 0-.5-.5zM18 28a.5.5 0 0 0-.5.5v1a.5.5 0 1 0 1 0v-1a.5.5 0 0 0-.5-.5z" fill="#000" data-original="#000000" opacity="1" class=""></path></g></svg>