<svg xmlns="http://www.w3.org/2000/svg" version="1.1" xmlns:xlink="http://www.w3.org/1999/xlink" xmlns:svgjs="http://svgjs.com/svgjs" width="512" height="512" x="0" y="0" viewBox="0 0 297 297" style="enable-background:new 0 0 512 512" xml:space="preserve" class=""><g><path d="M165.333 115a34.03 34.03 0 0 0-1.213-9H297V90H154.369C149.788 85.777 144 82.802 137 81.6V74.034c0-.17.333-.218.329-.386C137.06 64.354 129.753 57 120.396 57H50v27.998C39 90.722 32.166 102.008 32.166 115c0 .129.093.255.094.384a55.55 55.55 0 0 1 6.406-.384h126.667zM264 207.75v-.273c18-2.979 32-18.555 32-37.566v-.332C296 148.406 279.171 131 258 131H38.666C17.495 131 0 148.406 0 169.578v.332c0 19.012 14 34.587 32 37.566v.273c0 5.907 1.762 11.439 4.535 16.201C42.123 233.546 52.679 240 64.583 240h167.5c11.904 0 22.127-6.454 27.715-16.049 2.773-4.762 4.202-10.294 4.202-16.201zm-88.567 15.5c-8.979 0-16.256-7.277-16.256-16.256s7.277-16.256 16.256-16.256 16.26 7.277 16.26 16.256c-.001 8.979-7.281 16.256-16.26 16.256zm-71.256-16.256c0-8.979 7.277-16.256 16.256-16.256s16.26 7.277 16.26 16.256-7.28 16.256-16.26 16.256c-8.979 0-16.256-7.277-16.256-16.256zm-55 0c0-8.979 7.277-16.256 16.256-16.256s16.26 7.277 16.26 16.256-7.28 16.256-16.26 16.256c-8.979 0-16.256-7.277-16.256-16.256zm181.256 16.256c-8.979 0-16.256-7.277-16.256-16.256s7.277-16.256 16.256-16.256 16.26 7.277 16.26 16.256c-.001 8.979-7.281 16.256-16.26 16.256z" fill="#000" data-original="#000000" opacity="1" class=""></path></g></svg>