<svg xmlns="http://www.w3.org/2000/svg" version="1.1" xmlns:xlink="http://www.w3.org/1999/xlink" width="512" height="512" x="0" y="0" viewBox="0 0 24 24" style="enable-background:new 0 0 512 512" xml:space="preserve"><g><g fill="#000"><path d="M15.8 9.223v.962h1.4l-.314-.962z" fill="#000" opacity="1" data-original="#000000"></path><path d="M21.457 14.109c.038-.114.057-.238.057-.362v-1.095a2.417 2.417 0 0 0-1.828-2.353l-.22-.057-.676-2c-.19-.6-.742-1-1.371-1h-3.19a.478.478 0 0 0-.477.476V9.88a2.979 2.979 0 0 0-2.41-2.171.482.482 0 0 0-.475-.467.484.484 0 0 0-.477.476v5.496a2.083 2.083 0 0 0-.6-.096c-.038 0-.076 0-.114.01V7.66H5.457a.466.466 0 0 0-.467-.419.472.472 0 0 0-.476.476v6.238h-1.41a1.106 1.106 0 0 0 0 2.21h1.791c.343.467.905.781 1.534.781s1.19-.314 1.533-.781h.286c.342.467.904.781 1.533.781.628 0 1.19-.314 1.533-.781h4.476c.353.467.915.781 1.543.781.629 0 1.19-.314 1.534-.781h2.028c.61 0 1.105-.495 1.105-1.105 0-.41-.219-.762-.552-.952zM6.438 15.995c-.533 0-.962-.438-.962-.962s.429-.962.962-.962.962.428.962.962a.965.965 0 0 1-.962.962zm1.781-2.038h-.21a1.612 1.612 0 0 0-.257-.305h.724c-.095.085-.18.19-.257.305zm1.571 2.038c-.533 0-.961-.438-.961-.962a.965.965 0 0 1 1.562-.753.92.92 0 0 1 .342.61c.02.047.02.095.02.143a.965.965 0 0 1-.963.962zm3.962-2.038h-2.39s-.01-.02-.02-.03v-.323a2.993 2.993 0 0 0 2.41-2.171zm2.334-1.391h-.762a.478.478 0 0 1-.476-.476c0-.257.21-.476.476-.476h.762c.266 0 .476.21.476.476s-.21.476-.476.476zm1.257 3.429a.965.965 0 0 1-.952-1.086.957.957 0 0 1 .952-.838.965.965 0 0 1 .962.962.972.972 0 0 1-.962.962zm.905-5.058a.465.465 0 0 1-.381.2h-2.543a.478.478 0 0 1-.476-.476V8.747c0-.257.21-.476.476-.476h1.905c.21 0 .39.133.457.324l.628 1.914a.462.462 0 0 1-.066.428z" fill="#000" opacity="1" data-original="#000000"></path><path d="M3.81 13.404V7.91a3.013 3.013 0 0 0-1.8 2.753 2.99 2.99 0 0 0 1.8 2.742z" fill="#000" opacity="1" data-original="#000000"></path></g></g></svg>