<svg xmlns="http://www.w3.org/2000/svg" version="1.1" xmlns:xlink="http://www.w3.org/1999/xlink" xmlns:svgjs="http://svgjs.com/svgjs" width="512" height="512" x="0" y="0" viewBox="0 0 64 64" style="enable-background:new 0 0 512 512" xml:space="preserve"><g><path d="M53 50a7 7 0 1 0 7 7 6.995 6.995 0 0 0-7-7zm0 9.5a2.5 2.5 0 1 1 2.5-2.5 2.5 2.5 0 0 1-2.5 2.5z" fill="#000" data-original="#000000" opacity="1"></path><path d="M39 50a7 7 0 1 0 7 7 6.995 6.995 0 0 0-7-7zm0 9.5a2.5 2.5 0 1 1 2.5-2.5 2.5 2.5 0 0 1-2.5 2.5zM12 50a7 7 0 1 0 7 7 6.995 6.995 0 0 0-7-7zm0 9.5a2.5 2.5 0 1 1 2.5-2.5 2.5 2.5 0 0 1-2.5 2.5zM22.32 20.545l1.134-2.779 9.266 3.783-1.135 2.778zM36 37.001h5.196L36 33.814zM31 16.456c-.126 0-6.04-2.381-6.04-2.381l-.754 1.848L33.47 19.7l2.268-5.558-9.262-3.776-.76 1.86 5.661 2.306A1 1 0 0 1 31 16.456zM33.438 25.084l22.214 9.063L62.074 18.4 39.855 9.34zM50.926 27.9a1 1 0 0 1-.926.622c-.126 0-11.728-4.705-11.728-4.705a1 1 0 1 1 .756-1.851l11.35 4.634a1 1 0 0 1 .548 1.3zm2.535 2.034a1 1 0 1 1 1-1 1 1 0 0 1-1 .999zM40.744 15.1a1 1 0 0 1 1.3-.548l14.81 6.04a1 1 0 0 1-.378 1.925c-.125 0-15.187-6.114-15.187-6.114a1 1 0 0 1-.545-1.303zm-.206 3.162 14.81 6.04a1 1 0 0 1-.378 1.925c-.126 0-15.187-6.114-15.187-6.114a1 1 0 1 1 .755-1.851zM27.247 8.514l1.133-2.775 9.26 3.78-1.133 2.775zM34 41v2h24v-6l-1.015-.874-2.085 4.31A1 1 0 0 1 54 41h-6.283l-3.26-2h-9.124zM17.69 18.661l2.774 1.132 3.018-7.387v-.011l.007-.011 3.022-7.4-2.781-1.133s-4.63-1.89-5.38-.04c-.66 1.62 3.87 3.74 3.87 3.74s-4.72-1.66-5.38-.03 3.87 3.74 3.87 3.74-4.72-1.66-5.38-.04 3.87 3.74 3.87 3.74-4.72-1.66-5.38-.04c-.76 1.86 3.87 3.74 3.87 3.74z" fill="#000" data-original="#000000" opacity="1"></path><path d="m31.866 28.932 16.416 10.069h5.091l1.463-3.026-22.157-9.04zM56.193 48.001l4.467 1.787 2.431-3.241L60 45.001H32l-2.161 1.441 1.644 3.288 4.324-1.729zM13 35.001H4l-3.2 4H13zM46 51.357A9.115 9.115 0 0 1 47.358 50h-2.716A9.115 9.115 0 0 1 46 51.357zM61.8 51.6c-.5.823-1.456.215-1.456.215A8.936 8.936 0 0 1 61.941 56H64v-7.333z" fill="#000" data-original="#000000" opacity="1"></path><path d="M30.105 51.448 27.882 47H22V33l-3-3H8l-2.4 3H14a1 1 0 0 1 1 1v6a1 1 0 0 1-1 1H0v2h8a1 1 0 0 1 0 2H0v11h3.059a9 9 0 0 1 17.882 0h9.118a8.927 8.927 0 0 1 1.6-4.185A4.548 4.548 0 0 1 31 52a1 1 0 0 1-.895-.552z" fill="#000" data-original="#000000" opacity="1"></path></g></svg>