<svg xmlns="http://www.w3.org/2000/svg" version="1.1" xmlns:xlink="http://www.w3.org/1999/xlink" width="512" height="512" x="0" y="0" viewBox="0 0 50 50" style="enable-background:new 0 0 512 512" xml:space="preserve"><g><path d="M45.7 20.5c-1.9 0-3.4 1.6-3.2 3.6l.9 16h4.7l.9-16c.1-2-1.4-3.6-3.3-3.6zM7.5 24.1c.2-1.9-1.3-3.6-3.2-3.6s-3.4 1.6-3.2 3.6l.9 16h4.7zM43.4 42.5H6.6c-.3 0-.6-.1-.8-.3H2.9v.8c0 2.1 1.7 3.8 3.8 3.8h36.7c2.1 0 3.8-1.7 3.8-3.8v-.9h-2.9c-.3.3-.6.4-.9.4zM37.8 36.4c.6 0 1-.5 1-1v-6.7c0-.6-.5-1-1-1-.6 0-1 .5-1 1v1.6h-2.1v-1.4c0-1.7-1.1-3.3-2.8-4.1-1.6-.8-2.7-2.2-2.7-4.1V19h-8.4v1.7c0 1.7-1.1 3.3-2.7 4.1s-2.7 2.2-2.7 4.1v4.5h-2.1v-1.1c0-.6-.5-1-1-1-.6 0-1 .5-1 1V37c0 .6.5 1 1 1 .6 0 1-.5 1-1v-1h2.1v4.4h19.4V34h2.1v1.4c-.1.6.4 1 .9 1zM25 38.3c-3.1 0-5.6-2.5-5.6-5.6s2.5-5.6 5.6-5.6 5.6 2.5 5.6 5.6c0 3-2.5 5.6-5.6 5.6zM11.3 5.2c.6 0 1.2.2 1.6.5 1.1.7 2.5.7 3.6 0 1-.6 2.3-.6 3.3 0 1.1.7 2.5.7 3.6 0 1-.6 2.3-.6 3.3 0 .6.4 1.2.6 1.8.6s1.3-.2 1.8-.6c1-.6 2.3-.6 3.3 0 1.1.7 2.5.7 3.6 0 .5-.3 1-.5 1.6-.5s1-.5 1-1-.5-1-1-1c-1 0-2 .3-2.8.8-.4.3-.9.3-1.3 0-1.7-1.1-3.9-1.1-5.6 0-.4.3-.9.3-1.3 0-1.7-1.1-3.9-1.1-5.6 0-.4.3-.9.3-1.3 0-1.7-1.1-3.9-1.1-5.6 0-.4.3-.9.3-1.3 0-.8-.5-1.8-.8-2.8-.8-.6 0-1 .5-1 1s.5 1 1.1 1zM11.3 9.8c.6 0 1.2.2 1.6.5 1.1.7 2.5.7 3.6 0 1-.6 2.3-.6 3.3 0 1.1.7 2.5.7 3.6 0 1-.6 2.3-.6 3.3 0 .6.4 1.2.6 1.8.6s1.3-.2 1.8-.6c1-.6 2.3-.6 3.3 0 1.1.7 2.5.7 3.6 0 .5-.3 1-.5 1.6-.5s1-.5 1-1c0-.6-.5-1-1-1-1 0-1.9.3-2.8.8-.4.3-.9.3-1.3 0-1.7-1.1-3.9-1.1-5.6 0-.4.3-.9.3-1.3 0-1.7-1.1-3.9-1.1-5.6 0-.4.3-.9.3-1.3 0-1.7-1.1-3.9-1.1-5.6 0-.4.3-.9.3-1.3 0-.8-.5-1.8-.8-2.8-.8-.6 0-1 .5-1 1s.5 1 1.1 1zM11.3 14.3c.6 0 1.2.2 1.6.5 1.1.7 2.5.7 3.6 0 1-.6 2.3-.6 3.3 0 1.1.7 2.5.7 3.6 0 1-.6 2.3-.6 3.3 0 .6.4 1.2.6 1.8.6s1.3-.2 1.8-.6c1-.6 2.3-.6 3.3 0 1.1.7 2.5.7 3.6 0 .5-.3 1-.5 1.6-.5s1-.5 1-1-.5-1-1-1c-1 0-1.9.3-2.8.8-.4.3-.9.3-1.3 0-1.7-1.1-3.9-1.1-5.6 0-.4.3-.9.3-1.3 0-1.7-1.1-3.9-1.1-5.6 0-.4.3-.9.3-1.3 0-1.7-1.1-3.9-1.1-5.6 0-.4.3-.9.3-1.3 0-.8-.5-1.8-.8-2.8-.8-.6 0-1 .5-1 1s.5 1 1.1 1z" fill="#000" opacity="1" data-original="#000000"></path><path d="M25 30.3c-1.3 0-2.3 1-2.3 2.3s1 2.3 2.3 2.3 2.3-1 2.3-2.3c0-1.2-1-2.3-2.3-2.3z" fill="#000" opacity="1" data-original="#000000"></path></g></svg>