<svg xmlns="http://www.w3.org/2000/svg" version="1.1" xmlns:xlink="http://www.w3.org/1999/xlink" xmlns:svgjs="http://svgjs.com/svgjs" width="512" height="512" x="0" y="0" viewBox="0 0 512.021 512.021" style="enable-background:new 0 0 512 512" xml:space="preserve" class=""><g><path d="m492.608 182.678-59.051-8.704c-5.077-11.563-11.52-22.912-19.52-34.432l22.464-57.515c4.16-10.88-.128-22.869-9.92-28.352l-84.8-50.389c-9.835-5.973-22.613-3.563-29.739 5.675l-36.8 48.363c-14.251-1.493-24.235-1.493-38.485 0L199.936 8.897c-6.955-9.024-19.307-11.477-29.611-5.675l-84.65 50.304c-9.643 5.397-14.037 17.536-10.133 28.565l22.421 57.365c-7.744 10.987-14.272 22.549-19.499 34.496l-58.859 8.683C8.427 184.086 0 193.964 0 205.59v100.885C0 318.123 8.427 328 19.413 329.387l59.051 8.704c5.077 11.563 11.52 22.912 19.52 34.432L75.52 430.038c-4.16 10.901.128 22.891 9.92 28.352l85.12 50.603c3.627 2.027 7.552 3.008 11.413 3.008 6.869 0 13.547-3.093 18.027-8.917l36.779-48.363c11.349 1.237 27.179 1.237 38.507 0l36.821 48.427c6.933 9.003 19.285 11.477 29.611 5.696l24.533-14.592c5.056-3.008 6.72-9.557 3.712-14.613-3.008-5.056-9.557-6.741-14.613-3.712l-26.304 14.272-40.469-53.227c-2.304-3.029-6.016-4.565-9.856-4.117-12.928 1.664-32.427 1.664-45.355 0-3.819-.427-7.552 1.088-9.856 4.117l-42.24 53.547-85.12-50.603c-.811-.469-.939-1.493-.661-2.197l24.533-62.805a10.66 10.66 0 0 0-1.323-10.176c-9.92-13.632-17.365-26.816-22.741-40.299a10.687 10.687 0 0 0-8.363-6.613l-65.003-9.579c-.064 0-1.131-1.792-1.195-1.792V205.569l1.195-1.813 65.003-9.579a10.657 10.657 0 0 0 8.363-6.613c5.589-14.037 13.205-27.563 22.677-40.192a10.667 10.667 0 0 0 1.387-10.261L95.595 74.646c-.299-.896-.021-2.197.811-2.667l86.656-50.133 40.469 53.227c2.304 3.008 6.016 4.544 9.856 4.117 17.749-2.283 27.605-2.283 45.355 0 3.861.448 7.552-1.088 9.856-4.117l42.24-53.525 85.099 50.581c.811.469.96 1.493.683 2.197l-24.533 62.805a10.66 10.66 0 0 0 1.323 10.176c9.92 13.632 17.365 26.816 22.741 40.299a10.687 10.687 0 0 0 8.363 6.613l65.003 9.579c.064.021 1.131 1.813 1.195 1.813v100.885l-1.195 1.792-41.685 6.144c-5.845.853-9.877 6.272-9.003 12.096.853 5.824 6.229 9.92 12.096 9.003l41.472-6.123c11.179-1.429 19.627-11.285 19.627-22.933V205.59c-.024-11.626-8.429-21.504-19.416-22.912z" fill="#000" data-original="#000000" opacity="1"></path><path d="M380.331 301.228c-11.904-11.904-18.389-27.008-17.749-41.451 1.131-26.325-9.877-51.456-33.664-76.821-20.352-21.696-47.68-34.005-74.261-33.621-23.701.299-46.293 8.576-65.344 23.957a10.717 10.717 0 0 0-3.947 9.045c.256 3.477 2.176 6.613 5.163 8.384l65.195 39.104c-1.941 19.605-13.525 36.8-31.253 45.973l-58.368-35.029c-3.221-1.941-7.701-1.792-11.029.021a10.673 10.673 0 0 0-5.547 8.747c-1.749 29.739 8.512 58.005 28.864 79.595 20.096 21.291 48.384 33.493 77.632 33.493 7.851 0 15.723-1.024 24.363-3.221l136.171 136.171c10.56 10.581 24.597 16.384 39.552 16.384 30.827 0 55.893-25.088 55.893-55.915 0-14.933-5.824-28.971-16.384-39.531L380.331 301.228zm75.776 189.418h-.043c-9.237 0-17.92-3.605-24.448-10.133L291.051 339.948a10.71 10.71 0 0 0-7.552-3.115c-1.045 0-2.069.128-3.029.427-9.131 2.752-16.875 4.032-24.427 4.032-23.765 0-45.803-9.515-62.101-26.795-12.075-12.8-19.691-28.544-22.272-45.504l46.869 28.117c3.136 1.877 6.976 2.005 10.261.405l4.501-2.24c27.157-13.589 44.053-40.917 44.053-71.296 0-3.755-1.984-7.232-5.184-9.152l-56.32-33.792c12.096-6.656 25.365-10.219 39.083-10.389 20.587-.299 42.176 9.536 58.432 26.88 19.925 21.269 28.8 40.747 27.904 61.312-.896 20.395 7.851 41.344 23.979 57.472l115.285 115.307c6.549 6.528 10.133 15.211 10.133 24.469.022 19.051-15.466 34.56-34.559 34.56z" fill="#000" data-original="#000000" opacity="1"></path></g></svg>