<svg xmlns="http://www.w3.org/2000/svg" version="1.1" xmlns:xlink="http://www.w3.org/1999/xlink" xmlns:svgjs="http://svgjs.com/svgjs" width="512" height="512" x="0" y="0" viewBox="0 0 64 64" style="enable-background:new 0 0 512 512" xml:space="preserve" class=""><g><path d="M59.135 4.921a1.01 1.01 0 0 0-1.592-.725c-8.79 6.178-42.178 6.227-51.087.004a1.007 1.007 0 0 0-1.596.721c-.113.285-2.897 43.997 27.145 55.08C62.018 48.913 59.266 5.193 59.135 4.92zm-27.13 53.001C7.116 47.765 6.564 14.412 6.781 6.685c2.868 1.454 10.644 4.24 25.276 4.227 14.745-.024 22.22-2.768 25.156-4.227.218 7.727-.335 41.067-25.208 51.237z" fill="#000" data-original="#000000" opacity="1"></path><path d="M25.167 27.01a1.007 1.007 0 0 0 .707-1.706l-6-6a1 1 0 0 0-1.414 1.414l6 6a.997.997 0 0 0 .707.293zM44.109 19.304l-6 6a1 1 0 1 0 1.414 1.414l6-6a1 1 0 0 0-1.414-1.414zM42.822 37.6c-7.159 5.995-14.444 6.045-21.662 0a1 1 0 0 0-1.338 1.487c.23.208 5.725 5.091 12.17 5.091s11.938-4.883 12.168-5.091a1 1 0 0 0-1.338-1.487z" fill="#000" data-original="#000000" opacity="1"></path></g></svg>