<svg xmlns="http://www.w3.org/2000/svg" version="1.1" xmlns:xlink="http://www.w3.org/1999/xlink" xmlns:svgjs="http://svgjs.com/svgjs" width="512" height="512" x="0" y="0" viewBox="0 0 54 54" style="enable-background:new 0 0 512 512" xml:space="preserve" class=""><g><path d="M51.44 13.51c-.12-.33-.39-.59-.74-.68l-.91-.25c-.5-.13-1.03-.08-1.49.14L36.19 18.6c-1.73-.46-3.3-.87-4.31-1.15-2.78-.76-11.1-3.11-11.1-3.11-3-.84-6.19-.87-9.21-.07l-1.11.29c-1.04.27-2.1.51-3.15.69l-4.11.71c-.39.07-.67.38-.69.77s.21.74.59.85l2.14.66c1.97.61 4 1.1 6.02 1.48l.93.17 1.79 1.33c.16.12.36.18.56.18h1.3l-.34-.9 8.36 1.54 1.31.59c-2 .06-3.39.27-3.4.55-.01.4 2.69.82 6.03.92.24.01.46.01.66.02l1.76.79c-2.73.04-4.68.3-4.69.67-.01.47 3.18.97 7.14 1.09.59.02 1.08.02 1.5.02l1.69.76c-.7.05-1.15.13-1.15.23-.01.21 1.95.45 4.38.52 2.42.07 4.39-.05 4.4-.26 0-.13-.75-.28-1.9-.38v-2.38c.14 0 .27.02.41.02.6 0 1.21-.05 1.81-.14l2.24-.34c.38-.06.69-.35.77-.73l.34-1.59a.93.93 0 0 0-.67-1.1c-.03-.01-.09-.02-.13-.03l4.93-6.77c.21-.29.27-.66.15-.99zm-11.43 10.5-28.57-5.27c-1.02-.19-2.03-.41-3.04-.66.18-.69.26-1.39.24-2.08.09-.02.18-.03.27-.05.57.37 1.24.58 1.95.58h1.21c1.41 0 2.82.12 4.21.35l1.92.33c1.34.23 2.7-.31 3.48-1.37l.13-.17c2.45.69 7.71 2.18 9.81 2.75 2.47.67 8.22 2.18 11.74 3.08.01.79-.09 1.68-.25 2.64-1.04.09-2.08.06-3.1-.13zM45.32 21c-1.67-.44-4.74-1.24-7.65-2.01l11.07-5.38c.24-.12.53-.14.79-.08l.91.25.05.12z" fill="#000" data-original="#000000" opacity="1"></path><path d="m44.74 17.45-.26-.53c-.05-.1-.19-.1-.23 0l-.26.53c-.02.04-.06.07-.1.07l-.59.08c-.11.02-.15.15-.07.22l.42.41c.03.03.04.07.04.12l-.1.58c-.02.11.09.19.19.14l.52-.27c.04-.02.08-.02.12 0l.52.27c.1.05.21-.03.19-.14l-.1-.58c-.01-.04.01-.09.04-.12l.42-.41c.08-.08.03-.21-.07-.22l-.58-.08c-.05-.01-.08-.03-.1-.07zM23.4 28.45l-.43.1c-.04-.02-.1-.03-.16-.04l-.59-.84-1.61.38-.26.55c-1.43.17-3.1.46-4.25.73-2.34.56-4.14 1.44-4.01 1.95.12.52 2.12.49 4.46-.07 1.15-.27 2.77-.77 4.12-1.27l.48.37 1.61-.38.15-1.01c.06-.04.1-.08.13-.12l.42-.1zM19.79 38.29l-.43.1c-.04-.02-.1-.03-.16-.04l-.59-.84-1.61.38-.26.55c-1.43.17-3.1.46-4.25.73-2.34.56-4.14 1.44-4.01 1.95.12.52 2.12.49 4.46-.07 1.15-.27 2.77-.77 4.12-1.27l.48.37 1.61-.38.15-1.01c.06-.04.1-.08.13-.12l.42-.1zM36.84 36.29l-.43.1c-.04-.02-.1-.03-.16-.04l-.59-.84-1.61.38-.26.55c-1.43.17-3.1.46-4.25.73-2.34.56-4.14 1.44-4.01 1.95.12.52 2.12.49 4.46-.07 1.15-.27 2.78-.77 4.12-1.27l.48.37 1.61-.38.15-1.01c.06-.04.1-.08.13-.12l.42-.1z" fill="#000" data-original="#000000" opacity="1"></path><path d="M44.36 16.26c-.96 0-1.75.78-1.75 1.75s.78 1.75 1.75 1.75 1.75-.78 1.75-1.75-.78-1.75-1.75-1.75zm0 3.21c-.81 0-1.47-.66-1.47-1.47s.66-1.47 1.47-1.47 1.47.66 1.47 1.47-.66 1.47-1.47 1.47z" fill="#000" data-original="#000000" opacity="1"></path></g></svg>