<svg xmlns="http://www.w3.org/2000/svg" version="1.1" xmlns:xlink="http://www.w3.org/1999/xlink" xmlns:svgjs="http://svgjs.com/svgjs" width="512" height="512" x="0" y="0" viewBox="0 0 43.349 43.349" style="enable-background:new 0 0 512 512" xml:space="preserve" fill-rule="evenodd" class=""><g><path d="M38.533 43.35c-2.778 0-6.139-1.014-8.756-3.355a.474.474 0 0 1 .63-.706c3.226 2.885 7.8 3.599 10.467 2.805.641-.191 1.028-.579 1.219-1.22.795-2.667.08-7.24-2.804-10.466a.473.473 0 1 1 .705-.631c3.148 3.519 3.895 8.382 3.007 11.367-.283.95-.908 1.574-1.858 1.857-.764.228-1.653.348-2.61.348zM38.032 28.91a.475.475 0 0 1-.334-.138l-4.984-4.985a.471.471 0 0 1 0-.668.471.471 0 0 1 .668 0l4.986 4.984a.474.474 0 0 1-.336.807zM28.439 38.51a.473.473 0 0 1-.335-.139l-4.989-4.985a.474.474 0 1 1 .669-.67l4.99 4.985a.475.475 0 0 1-.335.809zM31.425 22.303a.472.472 0 0 1-.334-.138l-5.306-5.307a.474.474 0 0 1 .669-.669l5.307 5.307a.475.475 0 0 1-.336.807zM21.828 31.904a.476.476 0 0 1-.335-.138l-5.31-5.308a.472.472 0 1 1 .668-.67l5.312 5.308a.473.473 0 0 1-.335.808zM24.475 15.428a.475.475 0 0 1-.317-.121c-3.606-3.246-6.403-4.74-8.32-4.441l-1.427 1.427a.475.475 0 0 1-.67-.67l1.533-1.531a.472.472 0 0 1 .24-.13c2.258-.462 5.294 1.056 9.277 4.64a.472.472 0 0 1-.316.826z" fill="#000" data-original="#000000" opacity="1"></path><path d="M15.61 10.9h-.006a.472.472 0 0 1-.468-.478l.039-3.993-4.713-4.712.263 3.307a.471.471 0 0 1-.137.371L9.051 6.934a.473.473 0 1 1-.67-.67l1.384-1.383L9.417.51a.473.473 0 0 1 .805-.372l5.762 5.76c.09.09.14.213.139.34l-.04 4.192a.473.473 0 0 1-.474.468z" fill="#000" data-original="#000000" opacity="1"></path><path d="M6.165 5.032c-.023 0-.047 0-.072.002-.26.02-.514.142-.715.344-.392.392-.461.986-.15 1.297l8.987 8.987c.31.31.905.242 1.297-.15.393-.393.46-.987.15-1.298L6.676 5.228a.708.708 0 0 0-.51-.196zm8.56 11.772c-.44 0-.862-.156-1.18-.473L4.56 7.345c-.686-.687-.618-1.869.15-2.637a2.09 2.09 0 0 1 1.313-.618c.512-.038.982.127 1.322.468l8.988 8.987c.685.685.618 1.868-.15 2.636a2.08 2.08 0 0 1-1.456.623zM39.096 28.044a.584.584 0 0 0-.551.381A17.46 17.46 0 0 1 28.424 38.55a.59.59 0 0 0-.338.76.59.59 0 0 0 .76.339 18.638 18.638 0 0 0 10.802-10.805.587.587 0 0 0-.343-.76.573.573 0 0 0-.209-.04zm-10.459 12.59a1.536 1.536 0 0 1-.55-2.969 16.514 16.514 0 0 0 9.573-9.575c.145-.384.43-.688.805-.857.374-.168.791-.181 1.176-.035.383.145.688.43.856.805.17.374.182.792.036 1.176a19.581 19.581 0 0 1-11.349 11.353c-.18.068-.365.102-.547.102zM32.489 21.436a.593.593 0 0 0-.552.382 17.46 17.46 0 0 1-10.12 10.124.59.59 0 0 0-.029 1.086c.143.064.304.069.45.013l.002-.001a18.631 18.631 0 0 0 10.8-10.805.589.589 0 0 0-.552-.799zm-10.461 12.59c-.213 0-.425-.044-.625-.133a1.536 1.536 0 0 1 .077-2.835 16.513 16.513 0 0 0 9.572-9.575 1.532 1.532 0 0 1 1.981-.892c.384.145.688.43.856.805.17.374.182.79.037 1.175a19.586 19.586 0 0 1-11.35 11.354 1.53 1.53 0 0 1-.548.102zM24.566 14.722zm.994-.214a.59.59 0 0 0-.552.382 17.442 17.442 0 0 1-10.116 10.116.588.588 0 0 0-.033 1.09c.144.064.303.07.45.013 4.904-1.86 8.942-5.898 10.803-10.802a.59.59 0 0 0-.552-.8zM15.1 27.095a1.539 1.539 0 0 1-.543-2.975 16.497 16.497 0 0 0 9.566-9.566c.145-.383.432-.688.806-.857a1.538 1.538 0 0 1 2.069 1.944c-1.956 5.155-6.2 9.398-11.353 11.354-.177.067-.362.1-.545.1z" fill="#000" data-original="#000000" opacity="1"></path><path d="M6.235 16.122a.476.476 0 0 1-.335-.139l-5.76-5.76a.473.473 0 0 1 .371-.807l4.37.348 1.384-1.383a.474.474 0 0 1 .67.67l-1.539 1.537a.47.47 0 0 1-.372.137l-3.306-.264 4.712 4.713 3.993-.039h.004a.473.473 0 0 1 .004.947l-4.192.04h-.004z" fill="#000" data-original="#000000" opacity="1"></path><path d="M14.955 24.948a.474.474 0 0 1-.352-.156c-3.585-3.984-5.102-7.02-4.64-9.28a.474.474 0 0 1 .13-.239l1.532-1.532a.474.474 0 0 1 .669.67l-1.427 1.427c-.3 1.915 1.194 4.713 4.44 8.32a.474.474 0 0 1-.352.79z" fill="#000" data-original="#000000" opacity="1"></path></g></svg>