<svg xmlns="http://www.w3.org/2000/svg" version="1.1" xmlns:xlink="http://www.w3.org/1999/xlink" width="512" height="512" x="0" y="0" viewBox="0 0 64 64" style="enable-background:new 0 0 512 512" xml:space="preserve" class=""><g><path d="M34.84 27.2V34a.88.88 0 0 0 .11.42v19.87a9.71 9.71 0 0 0 19.42 0V27.2a1 1 0 0 0-1-1h-6.31l6.24-5.65a1 1 0 0 0 .32-.72V9.71A1 1 0 0 0 52 9l-7.44 6.84L37.11 9a1 1 0 0 0-1-.18 1 1 0 0 0-.58.89v10.15a1 1 0 0 0 .32.72L42 26.23h-6.19a1 1 0 0 0-.97.97Zm9.71 23.63a5.34 5.34 0 0 1-5.4-5.39 5.42 5.42 0 0 1 5.4-5.4 5.4 5.4 0 1 1 0 10.79Zm-7.77-22.66h15.65v1.51H36.78Zm0 3.45h15.65V33H36.78ZM9.63 18.45v6.8a.89.89 0 0 0 .11.43v19.86a9.71 9.71 0 1 0 19.42 0V18.45a1 1 0 0 0-1-1h-6.31l6.24-5.65a1 1 0 0 0 .31-.72V1a1 1 0 0 0-.58-.89 1 1 0 0 0-1 .18L19.34 7.1 11.9.26a1 1 0 0 0-1-.18 1 1 0 0 0-.58.89v10.14a1 1 0 0 0 .31.72l6.24 5.65H10.6a1 1 0 0 0-.97.97Zm9.71 23.64a5.35 5.35 0 0 1-5.4-5.4 5.41 5.41 0 0 1 5.4-5.39 5.4 5.4 0 1 1 0 10.79Zm-7.77-22.67h15.65v1.52H11.57Zm0 3.46h15.65v1.4H11.57Z" fill="#000" opacity="1" data-original="#000000" class=""></path></g></svg>