<svg xmlns="http://www.w3.org/2000/svg" version="1.1" xmlns:xlink="http://www.w3.org/1999/xlink" xmlns:svgjs="http://svgjs.com/svgjs" width="512" height="512" x="0" y="0" viewBox="0 0 32 32" style="enable-background:new 0 0 512 512" xml:space="preserve" class=""><g><g data-name="Layer 2"><path d="M23 1a8 8 0 0 0-7.92 6.86 1 1 0 0 0 1 1.14 1 1 0 0 0 1-.85A6 6 0 0 1 29 9.79 6.15 6.15 0 0 1 22.79 15H3a1 1 0 0 0 0 2h19.72A8.18 8.18 0 0 0 31 9.55 8 8 0 0 0 23 1ZM18.79 19H3a1 1 0 0 0 0 2h15.79a4 4 0 0 1 3.89 4.94 4 4 0 0 1-7.8-.11 1 1 0 0 0-1-.83 1 1 0 0 0-1 1.15A6 6 0 1 0 18.79 19Z" fill="#000" data-original="#000000" opacity="1" class=""></path><path d="M8.59 10.85H3.08a1 1 0 0 0-1 1 1 1 0 0 0 1 1h5.46a4.64 4.64 0 0 0 4.68-4.06 4.5 4.5 0 0 0-8.79-1.73 1 1 0 0 0 1 1.29 1 1 0 0 0 1-.76 2.5 2.5 0 0 1 4.87 1 2.61 2.61 0 0 1-2.71 2.26Z" fill="#000" data-original="#000000" opacity="1" class=""></path></g></g></svg>