<svg xmlns="http://www.w3.org/2000/svg" version="1.1" xmlns:xlink="http://www.w3.org/1999/xlink" xmlns:svgjs="http://svgjs.com/svgjs" width="512" height="512" x="0" y="0" viewBox="0 0 512.001 512.001" style="enable-background:new 0 0 512 512" xml:space="preserve" class=""><g><path d="M10.129 205.132h49.594l6.553 9.456h39.02l6.554-9.456h49.596l8.899 19.395a1274.529 1274.529 0 0 1 36.464-3.23l.855-5.289 3.324-.263c.049-12.123 3.925-12.43 5.882-.465l3.806-.302 1.734 5.262c19.613-1.204 40.683-2.022 62.565-2.163h-2.071l1.622-5.017h7.011l1.615 4.995c21.982.031 43.878.786 65.292 2.272l1.807-5.384 3.323.281c2.022-11.953 5.897-11.625 5.879.498l3.805.322.861 5.517c82.467 7.257 121.333 23.259 122.474 25.312.633 1.139.851 2.628.906 3.898h7.162v-1.814a4.442 4.442 0 0 1 4.442-4.442h2.9v22.968h-2.9a4.442 4.442 0 0 1-4.442-4.442v-1.814h-7.162c-.055 1.27-.273 2.76-.906 3.898-3.025 5.445-74.582 28.102-213.367 28.801l1.449.004c-36.721-.345-74.37-2.338-114.325-6.456l-8.899 19.395H111.85l-6.554-9.456h-39.02l-6.553 9.456H10.129L0 284.799v-57.596z" fill="#000" data-original="#000000" opacity="1" class=""></path></g></svg>