<svg xmlns="http://www.w3.org/2000/svg" version="1.1" xmlns:xlink="http://www.w3.org/1999/xlink" xmlns:svgjs="http://svgjs.com/svgjs" width="512" height="512" x="0" y="0" viewBox="0 0 64 64" style="enable-background:new 0 0 512 512" xml:space="preserve" class=""><g><path d="M37.71 30.66c.37-.26.16-.9-.3-.88h-4.27l-1.33-4.28c-.12-.45-.81-.45-.94 0l-1.33 4.28h-4.27c-.46-.02-.67.62-.3.88l3.48 2.65-1.33 4.29c-.15.44.41.83.77.54l3.45-2.63 3.45 2.63c.36.29.92-.1.77-.54l-1.33-4.29zM31.33 23.18c.19 0 .36-.1.45-.26 2.37-4.53 3.02-12.73 2.03-17.03-.61-2.63-4.48-2.4-4.91.04-.82 4.02-.12 12.3 2 16.97.08.16.24.27.43.28zM5.97 23.6c3.3 2.43 11.13 5.31 16.26 5.36.4.02.65-.48.39-.79-3.11-4.05-10.29-8.11-14.62-9.03-2.66-.55-4.06 3.04-2.03 4.46zM25.15 39.78c-4.96 1.27-11.52 6.26-14.06 9.87-1.53 2.21 1.14 4.91 3.31 3.62 3.54-2.08 9.26-8.13 11.32-12.82.18-.35-.18-.78-.57-.67zM40.45 29.28c.01 0 .01 0 0 0 5.14-.06 12.96-2.93 16.27-5.36 2.03-1.42.63-5.01-2.03-4.46-4.33.92-11.5 4.97-14.62 9.03-.26.3-.01.8.38.79zM37.53 39.78c-.38-.11-.74.32-.57.67 2.06 4.69 7.78 10.74 11.32 12.82 2.17 1.3 4.84-1.4 3.31-3.62-2.54-3.61-9.09-8.6-14.06-9.87zM58.66 40.19l-9.92-3.01c-.61-.19-.9.76-.28.94l9.92 3.01c.6.19.9-.76.28-.94zM38.5 34.07c-.61-.19-.9.76-.28.94l5.09 1.54c.6.2.9-.76.28-.94zM42.03 20.27c.13 0 .26-.05.36-.15l7.13-7.52c.45-.46-.28-1.15-.71-.68l-7.13 7.52c-.3.29-.06.84.35.83z" fill="#000" data-original="#000000" opacity="1"></path><path d="M34.34 27.89c.2.19.51.18.69-.02l3.65-3.85c.45-.46-.28-1.15-.71-.68l-3.65 3.85c-.18.2-.17.51.02.7zM20.09 20.11c.43.47 1.16-.22.71-.68l-7.13-7.52c-.43-.47-1.16.22-.71.68zM27.44 27.87c.43.47 1.16-.22.71-.68l-3.65-3.85c-.43-.47-1.16.22-.71.68zM15.88 37.51a.489.489 0 0 0-.61-.33l-9.92 3.01c-.62.18-.32 1.14.28.94l9.92-3.01c.26-.08.4-.35.33-.61zM25.5 34.07l-5.09 1.54c-.61.18-.32 1.14.28.94l5.09-1.54c.62-.17.33-1.13-.28-.94zM31.34 48.69a.49.49 0 0 0-.49.49v10.34c-.01.64.99.64.98 0V49.18a.478.478 0 0 0-.49-.49zM31.34 44.3c.27 0 .49-.22.49-.49v-5.3c.01-.64-.99-.64-.98 0v5.3c0 .27.22.49.49.49z" fill="#000" data-original="#000000" opacity="1"></path></g></svg>