<svg xmlns="http://www.w3.org/2000/svg" version="1.1" xmlns:xlink="http://www.w3.org/1999/xlink" xmlns:svgjs="http://svgjs.com/svgjs" width="512" height="512" x="0" y="0" viewBox="0 0 24 24" style="enable-background:new 0 0 512 512" xml:space="preserve" class=""><g><path d="M5.5 5.177.553 6.526A.751.751 0 0 0 0 7.25v10.5c0 .338.227.635.553.724L5.5 19.823zM23.316 6.503 7 5.063v14.874l16.316-1.44A.75.75 0 0 0 24 17.75V7.25a.75.75 0 0 0-.684-.747zM10.5 16.25a.75.75 0 0 1-1.5 0v-7.5a.75.75 0 0 1 1.5 0zm4-.5a.75.75 0 0 1-1.5 0v-6.5a.75.75 0 0 1 1.5 0zm4-.5a.75.75 0 0 1-1.5 0v-5.5a.75.75 0 0 1 1.5 0zM22 15a.75.75 0 0 1-1.5 0v-4.75a.75.75 0 0 1 1.5 0z" fill="#000" data-original="#000000" opacity="1"></path></g></svg>