<svg xmlns="http://www.w3.org/2000/svg" version="1.1" xmlns:xlink="http://www.w3.org/1999/xlink" width="512" height="512" x="0" y="0" viewBox="0 0 512 512" style="enable-background:new 0 0 512 512" xml:space="preserve"><g><path d="m508.7 251.5-102-49.1c-5.3-2.6-7.8-8.7-5.9-14.3 12.5-35.5 24.7-69.9 37.2-105.5 1.1-3-.5-6.3-3.5-7.4-1.2-.4-2.5-.4-3.7-.1-1.1.4-2.2.7-3.3 1.1-33.9 12-67.8 23.6-101.5 36.2-8.6 3.2-12.3 1.3-16-6.7-15.7-33.8-32.1-67.4-48.2-101-1.4-2.9-4.8-4.1-7.7-2.7-1.2.6-2.1 1.5-2.7 2.7-16.2 33.8-31.9 66.4-47.8 99.5-2.8 5.8-9.7 8.3-15.5 5.5-.3-.1-.6-.3-.9-.5L4.5.4C3.3-.3 1.8-.1.9.9c-1 1-1.1 2.4-.4 3.6l109.3 183.7c3 5 1.3 11.5-3.7 14.5-.3.2-.5.3-.8.4L4.7 251.5c-2.9 1.4-4.1 4.8-2.7 7.7.6 1.2 1.5 2.1 2.7 2.7l103.7 49.9c4.4 2.1 6.4 7.1 4.8 11.7-12.6 35.8-24.9 70.9-38 108-1.1 3 .5 6.3 3.6 7.4 1.2.4 2.6.4 3.8 0 35.9-12.8 69.4-24.6 102.6-37.1 9.9-3.7 14.4-2.4 18.9 7.5 15 32.7 30.7 65 47.3 99.5 1.4 2.9 4.8 4.1 7.7 2.7 1.1-.5 2-1.4 2.6-2.5.7-1.3 1.3-2.5 1.9-3.8 15.6-32.5 31.3-64.8 46.5-97.5 3.8-8.1 7.7-10.3 16-6.5 8.8 3.9 18.2 6.5 27.2 9.7 25.2 8.9 50.5 17.8 77.9 27.5 3 1.1 6.3-.5 7.4-3.5.4-1.2.4-2.6 0-3.8l-37.2-105.3c-2.1-5.8.6-12.3 6.2-15l101.1-48.7c2.9-1.4 4.1-4.8 2.8-7.7-.6-1.4-1.6-2.4-2.8-2.9z" fill="#000" opacity="1" data-original="#000000"></path></g></svg>