<svg xmlns="http://www.w3.org/2000/svg" version="1.1" xmlns:xlink="http://www.w3.org/1999/xlink" width="512" height="512" x="0" y="0" viewBox="0 0 511.324 511.324" style="enable-background:new 0 0 512 512" xml:space="preserve"><g><path d="M255.662 326.883c19.576.343 35.439-22.304 23.712-39.891a22.075 22.075 0 0 1-.122-.205l-23.654-40.598-24.079 40.924c-10.811 17.637 4.49 40.148 24.143 39.77zM66.878 74.291h31.888v63.539h313.792V74.291h31.888c20.456-.815 20.441-30.028 0-30.835H232.091V15.264c0-8.43-6.834-15.264-15.264-15.264h-81.324c-8.43 0-15.264 6.834-15.264 15.264v28.191H66.878c-20.456.815-20.44 30.028 0 30.836z" fill="#000" opacity="1" data-original="#000000"></path><path d="M412.557 388.12V168.665H98.766V388.12zM204.758 271.792c.039-.07.079-.139.12-.208l37.496-63.726a15.418 15.418 0 0 1 13.288-7.599h.033a15.415 15.415 0 0 1 13.288 7.656l36.853 63.249c23.904 36.445-6.262 87.273-50.174 86.555-42.918.746-73.616-48.287-50.904-85.927zM444.445 480.488h-31.888v-61.533H98.766v61.533H66.878c-20.456.815-20.441 30.028 0 30.835h377.567c20.457-.814 20.441-30.027 0-30.835z" fill="#000" opacity="1" data-original="#000000"></path></g></svg>