<svg xmlns="http://www.w3.org/2000/svg" version="1.1" xmlns:xlink="http://www.w3.org/1999/xlink" xmlns:svgjs="http://svgjs.com/svgjs" width="512" height="512" x="0" y="0" viewBox="0 0 511.971 511.971" style="enable-background:new 0 0 512 512" xml:space="preserve" class=""><g><path d="M326.621 158.882h17.655v194.207h-17.655zM114.759 185.365a8.828 8.828 0 0 1-17.656 0v-35.31a8.828 8.828 0 0 0-8.828-8.828h-8.828a8.828 8.828 0 0 0-8.828 8.828v211.862a8.828 8.828 0 0 0 8.828 8.828h8.828a8.828 8.828 0 0 0 8.828-8.828V229.503a8.828 8.828 0 0 1 17.656 0v123.586h194.207V158.882H114.759zM506.703 240.025c-52.251-70.188-104.492-80.631-144.772-81.099v194.163c40.298-.468 92.54-10.911 144.772-81.099a26.879 26.879 0 0 0 0-31.965zm-36.652-3.239a8.825 8.825 0 0 1-12.491-.088 142.524 142.524 0 0 0-56.399-36.696 8.828 8.828 0 0 1 5.491-16.772 159.84 159.84 0 0 1 63.479 41.075 8.828 8.828 0 0 1-.062 12.482h-.018zM8.828 467.848h97.103a8.828 8.828 0 0 0 0-17.656H8.828a8.828 8.828 0 0 0 0 17.656zM150.069 467.848h194.207a8.828 8.828 0 0 0 0-17.656H150.069a8.828 8.828 0 0 0 0 17.656zM406.069 414.882a8.828 8.828 0 0 0-8.828-8.828h-97.103a8.828 8.828 0 0 0 0 17.656h97.103a8.828 8.828 0 0 0 8.828-8.828zM264.828 414.882a8.828 8.828 0 0 0-8.828-8.828H61.793a8.828 8.828 0 0 0 0 17.656H256a8.829 8.829 0 0 0 8.828-8.828zM8.828 61.779h97.103a8.828 8.828 0 0 0 0-17.656H8.828a8.828 8.828 0 0 0 0 17.656zM344.276 44.123H150.069a8.828 8.828 0 0 0 0 17.656h194.207a8.828 8.828 0 0 0 0-17.656zM291.31 97.089a8.828 8.828 0 0 0 8.828 8.828h97.103a8.828 8.828 0 0 0 0-17.656h-97.103a8.829 8.829 0 0 0-8.828 8.828zM52.966 97.089a8.828 8.828 0 0 0 8.828 8.828H256a8.828 8.828 0 0 0 0-17.656H61.793a8.828 8.828 0 0 0-8.827 8.828z" fill="#000" data-original="#000000" opacity="1" class=""></path></g></svg>