<svg xmlns="http://www.w3.org/2000/svg" version="1.1" xmlns:xlink="http://www.w3.org/1999/xlink" xmlns:svgjs="http://svgjs.com/svgjs" width="512" height="512" x="0" y="0" viewBox="0 0 511.999 511.999" style="enable-background:new 0 0 512 512" xml:space="preserve" class=""><g><path d="M388.781 129.894h-6.675V65.488C382.106 29.378 352.728 0 316.618 0h-49.071c-33.484 0-61.161 25.265-65.013 57.73H75.59c-9.864 0-17.86 7.997-17.86 17.86v72.163c0 9.864 7.997 17.86 17.86 17.86 9.864 0 17.86-7.997 17.86-17.86V93.451h108.607v36.442h-6.675c-36.11 0-65.488 29.378-65.488 65.488V446.51c0 36.11 29.378 65.488 65.488 65.488h193.399c36.11 0 65.488-29.378 65.488-65.488V195.381c.001-36.108-29.378-65.487-65.488-65.487zM237.778 65.488c0-16.414 13.354-29.767 29.767-29.767h49.071c16.414 0 29.767 13.354 29.767 29.767v64.406H237.778V65.488zm180.771 381.024c0 16.414-13.354 29.767-29.767 29.767h-193.4c-16.414 0-29.767-13.354-29.767-29.767v-35.541h252.934v35.541zm0-71.262H165.615V266.644h252.934V375.25zm0-144.326H165.615v-35.541c0-16.414 13.354-29.767 29.767-29.767h193.399c16.414 0 29.767 13.354 29.767 29.767v35.541z" fill="#000" data-original="#000000" opacity="1"></path></g></svg>