<svg xmlns="http://www.w3.org/2000/svg" version="1.1" xmlns:xlink="http://www.w3.org/1999/xlink" xmlns:svgjs="http://svgjs.com/svgjs" width="512" height="512" x="0" y="0" viewBox="0 0 47.377 47.377" style="enable-background:new 0 0 512 512" xml:space="preserve" class=""><g><path d="m44.324 26.745-16.629-7.33.48-11.854c0-1.259-.998-7.561-3.801-7.561h-.665c-3.231 0-3.801 6.302-3.801 7.561l.467 11.549-17.32 7.635c-.769.339-1.192 1.181-.948 1.881l.443 1.266 18.206-1.385.36 6.879-4.662 6.388c-.611.575-1.008 1.552-.886 2.182l.223 1.141 5.583-1.338.054 1.338a2.28 2.28 0 0 0 2.281 2.28h.665a2.28 2.28 0 0 0 2.28-2.28l.054-1.333 5.561 1.333.222-1.141c.123-.63-.274-1.606-.886-2.182l-4.64-6.367.358-6.846 17.503 1.331.444-1.266c.246-.701-.178-1.542-.946-1.881z" style="" fill="#000" data-original="#010002" opacity="1" class=""></path></g></svg>