<svg xmlns="http://www.w3.org/2000/svg" version="1.1" xmlns:xlink="http://www.w3.org/1999/xlink" width="512" height="512" x="0" y="0" viewBox="0 0 512 512" style="enable-background:new 0 0 512 512" xml:space="preserve"><g><path fill-rule="evenodd" d="M307.522 258.05h155.5a5 5 0 0 1 3.916 8.108l-30.253 38.116H51.372l-3.2-11.611a4.986 4.986 0 0 1 4.82-6.329h199.745c7.613 0 13.4-3.509 19.866-7.52l32.285-20.014a4.793 4.793 0 0 1 2.634-.75zm-85.268-73.193a4.868 4.868 0 0 0-4.147-2.206h-93.251a4.918 4.918 0 0 0-4.659 3.185L86.5 272.335h166.237c4.232 0 9.031-3.276 12.49-5.42l8.676-5.379-8.6-12.763h-60.172a7 7 0 0 1 0-14h50.745l-13.85-20.561h-60.189a7 7 0 0 1 0-14H232.6l-10.342-15.355zm-40.792 49.916a7 7 0 0 1 0 14h-13.67a7 7 0 0 1 0-14zm-23.295-34.561a7 7 0 1 1 0 14H144.5a7 7 0 0 1 0-14zm279.9 43.838v-15.832a5.01 5.01 0 0 0-5-5H366a5.01 5.01 0 0 0-5 5v15.832zm-38.531-60.583a16.79 16.79 0 0 1 12.261 5.332l51.945-10.652a6.977 6.977 0 1 1 2.789 13.672l-50.164 10.286v7.113H382.7V200.3a16.88 16.88 0 0 1 16.831-16.831zm-216.17-81.854 51.945-10.651a6.976 6.976 0 1 1 2.79 13.671l-50.168 10.287v7.113h-33.662v-8.921a16.81 16.81 0 0 1 29.092-11.5zm26.27 67.038v-27.619a5.01 5.01 0 0 0-5-5h-67.065a5.01 5.01 0 0 0-5 5v27.619zM172.51 362.965c-42.16-16.476-59.392-34.284-156.51 20.97v38.206c84.685-45.27 108.755-35.475 144.609-20.863 74.6 30.4 103.123 22.532 176.453-3.91 60.3-21.742 105.446-9.2 158.938 23.815v-37.248c-75.668-51.3-119.542-44.214-158.437-29.81-63.992 23.7-96.234 35.734-165.053 8.84zM16 438.007c84.3-46.2 106.249-37.261 139.359-23.768 78.784 32.1 108.991 24.17 186.406-3.746 59.282-21.377 102.674-6.248 154.235 27.224v33.143c-53.492-33.015-98.643-45.556-158.938-23.815-73.33 26.443-101.851 34.31-176.453 3.911-35.854-14.612-59.924-24.407-144.609 20.863zm8.142 45.283h196.686c-22.819-3.122-44.259-10.73-65.469-19.373-32.018-13.049-53.6-21.836-131.217 19.373zm238.688 0h226.712c-49.95-31.036-91.29-43.488-147.777-23.12-31.023 11.187-54.958 19.814-78.935 23.12zm-121-424.676a7 7 0 0 1 0-14h22.27v-8.9a7 7 0 0 1 14 0v8.9h22.271a7 7 0 0 1 0 14H178.1v24.472a30.9 30.9 0 0 0-14 0V58.614zm247.548 219.048h-13.669a7 7 0 0 0 0 14h13.669a7 7 0 0 0 0-14zm-37.339 0H338.37a7 7 0 0 0 0 14h13.669a7 7 0 0 0 0-14zm73.533 40.612-10.884 13.713q-5.041-.932-10.134-1.509C378.915 327.6 356.618 332.139 332.7 341c-61.8 22.888-90.726 34.084-155.1 8.93-22.022-8.607-38.43-17.819-63-17.372-16.59.3-34.555 5.368-52.019 12.408l-7.358-26.688z" fill="#000" opacity="1" data-original="#000000"></path></g></svg>