<svg xmlns="http://www.w3.org/2000/svg" version="1.1" xmlns:xlink="http://www.w3.org/1999/xlink" width="512" height="512" x="0" y="0" viewBox="0 0 64 64" style="enable-background:new 0 0 512 512" xml:space="preserve"><g><path d="m14.24 4.66-9.57 9.57-1-1C1.61 11.18.43 3.87 0 0c1.18.14 3.07.37 5.07.74 5.37 1 7.39 2.15 8.15 2.9zM6.134 15.71l9.573-9.572 3.351 3.351-9.572 9.573zM64 44.64 44.64 64l-2.93-2.93.19-9.15a1 1 0 0 0-.31-.76L11 20.53 20.54 11l30.62 30.58a1 1 0 0 0 .73.31l9.16-.18z" fill="#000" opacity="1" data-original="#000000"></path><path d="m33.38 45.89-5.58 5.59-6.3-6.3-2.35-13.52zM51.47 27.8l-5.57 5.58-14.24-14.23 13.52 2.36z" fill="#000" opacity="1" data-original="#000000"></path></g></svg>