<svg xmlns="http://www.w3.org/2000/svg" version="1.1" xmlns:xlink="http://www.w3.org/1999/xlink" width="512" height="512" x="0" y="0" viewBox="0 0 512 512" style="enable-background:new 0 0 512 512" xml:space="preserve" class=""><g><path d="m494.313 99.375-64-32c-15.797-7.891-35.023-1.492-42.938 14.313-7.898 15.813-1.492 35.031 14.313 42.938l14.715 7.355c1.376 21.877 13.662 40.656 31.598 51.117V368c0 8.82-7.18 16-16 16s-16-7.18-16-16V240c0-52.938-43.063-96-96-96V64c0-35.289-28.711-64-64-64H96C60.711 0 32 28.711 32 64v354.742L9.375 441.375C3.375 447.375 0 455.516 0 464v16c0 17.672 14.328 32 32 32h288c17.672 0 32-14.328 32-32v-16a32.005 32.005 0 0 0-9.375-22.625L320 418.742V208c17.648 0 32 14.352 32 32v128c0 44.109 35.891 80 80 80 41.898 0 75.995-32.492 79.347-73.543.428-2.086.653-4.246.653-6.457V128a32.02 32.02 0 0 0-17.687-28.625zM256 192H96V96h160v96z" fill="#000" opacity="1" data-original="#000000" class=""></path></g></svg>