<svg xmlns="http://www.w3.org/2000/svg" version="1.1" xmlns:xlink="http://www.w3.org/1999/xlink" xmlns:svgjs="http://svgjs.com/svgjs" width="512" height="512" x="0" y="0" viewBox="0 0 511.997 511.997" style="enable-background:new 0 0 512 512" xml:space="preserve" class=""><g><path d="M440.554 405.771a7.499 7.499 0 0 0-7.5 7.5v47.371c0 4.143 3.357 7.5 7.5 7.5s7.5-3.357 7.5-7.5v-47.371a7.5 7.5 0 0 0-7.5-7.5zm3.76-92.769-44.17-11.938-20.444-16.997v-19.073l1.874-1.874c10.327-10.325 16.014-24.054 16.014-38.656v-11.111h4.372c11.208 0 20.326-9.118 20.326-20.326V173.93c0-11.208-9.118-20.326-20.326-20.326h-4.372v-7.593l9.314-5.237c7.271-4.089 12.618-11.429 14.668-20.14 2.2-9.345.459-19.13-4.776-26.845l-5.335-7.863a7.498 7.498 0 0 0-10.417-1.995 7.499 7.499 0 0 0-1.995 10.417l5.335 7.863c2.886 4.252 3.829 9.714 2.588 14.986-1.092 4.637-3.796 8.464-7.419 10.501l-1.963 1.104v-7.592c0-9.271-5.979-17.304-14.88-19.991a201.305 201.305 0 0 0-35.777-7.318c-1.477-10.913-10.849-19.355-22.162-19.355-11.311 0-20.682 8.44-22.16 19.352a200.976 200.976 0 0 0-35.861 7.345c-8.851 2.677-14.797 10.701-14.797 19.966v2.351l-4.253.026c-4.354-5.961-4.627-14.981-.288-21.375l19.369-28.545c6.649-9.8 16.586-15.421 27.261-15.421h63.712c10.675 0 20.611 5.621 27.262 15.421a7.5 7.5 0 0 0 12.412-8.422c-9.347-13.775-24.179-21.999-39.674-21.999H294.04c-15.496 0-30.327 8.224-39.673 21.999l-19.369 28.545c-5.994 8.834-7.156 20.151-3.896 29.898-4.104-.106-8.121 1.416-11.089 4.29l-62.679 61.074c-4.131-1.002-8.661-.137-12.16 2.696a4.709 4.709 0 0 0-.153.128l-126.7 108.34C3.632 312.163-2.919 331.05 1.222 349.531c4.147 18.518 18.176 32.824 36.527 37.316l144.81 37.193v36.602c0 4.143 3.357 7.5 7.5 7.5s7.5-3.357 7.5-7.5v-47.371c0-4.143-3.357-7.5-7.5-7.5a7.484 7.484 0 0 0-6.096 3.142L41.398 372.298c-13.054-3.195-22.602-12.932-25.539-26.045-2.938-13.112 1.543-25.99 11.985-34.448a6.47 6.47 0 0 0 .153-.128l125.932-107.682 28.837 30.47-94.644 91.242a7.499 7.499 0 0 0-.194 10.604 7.497 7.497 0 0 0 10.604.194l22.208-21.41c.143.008.284.022.428.022h123.945l-6.508 32.663-13.652.845c-4.948.305-9.162 3.356-10.996 7.963s-.871 9.719 2.513 13.342c.127.136.258.266.394.391l30.56 28.22a7.497 7.497 0 0 0 10.598-.422 7.5 7.5 0 0 0-.422-10.598l-26.272-24.262 13.942-.863 26.108-1.441a7.5 7.5 0 0 0 6.062-3.703l6.083-10.406 28.849 77.35-4.458 9.787-30.165-27.856a7.5 7.5 0 0 0-10.176 11.02l33.794 31.208-4.182 9.179a7.5 7.5 0 0 0 3.716 9.935c3.692 1.681 8.2.102 9.935-3.716l6.378-14.001.007-.015 46.635-102.371 6.644 11.337a7.5 7.5 0 0 0 6.471 3.708h37.855c.218 0 .488 0 .66.457.172.456-.031.634-.194.777-.576.507-83.357 91.332-83.916 91.945a7.5 7.5 0 0 0 .487 10.595 7.5 7.5 0 0 0 10.596-.487l83.09-91.106c4.683-4.364 6.245-10.99 3.974-17.016-2.328-6.175-8.097-10.165-14.696-10.165h-9.639l-.809-29.663 36.022 9.736c33.324 9.007 56.598 39.402 56.598 73.918v59.853c0 4.143 3.357 7.5 7.5 7.5s7.5-3.357 7.5-7.5V401.4c-.002-41.277-27.835-77.628-67.685-88.398zm-46.726-144.399h4.372a5.332 5.332 0 0 1 5.326 5.326v19.097a5.332 5.332 0 0 1-5.326 5.326h-4.372zM324.77 89.546c4.063 0 7.37 3.305 7.37 7.368s-3.307 7.368-7.37 7.368-7.369-3.305-7.369-7.368 3.305-7.368 7.369-7.368zM271.09 115.6a186.018 186.018 0 0 1 34.638-6.966c3.944 6.383 11.003 10.647 19.042 10.647 8.038 0 15.096-4.262 19.041-10.644a186.342 186.342 0 0 1 34.564 6.942c3.473 1.048 4.628 4.59 4.214 7.9H266.951c-.049-3.242.49-6.776 4.139-7.879zm9.066 22.88h101.776c-2.274 8.691-10.195 15.124-19.591 15.124h-75.142c-2.461 0-4.853-.449-7.102-1.292.111-1.146.063-12.492.063-13.729 0-.035-.004-.069-.004-.103zm-110.893 59.895 61.292-59.685 34.502-.21.104.102-.028 12.462-28.293 29.999a7.501 7.501 0 0 0 10.913 10.292l9.938-10.537 2.795 4.098a5.408 5.408 0 0 1-.617 6.829l-18.795 19.044-35.579-3.34a7.487 7.487 0 0 0-5.868 2.031l-10.461 9.942zm-32.985 101.742 57.437-55.372c3.53-3.269 5.098-8.252 4.182-12.947l9.59-9.115 35.725 3.353a7.486 7.486 0 0 0 6.039-2.198l2.701-2.737v3.363c0 14.603 5.687 28.331 16.014 38.656l1.875 1.875v19.89l-18.297 15.233H136.278zM266.526 346.2l-12.446.687 7.013-35.204 8.747-7.281v4.403c.185 3.696 6.328 16.592 6.916 19.896zm28.775-10.701-10.46-28.047v-5.764l27.833 16.804-17.183 17.101c-.04.012-.134-.009-.19-.094zm-10.461-51.333v-6.805c6.469 3.503 13.743 5.367 21.306 5.367h37.248c7.563 0 14.838-1.864 21.307-5.368v6.806l-39.931 24.107zm36.334 120.706L300.59 349.68a15.134 15.134 0 0 0 5.534-3.499l18.442-18.36 17.95 19.277a13.998 13.998 0 0 0 3.694 2.821zm44.505-97.694-12.932 28.387c-.072.093-.146.183-.214.28l-15.981-17.163 29.127-17.584zm-1.19-48.187c-5.634 5.635-13.125 8.737-21.095 8.737h-37.248c-7.969 0-15.46-3.103-21.096-8.737l-6.479-6.479c-7.492-7.492-11.619-17.453-11.619-28.049V205.9l3.592-3.64c6.832-6.923 7.813-17.78 2.334-25.816l-4.65-6.82 4.088-4.335a35.024 35.024 0 0 0 14.884 3.313h75.142a35.044 35.044 0 0 0 20.247-6.421v62.282c0 10.596-4.127 20.557-11.619 28.049zm16.779 88.418-9.809-16.736 8.545-18.758c.922-1.914.702-5.415.675-7.526l8.522 7.085.98 35.936h-8.913zm-40.824-119.56c-1.923 1.922-4.286 5.427-7.333 5.315h-17.065c-2.748.076-5.181-3.167-6.948-4.933a7.5 7.5 0 0 0-10.607 10.607l3.507 3.507a19.74 19.74 0 0 0 14.049 5.818h17.065a19.736 19.736 0 0 0 14.048-5.818l3.891-3.89a7.498 7.498 0 0 0 .001-10.606 7.502 7.502 0 0 0-10.608 0z" fill="#000" data-original="#000000" opacity="1" class=""></path></g></svg>