<svg xmlns="http://www.w3.org/2000/svg" version="1.1" xmlns:xlink="http://www.w3.org/1999/xlink" xmlns:svgjs="http://svgjs.com/svgjs" width="512" height="512" x="0" y="0" viewBox="0 0 512 512" style="enable-background:new 0 0 512 512" xml:space="preserve"><g><path d="M512 133.658c0-8.284-6.716-15-15-15v-13.254c8.284 0 15-6.716 15-15s-6.716-15-15-15H318.002V62.761c0-8.284-6.716-15-15-15h-59.495c-8.284 0-15 6.716-15 15v25.258H68.361v69.825h160.146v20H87.468v40.083c0 8.284 6.716 15 15 15h18.633l-99.538 184.82c-.153.285-.279.577-.412.867H15c-8.284 0-15 6.716-15 15s6.716 15 15 15h40.063c8.284 0 15-6.716 15-15 0-8.249-6.661-14.939-14.897-14.995l80.009-148.559v175.337h-5.031c-8.284 0-15 6.716-15 15s6.716 15 15 15h40.063c8.284 0 15-6.716 15-15s-6.716-15-15-15h-5.031V270.061l80.009 148.559c-8.236.057-14.896 6.746-14.896 14.995 0 8.284 6.716 15 15 15h40.062c8.284 0 15-6.716 15-15s-6.716-15-15-15h-6.15c-.133-.29-.259-.582-.412-.867l-99.538-184.821h18.634c8.284 0 15-6.716 15-15v-26.014h15.624v6.44c0 8.284 6.716 15 15 15h59.495c8.284 0 15-6.716 15-15v-6.44H497c8.284 0 15-6.716 15-15s-6.716-15-15-15v-13.255c8.284 0 15-6.716 15-15zm-162.91 28.254h-31.088v-13.254h31.088v13.254zm0-43.254h-31.088v-13.254h31.088v13.254zm115.744 43.254H379.09v-13.254h85.744v13.254zm0-43.254H379.09v-13.254h85.744v13.254z" fill="#000" data-original="#000000" opacity="1"></path><path d="M189.466 50.737c-8.284 0-15 6.716-15 15v2.281h30v-2.281c0-8.284-6.716-15-15-15zM90.997 36.603c-8.284 0-15 6.716-15 15v16.416h30V51.603c0-8.284-6.716-15-15-15zM15.263 91.158c-8.284 0-15 6.716-15 15v33.546c0 8.284 6.716 15 15 15h33.099V91.158H15.263z" fill="#000" data-original="#000000" opacity="1"></path></g></svg>