<svg xmlns="http://www.w3.org/2000/svg" version="1.1" xmlns:xlink="http://www.w3.org/1999/xlink" xmlns:svgjs="http://svgjs.com/svgjs" width="512" height="512" x="0" y="0" viewBox="0 0 512.013 512.013" style="enable-background:new 0 0 512 512" xml:space="preserve" class=""><g><circle cx="42.68" cy="224.006" r="42.667" fill="#000" data-original="#000000" opacity="1"></circle><path d="M341.346 202.673c-5.888 0-10.667 4.779-10.667 10.667s4.779 10.667 10.667 10.667c87.509 0 149.333 80.043 149.333 96 0 5.888 4.779 10.667 10.667 10.667s10.667-4.779 10.667-10.667c0-33.067-75.691-117.334-170.667-117.334z" fill="#000" data-original="#000000" opacity="1"></path><path d="M501.346 309.34H405.09c-14.251 0-26.56-9.173-30.677-22.805l-23.552-77.973-21.333-42.667a10.629 10.629 0 0 0-9.515-5.888h-32a10.744 10.744 0 0 0-7.552 3.115l-39.531 39.552H74.68c-5.888 0-10.667 4.779-10.667 10.667v21.333c0 5.205 3.776 9.664 8.917 10.517 39.083 6.528 105.621 22.549 120.896 38.272l.683 1.323c20.16 39.467 45.269 88.555 93.504 88.555h149.333c42.56 0 74.667-22.933 74.667-53.333 0-5.89-4.779-10.668-10.667-10.668zM63.224 188.529 41.89 145.862c-2.517-5.035-8.576-7.232-13.781-4.971l-21.653 9.323c-5.077 2.197-7.659 7.915-5.909 13.163l10.667 32c1.899 5.589 7.957 8.597 13.504 6.741 4.331-1.429 7.04-5.376 7.211-9.685l9.557.384 2.645 5.269a10.688 10.688 0 0 0 9.536 5.888c1.6 0 3.221-.363 4.779-1.131 5.268-2.645 7.401-9.045 4.778-14.314zM58.125 246.47c-5.248-2.581-11.669-.491-14.315 4.779l-1.344 2.645c-.981-4.885-5.291-8.555-10.453-8.555-5.888 0-10.667 4.779-10.667 10.667v21.333c0 5.888 4.779 10.667 10.667 10.667H42.68c4.032 0 7.723-2.283 9.536-5.888l10.667-21.333c2.623-5.269.511-11.691-4.758-14.315zM309.346 96.006c-5.888 0-10.667 4.779-10.667 10.667v10.667c0 5.888 4.779 10.667 10.667 10.667s10.667-4.779 10.667-10.667v-10.667c0-5.888-4.779-10.667-10.667-10.667z" fill="#000" data-original="#000000" opacity="1"></path><path d="M501.346 117.34h-192c-5.888 0-10.667 4.779-10.667 10.667s4.779 10.667 10.667 10.667h192c5.888 0 10.667-4.779 10.667-10.667s-4.779-10.667-10.667-10.667z" fill="#000" data-original="#000000" opacity="1"></path><path d="M309.346 117.34h-192c-5.888 0-10.667 4.779-10.667 10.667s4.779 10.667 10.667 10.667h192c5.888 0 10.667-4.779 10.667-10.667s-4.779-10.667-10.667-10.667zM352.013 352.006c-5.888 0-10.667 4.779-10.667 10.667v42.667c0 5.888 4.779 10.667 10.667 10.667s10.667-4.779 10.667-10.667v-42.667c0-5.888-4.779-10.667-10.667-10.667zM437.346 352.006c-5.888 0-10.667 4.779-10.667 10.667v42.667c0 5.888 4.779 10.667 10.667 10.667s10.667-4.779 10.667-10.667v-42.667c0-5.888-4.779-10.667-10.667-10.667z" fill="#000" data-original="#000000" opacity="1"></path><path d="M506.552 374.705c-5.141-2.88-11.648-1.045-14.528 4.096-5.056 9.024-25.664 14.656-33.344 15.872H245.346c-5.888 0-10.667 4.779-10.667 10.667s4.779 10.667 10.667 10.667l214.805-.107c3.947-.555 38.912-5.995 50.496-26.688 2.88-5.142 1.046-11.627-4.095-14.507z" fill="#000" data-original="#000000" opacity="1"></path></g></svg>