<svg xmlns="http://www.w3.org/2000/svg" version="1.1" xmlns:xlink="http://www.w3.org/1999/xlink" xmlns:svgjs="http://svgjs.com/svgjs" width="512" height="512" x="0" y="0" viewBox="0 0 512 512" style="enable-background:new 0 0 512 512" xml:space="preserve" class=""><g><path d="M333.315 238.524c-40.896 0-74.164 33.27-74.164 74.163s33.268 74.164 74.164 74.164 74.163-33.27 74.163-74.164-33.267-74.163-74.163-74.163zm46.026 31.594L353.06 296.4a25.775 25.775 0 0 0-3.457-3.458l26.28-26.283a63.079 63.079 0 0 1 3.458 3.458zm-32.213-18.643a62.363 62.363 0 0 1 19.674 8.188l-19.674 19.676zm-16.256-1.457c.817-.031 1.618-.124 2.443-.124s1.626.093 2.442.124v37.191c-.816-.078-1.606-.247-2.442-.247s-1.627.169-2.443.247zm-11.37 1.457v27.862l-19.675-19.675a62.363 62.363 0 0 1 19.674-8.187zm-28.756 15.185 26.282 26.282a25.755 25.755 0 0 0-3.457 3.458l-26.282-26.282a63.209 63.209 0 0 1 3.457-3.458zm-10.455 12.538 19.676 19.676h-27.865a62.353 62.353 0 0 1 8.189-19.676zm-9.77 33.49c0-.825.093-1.627.124-2.443h37.194c-.079.816-.247 1.606-.247 2.442s.168 1.627.247 2.443h-37.194c-.031-.816-.123-1.618-.123-2.443zm9.769 33.487a62.352 62.352 0 0 1-8.188-19.674h27.862zm6.997 9.081 26.282-26.282a25.76 25.76 0 0 0 3.456 3.457l-26.28 26.284a63.247 63.247 0 0 1-3.458-3.459zm32.214 18.644a62.358 62.358 0 0 1-19.674-8.188l19.674-19.678zm16.256 1.457c-.816.031-1.618.123-2.442.123s-1.626-.092-2.443-.123v-37.191c.816.078 1.606.247 2.443.247s1.626-.169 2.442-.247zm-2.442-48.315c-7.912 0-14.352-6.44-14.352-14.355s6.44-14.354 14.352-14.354 14.351 6.44 14.351 14.354-6.44 14.355-14.351 14.355zm13.813 46.858v-27.865l19.677 19.675a62.361 62.361 0 0 1-19.677 8.19zm28.758-15.188-26.283-26.28a25.75 25.75 0 0 0 3.458-3.46l26.281 26.284a63.284 63.284 0 0 1-3.456 3.456zm10.454-12.537L366.667 326.5h27.86a62.358 62.358 0 0 1-8.187 19.674zm9.768-33.488c0 .825-.093 1.627-.124 2.443H358.79c.079-.816.247-1.606.247-2.443s-.168-1.626-.247-2.442h37.194c.031.816.124 1.618.124 2.442zm-1.581-13.813h-27.862l19.674-19.675a62.35 62.35 0 0 1 8.188 19.675z" fill="#000" data-original="#000000" opacity="1"></path><path d="m484.79 193.086-50.218-93.559c-4.858-9.047-16.168-12.448-25.217-7.6-8.908 4.781-12.315 15.81-7.787 24.786L85.94 263.155c-17.306 9.289-29.98 24.829-35.688 43.758a73.733 73.733 0 0 0-2.139 33.408l-10.62 5.7c-11.52 6.183-15.862 20.587-9.682 32.11 2.987 5.564 7.978 9.636 14.057 11.468a23.919 23.919 0 0 0 6.907 1.027c3.853 0 7.667-.949 11.143-2.817l10.623-5.703a73.71 73.71 0 0 0 29.03 16.679c7.067 2.13 14.273 3.19 21.446 3.19 12.048 0 24.002-2.99 35.028-8.914l9.103-5.592-8.248 23.442H97.477c-3.142 0-5.685 2.545-5.685 5.685s2.543 5.685 5.685 5.685h167.36a5.685 5.685 0 0 0 5.629-4.897l1.913-13.663c17.437 11.71 38.398 18.56 60.936 18.56 60.433 0 109.596-49.163 109.596-109.594 0-29.799-11.99-56.825-31.356-76.6l40.678-24.99c2.365 4.158 6.154 7.228 10.776 8.62 1.788.538 3.609.805 5.419.805a18.5 18.5 0 0 0 8.766-2.216c9.045-4.858 12.454-16.17 7.596-25.22zM54.543 377.793c-2.892 1.543-6.212 1.874-9.394.919-3.17-.955-5.774-3.07-7.323-5.958-3.214-5.998-.955-13.496 5.042-16.717l8.082-4.338c1.312 3.891 2.886 7.717 4.865 11.403 1.978 3.685 4.294 7.11 6.811 10.352zm48.308 10.105c-16.017-4.828-29.164-15.546-37.02-30.176-7.85-14.629-9.516-31.507-4.692-47.527 4.298-14.256 13.273-26.21 25.292-34.104l58.81 109.56c-13.368 5.685-28.21 6.52-42.39 2.247zM259.89 410.91h-90.936l44.105-125.353h14.198c-2.227 8.694-3.538 17.75-3.538 27.13 0 33.203 14.898 62.944 38.297 83.058zm171.651-98.224c0 54.16-44.066 98.224-98.225 98.224s-98.226-44.064-98.226-98.224 44.066-98.223 98.226-98.223 98.225 44.064 98.225 98.223zm9.392-107.992-9.863-18.374c-1.483-2.762-4.93-3.814-7.696-2.318a5.679 5.679 0 0 0-2.32 7.698l10.176 18.955-28.348 17.415c-18.936-15.596-43.175-24.977-69.566-24.977-46.871 0-86.846 29.627-102.48 71.093h-21.802a5.68 5.68 0 0 0-5.363 3.798l-30.398 86.393-2.237-4.168c-1.488-2.762-4.924-3.812-7.695-2.318a5.679 5.679 0 0 0-2.32 7.698l4.47 8.329-10.258 6.308-58.746-109.442 10.923-5.067 40.386 75.235a5.685 5.685 0 1 0 10.016-5.38l-40.071-74.648 11.726-5.44 26.451 49.277a5.685 5.685 0 1 0 10.016-5.38l-26.136-48.69 9.535-4.423 9.689 18.055a5.676 5.676 0 0 0 5.013 2.998 5.68 5.68 0 0 0 5.002-8.372l-9.376-17.473 8.483-3.935 6.607 12.31a5.676 5.676 0 0 0 5.013 2.999 5.68 5.68 0 0 0 5.002-8.372l-6.294-11.73 9.886-4.585 15.668 29.187a5.685 5.685 0 1 0 10.016-5.38l-15.353-28.6 10.4-4.825 4.548 8.471a5.685 5.685 0 1 0 10.016-5.38l-4.233-7.884 10.4-4.825 2.277 4.246a5.676 5.676 0 0 0 5.014 2.998 5.684 5.684 0 0 0 5.002-8.372l-1.965-3.663 98.541-45.716 2.166 4.035a5.685 5.685 0 1 0 10.016-5.38l-1.85-3.448 6.968-3.233 5.82 10.84a5.685 5.685 0 1 0 10.015-5.38l-5.504-10.253 7.58-3.516 10.833 20.181a5.685 5.685 0 1 0 10.015-5.38l-10.518-19.594 6.099-2.83 17.55 32.693a5.685 5.685 0 1 0 10.016-5.38l-17.235-32.105 6.254-2.902 39.894 74.316zm30.883 3.593a7.234 7.234 0 0 1-5.525.541 7.192 7.192 0 0 1-4.302-3.5l-50.224-93.557c-1.887-3.526-.56-7.934 2.965-9.824 0 0 0-.003.006-.003a7.214 7.214 0 0 1 3.414-.86 7.273 7.273 0 0 1 6.407 3.822l50.218 93.557c1.887 3.525.56 7.933-2.96 9.824z" fill="#000" data-original="#000000" opacity="1"></path><path d="M175.044 270.131a5.684 5.684 0 1 0-10.016 5.374l1.954 3.646a5.676 5.676 0 0 0 5.014 2.998 5.684 5.684 0 0 0 5.002-8.372z" fill="#000" data-original="#000000" opacity="1"></path></g></svg>