<svg xmlns="http://www.w3.org/2000/svg" version="1.1" xmlns:xlink="http://www.w3.org/1999/xlink" xmlns:svgjs="http://svgjs.com/svgjs" width="512" height="512" x="0" y="0" viewBox="0 0 512 512" style="enable-background:new 0 0 512 512" xml:space="preserve"><g><path d="M122.93 212.14v-58.468c0-10.33-8.404-18.734-18.735-18.734-10.33 0-18.734 8.404-18.734 18.734v58.468a48.47 48.47 0 0 1 18.734-3.75 48.47 48.47 0 0 1 18.735 3.75zM122.93 390.061V257.125c0-10.33-8.404-18.734-18.735-18.734-10.33 0-18.734 8.404-18.734 18.734v132.937l-25.856 41.825a52.307 52.307 0 0 0-7.878 27.645c0 28.932 23.538 52.469 52.469 52.469 28.932 0 52.469-23.537 52.469-52.469a52.324 52.324 0 0 0-7.878-27.646zM323.469 407.062c-28.932 0-52.469 23.538-52.469 52.469V512h104.938v-52.469c0-28.931-23.537-52.469-52.469-52.469zM271 395.953c14.267-11.795 32.554-18.891 52.469-18.891s38.202 7.096 52.469 18.891v-56.36H271zM254.133 204.656h138.672v37.469H254.133z" fill="#000" data-original="#000000" opacity="1"></path><path d="M424.672 0H222.266c-19.631 0-35.602 15.971-35.602 35.602v238.39c0 19.631 15.971 35.602 35.602 35.602h202.406c19.631 0 35.602-15.971 35.602-35.602V35.602C460.274 15.971 444.303 0 424.672 0zm-1.867 272.125H224.133V37.469h198.672z" fill="#000" data-original="#000000" opacity="1"></path><path d="M254.133 67.469h138.672v107.187H254.133z" fill="#000" data-original="#000000" opacity="1"></path></g></svg>