<svg xmlns="http://www.w3.org/2000/svg" version="1.1" xmlns:xlink="http://www.w3.org/1999/xlink" width="512" height="512" x="0" y="0" viewBox="0 0 512 512" style="enable-background:new 0 0 512 512" xml:space="preserve"><g><path d="M375.586 107.304H226.023l-38.38 36.461h187.943c10.039 0 18.206-8.179 18.206-18.231s-8.167-18.23-18.206-18.23z" fill="#000" opacity="1" data-original="#000000"></path><path d="M392.455.058H245.998c-16.421 0-31.897 6.125-43.575 17.246L167.909 50.17a.051.051 0 0 1-.071-.001L142.64 24.938a.05.05 0 0 1-.002-.067c5.438-6.137 5.011-15.654-1.318-21.237-5.992-5.286-15.168-4.673-20.814.982L33.969 91.267c-5.858 5.865-5.858 15.376 0 21.241a14.94 14.94 0 0 0 10.606 4.399c3.556 0 7.102-1.275 9.935-3.792a.048.048 0 0 1 .067.002l22.985 23.015c.02.02.02.053-.001.073l-26.04 24.796c-11.713 11.154-18.431 26.658-18.431 42.535v222.053c0 47.647 40.36 86.411 89.97 86.411h269.395c49.609 0 89.97-38.763 89.97-86.41V86.467c0-47.646-40.361-86.409-89.97-86.409zm-8.678 434.245c5.858 5.858 5.858 15.358 0 21.217a14.954 14.954 0 0 1-10.606 4.394 14.946 14.946 0 0 1-10.606-4.394l-92.349-92.367-92.349 92.367c-2.929 2.929-6.768 4.394-10.607 4.394s-7.678-1.465-10.606-4.394c-5.858-5.859-5.858-15.358 0-21.217l92.349-92.367-92.349-92.367c-5.858-5.858-5.858-15.358 0-21.217s15.356-5.861 21.213 0l92.349 92.367 92.349-92.367c5.857-5.859 15.355-5.859 21.213 0 5.858 5.858 5.858 15.358 0 21.217l-92.349 92.367zm-8.191-260.498H150.04a15 15 0 0 1-13.933-9.455 15.035 15.035 0 0 1 3.608-16.461l70-66.501a14.988 14.988 0 0 1 10.324-4.124h155.546c26.581 0 48.206 21.654 48.206 48.27s-21.624 48.271-48.205 48.271z" fill="#000" opacity="1" data-original="#000000"></path></g></svg>