<svg xmlns="http://www.w3.org/2000/svg" version="1.1" xmlns:xlink="http://www.w3.org/1999/xlink" xmlns:svgjs="http://svgjs.com/svgjs" width="512" height="512" x="0" y="0" viewBox="0 0 599.828 599.828" style="enable-background:new 0 0 512 512" xml:space="preserve" class=""><g><path d="m133.586 496.922 1.798 12.375c.641 4.41 4.726 7.819 9.784 8.166l145.195 9.923a6959.714 6959.714 0 0 0 5.784 69.386c.36 4.075 7.173 4.075 7.533 0 1.63-18.42 3.651-42.175 5.784-69.386l145.195-9.923c5.057-.345 9.143-3.755 9.784-8.166l1.798-12.375c1.439-9.902-1.332-19.923-7.784-28.149l-52.281-66.668c-27.677-35.294-48.18-74.494-60.661-115.865l-15.468 143.71-3.205-231.553a595.998 595.998 0 0 1-4.501-49.529C318.53 71.115 309.418 24.552 304.054 2.93c-.97-3.907-7.313-3.907-8.281 0-5.364 21.622-14.477 68.186-18.286 145.939a599.603 599.603 0 0 1-2.445 32.056l-3.447 249.024-15.953-148.22c-12.329 43.033-33.308 83.802-61.99 120.377l-52.281 66.668c-6.451 8.225-9.222 18.246-7.785 28.148z" fill="#000" data-original="#000000" opacity="1" class=""></path></g></svg>