<svg xmlns="http://www.w3.org/2000/svg" version="1.1" xmlns:xlink="http://www.w3.org/1999/xlink" xmlns:svgjs="http://svgjs.com/svgjs" width="512" height="512" x="0" y="0" viewBox="0 0 60 60" style="enable-background:new 0 0 512 512" xml:space="preserve" class=""><g><path d="M56.166 2.318 38.687 19.795a1 1 0 0 1-1.6-.258l-.574-1.143-.574 1.143a1 1 0 0 1-1.337.447l-1.107-.548 1.009 5.028 1.035 1.035 5.029 1.009-.548-1.107a1 1 0 0 1 .447-1.337l1.142-.574-1.142-.573a1.003 1.003 0 0 1-.258-1.6L57.687 3.84c.419-.419.419-1.102 0-1.521s-1.115-.406-1.521 0zM18.935 42.588c.203-.203.314-.473.314-.761a1.072 1.072 0 0 0-1.075-1.075 1.077 1.077 0 0 0-.761 1.836c.42.418 1.102.42 1.521 0zM32.871 25.666c-.489-.426-2.038-.607-4.458 1.515l4.409 4.408c2.121-2.42 1.938-3.97 1.494-4.481l-1.445-1.441z" fill="#000" data-original="#000000" opacity="1"></path><path d="m29.227 38.157-7.366-7.366-19.85 19.808 7.333 7.391 19.884-19.832zm-13.229 1.495a3.081 3.081 0 0 1 4.351 0c.58.58.9 1.353.9 2.175s-.32 1.595-.9 2.175c-.6.6-1.387.899-2.175.899s-1.574-.3-2.175-.898a3.082 3.082 0 0 1 0-4.351zM30.643 36.745l2.232-2.226c.005-.006.01-.012.01-.023l-7.354-7.367-2.255 2.25 7.367 7.367z" fill="#000" data-original="#000000" opacity="1"></path></g></svg>