<svg xmlns="http://www.w3.org/2000/svg" version="1.1" xmlns:xlink="http://www.w3.org/1999/xlink" xmlns:svgjs="http://svgjs.com/svgjs" width="512" height="512" x="0" y="0" viewBox="0 0 469.818 469" style="enable-background:new 0 0 512 512" xml:space="preserve" class=""><g><path d="M79 79.016v-65H47v65zM257.613 79.016H315v-65H93v65zM465.156 38.684l-47.015-23.739a34.427 34.427 0 0 0-36.313 3.168c-.015.012-.098.024-.117.035C377.77 21.105 371 23.54 361 25.391v41.722c8 1.524 16.2 3.844 20.71 7.227a34.605 34.605 0 0 0 36.466 3.2l47-23.735a8.47 8.47 0 0 0-.02-15.121zM84.605 127.309 99.23 93.016H60v87h24v-50.29a5.66 5.66 0 0 1 .605-2.417zM33 79.016v-65h-4.379A37.069 37.069 0 0 1 0 .41v91.668c7-8.582 17.574-13.062 28.617-13.062zM347 65.145V27.383c-3 .305-5.91.633-8.281.633H329v37h9.719a66.578 66.578 0 0 1 8.281.129zM265 93.016h15v86h-15zm0 0" fill="#000" data-original="#000000" opacity="1"></path></g></svg>