<svg xmlns="http://www.w3.org/2000/svg" version="1.1" xmlns:xlink="http://www.w3.org/1999/xlink" xmlns:svgjs="http://svgjs.com/svgjs" width="512" height="512" x="0" y="0" viewBox="0 0 512 512" style="enable-background:new 0 0 512 512" xml:space="preserve"><g><path d="m291.347 363.111 56.807-56.807 32.39 32.39-56.807 56.807z" fill="#000" data-original="#000000" opacity="1"></path><path d="m390.74 131.449-8.136-8.136-17.074-17.074 84.668-84.668L428.631 0l-24.694 24.694-12.203-12.203-21.57 21.57 12.202 12.204-38.404 38.404-10.785 10.785-82.124 82.124-21.57 21.57-63.18 63.18-12.203-12.203-21.57 21.57 12.203 12.203-84.749 84.749 15.13 15.13-69.579 69.58L82.032 512l73.158-73.158-17.396-30.433 30.856-30.856c2.707 7.178 3.212 15.149 1.173 22.787l-3.929 14.722 70.935 19.006 3.938-14.749c8.833-33.087 1.686-68.339-18.615-95.269l15.07-15.07 32.558 32.558 56.808-56.808-32.558-32.558 15.807-15.807-12.008-12.008 71.34-71.34 43.01 43.01-25.07 25.07 21.57 21.57 25.069-25.069 51.144 51.145 21.57-21.57L390.74 131.449z" fill="#000" data-original="#000000" opacity="1"></path></g></svg>