<svg xmlns="http://www.w3.org/2000/svg" version="1.1" xmlns:xlink="http://www.w3.org/1999/xlink" xmlns:svgjs="http://svgjs.com/svgjs" width="512" height="512" x="0" y="0" viewBox="0 0 512 512" style="enable-background:new 0 0 512 512" xml:space="preserve"><g><path d="M451.75 241V75.25C451.75 33.757 417.993 0 376.5 0h-241C94.007 0 60.25 33.757 60.25 75.25V241zM135.5 30h241c24.951 0 45.25 20.299 45.25 45.25v57.672c-11.256-7.821-24.91-12.422-39.625-12.422h-252.25c-14.715 0-28.369 4.601-39.625 12.422V75.25C90.25 50.299 110.549 30 135.5 30zM210.75 291c0 5.652 4.598 10.25 10.25 10.25h70c5.652 0 10.25-4.598 10.25-10.25v-20h-90.5z" fill="#000" data-original="#000000" opacity="1"></path><path d="M331.25 271v20c0 22.194-18.056 40.25-40.25 40.25h-70c-22.194 0-40.25-18.056-40.25-40.25v-20H60.25v180.625c0 33.291 27.084 60.375 60.375 60.375h270.75c33.291 0 60.375-27.084 60.375-60.375V271z" fill="#000" data-original="#000000" opacity="1"></path></g></svg>