<svg xmlns="http://www.w3.org/2000/svg" version="1.1" xmlns:xlink="http://www.w3.org/1999/xlink" xmlns:svgjs="http://svgjs.com/svgjs" width="512" height="512" x="0" y="0" viewBox="0 0 512.001 512.001" style="enable-background:new 0 0 512 512" xml:space="preserve" class=""><g><path d="m512.001 108.627-27.022-27.022-39.001 39-21.476-21.476 39.001-39.001-27.022-27.022-39.001 39.001-14.349-14.349-21.476 21.476 14.349 14.349-35.596 35.596-14.349-14.349-21.476 21.476 14.349 14.349-68.815 68.815-11.084-11.084-34.304-34.304L78.554 300.257l21.476 21.476 104.699-104.699 12.828 12.828-39.822 39.822-21.475 21.476-50.56 50.559-10.739 10.739-15.999 15.999c-3.411-8.131-4.149-17.313-1.807-26.086l3.912-14.659-73.236-19.621-3.92 14.686c-10.667 39.957.855 82.927 30.068 112.139l10.739 10.739 10.739-10.739 42.86-42.86 18.122-18.122 12.455 12.455-60.982 60.982 21.476 21.476 60.982-60.982 71.03 71.03 82.774-82.774-28.749-28.749 39.822-39.822 14.374 14.374 21.476-21.476-14.374-14.374-11.084-11.084 68.815-68.815 14.349 14.349 21.476-21.476-14.351-14.348 35.596-35.596 14.349 14.349 21.476-21.476L473 147.628l39.001-39.001zm-265.886 211.84-21.476-21.476 22.04-22.04 21.476 21.476-22.04 22.04zm52.499-52.5-21.476-21.476 68.815-68.815 21.476 21.476-68.815 68.815zm90.291-90.29-21.476-21.476 35.596-35.596 21.476 21.476-35.596 35.596z" fill="#000" data-original="#000000" opacity="1" class=""></path></g></svg>