<?xml version="1.0" encoding="UTF-8"?>
<svg class="" width="512" height="512" enable-background="new 0 0 512 512" version="1.1" viewBox="0 0 195 195" xml:space="preserve" xmlns="http://www.w3.org/2000/svg"><path d="M22.2 127.9c3.8-3.8 7.4-7.5 11.1-11 .4-.4 1.3-.4 2-.3 5.5.6 11 1.3 16.5 1.8.7.1 1.6-.2 2.1-.6 6.1-6 12.1-12 18.1-18.1.2-.2.3-.4.6-.8l-3.5-3.5c-3.4-3.4-6.9-6.8-10.3-10.3-1-1-1.8-2.2-2.4-3.4-.8-1.7-.4-2.3 1.4-2.5 8.1-.9 16.2-1.8 24.2-2.7 4.4-.5 8.7-.9 13.1-1.5 1-.1 2.2-.7 2.9-1.4 10.6-10.5 21.1-21.1 31.7-31.6l1.6-1.6 22.4 22.4-1.7 1.7c-11 11-22 21.9-32.9 33-.7.7-1.2 1.8-1.3 2.7-1 12-2 24-3 36.1-.2 1.9-.8 2.4-2.5 1.5-1.1-.5-2.2-1.3-3.1-2.1-4.2-4.1-8.3-8.3-12.5-12.4l-1.7-1.7-1.5 1.5c-5.2 5.2-10.4 10.5-15.7 15.7-.9.9-1.2 1.7-1 3 .8 6.1 1.4 12.3 2.3 18.4.2 1.5-.1 2.5-1.2 3.5-3.4 3.2-6.6 6.6-10.1 10-.5-.5-1-.9-1.5-1.3L51.9 158c-.8-.8-1.4-1.2-2.6-.6-1.4.8-3.3 2.1-4.4 1.7-2.4-.8-4.4-2.6-6.5-4.1-.7-.5-1.1-1.3-1.6-2-2.6-3.4-2.7-4.2-.5-7.8.9-1.4.7-2.2-.5-3.3-4.4-4.7-8.8-9.3-13.6-14zM158.9 57.9l-22.4-22.4c2.2-1.7 4.3-3.4 6.4-5 4.8-3.5 9.8-6.4 15.5-8.1 1.9-.5 3.9-.9 5.9-.9 5.4-.2 8.6 3.2 8.5 8.6-.2 5.8-2.5 11-5.5 15.8-2.6 4.1-5.5 7.9-8.4 12z" fill="#000" data-original="#000000"/></svg>
