<svg xmlns="http://www.w3.org/2000/svg" version="1.1" xmlns:xlink="http://www.w3.org/1999/xlink" xmlns:svgjs="http://svgjs.com/svgjs" width="512" height="512" x="0" y="0" viewBox="0 0 500 500" style="enable-background:new 0 0 512 512" xml:space="preserve" class=""><g><path fill-rule="evenodd" d="M214.19 122c-3.98 0-7.2-3.22-7.2-7.2s3.22-7.2 7.2-7.2h32.08c3.98 0 7.2 3.22 7.2 7.2s-3.22 7.2-7.2 7.2zm0 43.87c-3.98 0-7.2-3.22-7.2-7.2s3.22-7.2 7.2-7.2h23.12c3.98 0 7.2 3.22 7.2 7.2s-3.22 7.2-7.2 7.2zm0 43.87c-3.98 0-7.2-3.22-7.2-7.2s3.22-7.2 7.2-7.2h23.12c3.98 0 7.2 3.22 7.2 7.2s-3.22 7.2-7.2 7.2zm0 43.86c-3.98 0-7.2-3.22-7.2-7.2s3.22-7.2 7.2-7.2h26.16c3.98 0 7.2 3.22 7.2 7.2s-3.22 7.2-7.2 7.2zm0 43.87c-3.98 0-7.2-3.22-7.2-7.2s3.22-7.2 7.2-7.2h50.97c3.98 0 7.2 3.22 7.2 7.2s-3.22 7.2-7.2 7.2zm0-219.33c-3.98 0-7.2-3.22-7.2-7.2s3.22-7.2 7.2-7.2h62.74c3.98 0 7.2 3.22 7.2 7.2s-3.22 7.2-7.2 7.2zm-101.97 31.24V74.54c0-4.33 1.77-8.26 4.61-11.1 2.85-2.85 6.78-4.61 11.1-4.61h34.84c4.33 0 8.26 1.77 11.1 4.61 2.85 2.84 4.61 6.78 4.61 11.1v34.84c0 4.33-1.77 8.26-4.61 11.1s-6.78 4.61-11.1 4.61h-34.84c-4.33 0-8.26-1.77-11.1-4.61a15.628 15.628 0 0 1-4.61-11.1zm14.4-34.84v34.84c0 .35.15.68.39.92s.57.39.92.39h34.84c.35 0 .68-.15.92-.39s.39-.57.39-.92V74.54c0-.35-.15-.68-.39-.92s-.57-.39-.92-.39h-34.84c-.35 0-.68.15-.92.39s-.39.57-.39.92zm-14.4 123.48v-34.84c0-4.33 1.77-8.26 4.61-11.1 2.85-2.85 6.78-4.61 11.1-4.61h34.84c4.33 0 8.26 1.77 11.1 4.61 2.85 2.84 4.61 6.78 4.61 11.1v34.84c0 4.33-1.77 8.26-4.61 11.11a15.687 15.687 0 0 1-11.1 4.61h-34.84c-4.33 0-8.26-1.77-11.1-4.61a15.669 15.669 0 0 1-4.61-11.11zm14.4-34.83v34.84c0 .35.15.68.39.92s.57.39.92.39h34.84c.35 0 .68-.15.92-.39s.39-.57.39-.92v-34.84c0-.35-.15-.68-.39-.92s-.57-.39-.92-.39h-34.84c-.35 0-.68.15-.92.39-.24.23-.39.56-.39.92zm-54 265.47h98.7l.72-102.04c.02-2.21-.36-4.25-1.13-6.1s-1.94-3.55-3.51-5.1l-47.03-46.27c-2.96-2.91-6.78-4.4-10.62-4.47-11.19-.19-20.37 11.95-15.87 22.7.78 1.87 1.99 3.59 3.6 5.14l29.76 28.65c6.59 6.34-3.37 16.69-9.96 10.35l-43.39-41.77c-.27-.22-.52-.47-.76-.73l-21.61-20.8c-3.01-2.9-5.3-6.18-6.84-9.81-1.82-4.29-2.34-8.12-2.34-12.72v-96.02c-.04-7.97-2.8-13.08-6.43-15.34-1.28-.8-2.65-1.23-4-1.3-1.35-.06-2.72.22-3.98.87-3.57 1.83-6.52 6.46-7.15 14.17-5.41 57.68-8.86 115.74-14.27 173.42-.11 1.57.14 3.03.67 4.42.63 1.66 1.63 3.24 2.88 4.75l55.81 67.84c2.3 2.8 4.01 5.77 5.15 8.96 1.12 3.16 1.67 6.53 1.66 10.15zm121.88 61.45v-40.23c0-8.6-10.43-6.88-16.07-6.88H54.74c-1.82 0-3.54.76-4.83 2.04a6.828 6.828 0 0 0-2.02 4.83v43.14c0 1.87.77 3.58 2.02 4.83 2.86 2.86 7.91 2.04 11.61 2.04h121.91c8.51.01 11.07-.87 11.07-9.77zm140.99-343.27c-7 9.43-11.14 21.12-11.14 33.76 0 12.65 4.14 24.33 11.14 33.76zm85.72-6.36c-10.27-10.27-24.45-16.62-40.12-16.62-11.53 0-22.25 3.44-31.2 9.34V228c8.95 5.91 19.68 9.34 31.2 9.34 15.67 0 29.85-6.35 40.12-16.62s16.62-24.45 16.62-40.12-6.35-29.85-16.62-40.12zm-40.12-31.02c19.64 0 37.43 7.96 50.3 20.84 12.87 12.87 20.84 30.66 20.84 50.3s-7.96 37.43-20.84 50.3c-12.87 12.87-30.66 20.84-50.3 20.84-15.99 0-30.76-5.28-42.64-14.19l-.23-.17a72.76 72.76 0 0 1-7.44-6.47c-12.87-12.87-20.84-30.66-20.84-50.3s7.96-37.43 20.84-50.3c2.32-2.32 4.81-4.49 7.44-6.47.07-.06.15-.12.23-.17 11.89-8.93 26.65-14.21 42.64-14.21zm35.76-15.26a92.872 92.872 0 0 0-18.6-5.53 7.171 7.171 0 0 1-6.17-6.16l-1.93-14.33h-18.1l-1.93 14.33h-.01a7.16 7.16 0 0 1-5.84 6.1 92.437 92.437 0 0 0-18.43 5.38c-.26.13-.53.24-.81.34-5.97 2.5-11.6 5.58-16.82 9.17a7.186 7.186 0 0 1-8.7-.01L308 94.71l-12.79 12.79 8.78 11.5a7.17 7.17 0 0 1 .2 8.43 93.778 93.778 0 0 0-9.49 17.41 92.872 92.872 0 0 0-5.53 18.6 7.171 7.171 0 0 1-6.16 6.17l-14.33 1.93v18.1l14.33 1.93v.01c3.01.4 5.54 2.7 6.1 5.84a91.742 91.742 0 0 0 5.59 18.92 93.753 93.753 0 0 0 9.3 17.14 7.186 7.186 0 0 1-.01 8.7l-8.78 11.5 6.4 6.4-.01.01 6.39 6.4 11.52-8.79a7.17 7.17 0 0 1 8.43-.2c5.3 3.67 11.02 6.81 17.08 9.35.28.1.56.21.82.34a92.285 92.285 0 0 0 18.1 5.32c3.14.41 5.73 2.88 6.17 6.16l1.93 14.33h18.1l1.93-14.33h.01a7.16 7.16 0 0 1 5.84-6.1 92.015 92.015 0 0 0 18.93-5.59 93.753 93.753 0 0 0 17.14-9.3 7.186 7.186 0 0 1 8.7.01l11.52 8.79 6.01-6.01c.12-.14.24-.27.37-.4l6.4-6.4-8.78-11.5a7.17 7.17 0 0 1-.2-8.43 93.778 93.778 0 0 0 9.49-17.41 92.872 92.872 0 0 0 5.53-18.6 7.171 7.171 0 0 1 6.16-6.17l14.33-1.93v-18.1l-14.33-1.93v-.01a7.16 7.16 0 0 1-6.1-5.84 92.015 92.015 0 0 0-5.59-18.93 93.753 93.753 0 0 0-9.3-17.14 7.186 7.186 0 0 1 .01-8.7l8.78-11.5-12.79-12.79-11.5 8.78a7.17 7.17 0 0 1-8.43.2 95.955 95.955 0 0 0-17.42-9.47zm-99.04-10.07 6.37 4.86c3.64-2.27 7.42-4.32 11.31-6.14V18.9c0-5.19-2.13-9.91-5.56-13.34S321.78 0 316.59 0H75.64c-5.19 0-9.91 2.13-13.34 5.56s-5.56 8.15-5.56 13.34v227.79c.02 2.27.26 4 1.16 6.1.78 1.84 1.98 3.54 3.58 5.08l9.81 9.44V21.75c0-3.98 3.22-7.2 7.2-7.2h232.12c3.98 0 7.2 3.22 7.2 7.2zm-14.4 197.9c-.47-.31-.91-.68-1.31-1.11l-10.66-10.66-.01.01-10.84-10.84c-2.7-2.7-2.81-7-.33-9.82l9.23-12.09c-3.1-4.98-5.8-10.21-8.06-15.66-2.22-5.34-4.02-10.93-5.36-16.73l-15.54-2.09a7.175 7.175 0 0 1-6.22-7.12h-.02v-30.65c0-3.83 3-6.97 6.78-7.19l15-2.02c1.35-5.8 3.15-11.39 5.36-16.73 2.26-5.45 4.96-10.68 8.06-15.66l-9.51-12.47a7.188 7.188 0 0 1 .63-9.44l-.01-.01 21.67-21.68c.36-.36.74-.67 1.15-.94V28.95H85.69v232.76c.72-.82 1.5-1.61 2.33-2.37l1.23-1.12c5.86-5.38 13.31-8 20.73-7.87s14.79 2.99 20.46 8.57l47.03 46.27c2.97 2.93 5.22 6.21 6.71 9.82 1.5 3.6 2.23 7.5 2.2 11.67l-.04 5.59h117.07zm32.08-3.67c-3.9-1.82-7.67-3.88-11.31-6.15l-6.37 4.86v62.38c0 3.98-3.22 7.2-7.2 7.2H186.23l-.1 14.55h130.46c5.19 0 9.91-2.13 13.34-5.56s5.56-8.15 5.56-13.34z" clip-rule="evenodd" fill="#000" data-original="#000000" opacity="1" class=""></path></g></svg>