<svg xmlns="http://www.w3.org/2000/svg" version="1.1" xmlns:xlink="http://www.w3.org/1999/xlink" xmlns:svgjs="http://svgjs.com/svgjs" width="512" height="512" x="0" y="0" viewBox="0 0 512 512" style="enable-background:new 0 0 512 512" xml:space="preserve" class=""><g><path d="M470.448 177.047c17.949 0 32.552-14.603 32.552-32.552s-14.603-32.552-32.552-32.552-32.552 14.603-32.552 32.552 14.603 32.552 32.552 32.552zm0-51.104c10.229 0 18.552 8.322 18.552 18.552s-8.322 18.552-18.552 18.552-18.552-8.322-18.552-18.552 8.323-18.552 18.552-18.552zm-428.896-14C23.603 111.943 9 126.545 9 144.495s14.603 32.552 32.552 32.552 32.552-14.603 32.552-32.552-14.603-32.552-32.552-32.552zm0 51.103c-10.229 0-18.552-8.322-18.552-18.552s8.322-18.552 18.552-18.552 18.552 8.322 18.552 18.552-8.323 18.552-18.552 18.552zm0 274.85C23.603 437.896 9 452.499 9 470.448S23.603 503 41.552 503s32.552-14.603 32.552-32.552-14.603-32.552-32.552-32.552zm0 51.104C31.322 489 23 480.678 23 470.448s8.322-18.552 18.552-18.552 18.552 8.322 18.552 18.552S51.781 489 41.552 489zm428.896-51.104c-17.949 0-32.552 14.603-32.552 32.552S452.499 503 470.448 503 503 488.397 503 470.448s-14.603-32.552-32.552-32.552zm0 51.104c-10.229 0-18.552-8.322-18.552-18.552s8.322-18.552 18.552-18.552S489 460.218 489 470.448 480.678 489 470.448 489zM416.85 221.523l3.334-20.732-113 79.309c21.157 6.054 32.974 15.699 32.974 27.372 0 12.577-13.61 21.752-33.016 27.342l113.042 79.338-3.334-20.732a7 7 0 1 1 13.822-2.222l5.964 37.092a7 7 0 0 1-5.8 8.022l-37.092 5.964a7.001 7.001 0 0 1-2.222-13.822l20.07-3.227-123.079-86.382c-10.345 1.606-21.447 2.42-32.513 2.42s-22.168-.813-32.512-2.419l-123.079 86.383 20.07 3.227a7.001 7.001 0 0 1-1.102 13.912c-.37 0-.743-.029-1.12-.09l-37.092-5.963a6.996 6.996 0 0 1-5.8-8.022l5.964-37.092c.614-3.817 4.211-6.41 8.022-5.8a7.001 7.001 0 0 1 5.8 8.022l-3.333 20.732 113.041-79.338c-19.406-5.59-33.016-14.766-33.016-27.342 0-11.673 11.817-21.318 32.974-27.372L91.818 200.792l3.333 20.731a7 7 0 1 1-13.822 2.222l-5.964-37.092a6.996 6.996 0 0 1 5.8-8.022l37.092-5.963a7 7 0 0 1 2.222 13.822l-20.07 3.227 125.395 88.009.012.01a7 7 0 0 1-2.846 12.618c-25.608 4.406-37.127 12.663-37.127 17.118 0 6.717 24.763 19.791 70.157 19.791s70.158-13.074 70.158-19.791c0-4.456-11.519-12.712-37.126-17.118a7 7 0 0 1-5.712-8.085 6.966 6.966 0 0 1 2.605-4.333l.053-.041c.076-.058.149-.119.227-.174l125.387-88.003-20.07-3.227a7.001 7.001 0 0 1-5.8-8.022 7.004 7.004 0 0 1 8.022-5.8l37.092 5.964a7.001 7.001 0 0 1 5.8 8.022l-5.964 37.092a7 7 0 1 1-13.822-2.224zM250.021 305.83a6.998 6.998 0 0 0 12.284 0c6.561-12 15.568-26.126 25.104-41.082 22.137-34.718 47.228-74.068 60.022-113.418 7.17-22.051 9.613-41.375 7.471-59.077-2.477-20.453-11.308-38.4-26.25-53.343C309.363 19.623 283.619 9 256.162 9s-53.201 10.623-72.49 29.911c-61.762 61.762-5.956 150.327 38.884 221.49 10.209 16.202 19.852 31.506 27.465 45.429zM193.572 48.81C210.216 32.167 232.444 23 256.162 23s45.945 9.166 62.589 25.81c24.015 24.014 29.041 56.133 15.365 98.191-12.243 37.654-36.824 76.207-58.513 110.22-6.977 10.941-13.673 21.444-19.412 31.109-6.55-11.205-14.008-23.042-21.791-35.394-21.56-34.216-45.995-72.997-57.397-109.351-12.565-40.06-7.145-71.061 16.569-94.775zm102.51 56.829c0-22.101-17.98-40.081-40.081-40.081s-40.08 17.98-40.08 40.081 17.979 40.081 40.08 40.081 40.081-17.981 40.081-40.081zm-66.161 0c0-14.381 11.699-26.081 26.08-26.081s26.081 11.7 26.081 26.081-11.7 26.081-26.081 26.081-26.08-11.7-26.08-26.081z" fill="#000" data-original="#000000" class="" opacity="1"></path></g></svg>