<svg xmlns="http://www.w3.org/2000/svg" version="1.1" xmlns:xlink="http://www.w3.org/1999/xlink" xmlns:svgjs="http://svgjs.com/svgjs" width="512" height="512" x="0" y="0" viewBox="0 0 511.981 511.981" style="enable-background:new 0 0 512 512" xml:space="preserve" class=""><g><path d="M206.205 283.515a7.839 7.839 0 0 0-10.984.25L54.26 428.705c-1.37 1.42-.37 3.79 1.6 3.79h99.07c1.79 0 3.5-.73 4.75-2.02l91.108-94.201a7.838 7.838 0 0 0-.27-11.165zM509.429 69.658l-57.432-53.391a8.01 8.01 0 0 0-5.762-2.134 7.994 7.994 0 0 0-5.576 2.581L415.6 43.985a8.08 8.08 0 0 0-.817 1.053l-23.972 36.88-119.718 122.666a7.838 7.838 0 0 0 .276 11.219l44.925 41.709a7.838 7.838 0 0 0 10.964-.292l118.497-122.384 37.263-26.068a8.04 8.04 0 0 0 1.194-1.024l25.548-26.697a8 8 0 0 0-.331-11.389zM473.2 96.112l-31.832 22.269-.159-.152-33.802-32.482 20.427-31.428 19.162-20.854L492.59 75.85z" fill="#000" data-original="#000000" opacity="1"></path><path d="M453.615 481.855h-38.28l-86.93-149.246 9.068-9.387a8 8 0 0 0 .001-11.115l-25.7-26.61 7.749-8.021a7.998 7.998 0 0 0-.311-11.421l-57.532-53.411a8.001 8.001 0 0 0-11.25.36l-29.595 31.229-21.752-22.518 28.909-29.928a8.001 8.001 0 0 0-.195-11.312 8.002 8.002 0 0 0-11.313.196l-34.278 35.486a8 8 0 0 0 0 11.116l27.613 28.585-7.079 7.469a8 8 0 0 0 .332 11.336l56.746 53.271a7.97 7.97 0 0 0 5.475 2.167 7.976 7.976 0 0 0 5.755-2.442l5.362-5.551 25.317 26.205a8.002 8.002 0 0 0 5.753 2.441h.001a8.005 8.005 0 0 0 5.753-2.44l3.64-3.768 79.881 137.309H385.06a8 8 0 0 0 0 16h68.556a8 8 0 1 0-.001-16zM196.529 437.498H8a8 8 0 0 0-8 8v4.357c0 26.467 21.532 48 48 48h108.529c26.468 0 48-21.533 48-48v-4.357a8 8 0 0 0-8-8z" fill="#000" data-original="#000000" opacity="1"></path></g></svg>