<svg xmlns="http://www.w3.org/2000/svg" version="1.1" xmlns:xlink="http://www.w3.org/1999/xlink" xmlns:svgjs="http://svgjs.com/svgjs" width="512" height="512" x="0" y="0" viewBox="0 0 64 64" style="enable-background:new 0 0 512 512" xml:space="preserve" class=""><g><path d="M59 56h-1V32a1 1 0 0 0 1-1V19a1 1 0 0 0-1-1V3a1 1 0 0 0-1-1h-6a1 1 0 0 0-1 1v15a1 1 0 0 0-1 1v2h-5a1 1 0 0 0-1-1h-8a1 1 0 0 0-1 1h-4v-2.343l3.556-3.557a1 1 0 0 0 .293-.707v-4.242a1 1 0 0 0-1-1h-4.243a1 1 0 0 0-.707.293L24.343 13H11.657L8.1 9.444a1 1 0 0 0-.707-.293H3.151a1 1 0 0 0-1 1v4.243a1 1 0 0 0 .293.707L6 18.657v12.686L2.444 34.9a1 1 0 0 0-.293.707v4.243a1 1 0 0 0 1 1h4.243a1 1 0 0 0 .707-.293L11.657 37h12.686l3.557 3.556a1 1 0 0 0 .707.293h4.243a1 1 0 0 0 1-1v-4.243a1 1 0 0 0-.293-.707L30 31.343V29h4a1 1 0 0 0 1 1h8a1 1 0 0 0 1-1h5v2a1 1 0 0 0 1 1v24h-1a3 3 0 0 0-3 3v2a1 1 0 0 0 1 1h14a1 1 0 0 0 1-1v-2a3 3 0 0 0-3-3Zm-8-28v-8h6v10h-6Zm1-24h4v14h-4ZM31.849 36.021v2.828h-2.828l-3.557-3.556a1 1 0 0 0-.707-.293H11.243a1 1 0 0 0-.707.293l-3.557 3.556H4.151v-2.828l3.556-3.557A1 1 0 0 0 8 31.757V18.243a1 1 0 0 0-.293-.707l-3.556-3.557v-2.828h2.828l3.557 3.556a1 1 0 0 0 .707.293h13.514a1 1 0 0 0 .707-.293l3.557-3.556h2.828v2.828l-3.556 3.557a1 1 0 0 0-.293.707v13.514a1 1 0 0 0 .293.707ZM30 27v-4h4v4Zm6-5h2v6h-2Zm4 6v-6h2v6Zm4-1v-4h5v4Zm8 5h4v24h-4Zm8 28H48v-1a1 1 0 0 1 1-1h10a1 1 0 0 1 1 1Z" fill="#000" data-original="#000000" opacity="1"></path><path d="M18 19a6 6 0 1 0 6 6 6.006 6.006 0 0 0-6-6Zm0 10a4 4 0 1 1 4-4 4 4 0 0 1-4 4Z" fill="#000" data-original="#000000" opacity="1"></path><circle cx="7" cy="14" r="1" fill="#000" data-original="#000000" opacity="1"></circle><circle cx="7" cy="36" r="1" fill="#000" data-original="#000000" opacity="1"></circle><circle cx="29" cy="36" r="1" fill="#000" data-original="#000000" opacity="1"></circle><circle cx="29" cy="14" r="1" fill="#000" data-original="#000000" opacity="1"></circle></g></svg>