<svg xmlns="http://www.w3.org/2000/svg" version="1.1" xmlns:xlink="http://www.w3.org/1999/xlink" width="512" height="512" x="0" y="0" viewBox="0 0 32 32" style="enable-background:new 0 0 512 512" xml:space="preserve" class=""><g><path d="M26.625 18.209v2.042H5.375v-2.042zM2.958 12.461c-.535-1.051-.641-2.042-.321-2.957.479-1.371 1.733-1.977 1.875-2.042l7.519-2.858a11.53 11.53 0 0 1 3.928-.677c2.309 0 3.96.656 4.03.684l7.44 2.827c.201.09 1.455.695 1.935 2.066.319.915.213 1.906-.315 2.946l-1.969 3.759H4.921zm8.285-1.584c.507 1.876 2.467 3.187 4.766 3.187 2.254 0 4.204-1.28 4.742-3.113a.999.999 0 0 0-.677-1.241.996.996 0 0 0-1.241.677c-.212.722-.922 1.294-1.824 1.542V8.194c1.155-.035 1.142-1 1.142-1a1 1 0 0 0-1-1h-2.285a1 1 0 0 0-1 1s.006 1.007 1.143 1v3.736c-.921-.251-1.636-.837-1.835-1.575a1 1 0 1 0-1.931.522zM4.985 22.251c-.039 2.292 1.456 5.822 11.06 5.822 9.59 0 11.022-3.555 10.963-5.822z" fill="#000" opacity="1" data-original="#000000"></path></g></svg>