<?xml version="1.0" encoding="UTF-8"?>
<svg class="" width="512" height="512" enable-background="new 0 0 512 512" version="1.1" viewBox="0 0 682.67 682.67" xml:space="preserve" xmlns="http://www.w3.org/2000/svg"><defs><clipPath id="a"><path d="M0 512h512V0H0Z" fill="#000" data-original="#000000"/></clipPath></defs><g transform="matrix(1.3333 0 0 -1.3333 0 682.67)" clip-path="url(#a)" fill="#000" stroke="#fff" stroke-linecap="round" stroke-linejoin="round" stroke-miterlimit="10" stroke-width="20"><path transform="translate(502 203.91)" d="m0 0v104.19h-41.709a209.55 209.55 0 0 1-23.018 55.507l29.511 29.511-73.672 73.673-29.512-29.512a209.52 209.52 0 0 1-55.506 23.018v41.709h-104.19v-41.709a209.51 209.51 0 0 1-55.507-23.018l-29.511 29.512-73.672-73.673 29.511-29.511a209.55 209.55 0 0 1-23.018-55.507h-41.709v-104.19h41.709a209.52 209.52 0 0 1 23.018-55.506l-29.511-29.512 73.672-73.672 29.511 29.511a209.55 209.55 0 0 1 55.507-23.018v-41.709h104.19v41.709a209.52 209.52 0 0 1 55.506 23.018l29.512-29.511 73.672 73.672-29.511 29.512a209.52 209.52 0 0 1 23.018 55.506z" data-original="#000000"/><path transform="translate(223.59 258.58)" d="m0 0 23.241-23.241 41.318 41.318" data-original="#000000"/><path transform="translate(255.87 355)" d="m0 0 84.003-26.226v-70.148c0-49.638-35.249-92.283-84-101.626v0c-48.751 9.343-84 51.988-84 101.626v70.148L.006 0" data-original="#000000"/><path transform="translate(300.48 401.34)" d="m0 0c62.171-19.06 107.38-76.919 107.38-145.34 0-83.941-68.047-151.99-151.99-151.99-83.941 0-151.99 68.047-151.99 151.99 0 68.201 44.922 125.91 106.79 145.15" data-original="#000000"/><path transform="translate(255.87 407.99)" d="m0 0" data-original="#000000"/></g></svg>
