<svg xmlns="http://www.w3.org/2000/svg" version="1.1" xmlns:xlink="http://www.w3.org/1999/xlink" xmlns:svgjs="http://svgjs.com/svgjs" width="512" height="512" x="0" y="0" viewBox="0 0 512 512" style="enable-background:new 0 0 512 512" xml:space="preserve"><g><path d="M61.709 143.963c-6.242-6.242-8.221-14.97-5.227-23.293 2.943-8.373 9.997-13.854 18.776-14.767l130.623-13.448-97.84 97.84zm91.243 170.155L98.805 259.92c-8.728-8.728-8.728-22.937 0-31.666L308.187 18.871c24.002-24.001 62.603-23.361 85.864 0 23.575 23.471 23.826 61.987 0 85.813L184.618 314.118c-8.729 8.728-22.887 8.728-31.666 0zm254.243 123.721c-.913 8.779-6.394 15.833-14.768 18.776-8.322 2.994-17.051 1.015-23.293-5.227l-46.332-46.332 97.84-97.84zm87.031-232.929L284.844 414.292c-8.729 8.728-22.938 8.779-31.666 0l-54.198-54.147c-8.728-8.728-8.728-22.937 0-31.666l209.433-209.433c23.667-23.666 62.116-23.697 85.813 0 23.699 23.648 23.699 62.165 0 85.864zM171.424 439.564c14.565 14.565 14.686 38.294 0 52.98-11.418 11.418-44.013 16.489-60.034 18.269-2.591.371-5.916-.588-8.272-2.943a9.896 9.896 0 0 1-2.893-8.221c1.167-11.012 5.937-47.804 18.218-60.084 14.616-14.565 38.366-14.565 52.981-.001zM234.604 424.492l-6.495 16.341c-5.625 14.228-23.795 17.412-34.153 7.054l-30.803-30.854c-10.731-10.623-6.751-28.716 7.003-34.153l16.341-6.496zM71.3 339.441c14.564 14.615 14.564 38.365 0 52.98-12.281 12.281-49.072 17.051-60.085 18.269-2.827 0-5.515-.164-8.221-2.943-2.182-2.182-3.248-5.176-2.943-8.272 1.167-10.961 5.988-47.753 18.269-60.034 14.615-14.616 38.365-14.616 52.98 0zM134.48 324.369l-6.496 16.341c-5.62 13.834-23.475 17.681-34.153 7.003l-30.854-30.854c-10.673-10.674-6.787-28.63 7.054-34.102l16.34-6.495z" fill="#000" data-original="#000000" opacity="1"></path></g></svg>