<svg xmlns="http://www.w3.org/2000/svg" version="1.1" xmlns:xlink="http://www.w3.org/1999/xlink" width="512" height="512" x="0" y="0" viewBox="0 0 64 64" style="enable-background:new 0 0 512 512" xml:space="preserve"><g><circle cx="47.5" cy="35.501" r="5.23" fill="#000" opacity="1" data-original="#000000"></circle><path d="M61 29.911A9.121 9.121 0 0 1 53.09 22a9.1 9.1 0 0 1-11.18 0A9.121 9.121 0 0 1 34 29.911a9.1 9.1 0 0 1 0 11.18A9.121 9.121 0 0 1 41.91 49a9.1 9.1 0 0 1 11.18 0A9.121 9.121 0 0 1 61 41.091a9.1 9.1 0 0 1 0-11.18Zm-13.5 12.82a7.23 7.23 0 1 1 7.23-7.23 7.238 7.238 0 0 1-7.23 7.23ZM30.62 10.931a10.078 10.078 0 0 1-.52-6.45 10.144 10.144 0 0 1-6.47-.28A10.056 10.056 0 0 1 18.7 0a10.039 10.039 0 0 1-4.77 4.38 10.078 10.078 0 0 1-6.45.52 10.144 10.144 0 0 1-.28 6.47A10.056 10.056 0 0 1 3 16.3a10.039 10.039 0 0 1 4.38 4.77 10.078 10.078 0 0 1 .52 6.45A9.959 9.959 0 0 1 19.3 32a9.954 9.954 0 0 1 11.22-4.9A9.959 9.959 0 0 1 35 15.7a10.039 10.039 0 0 1-4.38-4.769ZM19 24.471A8.469 8.469 0 0 1 11.244 12.6a1 1 0 0 1 1.83.806A6.406 6.406 0 0 0 12.53 16a6.475 6.475 0 1 0 3.007-5.463 1 1 0 1 1-1.074-1.687A8.469 8.469 0 1 1 19 24.471ZM28.28 44.721A8.1 8.1 0 0 1 25.97 40a8.077 8.077 0 0 1-9.94 0A8.1 8.1 0 0 1 9 47.031a8.077 8.077 0 0 1 0 9.94A8.1 8.1 0 0 1 16.03 64a8.077 8.077 0 0 1 9.94 0A8.1 8.1 0 0 1 33 56.971a8.077 8.077 0 0 1 0-9.94 8.1 8.1 0 0 1-4.72-2.31ZM27.061 55.5a1 1 0 1 1-1.731-1 4.993 4.993 0 1 0-2.664 2.216 1 1 0 0 1 .668 1.886 7.006 7.006 0 1 1 3.727-3.1Z" fill="#000" opacity="1" data-original="#000000"></path></g></svg>