<svg xmlns="http://www.w3.org/2000/svg" version="1.1" xmlns:xlink="http://www.w3.org/1999/xlink" xmlns:svgjs="http://svgjs.com/svgjs" width="512" height="512" x="0" y="0" viewBox="0 0 511.999 511.999" style="enable-background:new 0 0 512 512" xml:space="preserve" class=""><g><circle cx="273.975" cy="271.104" r="76.728" fill="#000" data-original="#000000" opacity="1" class=""></circle><path d="M208.953 52.316c-35.42 55.239-24.036 104.905-7.512 136.005 19.387-17.006 44.773-27.333 72.528-27.333 25.922 0 49.774 9.008 68.607 24.051 32.464-29.121 80.316-27.977 98.037-76.217 25.172-68.521-157.056-172.854-231.66-56.506zM495.957 324.196c-30.111-58.26-78.776-73.25-113.966-74.506a110.261 110.261 0 0 1 2.097 21.416c0 46.524-29.001 86.4-69.875 102.504 8.954 42.655-15.925 83.507 16.977 122.957 46.757 56.059 228.226-49.588 164.767-172.371zM163.852 271.107c0-5.572.42-11.048 1.222-16.401-41.415-13.574-64.354-55.544-114.969-46.775C-21.822 220.394-21.063 430.375 117 436.808c65.509 3.053 102.824-31.595 121.505-61.443-43.372-14.794-74.653-55.941-74.653-104.258z" fill="#000" data-original="#000000" opacity="1" class=""></path></g></svg>