<svg xmlns="http://www.w3.org/2000/svg" version="1.1" xmlns:xlink="http://www.w3.org/1999/xlink" xmlns:svgjs="http://svgjs.com/svgjs" width="512" height="512" x="0" y="0" viewBox="0 0 64 64" style="enable-background:new 0 0 512 512" xml:space="preserve" class=""><g><path d="M19.24 44.76a1.5 1.5 0 0 1-2.12 2.12c-8.172-7.851-8.172-21.909 0-29.76a1.5 1.5 0 0 1 2.12 2.12 18.12 18.12 0 0 0 0 25.52zM60.5 32a28.301 28.301 0 0 1-8.36 20.14 1.5 1.5 0 0 1-2.12-2.12c9.906-9.504 9.906-26.536 0-36.04a1.5 1.5 0 0 1 2.12-2.12A28.3 28.3 0 0 1 60.5 32z" fill="#000" data-original="#000000" opacity="1"></path><path d="M53.05 32a20.918 20.918 0 0 1-6.17 14.88 1.5 1.5 0 0 1-2.12-2.12 18.12 18.12 0 0 0 0-25.52 1.5 1.5 0 0 1 2.12-2.12A20.918 20.918 0 0 1 53.05 32zM38.16 32A6.175 6.175 0 0 1 32 38.16c-8.151-.298-8.149-12.023 0-12.32A6.176 6.176 0 0 1 38.16 32zM13.98 50.02a1.5 1.5 0 0 1-2.12 2.12C.788 41.514.788 22.485 11.86 11.86a1.5 1.5 0 0 1 2.12 2.12c-9.906 9.504-9.906 26.536 0 36.04z" fill="#000" data-original="#000000" opacity="1"></path><path d="M45.6 32a13.534 13.534 0 0 1-3.98 9.62 1.506 1.506 0 0 1-2.13-2.13 10.62 10.62 0 0 0 0-14.98 1.506 1.506 0 0 1 2.13-2.13A13.534 13.534 0 0 1 45.6 32zM24.51 24.51a10.574 10.574 0 0 0 0 14.98 1.506 1.506 0 0 1-2.13 2.13 13.678 13.678 0 0 1 0-19.24 1.506 1.506 0 0 1 2.13 2.13z" fill="#000" data-original="#000000" opacity="1"></path></g></svg>