<svg xmlns="http://www.w3.org/2000/svg" version="1.1" xmlns:xlink="http://www.w3.org/1999/xlink" xmlns:svgjs="http://svgjs.com/svgjs" width="512" height="512" x="0" y="0" viewBox="0 0 512 512" style="enable-background:new 0 0 512 512" xml:space="preserve"><g><path d="M474.476 327.033c-21.055-12.156-102.244-45.654-160.273-57.754-2.689-8.685-7.306-16.527-13.342-23.037 7.731-23.478 14.352-52.576 19.466-80.368 32.586 17.409 57.004 47.626 66.823 83.677 2.177 7.992 10.42 12.707 18.414 10.53 7.992-2.177 12.707-10.421 10.529-18.414-12.883-47.299-46.317-86.377-90.585-106.688 1.707-11.266 3.097-21.771 4.138-30.944 68.609 27.636 116.718 92.879 121.767 167.591.535 7.92 7.127 13.988 14.95 13.988.34 0 .683-.011 1.026-.035 8.265-.559 14.512-7.711 13.953-15.977-6.236-92.276-67.657-167.961-149.525-196.808C330.641 32.463 297.49.008 256.878.008c-41.352 0-74.995 33.643-74.995 74.995 0 23.955 12.228 114.196 31.012 171.238-6.036 6.51-10.653 14.35-13.342 23.034-23.781 4.943-51.572 13.443-77.571 22.589-1.346-37.503 12.645-73.204 39.091-99.873 5.833-5.882 5.793-15.379-.089-21.211-5.883-5.833-15.378-5.794-21.212.089-35.808 36.11-51.643 84.332-47.127 131.848-10.592 4.112-20.368 8.121-28.814 11.772-10.476-74.3 22.141-147.485 84.226-189.323 6.87-4.629 8.685-13.951 4.057-20.82-4.629-6.869-13.949-8.685-20.82-4.056-74.545 50.234-111.963 139.462-95.618 227.873-34.46 21.215-45.976 66.022-25.597 101.315 20.557 35.604 66.068 48.186 102.071 27.664a35.533 35.533 0 0 0 .376-.215c20.273-11.706 91.15-66.739 131.041-111.449a59.537 59.537 0 0 0 26.613.002c15.808 17.782 36.583 37.508 57.151 55.499-31.898 20.227-70.6 26.067-106.64 16.551-8.009-2.115-16.216 2.664-18.331 10.672-2.115 8.009 2.664 16.217 10.673 18.332 46.608 12.306 97.415 3.69 138.067-25.426 8.744 7.164 17.043 13.694 24.433 19.264-59.552 46.862-140.039 54.21-206.135 21.799-7.435-3.646-16.424-.574-20.07 6.864-3.647 7.438-.574 16.424 6.864 20.071 78.449 38.467 175.345 28.677 245.163-31.136 35.354 19.121 80.065 7.026 100.572-28.491 20.724-35.898 8.45-81.72-27.451-102.446zM97.523 430.948c-21.537 12.436-49.03 5.071-61.467-16.471-12.436-21.538-5.07-49.029 16.47-61.467 16.827-9.714 91.034-40.179 145.845-52.782 2.721 12.024 9.052 22.688 17.804 30.785-38.797 41.685-102.378 90.54-118.652 99.935zm159.354-113.963c-16.541 0-29.998-13.457-29.998-29.998s13.457-29.998 29.998-29.998 29.998 13.457 29.998 29.998-13.457 29.998-29.998 29.998zm17.763-87.307a60.067 60.067 0 0 0-35.526 0C222.665 175.489 211.88 93.655 211.88 75.003c.001-24.811 20.186-44.997 44.998-44.997 24.811 0 44.997 20.186 44.997 44.997-.001 18.707-10.811 100.571-27.235 154.675zm201.307 184.8c-12.435 21.538-39.925 28.907-61.467 16.47-17.409-10.051-79.408-59.492-116.911-99.926 8.749-8.091 15.082-18.75 17.806-30.766 54.262 12.646 127.695 43.283 144.103 52.755 21.539 12.437 28.904 39.928 16.469 61.467z" fill="#000" data-original="#000000" opacity="1"></path></g></svg>