<svg xmlns="http://www.w3.org/2000/svg" version="1.1" xmlns:xlink="http://www.w3.org/1999/xlink" width="512" height="512" x="0" y="0" viewBox="0 0 465.502 465.502" style="enable-background:new 0 0 512 512" xml:space="preserve"><g><path d="M353.502 184.751h-96c-19.306 0-37.509 4.958-53.408 13.652v-.098l-90.958 49.346-8.34-25.019a32 32 0 0 0-30.358-21.881h-48.93c-5.46 0-9.317 5.35-7.589 10.53l23.156 69.47h88.426v16H16c-8.8 0-16 7.2-16 16s7.2 16 16 16h19.742l-17.823 53.47c-1.727 5.181 2.129 10.53 7.589 10.53h48.93a32 32 0 0 0 30.358-21.881l8.34-25.019 90.958 49.346v-.098c15.899 8.695 34.102 13.652 53.408 13.652h96c61.6 0 112-50.4 112-112 0-61.601-50.4-112-112-112zm-132 136c-13.255 0-24-10.745-24-24s10.745-24 24-24 24 10.745 24 24-10.745 24-24 24zm84 0c-13.255 0-24-10.745-24-24s10.745-24 24-24 24 10.745 24 24-10.745 24-24 24zm84 0c-13.255 0-24-10.745-24-24s10.745-24 24-24 24 10.745 24 24-10.745 24-24 24zM369.446 56.751c-8.806 0-15.944 7.138-15.944 15.943l-16 .057c-26.469 0-48 21.531-48 48v16h-32v32h96v-32h-32v-16c0-8.82 7.172-16 16-16h16c0 8.82 7.15 16 15.97 16h16.03v-64h-16.056z" fill="#000" opacity="1" data-original="#000000"></path></g></svg>