<svg xmlns="http://www.w3.org/2000/svg" version="1.1" xmlns:xlink="http://www.w3.org/1999/xlink" xmlns:svgjs="http://svgjs.com/svgjs" width="512" height="512" x="0" y="0" viewBox="0 0 511 511" style="enable-background:new 0 0 512 512" xml:space="preserve" class=""><g><path d="M331.752 37.296H477.1c14.58 0 26.4 11.82 26.4 26.4v318.773c0 14.58-11.82 26.4-26.4 26.4h-57.566M389.534 408.869H33.9c-14.58 0-26.4-11.82-26.4-26.4V63.696c0-14.58 11.82-26.4 26.4-26.4h267.852M115.295 340.268H503.5M7.5 340.268h77.795M331.752 473.704H179.248l17.25-64.835h118.004zM148.16 473.704h214.68M333.745 144.062l-63.195 32.196M348.795 226.656v-73.359M270.55 283.428l63.198-32.197M255.5 200.828v73.365M240.45 176.258l-63.195-32.196M177.252 251.231l63.198 32.197M162.205 153.297v73.359M240.45 96.531l-63.195 32.196M333.745 128.727 270.55 96.53" style="stroke-width:15;stroke-linecap:round;stroke-linejoin:round;stroke-miterlimit:10;" fill="#000" stroke="#ffffff" stroke-width="15" stroke-linecap="round" stroke-linejoin="round" stroke-miterlimit="10" data-original="#000000" opacity="1" class=""></path><circle cx="255.5" cy="88.863" r="16.903" style="stroke-width:15;stroke-linecap:round;stroke-linejoin:round;stroke-miterlimit:10;" fill="#000" stroke="#ffffff" stroke-width="15" stroke-linecap="round" stroke-linejoin="round" stroke-miterlimit="10" data-original="#000000" opacity="1" class=""></circle><circle cx="255.5" cy="183.926" r="16.903" style="stroke-width:15;stroke-linecap:round;stroke-linejoin:round;stroke-miterlimit:10;" fill="#000" stroke="#ffffff" stroke-width="15" stroke-linecap="round" stroke-linejoin="round" stroke-miterlimit="10" data-original="#000000" opacity="1" class=""></circle><circle cx="255.5" cy="291.096" r="16.903" style="stroke-width:15;stroke-linecap:round;stroke-linejoin:round;stroke-miterlimit:10;" fill="#000" stroke="#ffffff" stroke-width="15" stroke-linecap="round" stroke-linejoin="round" stroke-miterlimit="10" data-original="#000000" opacity="1" class=""></circle><ellipse cx="162.205" cy="243.558" rx="16.903" ry="16.902" style="stroke-width:15;stroke-linecap:round;stroke-linejoin:round;stroke-miterlimit:10;" transform="rotate(-9.265 162.237 243.602)" fill="#000" stroke="#ffffff" stroke-width="15" stroke-linecap="round" stroke-linejoin="round" stroke-miterlimit="10" data-original="#000000" opacity="1" class=""></ellipse><ellipse cx="348.795" cy="243.558" rx="16.903" ry="16.902" style="stroke-width:15;stroke-linecap:round;stroke-linejoin:round;stroke-miterlimit:10;" transform="rotate(-9.265 348.862 243.6)" fill="#000" stroke="#ffffff" stroke-width="15" stroke-linecap="round" stroke-linejoin="round" stroke-miterlimit="10" data-original="#000000" opacity="1" class=""></ellipse><ellipse cx="162.205" cy="136.394" rx="16.902" ry="16.903" style="stroke-width:15;stroke-linecap:round;stroke-linejoin:round;stroke-miterlimit:10;" transform="rotate(-67.251 162.214 136.396)" fill="#000" stroke="#ffffff" stroke-width="15" stroke-linecap="round" stroke-linejoin="round" stroke-miterlimit="10" data-original="#000000" opacity="1" class=""></ellipse><ellipse cx="348.795" cy="136.394" rx="16.902" ry="16.903" style="stroke-width:15;stroke-linecap:round;stroke-linejoin:round;stroke-miterlimit:10;" transform="rotate(-67.251 348.811 136.393)" fill="#000" stroke="#ffffff" stroke-width="15" stroke-linecap="round" stroke-linejoin="round" stroke-miterlimit="10" data-original="#000000" opacity="1" class=""></ellipse></g></svg>