<svg xmlns="http://www.w3.org/2000/svg" version="1.1" xmlns:xlink="http://www.w3.org/1999/xlink" width="512" height="512" x="0" y="0" viewBox="0 0 74 74" style="enable-background:new 0 0 512 512" xml:space="preserve"><g><path d="M50.436 28.888h-22.8a1 1 0 0 1-.946-1.326l1.718-4.973a1 1 0 0 1 .945-.673h19.36a1 1 0 0 1 .945.672l1.723 4.973a1 1 0 0 1-.945 1.327zm-21.4-2h19.995L48 23.916H30.066z" fill="#000" opacity="1" data-original="#000000"></path><path d="M39.037 72.53a1 1 0 0 1-.486-.126c-.487-.271-11.915-6.752-11.915-17.927V27.888a1 1 0 0 1 .908-1 1.073 1.073 0 0 1 .16 0H50.37a1.07 1.07 0 0 1 .16 0 1 1 0 0 1 .908 1v26.589c0 11.175-11.429 17.656-11.916 17.927a.994.994 0 0 1-.485.126zm-10.4-43.642v25.589c0 8.756 8.284 14.548 10.4 15.884 2.116-1.336 10.4-7.128 10.4-15.884V28.888z" fill="#000" opacity="1" data-original="#000000"></path><path d="M50.438 52.812h-22.8a1 1 0 0 1-1-1v-4.586a1 1 0 0 1 1-1h22.8a1 1 0 0 1 1 1v4.586a1 1 0 0 1-1 1zm-21.8-2h20.8v-2.586h-20.8zM38.952 64.658a4.756 4.756 0 1 1 4.755-4.758 4.762 4.762 0 0 1-4.755 4.758zm0-7.511a2.756 2.756 0 1 0 2.755 2.753 2.758 2.758 0 0 0-2.755-2.753z" fill="#000" opacity="1" data-original="#000000"></path><path d="M50.438 52.812h-22.8a1 1 0 0 1-1-1v-4.586a1 1 0 0 1 1-1h22.8a1 1 0 0 1 1 1v4.586a1 1 0 0 1-1 1zm-21.8-2h20.8v-2.586h-20.8z" fill="#000" opacity="1" data-original="#000000"></path><path d="M39.037 72.53a1 1 0 0 1-.486-.126c-.487-.271-11.915-6.752-11.915-17.927V27.888a1 1 0 0 1 1-1h22.8a1 1 0 0 1 1 1v26.589c0 11.175-11.429 17.656-11.916 17.927a.994.994 0 0 1-.483.126zm-10.4-43.642v25.589c0 8.756 8.284 14.548 10.4 15.884 2.116-1.336 10.4-7.128 10.4-15.884V28.888z" fill="#000" opacity="1" data-original="#000000"></path><path d="M50.436 28.888h-22.8a1 1 0 0 1-.946-1.326l1.718-4.973a1 1 0 0 1 .945-.673h19.36a1 1 0 0 1 .945.672l1.723 4.973a1 1 0 0 1-.945 1.327zm-21.4-2h19.995L48 23.916H30.066z" fill="#000" opacity="1" data-original="#000000"></path><path d="M39.031 23.916h-9.718a1 1 0 0 1-.63-.224l-3.664-2.975a1 1 0 0 1-.37-.777V2.47a1 1 0 0 1 1.525-.851l13.382 8.264a1 1 0 0 1 .475.851v12.182a1 1 0 0 1-1 1zm-9.363-2h8.363V11.292L26.649 4.263v15.2z" fill="#000" opacity="1" data-original="#000000"></path><path d="M48.756 23.916h-9.725a1 1 0 0 1-1-1V10.734a1 1 0 0 1 .475-.851L51.9 1.619a1 1 0 0 1 1.525.851v17.47a1 1 0 0 1-.37.777l-3.668 2.975a1 1 0 0 1-.631.224zm-8.725-2H48.4l3.023-2.452V4.262l-11.393 7.03z" fill="#000" opacity="1" data-original="#000000"></path><path d="M48.756 23.916h-9.725a1 1 0 0 1-1-1V10.734a1 1 0 0 1 .475-.851L51.9 1.619a1 1 0 0 1 1.525.851v17.47a1 1 0 0 1-.37.777l-3.668 2.975a1 1 0 0 1-.631.224zm-8.725-2H48.4l3.023-2.452V4.262l-11.393 7.03z" fill="#000" opacity="1" data-original="#000000"></path></g></svg>