<svg xmlns="http://www.w3.org/2000/svg" version="1.1" xmlns:xlink="http://www.w3.org/1999/xlink" xmlns:svgjs="http://svgjs.com/svgjs" width="512" height="512" x="0" y="0" viewBox="0 0 173.397 173.397" style="enable-background:new 0 0 512 512" xml:space="preserve" fill-rule="evenodd" class=""><g><path d="m129.455 65.63-53.164 53.165a111.307 111.307 0 0 0-10.09-11.597 111.355 111.355 0 0 0-11.599-10.092l53.164-53.164a291.589 291.589 0 0 1 6.244-6.076 58.216 58.216 0 0 1 21.521 21.52 291.6 291.6 0 0 1-6.076 6.245zM73.88 121.206l-8.074 8.075a111.312 111.312 0 0 0-10.09-11.597 111.353 111.353 0 0 0-11.599-10.093l8.074-8.074a108.32 108.32 0 0 1 11.615 10.077 108.233 108.233 0 0 1 10.074 11.612zM63.395 131.69l-26.633 26.634-21.689-21.69 26.633-26.633a108.298 108.298 0 0 1 11.615 10.077 108.244 108.244 0 0 1 10.074 11.612zm53.207-96.226a160.268 160.268 0 0 1 6.663-5.76 58.211 58.211 0 0 1 11.499 8.928 58.234 58.234 0 0 1 8.928 11.5 160.134 160.134 0 0 1-5.76 6.663 61.564 61.564 0 0 0-9.336-11.995 61.547 61.547 0 0 0-11.994-9.336zm9.489-7.999c10.712-8.24 22.314-14.311 36.807-16.966-2.655 14.493-8.726 26.095-16.966 36.807a61.541 61.541 0 0 0-8.773-11.07 61.524 61.524 0 0 0-11.068-8.77zM50.162 96.756l-28.828 28.828L10.5 114.749l8.113-8.113zM99.966 46.952l-41.12 41.12-7.679-7.678 30.8-30.8zM126.445 73.431l-41.12 41.12 7.678 7.679 30.8-30.8zM76.641 123.235l-28.828 28.828 10.836 10.836 8.113-8.114z" fill="#000" data-original="#000000" opacity="1"></path></g></svg>