<svg xmlns="http://www.w3.org/2000/svg" version="1.1" xmlns:xlink="http://www.w3.org/1999/xlink" xmlns:svgjs="http://svgjs.com/svgjs" width="512" height="512" x="0" y="0" viewBox="0 0 99.578 99.578" style="enable-background:new 0 0 512 512" xml:space="preserve" class=""><g><path d="M48.199 45.317c-.672-2.817-1.922-4.717-3.357-4.717v18.844c1.436 0 2.686-1.899 3.357-4.717v4.722h34.66v-3.308H58.891a3.13 3.13 0 1 1 0-6.261H82.86v-1.063H58.004a.708.708 0 1 1 0-1.417h24.855v-7.088h-34.66v5.005zM85.104 40.128v18.957c7.996 0 14.475-4.243 14.475-9.479s-6.479-9.478-14.475-9.478zM1.064 40.667H34.73v1.418H1.064zM14.176 47.046h24.453v1.417H14.176zM15.416 50.058h16.125v1.418H15.416zM0 54.312h30.125v1.416H0z" fill="#000" data-original="#000000" opacity="1"></path></g></svg>