<svg xmlns="http://www.w3.org/2000/svg" version="1.1" xmlns:xlink="http://www.w3.org/1999/xlink" xmlns:svgjs="http://svgjs.com/svgjs" width="512" height="512" x="0" y="0" viewBox="0 0 512 512" style="enable-background:new 0 0 512 512" xml:space="preserve"><g><path fill-rule="evenodd" d="M256 0c141.385 0 256 114.615 256 256S397.385 512 256 512 0 397.385 0 256 114.615 0 256 0zM104.294 303.383a4.872 4.872 0 0 0-3.8 4.761v27.049a4.871 4.871 0 0 0 3.8 4.759l18.485 4.114a72.472 72.472 0 0 0 4.083 9.872l-10.149 15.976a4.866 4.866 0 0 0 .662 6.063l19.146 19.13a4.833 4.833 0 0 0 6.038.664l15.984-10.157a71.341 71.341 0 0 0 9.89 4.094l4.111 18.476a4.861 4.861 0 0 0 4.743 3.816h27.053a4.87 4.87 0 0 0 4.773-3.816l4.111-18.476a73.309 73.309 0 0 0 9.861-4.094l15.984 10.157a4.884 4.884 0 0 0 6.066-.664l19.118-19.13a4.866 4.866 0 0 0 .661-6.063l-10.148-15.976a69.248 69.248 0 0 0 4.082-9.872l18.486-4.114a4.9 4.9 0 0 0 3.824-4.759v-27.049a4.9 4.9 0 0 0-3.824-4.761l-18.486-4.106a68.842 68.842 0 0 0-4.082-9.878l10.148-15.973a4.866 4.866 0 0 0-.661-6.063l-19.118-19.132a4.883 4.883 0 0 0-6.066-.667l-15.984 10.165a72.2 72.2 0 0 0-9.861-4.1l-4.111-18.468a4.874 4.874 0 0 0-4.773-3.821h-27.053a4.865 4.865 0 0 0-4.743 3.821l-4.111 18.468a71.6 71.6 0 0 0-9.89 4.1l-15.984-10.16a4.839 4.839 0 0 0-6.038.667l-19.146 19.132a4.866 4.866 0 0 0-.662 6.063l10.149 15.969a72.6 72.6 0 0 0-4.083 9.878l-18.485 4.106zm86.534 68.926a50.642 50.642 0 1 0-50.656-50.639 50.692 50.692 0 0 0 50.656 50.639zm0-91.534a40.893 40.893 0 1 0 40.881 40.9 40.939 40.939 0 0 0-40.881-40.9zm209.523-78.321L385.8 184.879a4.879 4.879 0 0 0-5.98-1.233L366 190.721a62.255 62.255 0 0 0-7.3-3.87l-1.955-15.409a4.854 4.854 0 0 0-4.37-4.249l-22.712-2.13a4.847 4.847 0 0 0-5.088 3.349l-4.775 14.777a60.507 60.507 0 0 0-7.906 2.441l-12.28-9.53a4.873 4.873 0 0 0-6.094.1l-17.566 14.553a4.849 4.849 0 0 0-1.236 5.971l7.072 13.834a59.776 59.776 0 0 0-3.881 7.3l-15.409 1.931a4.848 4.848 0 0 0-4.227 4.382l-2.156 22.717a4.887 4.887 0 0 0 3.364 5.094l14.777 4.779a58.468 58.468 0 0 0 2.443 7.891l-9.544 12.273a4.933 4.933 0 0 0 .086 6.1l14.576 17.575a4.875 4.875 0 0 0 5.98 1.231l13.828-7.076a58.692 58.692 0 0 0 7.3 3.87l1.927 15.41a4.864 4.864 0 0 0 4.369 4.243l22.712 2.139c.173.011.316.023.489.023a4.9 4.9 0 0 0 4.628-3.375l4.773-14.777a61.49 61.49 0 0 0 7.877-2.439l12.276 9.531a4.873 4.873 0 0 0 6.095-.1l17.594-14.55a4.889 4.889 0 0 0 1.236-5.974l-7.072-13.834a63.841 63.841 0 0 0 3.852-7.3l15.41-1.938a4.9 4.9 0 0 0 4.255-4.381l2.127-22.718a4.85 4.85 0 0 0-3.364-5.094l-14.748-4.778a63.384 63.384 0 0 0-2.443-7.9l9.515-12.268a4.849 4.849 0 0 0-.086-6.1zm-62.7-.527a40.991 40.991 0 1 0-7.675 81.622c1.293.121 2.587.181 3.909.181a40.993 40.993 0 0 0 3.766-81.8zm27.249 43.736a31.25 31.25 0 0 0-28.174-34.027 32.392 32.392 0 0 0-2.961-.141A31.242 31.242 0 1 0 353.72 266.8a30.986 30.986 0 0 0 11.184-21.14zM157.652 143.009a4.842 4.842 0 0 0-4.226 4.382l-1.7 17.841a4.882 4.882 0 0 0 3.363 5.095l11.04 3.57c.46 1.763.977 3.5 1.61 5.212l-7.13 9.168a4.894 4.894 0 0 0 .115 6.1l11.413 13.8a4.874 4.874 0 0 0 5.98 1.231l10.35-5.29a47.311 47.311 0 0 0 4.8 2.556l1.466 11.522a4.866 4.866 0 0 0 4.37 4.241l17.824 1.682c.173.011.316.026.489.026a4.9 4.9 0 0 0 4.629-3.378l3.565-11.048a48.7 48.7 0 0 0 5.2-1.608l9.171 7.124a4.874 4.874 0 0 0 6.095-.1l13.828-11.425a4.854 4.854 0 0 0 1.208-5.98l-5.282-10.33a44.537 44.537 0 0 0 2.559-4.813l11.528-1.451a4.889 4.889 0 0 0 4.255-4.376l1.667-17.842a4.846 4.846 0 0 0-3.364-5.094l-11.039-3.576a47.58 47.58 0 0 0-1.61-5.207l7.13-9.177a4.881 4.881 0 0 0-.087-6.092l-11.442-13.808a4.887 4.887 0 0 0-5.98-1.233l-10.32 5.29a54.626 54.626 0 0 0-4.83-2.553l-1.438-11.517a4.9 4.9 0 0 0-4.4-4.246l-17.825-1.676a4.9 4.9 0 0 0-5.117 3.352l-3.565 11.048a48.7 48.7 0 0 0-5.2 1.607l-9.171-7.124a4.87 4.87 0 0 0-6.095.092l-13.8 11.431a4.889 4.889 0 0 0-1.236 5.974l5.29 10.341a45 45 0 0 0-2.559 4.818l-11.528 1.446zm53.473 47.291c.92.086 1.811.126 2.674.126a28.351 28.351 0 1 0-18.083-50.187 28.346 28.346 0 0 0 15.409 50.061zm-15.841-29.968a18.554 18.554 0 0 0 16.761 20.259 18.6 18.6 0 1 0 3.479-37.037 18.711 18.711 0 0 0-1.754-.078 18.57 18.57 0 0 0-18.486 16.856z" fill="#000" data-original="#000000" opacity="1"></path></g></svg>