<svg xmlns="http://www.w3.org/2000/svg" version="1.1" xmlns:xlink="http://www.w3.org/1999/xlink" xmlns:svgjs="http://svgjs.com/svgjs" width="512" height="512" x="0" y="0" viewBox="0 0 64 64" style="enable-background:new 0 0 512 512" xml:space="preserve"><g><path fill="#000" d="M18.5 49.5H24c.2.8.5 1.6.9 2.3L21 55.7c-1.3-1.7-2.3-3.8-2.5-6.2zm6.5-4.4c-.5.7-.8 1.4-.9 2.3h-5.5c.2-2.3 1.1-4.5 2.6-6.2zm-2.4-5.4c1.7-1.4 3.9-2.3 6.2-2.6v5.5c-.8.2-1.6.5-2.3.9zm6.2 20.1c-2.3-.2-4.5-1.1-6.2-2.6l3.9-3.9c.7.5 1.5.8 2.3.9zm-2.7-11.3c0-2.1 1.7-3.8 3.8-3.8s3.8 1.7 3.8 3.8-1.7 3.8-3.8 3.8c-2.1-.1-3.8-1.7-3.8-3.8zm7.1-4.9c-.7-.5-1.4-.8-2.3-.9v-5.5c2.3.2 4.5 1.1 6.2 2.6zm5.4-2.4c1.4 1.7 2.4 3.9 2.6 6.2h-5.5c-.2-.8-.5-1.6-.9-2.3zm-7.7 18.6v-5.5c.8-.2 1.6-.5 2.3-.9l3.9 3.9c-1.7 1.4-3.8 2.3-6.2 2.5zm7.7-4.1-3.9-3.9c.5-.7.8-1.5.9-2.3h5.5c-.1 2.4-1.1 4.5-2.5 6.2zM47 34.5c-2.9 2.2-5.5 4.1-6.9 5.1-.2-.2-.4-.5-.7-.7-2.4-2.4-5.8-3.9-9.5-3.9s-7.1 1.5-9.5 3.9c-2.4 2.4-3.9 5.8-3.9 9.5 0 1.9.4 3.7 1.1 5.4h-2.9c-2.9-.3-5.7-1.6-7.9-3.6-.4-.4-1-.4-1.4 0-.1.1-.3.2-.4.3-.7.4-1.6.6-2.4.4s-1.5-.7-2-1.4C0 48.7-.1 47.8.1 47s.7-1.5 1.5-2c.1 0 .2-.1.4-.2.5-.2.7-.7.6-1.2-1.6-6 .9-12.4 6.2-15.7 1.9-1.2 16.5-8.3 30.2-14.7L50.5 32zm8.9-3c-.1.4-.4.8-.7 1-.7.5-1.8.2-2.2-.5L40 10.7c-.2-.4-.3-.8-.2-1.2s.4-.8.7-1 .5-.2.8-.2h.4c.4.1.8.4 1 .7l13 21.2c.2.4.3.9.2 1.3zm1.6-4.9-1.1.8L45.8 10c1.1-.5 2.2-1 3.2-1.5l10.3 16.8c-.5.4-1.1.8-1.8 1.3zm5.9-1.1c-.6.4-1.4.2-1.8-.4L50 6.2c-.2-.3-.2-.6-.2-1 .1-.3.3-.6.6-.8.2-.1.4-.2.7-.2h.3c.3.1.6.3.8.6l11.5 18.9c.5.6.3 1.4-.3 1.8z" data-original="#010101" opacity="1"></path></g></svg>