<svg xmlns="http://www.w3.org/2000/svg" version="1.1" xmlns:xlink="http://www.w3.org/1999/xlink" width="512" height="512" x="0" y="0" viewBox="0 0 495.336 178.183" style="enable-background:new 0 0 512 512" xml:space="preserve"><g><path d="m247.018 67.885-.426 2.67c7.73.658 15.237 1.663 21.916 2.969.311.061.605.122.907.182a22.837 22.837 0 0 0-.577-1.539l-5.147-12.325h-16.396a33.259 33.259 0 0 1-.277 8.043zM173.783 45.566c0 .716 7.222 1.366 16.856 1.848l1.575-3.772c-10.412.488-18.431 1.169-18.431 1.924zM244.867 49.846a33.224 33.224 0 0 1 2.08 7.235h14.391c0-.125-.005-.249-.006-.374a41.4 41.4 0 0 0-1.118-9.059c2.748.377 7.54.604 15.907.604 19.285 0 50.241-1.203 50.241-2.686 0-1.484-30.957-2.686-50.241-2.686-9.679 0-14.577.303-17.056.792-2.366-6.899-6.12-11.799-8.993-11.799-2.653 0-6.059 4.181-8.428 10.257z" fill="#000" opacity="1" data-original="#000000"></path><path d="m26.67 96.009.498 17.976 107.041 35.856 23.773-.703-2.193 4.906-11.334 4.419c-2.279-3.562-6.26-5.93-10.803-5.93-7.083 0-12.826 5.742-12.826 12.826s5.742 12.826 12.826 12.826 12.826-5.742 12.826-12.826c0-.764-.079-1.509-.207-2.237l12.29-4.792a2.504 2.504 0 0 0 1.374-1.309l3.598-8.047 50.757-1.5a33.44 33.44 0 0 0 22.847 4.183l33.222-5.838c40.077-1.182 75.095-2.21 81.78-2.396 3.267-.091 9.423-.541 17.227-1.268v6.883c-5.731 1.281-10.018 6.39-10.018 12.508 0 7.083 5.742 12.826 12.826 12.826S385 168.63 385 161.546c0-6.118-4.287-11.226-10.018-12.508v-7.426c33.852-3.386 89.482-10.886 89.302-17.393l-.002-.016 31.057-2.599-.22-2.633-32.43 2.714c-9.474-8.202-58.013-18.158-58.013-18.158s-12.66-12.668-20.047-17.815c-3.637-2.534-48.976-2.144-94.072-1.095l.009.131c.266 5.623-5.929 8.053-25.493 9.997-6.678.664-14.417 1.202-22.608 1.674l-3.175 19.887a9.355 9.355 0 0 1-9.278 7.914h-25.527a9.354 9.354 0 0 1-9.279-7.914l-2.92-18.29c-29.579-.652-37.511-4.999-39.684-8.282L113.55 91.68 40.158 18.94 0 21.946l35.946 73.6zM141 165.358a7.349 7.349 0 1 1-14.698 0 7.349 7.349 0 1 1 14.698 0zm238.521-3.812a7.349 7.349 0 1 1-14.698 0 7.349 7.349 0 1 1 14.698 0zm2.393-67.804s9.165 6.137 11.188 10.816l-53.98 1.581-2.039-11.451zm-52.294 1.102 2.049 11.512-12.899.378-2.531-11.608z" fill="#000" opacity="1" data-original="#000000"></path><path d="m245.959 74.515-2.851 17.859c23.96-1.401 43.652-3.38 43.461-7.438-.182-3.848-18.195-8.536-40.61-10.421zM188.81 76.262c-19.786 2.57-33.249 6.551-33.067 10.408.188 3.984 14.884 6.73 35.896 7.312zM191.634 56.917h51.223a29.155 29.155 0 0 0-1.681-5.53l-6.564-15.718h-34.734l-6.564 15.718a29.269 29.269 0 0 0-1.68 5.53zM199.153 115.675a5.396 5.396 0 0 0 5.328 4.545h25.528a5.395 5.395 0 0 0 5.328-4.545l7.73-48.42c.373-2.337.442-4.698.247-7.035h-52.138a29.204 29.204 0 0 0 .247 7.035zm10.957-30.904a7.266 7.266 0 1 1 14.532 0 7.266 7.266 0 0 1-14.532 0zM231.612 32.147c0-.159-.006-.318-.008-.477-.039-3.987-.564-7.905-1.425-11.553 3.505.481 9.616.77 20.286.77 24.594 0 64.073-1.534 64.073-3.426s-39.479-3.426-64.073-3.426c-12.343 0-18.59.386-21.752 1.01C225.696 6.248 220.908 0 217.245 0s-8.451 6.248-11.468 15.047c-3.162-.624-9.408-1.01-21.752-1.01-24.594 0-64.073 1.534-64.073 3.426s39.479 3.426 64.073 3.426c10.67 0 16.781-.289 20.286-.77a52.765 52.765 0 0 0-1.425 11.553c-.002.159-.008.318-.008.477h28.734z" fill="#000" opacity="1" data-original="#000000"></path></g></svg>