<svg xmlns="http://www.w3.org/2000/svg" version="1.1" xmlns:xlink="http://www.w3.org/1999/xlink" xmlns:svgjs="http://svgjs.com/svgjs" width="512" height="512" x="0" y="0" viewBox="0 0 32 32" style="enable-background:new 0 0 512 512" xml:space="preserve"><g><path d="m29.759 15.349-5.4-6.302A3.002 3.002 0 0 0 22.082 8H18a2 2 0 0 0-2 2v8h-2V9c0-.371-.226-.71-.504-.868l-7-4a1.023 1.023 0 0 0-.989.017A1.01 1.01 0 0 0 5 5v6H3v-1a1 1 0 1 0-2 0v1a2 2 0 0 0 2 2h2a2 2 0 0 0 2-2V7.723l3.743 2.229-1.505 1.768c-.153.181-.238.41-.238.648V18H4a2 2 0 0 0-2 2v3a2 2 0 0 0 2 2h1c0 2.206 1.794 4 4 4s4-1.794 4-4h5c0 2.206 1.794 4 4 4s4-1.794 4-4h2a2 2 0 0 0 2-2v-6.999c0-.239-.086-.47-.241-.652zM9 27c-1.103 0-2-.897-2-2 0-1.009.86-2 2-2 1.135 0 2 .987 2 2 0 1.103-.897 2-2 2zm13 0c-1.103 0-2-.897-2-2 0-1.009.86-2 2-2 1.135 0 2 .987 2 2 0 1.103-.897 2-2 2zm4.569-11H19v-4.5a.5.5 0 0 1 .5-.5h3.26c.152 0 .295.069.39.188l3.581 4.476a.207.207 0 0 1-.162.336z" fill="#000" data-original="#000000" opacity="1"></path></g></svg>