<svg xmlns="http://www.w3.org/2000/svg" version="1.1" xmlns:xlink="http://www.w3.org/1999/xlink" xmlns:svgjs="http://svgjs.com/svgjs" width="512" height="512" x="0" y="0" viewBox="0 0 512 512" style="enable-background:new 0 0 512 512" xml:space="preserve" class=""><g><path d="M112.888 429.278c-20.681 0-37.506-16.824-37.506-37.505s16.825-37.505 37.506-37.505h143.535c37.223 0 67.506-30.283 67.506-67.506s-30.283-67.505-67.506-67.505H155.197v30h101.226c20.681 0 37.506 16.825 37.506 37.506s-16.825 37.505-37.506 37.505H112.888c-37.223 0-67.506 30.283-67.506 67.505 0 37.222 30.283 67.505 67.506 67.505h243.915v-30H112.888zM138.971 76.566c-31.792-31.792-83.336-31.792-115.127 0-31.792 31.792-31.792 83.336 0 115.127l57.564 57.564 57.563-57.564c31.792-31.792 31.792-83.336 0-115.127zm-58.045 82.196c-13.969 0-25.293-11.324-25.293-25.293s11.324-25.294 25.293-25.294 25.294 11.324 25.294 25.294c0 13.969-11.324 25.293-25.294 25.293zM488.156 286.587c-31.792-31.792-83.336-31.792-115.127 0-31.792 31.792-31.792 83.336 0 115.127l57.564 57.564 57.564-57.564c31.791-31.791 31.791-83.335-.001-115.127zm-58.045 82.197c-13.969 0-25.293-11.324-25.293-25.293s11.324-25.294 25.293-25.294 25.294 11.324 25.294 25.294c0 13.969-11.324 25.293-25.294 25.293z" fill="#000" data-original="#000000" opacity="1"></path></g></svg>