<svg xmlns="http://www.w3.org/2000/svg" version="1.1" xmlns:xlink="http://www.w3.org/1999/xlink" xmlns:svgjs="http://svgjs.com/svgjs" width="512" height="512" x="0" y="0" viewBox="0 0 60 60" style="enable-background:new 0 0 512 512" xml:space="preserve"><g><path d="M13 41.452V36h-1.353l-8.1 18h3.807zM6 30h20a1 1 0 0 0 1-1V15a1 1 0 0 0-1-1H3a1 1 0 0 0-1 1v11a4 4 0 0 0 4 4zm6-12a2 2 0 0 1 2-2h9a2 2 0 0 1 2 2v2a2 2 0 0 1-2 2h-9a2 2 0 0 1-2-2zm-5-2a3 3 0 1 1-3 3 3 3 0 0 1 3-3z" fill="#000" data-original="#000000" opacity="1"></path><circle cx="7" cy="19" r="1" fill="#000" data-original="#000000" opacity="1"></circle><path d="M24 11a1 1 0 0 0-1-1H12a1 1 0 0 0-1 1v1h13zM14 18h9v2h-9zM30.453 54l-8.1-18H21v5.452L26.646 54zM22 7a1 1 0 0 0-1-1h-3a1 1 0 0 0-1 1v1h5zM14 56h6.001v2H14zM26 56h6v2h-6zM2 56h6.001v2H2zM48 26h10v-8H48a1 1 0 0 0-1 1v6a1 1 0 0 0 1 1zm5-5a1 1 0 0 1 2 0v2a1 1 0 0 1-2 0zm-4 0a1 1 0 0 1 2 0v2a1 1 0 0 1-2 0zM29 23h16v2H29zM24 33v-1H10v1a1 1 0 0 0 1 1h12a1 1 0 0 0 1-1zM15 36h4v18h-4zM29 19h16v2H29zM3 12h2V2a2 2 0 0 0-2 2z" fill="#000" data-original="#000000" opacity="1"></path></g></svg>