<svg xmlns="http://www.w3.org/2000/svg" version="1.1" xmlns:xlink="http://www.w3.org/1999/xlink" xmlns:svgjs="http://svgjs.com/svgjs" width="512" height="512" x="0" y="0" viewBox="0 0 512 512" style="enable-background:new 0 0 512 512" xml:space="preserve" class=""><g><path d="M487.9 114.7c-2.4-12-13.1-20.4-25.3-20.1C358.9 98 275.2 8.9 274.4 8.1 269.7 3 263 .1 256 .1c-7 0-13.6 2.9-18.3 8-.9.8-84.7 89.9-188.3 86.6-12.2-.4-22.9 8.1-25.3 20.1-.5 2.6-12.4 64 9.1 143.3 12.6 46.6 34.3 90.2 63.7 128.5 36.8 48 86.3 89.3 147.1 122.5 7.5 4.1 16.5 4.1 23.9 0 60.9-33.2 110.4-74.4 147.1-122.5 29.4-38.3 51.1-81.9 63.7-128.5 21.6-79.4 9.7-140.8 9.2-143.4zM430.6 245C406.7 333.4 348 405.1 256 458.4c-91.1-52.9-149.6-123.9-174-211.2-9.4-33.5-13.1-68.3-11.1-103 85.3-5.8 153.7-56.8 185-84.6 31.3 27.8 99.8 78.9 185.1 84.6 2.1 33.9-1.4 68-10.4 100.8z" fill="#000" data-original="#000000" opacity="1"></path><path d="M345.6 157.3c-9.8-9.7-25.6-9.7-35.3 0L256 211.6l-54.3-54.3c-9.3-10.2-25.1-11-35.3-1.7s-11 25.1-1.7 35.3c.5.6 1.1 1.2 1.7 1.7l54.3 54.4-54.3 54.3c-10.1 9.4-10.7 25.2-1.3 35.3s25.2 10.7 35.3 1.3c.5-.4.9-.9 1.3-1.3l54.3-54.3 54.3 54.3c9.4 10.1 25.2 10.7 35.3 1.3s10.7-25.2 1.3-35.3c-.4-.5-.9-.9-1.3-1.3L291.4 247l54.3-54.3c9.8-9.8 9.7-25.6-.1-35.4.1 0 .1 0 0 0z" fill="#000" data-original="#000000" opacity="1"></path></g></svg>