<svg xmlns="http://www.w3.org/2000/svg" version="1.1" xmlns:xlink="http://www.w3.org/1999/xlink" xmlns:svgjs="http://svgjs.com/svgjs" width="512" height="512" x="0" y="0" viewBox="0 0 512 512" style="enable-background:new 0 0 512 512" xml:space="preserve" class=""><g><path d="M206.771 172.004 55.906 108.666a15 15 0 0 0-16.417 3.221L18.275 133.1c-5.863 5.863-5.863 15.351 0 21.213l111.248 111.248 77.248-93.557zM347.08 29.997c36.098-.01 69.999 14.004 95.459 39.464s39.474 59.362 39.464 95.459c0 8.287 6.712 14.998 14.998 14.998s14.998-6.712 14.998-14.998c.01-44.115-17.122-85.547-48.248-116.673S391.195-.01 347.08 0c-8.286 0-14.998 6.712-14.998 14.998s6.711 14.999 14.998 14.999z" fill="#000" data-original="#000000" opacity="1"></path><path d="M347.08 59.973c-8.286 0-15.009 6.722-14.998 14.998 0 8.286 6.712 14.998 14.998 14.998 40.127-.021 74.971 34.824 74.951 74.951 0 8.287 6.712 14.998 14.998 14.998 8.276.01 14.998-6.712 14.998-14.998.021-56.119-48.828-104.968-104.947-104.947zM403.334 456.094l-63.339-150.872-93.557 77.254 111.249 111.249c5.863 5.863 15.351 5.863 21.213 0l21.213-21.213a15.002 15.002 0 0 0 3.221-16.418z" fill="#000" data-original="#000000" opacity="1"></path><path d="m198.122 447.869-21.928-43.887L346.5 260.96c36.222-28.971 50.692-77.996 36.025-121.997a15.017 15.017 0 0 0-9.488-9.488c-44.001-14.667-93.025-.197-121.841 35.849L108.018 335.805l-43.887-21.928a14.983 14.983 0 0 0-17.308 2.807L4.397 359.111a15.018 15.018 0 0 0-4.205 13.01c.766 4.744 3.77 8.825 8.11 11.011L88.68 423.32l40.189 80.378c2.036 4.129 6.067 7.297 11.011 8.11a15.023 15.023 0 0 0 13.01-4.205l42.426-42.426a14.984 14.984 0 0 0 2.806-17.308z" fill="#000" data-original="#000000" opacity="1"></path></g></svg>