<svg xmlns="http://www.w3.org/2000/svg" version="1.1" xmlns:xlink="http://www.w3.org/1999/xlink" xmlns:svgjs="http://svgjs.com/svgjs" width="512" height="512" x="0" y="0" viewBox="0 0 60 60" style="enable-background:new 0 0 512 512" xml:space="preserve" class=""><g><path d="M57.71 0h-7.29a2.3 2.3 0 0 0-1.655.713L17.408 33.82l-4.071-4.071a2.342 2.342 0 0 0-3.861.915L8.9 32.4a3.051 3.051 0 0 0 .737 3.141l4.224 4.214a126.885 126.885 0 0 0-8.673 10.11l-.851-.853a2.163 2.163 0 0 0-3.392.409 7 7 0 0 0 1.145 8.497A7.118 7.118 0 0 0 7.105 60a6.828 6.828 0 0 0 3.476-.945h.006a2.123 2.123 0 0 0 1.02-1.571 2.175 2.175 0 0 0-.627-1.815l-.851-.853a126.681 126.681 0 0 0 10.115-8.677l4.218 4.219a3.105 3.105 0 0 0 2.185.9 3 3 0 0 0 .953-.158l1.728-.577a2.339 2.339 0 0 0 .917-3.864l-4.06-4.059 33.108-31.37A2.3 2.3 0 0 0 60 9.58V2.29A2.292 2.292 0 0 0 57.71 0zM9.561 57.337A5.007 5.007 0 0 1 3.5 56.5a4.991 4.991 0 0 1-.838-6.056.147.147 0 0 1 .112-.073H2.8a.171.171 0 0 1 .124.054l6.64 6.655a.186.186 0 0 1 .059.157.127.127 0 0 1-.062.1zm-2.947-6.043a124.513 124.513 0 0 1 7.655-9.055v.579a2.919 2.919 0 0 0 2.917 2.916h.572c-1.9 1.77-5.169 4.687-9.054 7.654zm22.3-2.908a.331.331 0 0 1-.224.245l-1.725.575a1.082 1.082 0 0 1-1.093-.264l-4.914-4.915a1 1 0 0 0-.707-.293h-3.065a.917.917 0 0 1-.917-.916v-3.069a1 1 0 0 0-.294-.708l-4.925-4.913a1.077 1.077 0 0 1-.252-1.095l.573-1.731a.329.329 0 0 1 .242-.217.4.4 0 0 1 .086-.01.32.32 0 0 1 .23.094l16.9 16.9a.331.331 0 0 1 .088.317zM58 9.58a.3.3 0 0 1-.088.2l-33.141 31.4-2.27-2.27 28.876-28.873a1 1 0 0 0-1.414-1.414L21.087 37.5l-2.265-2.265L50.211 2.094A.3.3 0 0 1 50.42 2h7.29a.294.294 0 0 1 .29.29z" fill="#000" data-original="#000000" opacity="1"></path></g></svg>